<?xml version="1.0" encoding="utf-8"?>
<!-- Generator: Adobe Illustrator 18.1.0, SVG Export Plug-In . SVG Version: 6.00 Build 0)  -->
<!DOCTYPE svg PUBLIC "-//W3C//DTD SVG 1.1//EN" "http://www.w3.org/Graphics/SVG/1.1/DTD/svg11.dtd">
<svg version="1.1" id="Layer_1" xmlns="http://www.w3.org/2000/svg" xmlns:xlink="http://www.w3.org/1999/xlink" x="0px" y="0px"
	 viewBox="0 0 138 204" enable-background="new 0 0 138 204" xml:space="preserve">
<rect x="9.6" y="10.5" fill="#BFDEDB" width="119.4" height="178.8"/>
<g>
	<g>
		<path fill="#FFFFFF" d="M30.3,126.7c4.2-38.1,15-75.8,42.1-104.2c-1.3,0-2.5,0-3.8,0c1.1,4.4,0.7,9.5,0.8,14
			c0.3,9.9,0.5,19.8,0.8,29.7c0.7,25.5,1.4,51.1,3.1,76.5c0.8,12.5,1.8,25,3.6,37.4c0.3,1.7,4.4,0.7,4.2-1.1
			c-3.6-24-4.5-48.4-5.4-72.6c-0.9-22.9-1.3-45.9-2-68.8c-0.2-5.2,0.4-11.2-0.9-16.3c-0.4-1.6-3.1-0.7-3.8,0
			C41.5,50.3,30.4,88.4,26.1,127.1C25.9,129.1,30.1,128.4,30.3,126.7L30.3,126.7z"/>
	</g>
</g>
<g>
	<g>
		<path fill="#FFFFFF" d="M26.3,103C48,90.2,74.8,76.8,100.8,80.7c3.1,0.5,7.2,1.4,9.3,4c2.8,3.4,2,8.3,0.1,11.9
			c-3.2,6-10.2,9.7-15.9,12.8c-5.3,3-10.7,5.6-15.9,8.6c-5.1,3-10.8,5.9-15.2,10c-1.8,1.7,2.3,2,3.4,0.9c6.1-5.7,15-9.8,22.3-13.7
			c6.7-3.6,13.9-7,19.7-12c8.8-7.5,10.9-21-2.4-24.6c-13.3-3.6-29.5,0-42.3,3.9c-14.3,4.4-27.6,11.4-40.4,19
			C21.2,102.9,24.8,103.9,26.3,103L26.3,103z"/>
	</g>
</g>
<g>
	<g>
		
			<line fill="none" stroke="#026A92" stroke-width="1.44" stroke-linecap="round" stroke-linejoin="round" stroke-miterlimit="10" x1="4.3" y1="194.1" x2="4.3" y2="180.9"/>
		
			<line fill="none" stroke="#026A92" stroke-width="1.44" stroke-linecap="round" stroke-linejoin="round" stroke-miterlimit="10" x1="4.7" y1="194.4" x2="18" y2="194.4"/>
	</g>
	<g>
		
			<line fill="none" stroke="#026A92" stroke-width="1.44" stroke-linecap="round" stroke-linejoin="round" stroke-miterlimit="10" x1="4.6" y1="5.3" x2="17.9" y2="5.3"/>
		
			<line fill="none" stroke="#026A92" stroke-width="1.44" stroke-linecap="round" stroke-linejoin="round" stroke-miterlimit="10" x1="4.4" y1="5.7" x2="4.4" y2="19"/>
	</g>
	<g>
		
			<line fill="none" stroke="#026A92" stroke-width="1.44" stroke-linecap="round" stroke-linejoin="round" stroke-miterlimit="10" x1="133.8" y1="5.6" x2="133.8" y2="18.8"/>
		
			<line fill="none" stroke="#026A92" stroke-width="1.44" stroke-linecap="round" stroke-linejoin="round" stroke-miterlimit="10" x1="133.4" y1="5.3" x2="120.1" y2="5.3"/>
	</g>
	<g>
		
			<line fill="none" stroke="#026A92" stroke-width="1.44" stroke-linecap="round" stroke-linejoin="round" stroke-miterlimit="10" x1="133.4" y1="194.5" x2="120.2" y2="194.5"/>
		
			<line fill="none" stroke="#026A92" stroke-width="1.44" stroke-linecap="round" stroke-linejoin="round" stroke-miterlimit="10" x1="133.7" y1="194.1" x2="133.7" y2="180.8"/>
	</g>
</g>
</svg>
