<?xml version="1.0" encoding="utf-8"?>
<!-- Generator: Adobe Illustrator 18.1.0, SVG Export Plug-In . SVG Version: 6.00 Build 0)  -->
<!DOCTYPE svg PUBLIC "-//W3C//DTD SVG 1.1//EN" "http://www.w3.org/Graphics/SVG/1.1/DTD/svg11.dtd">
<svg version="1.1" id="Layer_1" xmlns="http://www.w3.org/2000/svg" xmlns:xlink="http://www.w3.org/1999/xlink" x="0px" y="0px"
	 viewBox="0 0 123.5 192.5" enable-background="new 0 0 123.5 192.5" xml:space="preserve">
<rect x="11.2" y="12.3" fill="#9FD9D8" width="99.6" height="167.5"/>
<g>
	<g>
		
			<line fill="none" stroke="#9FD9D8" stroke-width="2.16" stroke-linecap="round" stroke-linejoin="round" stroke-miterlimit="10" x1="118.4" y1="5.1" x2="118.4" y2="17.9"/>
		
			<line fill="none" stroke="#9FD9D8" stroke-width="2.16" stroke-linecap="round" stroke-linejoin="round" stroke-miterlimit="10" x1="118" y1="4.9" x2="106.3" y2="4.9"/>
	</g>
	<g>
		
			<line fill="none" stroke="#9FD9D8" stroke-width="2.16" stroke-linecap="round" stroke-linejoin="round" stroke-miterlimit="10" x1="118" y1="186.9" x2="106.4" y2="186.9"/>
		
			<line fill="none" stroke="#9FD9D8" stroke-width="2.16" stroke-linecap="round" stroke-linejoin="round" stroke-miterlimit="10" x1="118.3" y1="186.5" x2="118.3" y2="173.7"/>
	</g>
	<g>
		
			<line fill="none" stroke="#9FD9D8" stroke-width="2.16" stroke-linecap="round" stroke-linejoin="round" stroke-miterlimit="10" x1="4.3" y1="186.6" x2="4.3" y2="173.9"/>
		
			<line fill="none" stroke="#9FD9D8" stroke-width="2.16" stroke-linecap="round" stroke-linejoin="round" stroke-miterlimit="10" x1="4.7" y1="186.9" x2="16.4" y2="186.9"/>
	</g>
	<g>
		
			<line fill="none" stroke="#9FD9D8" stroke-width="2.16" stroke-linecap="round" stroke-linejoin="round" stroke-miterlimit="10" x1="4.6" y1="4.8" x2="16.3" y2="4.8"/>
		
			<line fill="none" stroke="#9FD9D8" stroke-width="2.16" stroke-linecap="round" stroke-linejoin="round" stroke-miterlimit="10" x1="4.4" y1="5.2" x2="4.4" y2="18"/>
	</g>
</g>
<g>
	<g>
		<path fill="#FFFFFF" d="M29.9,118.6c3.5-31.6,12.4-62.8,34.8-86.4c-1.9,0-3.8,0-5.7,0.1c0.9,3.7,0.5,7.9,0.7,11.6
			c0.3,8.3,0.4,16.6,0.6,24.9c0.5,21.1,1.2,42.3,2.5,63.4c0.7,10.5,1.5,21.1,3.1,31.5c0.4,2.6,6.7,1.1,6.3-1.7
			c-5.7-38.7-5-78.5-6.2-117.6c-0.1-4.4,0.3-9.5-0.7-13.9c-0.6-2.3-4.6-1.1-5.7,0.1c-23,24.2-32.4,56-36,88.5
			C23.2,122.1,29.6,121.1,29.9,118.6L29.9,118.6z"/>
	</g>
</g>
<g>
	<g>
		<path fill="#FFFFFF" d="M26,99.5C43.7,89,65.7,77.9,86.9,81.2c6.2,1,10.2,5.7,7,12c-2.6,5.1-8.6,8.2-13.4,10.8
			c-8.5,4.7-18.4,8.8-25.7,15.5c-2.8,2.5,3.4,2.9,5.1,1.4c5.2-4.8,12.7-8.2,18.9-11.5c5.6-2.9,11.4-5.9,16.2-10
			c7.7-6.6,9.3-18.5-2.3-21.6c-11.4-3.1-25.2-0.1-36.2,3.3C44.3,84.8,32.9,90.7,22,97.2C18.4,99.3,23.7,100.8,26,99.5L26,99.5z"/>
	</g>
</g>
</svg>
