<?xml version="1.0" encoding="utf-8"?>
<!-- Generator: Adobe Illustrator 18.1.0, SVG Export Plug-In . SVG Version: 6.00 Build 0)  -->
<!DOCTYPE svg PUBLIC "-//W3C//DTD SVG 1.1//EN" "http://www.w3.org/Graphics/SVG/1.1/DTD/svg11.dtd">
<svg version="1.1" id="Layer_1" xmlns="http://www.w3.org/2000/svg" xmlns:xlink="http://www.w3.org/1999/xlink" x="0px" y="0px"
	 viewBox="0 0 432 432" enable-background="new 0 0 432 432" xml:space="preserve">
<g>
	<path fill="#686562" d="M294,161.6c0-42-34-76-76-76s-76,34-76,76c0,15.1,4.4,29.1,12,41c-1.6-7.4-0.3-18.4,0.6-23.3
		c4.7-25.5,26.8-43.9,50.4-51.6c4.9-1.6,9.9-2.7,15-3.3c2-0.3,3.9-0.5,5.9-0.6c15.4-1,35.6,1.7,49.4,9c-5.4,0.5-12.8,3.7-17.2,6.5
		c-9.8,6.3-16.1,16.5-16.5,28.2c-0.1,4.1,0.5,8,1.6,11.8c1.9,4.9,4.1,10,5.9,15.2c0.9,2.1,1.8,4.2,2.6,6.3
		c1.7,4.7,5.5,19.9,2.7,27.6C277.9,215.5,294,190.5,294,161.6z"/>
	<path fill="#686562" d="M154.9,179.4c5.6-30.3,35.8-50.9,65.1-55.1c-5.1,0.6-10.1,1.7-15,3.3c-23.7,7.8-45.7,26.2-50.4,51.6
		c-0.9,4.9-2.2,16-0.6,23.3c0.1,0.2,0.3,0.4,0.4,0.6C152.6,195.8,154,184.4,154.9,179.4z"/>
	<path fill="#F18E3B" d="M245.4,141.6c-6.4,2.2-34.2,12.8-41,27.9c-3,6.7-1.5,15.6,4.8,20c4.9,3.4,11.6,2.5,16-1.3
		c2.8-2.4,3.9-5.9,4.3-9.6c0.3-2.5,0.3-5,0.3-7.3c-0.1-8.5,2.3-15.4,7.6-22C239.6,146.5,241.9,143.1,245.4,141.6z"/>
	<path fill="#F18E3B" d="M200.1,199.4c-10.7-17.9-6.1-37.1,11.6-49.1c8.4-5.7,18.1-9.3,27.8-12.5c-17.3,1.3-34.7,8.3-45,21.6
		c-5.7,7.4-8.8,16.7-8.6,25.9c0.2,9,5.8,16.3,9.6,24c4.2,8.7,5.6,18.3,1.6,27.4c1,0.3,9,2.2,9,1.9c0.4-2.7,0.8-5.4,0.9-8.1
		C207.7,219.6,205.8,209,200.1,199.4z"/>
	<g>
		<path fill="#686562" d="M43.4,269.7c0-1.7,0.3-3.4,0.9-5.1c0.6-1.7,1.5-3.2,2.6-4.5c1.1-1.3,2.6-2.4,4.2-3.3
			c1.7-0.8,3.6-1.3,5.7-1.3c2.5,0,4.7,0.6,6.5,1.7c1.8,1.1,3.1,2.6,4,4.5l-2.2,1.4c-0.5-0.9-1-1.7-1.6-2.4c-0.6-0.6-1.3-1.2-2.1-1.6
			c-0.7-0.4-1.5-0.7-2.3-0.9c-0.8-0.2-1.6-0.3-2.4-0.3c-1.7,0-3.2,0.3-4.5,1c-1.3,0.7-2.4,1.6-3.3,2.7c-0.9,1.1-1.6,2.4-2,3.8
			c-0.5,1.4-0.7,2.8-0.7,4.3c0,1.6,0.3,3.1,0.8,4.5c0.5,1.4,1.3,2.7,2.2,3.8c0.9,1.1,2.1,2,3.4,2.6c1.3,0.7,2.7,1,4.2,1
			c0.8,0,1.6-0.1,2.5-0.3s1.7-0.5,2.4-1c0.8-0.4,1.5-1,2.2-1.6c0.7-0.7,1.2-1.4,1.7-2.4l2.3,1.2c-0.5,1.1-1.1,2-1.9,2.8
			c-0.8,0.8-1.8,1.5-2.8,2.1c-1,0.6-2.1,1-3.2,1.3c-1.1,0.3-2.3,0.4-3.3,0.4c-2,0-3.7-0.4-5.4-1.3c-1.6-0.9-3-2-4.2-3.3
			c-1.2-1.4-2.1-2.9-2.7-4.7C43.8,273.3,43.4,271.5,43.4,269.7z"/>
		<path fill="#686562" d="M93,281.7v2.5H73.8v-28.5h18.8v2.5h-16v10.3h13.9v2.4H76.6v10.9H93z"/>
		<path fill="#686562" d="M101.5,260.9v23.2h-2.8v-28.5h2.2l18.8,23.7v-23.6h2.8v28.4h-2.4L101.5,260.9z"/>
		<path fill="#686562" d="M150.8,258.2h-10.1v26h-2.8v-26h-10.1v-2.5h23.1V258.2z"/>
		<path fill="#686562" d="M156,284.2v-28.5h12c1.2,0,2.4,0.3,3.4,0.8c1,0.5,1.9,1.2,2.7,2c0.7,0.8,1.3,1.8,1.7,2.9
			c0.4,1.1,0.6,2.2,0.6,3.2c0,1-0.2,2-0.5,3c-0.3,0.9-0.7,1.8-1.3,2.6c-0.6,0.8-1.2,1.4-2,1.9c-0.8,0.5-1.6,0.9-2.6,1.1l7,11h-3.2
			l-6.7-10.5h-8.4v10.5H156z M158.8,271.2h9.3c0.8,0,1.6-0.2,2.3-0.5c0.7-0.4,1.3-0.8,1.7-1.5c0.5-0.6,0.9-1.3,1.1-2.1
			c0.3-0.8,0.4-1.6,0.4-2.4c0-0.9-0.2-1.7-0.5-2.5c-0.3-0.8-0.7-1.5-1.2-2.1c-0.5-0.6-1.1-1.1-1.8-1.4c-0.7-0.3-1.4-0.5-2.2-0.5
			h-9.1V271.2z"/>
		<path fill="#686562" d="M181.4,284.2l11.9-28.5h2.3l11.9,28.5h-3l-3.7-8.9H188l-3.6,8.9H181.4z M194.5,259l-5.9,14.1h11.5
			L194.5,259z"/>
		<path fill="#686562" d="M212.6,284.2v-28.5h2.8v26h16.5v2.5H212.6z"/>
		<path fill="#686562" d="M249.9,284.2v-28.5h11.8c1.2,0,2.4,0.3,3.4,0.8c1,0.5,1.9,1.2,2.7,2c0.7,0.8,1.3,1.8,1.7,2.9
			c0.4,1.1,0.6,2.2,0.6,3.2c0,1.2-0.2,2.3-0.6,3.4c-0.4,1.1-0.9,2-1.7,2.9c-0.7,0.8-1.6,1.5-2.6,2c-1,0.5-2.1,0.8-3.3,0.8h-9.3v10.5
			H249.9z M252.7,271.2h9.1c0.8,0,1.6-0.2,2.3-0.5c0.7-0.4,1.3-0.8,1.7-1.4c0.5-0.6,0.9-1.3,1.1-2.1c0.3-0.8,0.4-1.6,0.4-2.5
			c0-0.9-0.2-1.7-0.5-2.5c-0.3-0.8-0.7-1.5-1.2-2.1c-0.5-0.6-1.1-1-1.8-1.4c-0.7-0.3-1.4-0.5-2.2-0.5h-8.9V271.2z"/>
		<path fill="#686562" d="M275.7,284.2v-28.5h2.8v26h16.5v2.5H275.7z"/>
		<path fill="#686562" d="M298.8,284.2l11.9-28.5h2.3l11.9,28.5h-3l-3.7-8.9h-12.8l-3.6,8.9H298.8z M311.8,259l-5.9,14.1h11.5
			L311.8,259z"/>
		<path fill="#686562" d="M330,284.2v-28.4h2.8v28.4H330z"/>
		<path fill="#686562" d="M343,260.9v23.2h-2.8v-28.5h2.2l18.8,23.7v-23.6h2.8v28.4h-2.4L343,260.9z"/>
		<path fill="#686562" d="M388.3,261c-0.8-0.9-1.9-1.6-3.2-2.2c-1.4-0.6-2.9-0.8-4.5-0.8c-2.5,0-4.4,0.5-5.5,1.4
			c-1.1,0.9-1.7,2.2-1.7,3.9c0,0.9,0.2,1.6,0.5,2.1c0.3,0.5,0.8,1,1.4,1.4c0.7,0.4,1.5,0.7,2.5,1c1,0.3,2.2,0.6,3.5,0.9
			c1.5,0.3,2.9,0.7,4.1,1.1c1.2,0.4,2.2,0.9,3.1,1.5c0.9,0.6,1.5,1.3,2,2.2c0.5,0.9,0.7,1.9,0.7,3.2c0,1.3-0.3,2.4-0.8,3.4
			c-0.5,1-1.2,1.8-2.1,2.4c-0.9,0.6-2,1.1-3.2,1.4c-1.3,0.3-2.6,0.5-4.1,0.5c-4.5,0-8.3-1.4-11.4-4.1l1.4-2.3c1,1.1,2.4,2,4.2,2.8
			c1.8,0.8,3.7,1.1,5.9,1.1c2.3,0,4-0.4,5.3-1.2c1.3-0.8,1.9-2.1,1.9-3.7c0-0.9-0.2-1.6-0.5-2.2c-0.4-0.6-0.9-1.1-1.6-1.6
			c-0.7-0.4-1.6-0.8-2.7-1.1c-1.1-0.3-2.3-0.6-3.7-1c-1.5-0.3-2.8-0.7-3.9-1.1c-1.1-0.4-2.1-0.8-2.8-1.4c-0.8-0.6-1.3-1.2-1.7-2
			c-0.4-0.8-0.6-1.8-0.6-2.9c0-1.3,0.2-2.5,0.7-3.5c0.5-1,1.2-1.9,2.1-2.6c0.9-0.7,2-1.2,3.2-1.6c1.2-0.4,2.6-0.5,4.1-0.5
			c1.9,0,3.5,0.3,5,0.9c1.5,0.6,2.8,1.4,4,2.4L388.3,261z"/>
	</g>
	<g>
		<path fill="#F18E3B" d="M71.3,311.3c-0.4-0.5-1-1-1.9-1.5c-0.8-0.5-1.8-1-2.8-1.5c-1.1-0.5-2.3-0.9-3.6-1.1
			c-1.3-0.3-2.7-0.4-4.2-0.4c-2.8,0-4.9,0.6-6.4,1.7c-1.4,1.1-2.2,2.7-2.2,4.7c0,1.1,0.2,2,0.7,2.7c0.5,0.7,1.2,1.3,2.1,1.8
			c0.9,0.5,2.1,1,3.5,1.4c1.4,0.4,3,0.8,4.9,1.3c2.2,0.6,4.2,1.2,6.1,1.9c1.9,0.6,3.4,1.4,4.7,2.4c1.3,1,2.3,2.1,3,3.5
			c0.7,1.4,1.1,3.2,1.1,5.2c0,2.4-0.4,4.4-1.3,6.1c-0.9,1.7-2.1,3-3.6,4.1c-1.5,1-3.3,1.8-5.3,2.3c-2,0.5-4.1,0.7-6.4,0.7
			c-3.4,0-6.8-0.5-10-1.6c-3.2-1-6.1-2.6-8.7-4.6l3.3-6.1c0.6,0.6,1.3,1.2,2.4,1.9c1,0.7,2.2,1.3,3.6,1.9c1.4,0.6,2.9,1.1,4.6,1.5
			c1.7,0.4,3.4,0.6,5.2,0.6c2.7,0,4.8-0.5,6.4-1.5c1.5-1,2.3-2.5,2.3-4.4c0-1.1-0.3-2.1-0.8-2.9c-0.6-0.8-1.4-1.4-2.4-2
			c-1.1-0.6-2.4-1.1-3.9-1.5c-1.5-0.4-3.3-0.9-5.2-1.4c-2.3-0.6-4.2-1.2-5.9-1.9c-1.7-0.7-3.1-1.5-4.2-2.4c-1.1-0.9-1.9-2-2.5-3.3
			c-0.6-1.3-0.9-2.8-0.9-4.6c0-2.2,0.4-4.2,1.2-5.9c0.8-1.7,2-3.2,3.4-4.3c1.5-1.2,3.2-2.1,5.2-2.6c2-0.6,4.1-0.9,6.4-0.9
			c3.1,0,6,0.5,8.6,1.5c2.6,1,4.8,2.2,6.8,3.6L71.3,311.3z"/>
		<path fill="#F18E3B" d="M100.7,346.3c-3.2,0-6.1-0.6-8.7-1.9c-2.6-1.3-4.9-3-6.8-5.2c-1.9-2.1-3.4-4.6-4.4-7.4
			c-1-2.8-1.5-5.6-1.5-8.5c0-3,0.5-5.9,1.6-8.7c1.1-2.8,2.6-5.2,4.5-7.3c1.9-2.1,4.2-3.8,6.8-5.1c2.6-1.3,5.5-1.9,8.6-1.9
			c3.2,0,6.1,0.7,8.7,2c2.6,1.3,4.9,3.1,6.7,5.3c1.9,2.2,3.3,4.6,4.3,7.4c1,2.7,1.5,5.5,1.5,8.4c0,3-0.5,5.9-1.6,8.7
			c-1.1,2.8-2.6,5.2-4.5,7.3c-1.9,2.1-4.2,3.8-6.8,5C106.7,345.6,103.8,346.3,100.7,346.3z M86.6,323.3c0,2.1,0.3,4.2,1,6.2
			c0.7,2,1.6,3.8,2.8,5.3c1.2,1.5,2.7,2.8,4.5,3.7c1.7,0.9,3.7,1.4,5.9,1.4c2.2,0,4.2-0.5,6-1.4c1.8-1,3.3-2.2,4.5-3.8
			c1.2-1.6,2.1-3.3,2.8-5.3c0.6-2,1-4,1-6c0-2.2-0.3-4.2-1-6.2c-0.7-2-1.6-3.7-2.9-5.2c-1.2-1.5-2.7-2.7-4.5-3.6
			c-1.7-0.9-3.7-1.4-5.8-1.4c-2.2,0-4.2,0.5-6,1.4c-1.8,1-3.3,2.2-4.5,3.7c-1.2,1.5-2.1,3.3-2.8,5.3
			C86.9,319.2,86.6,321.2,86.6,323.3z"/>
		<path fill="#F18E3B" d="M127.2,345.9v-45.3h7.1v39h24.3v6.3H127.2z"/>
		<path fill="#F18E3B" d="M180,339.8c2.4,0,4.4-0.5,5.9-1.4c1.6-0.9,2.8-2.2,3.8-3.7c1-1.5,1.6-3.2,2-5.2c0.4-1.9,0.6-3.9,0.6-6v-23
			h7.2v23c0,3.1-0.4,6-1.1,8.8c-0.7,2.7-1.9,5.1-3.4,7.2c-1.6,2.1-3.6,3.7-6.1,4.9c-2.5,1.2-5.5,1.8-9,1.8c-3.6,0-6.7-0.6-9.2-1.9
			c-2.5-1.3-4.5-2.9-6-5c-1.5-2.1-2.6-4.5-3.3-7.2c-0.7-2.7-1-5.6-1-8.5v-23h7.2v23c0,2.1,0.2,4.1,0.6,6c0.4,1.9,1.1,3.7,2,5.2
			c1,1.5,2.2,2.7,3.8,3.6C175.7,339.4,177.6,339.8,180,339.8z"/>
		<path fill="#F18E3B" d="M242.7,306.9h-15.1v39h-7.1v-39h-15.1v-6.3h37.3V306.9z"/>
		<path fill="#F18E3B" d="M248.9,345.9v-45.3h7.1v45.3H248.9z"/>
		<path fill="#F18E3B" d="M283.8,346.3c-3.2,0-6.1-0.6-8.7-1.9c-2.6-1.3-4.9-3-6.8-5.2c-1.9-2.1-3.4-4.6-4.4-7.4
			c-1-2.8-1.5-5.6-1.5-8.5c0-3,0.5-5.9,1.6-8.7c1.1-2.8,2.6-5.2,4.5-7.3c1.9-2.1,4.2-3.8,6.8-5.1c2.6-1.3,5.5-1.9,8.6-1.9
			c3.2,0,6.1,0.7,8.7,2c2.6,1.3,4.9,3.1,6.7,5.3c1.9,2.2,3.3,4.6,4.3,7.4c1,2.7,1.5,5.5,1.5,8.4c0,3-0.5,5.9-1.6,8.7
			c-1.1,2.8-2.6,5.2-4.5,7.3c-1.9,2.1-4.2,3.8-6.8,5C289.7,345.6,286.9,346.3,283.8,346.3z M269.7,323.3c0,2.1,0.3,4.2,1,6.2
			c0.7,2,1.6,3.8,2.8,5.3c1.2,1.5,2.7,2.8,4.5,3.7c1.7,0.9,3.7,1.4,5.9,1.4c2.2,0,4.2-0.5,6-1.4c1.8-1,3.3-2.2,4.5-3.8
			c1.2-1.6,2.1-3.3,2.8-5.3c0.6-2,1-4,1-6c0-2.2-0.3-4.2-1-6.2c-0.7-2-1.6-3.7-2.9-5.2c-1.2-1.5-2.7-2.7-4.5-3.6
			c-1.7-0.9-3.7-1.4-5.8-1.4c-2.2,0-4.2,0.5-6,1.4c-1.8,1-3.3,2.2-4.5,3.7c-1.2,1.5-2.1,3.3-2.8,5.3
			C270,319.2,269.7,321.2,269.7,323.3z"/>
		<path fill="#F18E3B" d="M316.2,314v31.9h-7.2v-45.3h5.6l25.9,32.7v-32.6h7.2v45.3h-5.9L316.2,314z"/>
		<path fill="#F18E3B" d="M385.1,311.3c-0.4-0.5-1-1-1.9-1.5c-0.8-0.5-1.8-1-2.8-1.5c-1.1-0.5-2.3-0.9-3.6-1.1
			c-1.3-0.3-2.7-0.4-4.2-0.4c-2.8,0-4.9,0.6-6.4,1.7c-1.4,1.1-2.2,2.7-2.2,4.7c0,1.1,0.2,2,0.7,2.7c0.5,0.7,1.2,1.3,2.1,1.8
			c0.9,0.5,2.1,1,3.5,1.4c1.4,0.4,3,0.8,4.9,1.3c2.2,0.6,4.2,1.2,6.1,1.9c1.9,0.6,3.4,1.4,4.7,2.4c1.3,1,2.3,2.1,3,3.5
			c0.7,1.4,1.1,3.2,1.1,5.2c0,2.4-0.4,4.4-1.3,6.1c-0.9,1.7-2.1,3-3.6,4.1c-1.5,1-3.3,1.8-5.3,2.3c-2,0.5-4.1,0.7-6.4,0.7
			c-3.4,0-6.8-0.5-10-1.6c-3.2-1-6.1-2.6-8.7-4.6l3.3-6.1c0.6,0.6,1.3,1.2,2.4,1.9c1,0.7,2.2,1.3,3.6,1.9c1.4,0.6,2.9,1.1,4.6,1.5
			c1.7,0.4,3.4,0.6,5.2,0.6c2.7,0,4.8-0.5,6.4-1.5c1.5-1,2.3-2.5,2.3-4.4c0-1.1-0.3-2.1-0.8-2.9c-0.6-0.8-1.4-1.4-2.4-2
			c-1.1-0.6-2.4-1.1-3.9-1.5c-1.5-0.4-3.3-0.9-5.2-1.4c-2.3-0.6-4.2-1.2-5.9-1.9c-1.7-0.7-3.1-1.5-4.2-2.4c-1.1-0.9-1.9-2-2.5-3.3
			c-0.6-1.3-0.9-2.8-0.9-4.6c0-2.2,0.4-4.2,1.2-5.9c0.8-1.7,2-3.2,3.4-4.3c1.5-1.2,3.2-2.1,5.2-2.6c2-0.6,4.1-0.9,6.4-0.9
			c3.1,0,6,0.5,8.6,1.5c2.6,1,4.8,2.2,6.8,3.6L385.1,311.3z"/>
	</g>
</g>
</svg>
