<?xml version="1.0" encoding="utf-8"?>
<!-- Generator: Adobe Illustrator 18.1.0, SVG Export Plug-In . SVG Version: 6.00 Build 0)  -->
<!DOCTYPE svg PUBLIC "-//W3C//DTD SVG 1.1//EN" "http://www.w3.org/Graphics/SVG/1.1/DTD/svg11.dtd">
<svg version="1.1" id="Layer_1" xmlns="http://www.w3.org/2000/svg" xmlns:xlink="http://www.w3.org/1999/xlink" x="0px" y="0px"
	 viewBox="0 0 343 253" enable-background="new 0 0 343 253" xml:space="preserve">
<g>
	<rect x="66.6" y="126.1" fill="#FFFFFF" width="208.9" height="115.7"/>
</g>
<g>
	<rect x="66.2" y="10.8" fill="#F18E3B" width="209.3" height="115.7"/>
</g>
<g>
	<g>
		<path fill="#F68720" d="M181,151.7v5.8h-0.7v-7.1h0.5l4.7,5.9v-5.9h0.7v7.1h-0.6L181,151.7z"/>
	</g>
	<g>
		<path fill="#F68720" d="M189.2,157.6c-0.3,0-0.5,0-0.7-0.1c-0.2-0.1-0.4-0.2-0.6-0.3c-0.2-0.1-0.3-0.3-0.4-0.5
			c-0.1-0.2-0.1-0.4-0.1-0.6c0-0.2,0.1-0.5,0.2-0.7c0.1-0.2,0.3-0.4,0.4-0.5c0.2-0.1,0.4-0.2,0.7-0.3c0.3-0.1,0.6-0.1,0.9-0.1
			c0.3,0,0.5,0,0.8,0.1c0.3,0,0.5,0.1,0.7,0.2v-0.5c0-0.5-0.1-0.8-0.4-1.1c-0.3-0.3-0.6-0.4-1.1-0.4c-0.3,0-0.6,0.1-0.8,0.2
			c-0.3,0.1-0.6,0.3-0.8,0.5l-0.2-0.4c0.3-0.2,0.7-0.4,1-0.5c0.3-0.1,0.6-0.2,1-0.2c0.6,0,1.1,0.2,1.5,0.5c0.4,0.4,0.6,0.9,0.6,1.5
			v2.3c0,0.2,0.1,0.3,0.2,0.3v0.6c-0.1,0-0.1,0-0.1,0c0,0-0.1,0-0.1,0c-0.1,0-0.3,0-0.4-0.1c-0.1-0.1-0.2-0.2-0.2-0.4l0-0.4
			c-0.2,0.3-0.5,0.5-0.9,0.7C189.9,157.5,189.6,157.6,189.2,157.6z M189.4,157.1c0.3,0,0.6-0.1,0.9-0.2s0.5-0.3,0.7-0.5
			c0-0.1,0.1-0.1,0.1-0.2c0-0.1,0-0.1,0-0.2v-0.8c-0.2-0.1-0.5-0.2-0.7-0.2c-0.2,0-0.5-0.1-0.7-0.1c-0.5,0-0.9,0.1-1.2,0.3
			c-0.3,0.2-0.5,0.5-0.5,0.8c0,0.1,0,0.3,0.1,0.4c0.1,0.1,0.1,0.3,0.2,0.4c0.1,0.1,0.2,0.2,0.4,0.3C189,157,189.1,157.1,189.4,157.1
			z"/>
	</g>
	<g>
		<path fill="#F68720" d="M195.8,157.2c0,0-0.1,0-0.2,0.1c-0.1,0-0.2,0.1-0.3,0.1c-0.1,0-0.2,0.1-0.3,0.1c-0.1,0-0.3,0-0.4,0
			c-0.1,0-0.3,0-0.4-0.1s-0.2-0.1-0.3-0.2c-0.1-0.1-0.2-0.2-0.2-0.3c-0.1-0.1-0.1-0.3-0.1-0.4v-3.7h-0.7v-0.5h0.7v-1.8h0.7v1.8h1.2
			v0.5h-1.2v3.5c0,0.2,0.1,0.3,0.2,0.4c0.1,0.1,0.3,0.1,0.4,0.1c0.2,0,0.4,0,0.5-0.1c0.1-0.1,0.2-0.1,0.3-0.1L195.8,157.2z"/>
	</g>
	<g>
		<path fill="#F68720" d="M200.9,157.5h-0.7v-2.9c0-0.6-0.1-1-0.3-1.3c-0.2-0.3-0.5-0.4-0.9-0.4c-0.2,0-0.4,0-0.6,0.1
			c-0.2,0.1-0.4,0.2-0.5,0.3c-0.2,0.1-0.3,0.3-0.4,0.5c-0.1,0.2-0.2,0.4-0.3,0.6v3.2h-0.7v-7.3h0.7v3.3c0.2-0.4,0.5-0.7,0.9-0.9
			c0.4-0.2,0.8-0.3,1.2-0.3c0.3,0,0.6,0.1,0.8,0.2s0.4,0.3,0.5,0.5c0.1,0.2,0.2,0.4,0.3,0.7c0.1,0.3,0.1,0.6,0.1,0.9V157.5z"/>
	</g>
	<g>
		<path fill="#F68720" d="M203.7,157.6c-0.3,0-0.5,0-0.7-0.1c-0.2-0.1-0.4-0.2-0.6-0.3c-0.2-0.1-0.3-0.3-0.4-0.5
			c-0.1-0.2-0.1-0.4-0.1-0.6c0-0.2,0.1-0.5,0.2-0.7c0.1-0.2,0.3-0.4,0.4-0.5c0.2-0.1,0.4-0.2,0.7-0.3c0.3-0.1,0.6-0.1,0.9-0.1
			c0.3,0,0.5,0,0.8,0.1c0.3,0,0.5,0.1,0.7,0.2v-0.5c0-0.5-0.1-0.8-0.4-1.1c-0.3-0.3-0.6-0.4-1.1-0.4c-0.3,0-0.6,0.1-0.8,0.2
			c-0.3,0.1-0.6,0.3-0.8,0.5l-0.2-0.4c0.3-0.2,0.7-0.4,1-0.5c0.3-0.1,0.6-0.2,1-0.2c0.6,0,1.1,0.2,1.5,0.5c0.4,0.4,0.6,0.9,0.6,1.5
			v2.3c0,0.2,0.1,0.3,0.2,0.3v0.6c-0.1,0-0.1,0-0.1,0c0,0-0.1,0-0.1,0c-0.1,0-0.3,0-0.4-0.1c-0.1-0.1-0.2-0.2-0.2-0.4l0-0.4
			c-0.2,0.3-0.5,0.5-0.9,0.7C204.5,157.5,204.1,157.6,203.7,157.6z M203.9,157.1c0.3,0,0.6-0.1,0.9-0.2s0.5-0.3,0.7-0.5
			c0-0.1,0.1-0.1,0.1-0.2c0-0.1,0-0.1,0-0.2v-0.8c-0.2-0.1-0.5-0.2-0.7-0.2c-0.2,0-0.5-0.1-0.7-0.1c-0.5,0-0.9,0.1-1.2,0.3
			c-0.3,0.2-0.5,0.5-0.5,0.8c0,0.1,0,0.3,0.1,0.4c0.1,0.1,0.1,0.3,0.2,0.4c0.1,0.1,0.2,0.2,0.4,0.3
			C203.5,157,203.7,157.1,203.9,157.1z"/>
	</g>
	<g>
		<path fill="#F68720" d="M212.1,157.5h-0.7v-2.9c0-0.6-0.1-1.1-0.3-1.3c-0.2-0.3-0.5-0.4-0.8-0.4c-0.2,0-0.4,0-0.6,0.1
			c-0.2,0.1-0.4,0.2-0.6,0.3c-0.2,0.1-0.3,0.3-0.5,0.5c-0.1,0.2-0.2,0.4-0.3,0.6v3.2h-0.7v-5.2h0.6v1.2c0.1-0.2,0.2-0.4,0.4-0.5
			c0.2-0.2,0.3-0.3,0.5-0.4c0.2-0.1,0.4-0.2,0.6-0.3c0.2-0.1,0.4-0.1,0.7-0.1c0.3,0,0.5,0.1,0.7,0.2c0.2,0.1,0.4,0.3,0.5,0.4
			c0.1,0.2,0.2,0.4,0.3,0.7c0.1,0.3,0.1,0.6,0.1,0.9V157.5z"/>
	</g>
	<g>
		<path fill="#F68720" d="M219.1,156.9c0.4,0,0.8-0.1,1.1-0.3s0.5-0.4,0.7-0.7c0.2-0.3,0.3-0.6,0.4-0.9s0.1-0.7,0.1-1.1v-3.6h0.7
			v3.6c0,0.5-0.1,0.9-0.2,1.4c-0.1,0.4-0.3,0.8-0.5,1.1c-0.2,0.3-0.5,0.6-0.9,0.8c-0.4,0.2-0.8,0.3-1.4,0.3c-0.6,0-1-0.1-1.4-0.3
			c-0.4-0.2-0.7-0.5-0.9-0.8c-0.2-0.3-0.4-0.7-0.5-1.1c-0.1-0.4-0.1-0.9-0.1-1.3v-3.6h0.7v3.6c0,0.4,0,0.7,0.1,1.1
			c0.1,0.4,0.2,0.7,0.4,0.9c0.2,0.3,0.4,0.5,0.7,0.7C218.3,156.8,218.7,156.9,219.1,156.9z"/>
	</g>
	<g>
		<path fill="#F68720" d="M223.6,150.2h0.7v6.1c0,0.2,0.1,0.3,0.2,0.5c0.1,0.1,0.3,0.2,0.4,0.2c0.1,0,0.2,0,0.3,0
			c0.1,0,0.2,0,0.3-0.1l0.1,0.5c-0.1,0.1-0.3,0.1-0.5,0.1c-0.2,0-0.3,0-0.5,0c-0.3,0-0.6-0.1-0.7-0.3c-0.2-0.2-0.3-0.4-0.3-0.7
			V150.2z"/>
	</g>
	<g>
		<path fill="#F68720" d="M228.8,152.9c-0.5,0-0.9,0.1-1.2,0.4c-0.3,0.2-0.6,0.6-0.7,1v3.2h-0.7v-5.2h0.6v1.2
			c0.2-0.4,0.4-0.7,0.7-0.9c0.3-0.2,0.6-0.4,0.9-0.4c0.1,0,0.1,0,0.2,0c0.1,0,0.1,0,0.1,0V152.9z"/>
	</g>
	<g>
		<path fill="#F68720" d="M229.7,151.2v-1h0.7v1H229.7z M229.7,157.5v-5.2h0.7v5.2H229.7z"/>
	</g>
	<g>
		<path fill="#F68720" d="M231.5,154.9c0-0.4,0.1-0.7,0.2-1c0.1-0.3,0.3-0.6,0.5-0.9c0.2-0.2,0.5-0.4,0.8-0.6
			c0.3-0.1,0.7-0.2,1.1-0.2c0.5,0,0.9,0.1,1.3,0.3c0.4,0.2,0.6,0.5,0.8,0.9l-0.7,0.2c-0.1-0.3-0.3-0.5-0.6-0.6
			c-0.3-0.1-0.5-0.2-0.9-0.2c-0.3,0-0.5,0.1-0.7,0.2c-0.2,0.1-0.4,0.3-0.6,0.4c-0.2,0.2-0.3,0.4-0.4,0.7c-0.1,0.3-0.1,0.5-0.1,0.8
			c0,0.3,0,0.6,0.1,0.8c0.1,0.3,0.2,0.5,0.4,0.7c0.2,0.2,0.4,0.3,0.6,0.4c0.2,0.1,0.5,0.2,0.7,0.2c0.2,0,0.3,0,0.5-0.1
			c0.2,0,0.3-0.1,0.5-0.2c0.1-0.1,0.3-0.2,0.4-0.3c0.1-0.1,0.2-0.2,0.2-0.3l0.7,0.2c-0.1,0.2-0.2,0.4-0.3,0.5
			c-0.1,0.2-0.3,0.3-0.5,0.4c-0.2,0.1-0.4,0.2-0.6,0.3c-0.2,0.1-0.5,0.1-0.7,0.1c-0.4,0-0.7-0.1-1-0.2c-0.3-0.1-0.6-0.3-0.8-0.6
			c-0.2-0.2-0.4-0.5-0.5-0.9C231.6,155.6,231.5,155.2,231.5,154.9z"/>
	</g>
	<g>
		<path fill="#F68720" d="M241.7,157.5H241v-2.9c0-0.6-0.1-1-0.3-1.3c-0.2-0.3-0.5-0.4-0.9-0.4c-0.2,0-0.4,0-0.6,0.1
			c-0.2,0.1-0.4,0.2-0.5,0.3c-0.2,0.1-0.3,0.3-0.4,0.5c-0.1,0.2-0.2,0.4-0.3,0.6v3.2h-0.7v-7.3h0.7v3.3c0.2-0.4,0.5-0.7,0.9-0.9
			c0.4-0.2,0.8-0.3,1.2-0.3c0.3,0,0.6,0.1,0.8,0.2s0.4,0.3,0.5,0.5c0.1,0.2,0.2,0.4,0.3,0.7c0.1,0.3,0.1,0.6,0.1,0.9V157.5z"/>
	</g>
</g>
<g>
	<g>
		<path fill="#494946" d="M182.9,164c0,0.1,0,0.3-0.1,0.4c-0.1,0.1-0.1,0.2-0.2,0.3c-0.1,0.1-0.2,0.2-0.3,0.2
			c-0.1,0-0.3,0.1-0.4,0.1h-1.7v-3.7h1.7c0.1,0,0.2,0,0.3,0.1c0.1,0.1,0.2,0.1,0.3,0.2c0.1,0.1,0.1,0.2,0.2,0.3
			c0,0.1,0.1,0.2,0.1,0.3c0,0.2,0,0.4-0.1,0.5c-0.1,0.2-0.2,0.3-0.4,0.3c0.2,0.1,0.4,0.2,0.5,0.4C182.8,163.6,182.9,163.8,182.9,164
			z M180.4,161.5v1.5h1.4c0.1,0,0.2,0,0.3-0.1c0.1,0,0.2-0.1,0.2-0.2c0.1-0.1,0.1-0.1,0.1-0.2c0-0.1,0.1-0.2,0.1-0.3
			c0-0.1,0-0.2,0-0.3c0-0.1-0.1-0.2-0.1-0.2c-0.1-0.1-0.1-0.1-0.2-0.2c-0.1,0-0.2-0.1-0.3-0.1H180.4z M182.6,164
			c0-0.1,0-0.2-0.1-0.3c0-0.1-0.1-0.2-0.1-0.2c-0.1-0.1-0.1-0.1-0.2-0.2c-0.1,0-0.2-0.1-0.3-0.1h-1.5v1.5h1.5c0.1,0,0.2,0,0.3-0.1
			c0.1,0,0.2-0.1,0.2-0.2c0.1-0.1,0.1-0.2,0.2-0.2C182.6,164.2,182.6,164.1,182.6,164z"/>
	</g>
	<g>
		<path fill="#494946" d="M185,165c-0.6,0-0.9-0.4-0.9-1.2v-1.6h0.3v1.5c0,0.7,0.2,1,0.7,1c0.1,0,0.2,0,0.3-0.1
			c0.1,0,0.2-0.1,0.3-0.2c0.1-0.1,0.2-0.2,0.2-0.3c0.1-0.1,0.1-0.2,0.2-0.3v-1.7h0.3v2.4c0,0.1,0,0.1,0.1,0.1v0.2c0,0,0,0-0.1,0
			c0,0,0,0,0,0c-0.1,0-0.1,0-0.2-0.1c0,0-0.1-0.1-0.1-0.2v-0.4c-0.1,0.2-0.3,0.4-0.5,0.5C185.4,165,185.2,165,185,165z"/>
	</g>
	<g>
		<path fill="#494946" d="M188.6,165c-0.2,0-0.4,0-0.6-0.1c-0.2-0.1-0.4-0.2-0.5-0.3l0.1-0.2c0.1,0.1,0.3,0.2,0.5,0.3
			c0.2,0.1,0.3,0.1,0.5,0.1c0.2,0,0.4,0,0.6-0.1c0.1-0.1,0.2-0.2,0.2-0.4c0-0.1,0-0.2-0.1-0.2c0-0.1-0.1-0.1-0.2-0.1
			c-0.1,0-0.2-0.1-0.3-0.1c-0.1,0-0.2-0.1-0.4-0.1c-0.2,0-0.3-0.1-0.4-0.1c-0.1,0-0.2-0.1-0.3-0.1c-0.1,0-0.1-0.1-0.2-0.2
			c0-0.1-0.1-0.2-0.1-0.3c0-0.1,0-0.3,0.1-0.4c0.1-0.1,0.1-0.2,0.2-0.3c0.1-0.1,0.2-0.1,0.3-0.1c0.1,0,0.2,0,0.4,0
			c0.2,0,0.4,0,0.6,0.1c0.2,0.1,0.3,0.2,0.4,0.3l-0.1,0.1c-0.1-0.1-0.2-0.2-0.4-0.2c-0.1-0.1-0.3-0.1-0.5-0.1c-0.1,0-0.2,0-0.3,0
			c-0.1,0-0.2,0.1-0.2,0.1c-0.1,0-0.1,0.1-0.2,0.2c0,0.1-0.1,0.2-0.1,0.3c0,0.1,0,0.1,0,0.2c0,0,0.1,0.1,0.1,0.1
			c0.1,0,0.1,0.1,0.2,0.1c0.1,0,0.2,0.1,0.3,0.1c0.2,0,0.3,0.1,0.5,0.1c0.1,0,0.2,0.1,0.3,0.1c0.1,0.1,0.2,0.1,0.2,0.2
			c0,0.1,0.1,0.2,0.1,0.3c0,0.2-0.1,0.4-0.3,0.6C189.2,165,188.9,165,188.6,165z"/>
	</g>
	<g>
		<path fill="#494946" d="M190.8,161.6v-0.5h0.3v0.5H190.8z M190.8,165v-2.7h0.3v2.7H190.8z"/>
	</g>
	<g>
		<path fill="#494946" d="M194.7,165h-0.3v-1.5c0-0.4,0-0.6-0.1-0.8c-0.1-0.2-0.3-0.2-0.5-0.2c-0.1,0-0.2,0-0.3,0.1
			c-0.1,0-0.2,0.1-0.3,0.2c-0.1,0.1-0.2,0.2-0.3,0.3c-0.1,0.1-0.1,0.2-0.2,0.3v1.7h-0.3v-2.7h0.2v0.6c0.1-0.1,0.1-0.2,0.2-0.3
			c0.1-0.1,0.2-0.2,0.3-0.2c0.1-0.1,0.2-0.1,0.3-0.1c0.1,0,0.2,0,0.4,0c0.3,0,0.5,0.1,0.6,0.3c0.1,0.2,0.2,0.5,0.2,0.9V165z"/>
	</g>
	<g>
		<path fill="#494946" d="M197.2,165c-0.2,0-0.4,0-0.5-0.1c-0.2-0.1-0.3-0.2-0.4-0.3s-0.2-0.3-0.3-0.5c-0.1-0.2-0.1-0.4-0.1-0.5
			c0-0.2,0-0.4,0.1-0.5c0.1-0.2,0.2-0.3,0.3-0.4c0.1-0.1,0.3-0.2,0.4-0.3c0.2-0.1,0.3-0.1,0.5-0.1c0.2,0,0.4,0,0.5,0.1
			c0.2,0.1,0.3,0.2,0.4,0.3c0.1,0.1,0.2,0.3,0.3,0.4c0.1,0.2,0.1,0.3,0.1,0.5c0,0,0,0,0,0.1c0,0,0,0,0,0h-2.4c0,0.2,0,0.3,0.1,0.4
			c0.1,0.1,0.1,0.3,0.2,0.3c0.1,0.1,0.2,0.2,0.3,0.2c0.1,0.1,0.3,0.1,0.4,0.1c0.1,0,0.2,0,0.3,0s0.2-0.1,0.3-0.1
			c0.1,0,0.1-0.1,0.2-0.2c0.1-0.1,0.1-0.1,0.1-0.2l0.2,0.1c0,0.1-0.1,0.2-0.2,0.3c-0.1,0.1-0.2,0.2-0.3,0.2
			c-0.1,0.1-0.2,0.1-0.3,0.1C197.5,165,197.3,165,197.2,165z M198.3,163.5c0-0.2,0-0.3-0.1-0.4c-0.1-0.1-0.1-0.2-0.2-0.3
			c-0.1-0.1-0.2-0.2-0.3-0.2c-0.1-0.1-0.3-0.1-0.4-0.1c-0.1,0-0.3,0-0.4,0.1c-0.1,0.1-0.2,0.1-0.3,0.2c-0.1,0.1-0.2,0.2-0.2,0.3
			c-0.1,0.1-0.1,0.3-0.1,0.4H198.3z"/>
	</g>
	<g>
		<path fill="#494946" d="M200.5,165c-0.2,0-0.4,0-0.6-0.1c-0.2-0.1-0.4-0.2-0.5-0.3l0.1-0.2c0.1,0.1,0.3,0.2,0.5,0.3
			c0.2,0.1,0.3,0.1,0.5,0.1c0.2,0,0.4,0,0.6-0.1c0.1-0.1,0.2-0.2,0.2-0.4c0-0.1,0-0.2-0.1-0.2c0-0.1-0.1-0.1-0.2-0.1
			c-0.1,0-0.2-0.1-0.3-0.1c-0.1,0-0.2-0.1-0.4-0.1c-0.2,0-0.3-0.1-0.4-0.1c-0.1,0-0.2-0.1-0.3-0.1c-0.1,0-0.1-0.1-0.2-0.2
			c0-0.1-0.1-0.2-0.1-0.3c0-0.1,0-0.3,0.1-0.4c0.1-0.1,0.1-0.2,0.2-0.3c0.1-0.1,0.2-0.1,0.3-0.1c0.1,0,0.2,0,0.4,0
			c0.2,0,0.4,0,0.6,0.1c0.2,0.1,0.3,0.2,0.4,0.3l-0.1,0.1c-0.1-0.1-0.2-0.2-0.4-0.2c-0.1-0.1-0.3-0.1-0.5-0.1c-0.1,0-0.2,0-0.3,0
			c-0.1,0-0.2,0.1-0.2,0.1c-0.1,0-0.1,0.1-0.2,0.2c0,0.1-0.1,0.2-0.1,0.3c0,0.1,0,0.1,0,0.2c0,0,0.1,0.1,0.1,0.1
			c0.1,0,0.1,0.1,0.2,0.1c0.1,0,0.2,0.1,0.3,0.1c0.2,0,0.3,0.1,0.5,0.1c0.1,0,0.2,0.1,0.3,0.1c0.1,0.1,0.2,0.1,0.2,0.2
			c0,0.1,0.1,0.2,0.1,0.3c0,0.2-0.1,0.4-0.3,0.6C201.1,165,200.9,165,200.5,165z"/>
	</g>
	<g>
		<path fill="#494946" d="M203.7,165c-0.2,0-0.4,0-0.6-0.1c-0.2-0.1-0.4-0.2-0.5-0.3l0.1-0.2c0.1,0.1,0.3,0.2,0.5,0.3
			c0.2,0.1,0.3,0.1,0.5,0.1c0.2,0,0.4,0,0.6-0.1c0.1-0.1,0.2-0.2,0.2-0.4c0-0.1,0-0.2-0.1-0.2c0-0.1-0.1-0.1-0.2-0.1
			c-0.1,0-0.2-0.1-0.3-0.1c-0.1,0-0.2-0.1-0.4-0.1c-0.2,0-0.3-0.1-0.4-0.1c-0.1,0-0.2-0.1-0.3-0.1c-0.1,0-0.1-0.1-0.2-0.2
			c0-0.1-0.1-0.2-0.1-0.3c0-0.1,0-0.3,0.1-0.4c0.1-0.1,0.1-0.2,0.2-0.3c0.1-0.1,0.2-0.1,0.3-0.1c0.1,0,0.2,0,0.4,0
			c0.2,0,0.4,0,0.6,0.1c0.2,0.1,0.3,0.2,0.4,0.3l-0.1,0.1c-0.1-0.1-0.2-0.2-0.4-0.2c-0.1-0.1-0.3-0.1-0.5-0.1c-0.1,0-0.2,0-0.3,0
			c-0.1,0-0.2,0.1-0.2,0.1c-0.1,0-0.1,0.1-0.2,0.2c0,0.1-0.1,0.2-0.1,0.3c0,0.1,0,0.1,0,0.2c0,0,0.1,0.1,0.1,0.1
			c0.1,0,0.1,0.1,0.2,0.1c0.1,0,0.2,0.1,0.3,0.1c0.2,0,0.3,0.1,0.5,0.1c0.1,0,0.2,0.1,0.3,0.1c0.1,0.1,0.2,0.1,0.2,0.2
			c0,0.1,0.1,0.2,0.1,0.3c0,0.2-0.1,0.4-0.3,0.6C204.2,165,204,165,203.7,165z"/>
	</g>
	<g>
		<path fill="#494946" d="M207.3,165l1.6-3.7h0.2l1.6,3.7h-0.3l-0.5-1.2h-1.8l-0.5,1.2H207.3z M209,161.6l-0.8,1.9h1.6L209,161.6z"
			/>
	</g>
	<g>
		<path fill="#494946" d="M212.7,165c-0.2,0-0.4,0-0.6-0.1c-0.2-0.1-0.4-0.2-0.5-0.3l0.1-0.2c0.1,0.1,0.3,0.2,0.5,0.3
			c0.2,0.1,0.3,0.1,0.5,0.1c0.2,0,0.4,0,0.6-0.1c0.1-0.1,0.2-0.2,0.2-0.4c0-0.1,0-0.2-0.1-0.2c0-0.1-0.1-0.1-0.2-0.1
			c-0.1,0-0.2-0.1-0.3-0.1c-0.1,0-0.2-0.1-0.4-0.1c-0.2,0-0.3-0.1-0.4-0.1c-0.1,0-0.2-0.1-0.3-0.1c-0.1,0-0.1-0.1-0.2-0.2
			c0-0.1-0.1-0.2-0.1-0.3c0-0.1,0-0.3,0.1-0.4c0.1-0.1,0.1-0.2,0.2-0.3c0.1-0.1,0.2-0.1,0.3-0.1c0.1,0,0.2,0,0.4,0
			c0.2,0,0.4,0,0.6,0.1c0.2,0.1,0.3,0.2,0.4,0.3l-0.1,0.1c-0.1-0.1-0.2-0.2-0.4-0.2c-0.1-0.1-0.3-0.1-0.5-0.1c-0.1,0-0.2,0-0.3,0
			c-0.1,0-0.2,0.1-0.2,0.1c-0.1,0-0.1,0.1-0.2,0.2c0,0.1-0.1,0.2-0.1,0.3c0,0.1,0,0.1,0,0.2c0,0,0.1,0.1,0.1,0.1
			c0.1,0,0.1,0.1,0.2,0.1c0.1,0,0.2,0.1,0.3,0.1c0.2,0,0.3,0.1,0.5,0.1c0.1,0,0.2,0.1,0.3,0.1c0.1,0.1,0.2,0.1,0.2,0.2
			c0,0.1,0.1,0.2,0.1,0.3c0,0.2-0.1,0.4-0.3,0.6C213.3,165,213,165,212.7,165z"/>
	</g>
	<g>
		<path fill="#494946" d="M215.8,165c-0.2,0-0.4,0-0.6-0.1c-0.2-0.1-0.4-0.2-0.5-0.3l0.1-0.2c0.1,0.1,0.3,0.2,0.5,0.3
			c0.2,0.1,0.3,0.1,0.5,0.1c0.2,0,0.4,0,0.6-0.1c0.1-0.1,0.2-0.2,0.2-0.4c0-0.1,0-0.2-0.1-0.2c0-0.1-0.1-0.1-0.2-0.1
			c-0.1,0-0.2-0.1-0.3-0.1c-0.1,0-0.2-0.1-0.4-0.1c-0.2,0-0.3-0.1-0.4-0.1c-0.1,0-0.2-0.1-0.3-0.1c-0.1,0-0.1-0.1-0.2-0.2
			c0-0.1-0.1-0.2-0.1-0.3c0-0.1,0-0.3,0.1-0.4c0.1-0.1,0.1-0.2,0.2-0.3c0.1-0.1,0.2-0.1,0.3-0.1c0.1,0,0.2,0,0.4,0
			c0.2,0,0.4,0,0.6,0.1c0.2,0.1,0.3,0.2,0.4,0.3l-0.1,0.1c-0.1-0.1-0.2-0.2-0.4-0.2c-0.1-0.1-0.3-0.1-0.5-0.1c-0.1,0-0.2,0-0.3,0
			c-0.1,0-0.2,0.1-0.2,0.1c-0.1,0-0.1,0.1-0.2,0.2c0,0.1-0.1,0.2-0.1,0.3c0,0.1,0,0.1,0,0.2c0,0,0.1,0.1,0.1,0.1
			c0.1,0,0.1,0.1,0.2,0.1c0.1,0,0.2,0.1,0.3,0.1c0.2,0,0.3,0.1,0.5,0.1c0.1,0,0.2,0.1,0.3,0.1c0.1,0.1,0.2,0.1,0.2,0.2
			c0,0.1,0.1,0.2,0.1,0.3c0,0.2-0.1,0.4-0.3,0.6C216.4,165,216.1,165,215.8,165z"/>
	</g>
	<g>
		<path fill="#494946" d="M219.2,165c-0.2,0-0.4,0-0.5-0.1c-0.2-0.1-0.3-0.2-0.4-0.3c-0.1-0.1-0.2-0.3-0.3-0.4
			c-0.1-0.2-0.1-0.3-0.1-0.5c0-0.2,0-0.4,0.1-0.5c0.1-0.2,0.2-0.3,0.3-0.4s0.3-0.2,0.4-0.3c0.2-0.1,0.3-0.1,0.5-0.1
			c0.2,0,0.4,0,0.5,0.1c0.2,0.1,0.3,0.2,0.4,0.3c0.1,0.1,0.2,0.3,0.3,0.4c0.1,0.2,0.1,0.4,0.1,0.5c0,0.2,0,0.4-0.1,0.5
			c-0.1,0.2-0.2,0.3-0.3,0.4c-0.1,0.1-0.3,0.2-0.4,0.3C219.6,165,219.4,165,219.2,165z M218.1,163.6c0,0.2,0,0.3,0.1,0.5
			c0.1,0.1,0.1,0.3,0.2,0.4c0.1,0.1,0.2,0.2,0.3,0.2c0.1,0.1,0.3,0.1,0.4,0.1s0.3,0,0.4-0.1c0.1-0.1,0.2-0.1,0.3-0.3
			c0.1-0.1,0.2-0.2,0.2-0.4c0.1-0.1,0.1-0.3,0.1-0.5c0-0.2,0-0.3-0.1-0.5c-0.1-0.1-0.1-0.3-0.2-0.4c-0.1-0.1-0.2-0.2-0.3-0.3
			c-0.1-0.1-0.3-0.1-0.4-0.1c-0.1,0-0.3,0-0.4,0.1c-0.1,0.1-0.2,0.1-0.3,0.3c-0.1,0.1-0.2,0.2-0.2,0.4
			C218.2,163.3,218.1,163.5,218.1,163.6z"/>
	</g>
	<g>
		<path fill="#494946" d="M221.6,163.6c0-0.2,0-0.4,0.1-0.5c0.1-0.2,0.2-0.3,0.3-0.4c0.1-0.1,0.3-0.2,0.4-0.3
			c0.2-0.1,0.3-0.1,0.5-0.1c0.2,0,0.5,0.1,0.7,0.2c0.2,0.1,0.3,0.3,0.4,0.5l-0.3,0.1c-0.1-0.1-0.2-0.3-0.3-0.4
			c-0.1-0.1-0.3-0.1-0.5-0.1c-0.1,0-0.3,0-0.4,0.1c-0.1,0.1-0.2,0.1-0.3,0.2c-0.1,0.1-0.2,0.2-0.2,0.4c-0.1,0.1-0.1,0.3-0.1,0.5
			c0,0.2,0,0.3,0.1,0.5c0.1,0.1,0.1,0.3,0.2,0.4c0.1,0.1,0.2,0.2,0.3,0.3c0.1,0.1,0.3,0.1,0.4,0.1c0.1,0,0.2,0,0.3,0
			c0.1,0,0.2-0.1,0.3-0.1c0.1,0,0.1-0.1,0.2-0.2c0.1-0.1,0.1-0.1,0.1-0.2l0.3,0.1c0,0.1-0.1,0.2-0.2,0.3c-0.1,0.1-0.2,0.2-0.3,0.2
			c-0.1,0.1-0.2,0.1-0.3,0.1c-0.1,0-0.2,0-0.4,0c-0.2,0-0.4,0-0.5-0.1c-0.2-0.1-0.3-0.2-0.4-0.3c-0.1-0.1-0.2-0.3-0.3-0.5
			S221.6,163.8,221.6,163.6z"/>
	</g>
	<g>
		<path fill="#494946" d="M225.1,161.6v-0.5h0.3v0.5H225.1z M225.1,165v-2.7h0.3v2.7H225.1z"/>
	</g>
	<g>
		<path fill="#494946" d="M227.5,165c-0.1,0-0.2,0-0.4-0.1c-0.1,0-0.2-0.1-0.3-0.2c-0.1-0.1-0.1-0.2-0.2-0.3c0-0.1-0.1-0.2-0.1-0.3
			c0-0.1,0-0.2,0.1-0.3c0.1-0.1,0.1-0.2,0.2-0.3c0.1-0.1,0.2-0.1,0.4-0.2c0.1,0,0.3-0.1,0.5-0.1c0.1,0,0.3,0,0.4,0
			c0.1,0,0.3,0.1,0.4,0.1v-0.3c0-0.3-0.1-0.5-0.2-0.6c-0.1-0.2-0.3-0.2-0.6-0.2c-0.1,0-0.3,0-0.4,0.1c-0.1,0.1-0.3,0.1-0.4,0.2
			l-0.1-0.2c0.4-0.2,0.7-0.4,1-0.4c0.3,0,0.6,0.1,0.8,0.3c0.2,0.2,0.3,0.5,0.3,0.8v1.3c0,0.1,0,0.1,0.1,0.1v0.2c0,0,0,0,0,0s0,0,0,0
			c-0.1,0-0.1,0-0.2-0.1c-0.1,0-0.1-0.1-0.1-0.2v-0.2c-0.1,0.2-0.3,0.3-0.5,0.4C227.9,165,227.7,165,227.5,165z M227.5,164.8
			c0.2,0,0.4,0,0.6-0.1c0.2-0.1,0.3-0.2,0.4-0.3c0.1-0.1,0.1-0.1,0.1-0.2v-0.5c-0.3-0.1-0.5-0.1-0.8-0.1c-0.3,0-0.5,0.1-0.7,0.2
			c-0.2,0.1-0.3,0.3-0.3,0.4c0,0.1,0,0.2,0.1,0.3c0,0.1,0.1,0.1,0.1,0.2c0.1,0.1,0.1,0.1,0.2,0.1
			C227.3,164.8,227.4,164.8,227.5,164.8z"/>
	</g>
	<g>
		<path fill="#494946" d="M231.3,164.8C231.3,164.9,231.3,164.9,231.3,164.8c-0.1,0.1-0.1,0.1-0.2,0.1c-0.1,0-0.1,0-0.2,0
			c-0.1,0-0.1,0-0.2,0c-0.1,0-0.1,0-0.2,0c-0.1,0-0.1-0.1-0.2-0.1c0,0-0.1-0.1-0.1-0.2c0-0.1,0-0.1,0-0.2v-2h-0.4v-0.2h0.4v-0.9h0.3
			v0.9h0.6v0.2h-0.6v2c0,0.1,0,0.2,0.1,0.2c0.1,0.1,0.1,0.1,0.2,0.1c0.1,0,0.2,0,0.3-0.1c0.1,0,0.1-0.1,0.1-0.1L231.3,164.8z"/>
	</g>
	<g>
		<path fill="#494946" d="M233.4,165c-0.2,0-0.4,0-0.5-0.1c-0.2-0.1-0.3-0.2-0.4-0.3s-0.2-0.3-0.3-0.5c-0.1-0.2-0.1-0.4-0.1-0.5
			c0-0.2,0-0.4,0.1-0.5c0.1-0.2,0.2-0.3,0.3-0.4c0.1-0.1,0.3-0.2,0.4-0.3c0.2-0.1,0.3-0.1,0.5-0.1c0.2,0,0.4,0,0.5,0.1
			c0.2,0.1,0.3,0.2,0.4,0.3c0.1,0.1,0.2,0.3,0.3,0.4c0.1,0.2,0.1,0.3,0.1,0.5c0,0,0,0,0,0.1c0,0,0,0,0,0h-2.4c0,0.2,0,0.3,0.1,0.4
			c0.1,0.1,0.1,0.3,0.2,0.3c0.1,0.1,0.2,0.2,0.3,0.2c0.1,0.1,0.3,0.1,0.4,0.1c0.1,0,0.2,0,0.3,0s0.2-0.1,0.3-0.1
			c0.1,0,0.1-0.1,0.2-0.2c0.1-0.1,0.1-0.1,0.1-0.2l0.2,0.1c0,0.1-0.1,0.2-0.2,0.3c-0.1,0.1-0.2,0.2-0.3,0.2
			c-0.1,0.1-0.2,0.1-0.3,0.1C233.7,165,233.6,165,233.4,165z M234.5,163.5c0-0.2,0-0.3-0.1-0.4c-0.1-0.1-0.1-0.2-0.2-0.3
			c-0.1-0.1-0.2-0.2-0.3-0.2c-0.1-0.1-0.3-0.1-0.4-0.1c-0.1,0-0.3,0-0.4,0.1c-0.1,0.1-0.2,0.1-0.3,0.2c-0.1,0.1-0.2,0.2-0.2,0.3
			c-0.1,0.1-0.1,0.3-0.1,0.4H234.5z"/>
	</g>
</g>
<g>
	<g>
		<path fill="#494946" d="M182.2,183.2v0.2h-1.6v-0.2h0.7v-2.3c0,0-0.1,0.1-0.1,0.1c-0.1,0-0.1,0.1-0.2,0.1c-0.1,0-0.2,0.1-0.2,0.1
			c-0.1,0-0.2,0-0.2,0V181c0.1,0,0.2,0,0.3-0.1c0.1,0,0.2-0.1,0.3-0.2c0.1-0.1,0.1-0.1,0.2-0.2c0.1-0.1,0.1-0.1,0.1-0.1h0.3v2.6
			H182.2z"/>
	</g>
	<g>
		<path fill="#494946" d="M185.1,182.5c0,0.2,0,0.3-0.1,0.4c-0.1,0.1-0.2,0.2-0.3,0.3c-0.1,0.1-0.2,0.2-0.4,0.2
			c-0.1,0-0.3,0.1-0.5,0.1c-0.2,0-0.3,0-0.5-0.1c-0.1-0.1-0.3-0.1-0.4-0.2c-0.1-0.1-0.2-0.2-0.2-0.3c-0.1-0.1-0.1-0.3-0.1-0.4
			c0-0.1,0-0.2,0.1-0.3c0-0.1,0.1-0.2,0.2-0.3c0.1-0.1,0.2-0.1,0.2-0.2c0.1-0.1,0.2-0.1,0.3-0.1c-0.1,0-0.2-0.1-0.2-0.1
			c-0.1-0.1-0.1-0.1-0.2-0.2c-0.1-0.1-0.1-0.1-0.1-0.2c0-0.1,0-0.2,0-0.3c0-0.1,0-0.3,0.1-0.4c0.1-0.1,0.1-0.2,0.3-0.3
			c0.1-0.1,0.2-0.1,0.3-0.2c0.1,0,0.3-0.1,0.4-0.1c0.1,0,0.3,0,0.4,0.1c0.1,0,0.2,0.1,0.3,0.2c0.1,0.1,0.2,0.2,0.3,0.3
			c0.1,0.1,0.1,0.2,0.1,0.4c0,0.1,0,0.2-0.1,0.3c0,0.1-0.1,0.1-0.1,0.2s-0.1,0.1-0.2,0.2c-0.1,0-0.2,0.1-0.2,0.1
			c0.1,0,0.2,0.1,0.3,0.1c0.1,0.1,0.2,0.1,0.2,0.2c0.1,0.1,0.1,0.2,0.2,0.3C185,182.2,185.1,182.3,185.1,182.5z M184.8,182.4
			c0-0.1,0-0.2-0.1-0.3c-0.1-0.1-0.1-0.2-0.2-0.3c-0.1-0.1-0.2-0.1-0.3-0.2c-0.1,0-0.2-0.1-0.3-0.1c-0.1,0-0.2,0-0.3,0.1
			c-0.1,0-0.2,0.1-0.3,0.2c-0.1,0.1-0.2,0.2-0.2,0.3c-0.1,0.1-0.1,0.2-0.1,0.3c0,0.1,0,0.2,0.1,0.3c0.1,0.1,0.1,0.2,0.2,0.2
			c0.1,0.1,0.2,0.1,0.3,0.2c0.1,0,0.2,0.1,0.3,0.1c0.1,0,0.2,0,0.3-0.1s0.2-0.1,0.3-0.2c0.1-0.1,0.2-0.2,0.2-0.3
			C184.8,182.7,184.8,182.6,184.8,182.4z M183,180.8c0,0.1,0,0.2,0.1,0.3c0.1,0.1,0.1,0.1,0.2,0.2c0.1,0.1,0.2,0.1,0.3,0.1
			c0.1,0,0.2,0,0.3,0s0.2,0,0.3,0c0.1,0,0.2-0.1,0.3-0.1c0.1-0.1,0.1-0.1,0.2-0.2c0.1-0.1,0.1-0.2,0.1-0.3c0-0.1,0-0.2-0.1-0.3
			c0-0.1-0.1-0.1-0.2-0.2c-0.1-0.1-0.2-0.1-0.3-0.1c-0.1,0-0.2,0-0.3,0s-0.2,0-0.3,0c-0.1,0-0.2,0.1-0.3,0.1
			c-0.1,0.1-0.1,0.1-0.2,0.2C183,180.6,183,180.7,183,180.8z"/>
	</g>
	<g>
		<path fill="#494946" d="M185.6,181.8c0-0.2,0-0.3,0.1-0.5s0.2-0.3,0.3-0.4c0.1-0.1,0.2-0.2,0.4-0.3c0.2-0.1,0.3-0.1,0.5-0.1
			c0.2,0,0.3,0,0.5,0.1c0.2,0.1,0.3,0.2,0.4,0.3c0.1,0.1,0.2,0.3,0.3,0.5c0.1,0.2,0.1,0.4,0.1,0.6c0,0.4,0,0.7-0.1,1
			c-0.1,0.3-0.2,0.5-0.3,0.7c-0.1,0.2-0.2,0.3-0.4,0.4c-0.2,0.1-0.3,0.1-0.5,0.1c-0.2,0-0.5-0.1-0.6-0.2c-0.2-0.1-0.3-0.3-0.4-0.5
			l0.2-0.1c0.1,0.2,0.2,0.3,0.3,0.4c0.2,0.1,0.3,0.2,0.5,0.2c0.2,0,0.3,0,0.4-0.1c0.1-0.1,0.2-0.2,0.3-0.3c0.1-0.1,0.2-0.3,0.2-0.5
			c0.1-0.2,0.1-0.4,0.1-0.7c0,0.1-0.1,0.2-0.2,0.3c-0.1,0.1-0.1,0.2-0.2,0.2s-0.2,0.1-0.3,0.1c-0.1,0-0.2,0.1-0.3,0.1
			c-0.2,0-0.3,0-0.5-0.1c-0.1-0.1-0.3-0.1-0.4-0.3c-0.1-0.1-0.2-0.2-0.3-0.4C185.6,182.1,185.6,182,185.6,181.8z M186.9,180.8
			c-0.1,0-0.3,0-0.4,0.1c-0.1,0.1-0.2,0.1-0.3,0.2c-0.1,0.1-0.2,0.2-0.2,0.3c-0.1,0.1-0.1,0.2-0.1,0.4c0,0.1,0,0.3,0.1,0.4
			c0.1,0.1,0.1,0.2,0.2,0.3c0.1,0.1,0.2,0.2,0.3,0.2c0.1,0.1,0.2,0.1,0.4,0.1c0.1,0,0.3,0,0.4-0.1c0.1-0.1,0.2-0.1,0.3-0.2
			c0.1-0.1,0.2-0.2,0.2-0.3c0.1-0.1,0.1-0.2,0.1-0.4c0-0.1,0-0.3-0.1-0.4c-0.1-0.1-0.1-0.2-0.2-0.3c-0.1-0.1-0.2-0.2-0.3-0.2
			C187.1,180.8,187,180.8,186.9,180.8z"/>
	</g>
	<g>
		<path fill="#494946" d="M188.7,183.4c0-0.1,0-0.2,0-0.3c0-0.1,0.1-0.2,0.1-0.3c0.1-0.1,0.1-0.2,0.3-0.3c0.1-0.1,0.3-0.2,0.4-0.3
			c0.1,0,0.2-0.1,0.3-0.1c0.1,0,0.2-0.1,0.3-0.2c0.1-0.1,0.2-0.1,0.2-0.2c0.1-0.1,0.1-0.2,0.1-0.3c0-0.1,0-0.1,0-0.2
			c0-0.1-0.1-0.1-0.1-0.2c-0.1-0.1-0.1-0.1-0.2-0.1c-0.1,0-0.2,0-0.3,0c-0.1,0-0.2,0-0.3,0c-0.1,0-0.2,0.1-0.2,0.1
			c-0.1,0-0.1,0.1-0.2,0.1c0,0-0.1,0.1-0.1,0.1l-0.2-0.2c0,0,0.1-0.1,0.2-0.1c0.1-0.1,0.1-0.1,0.2-0.2c0.1,0,0.2-0.1,0.3-0.1
			c0.1,0,0.2-0.1,0.4-0.1c0.1,0,0.3,0,0.4,0.1c0.1,0,0.2,0.1,0.3,0.2c0.1,0.1,0.1,0.2,0.2,0.3c0,0.1,0.1,0.2,0.1,0.3
			c0,0.1,0,0.3-0.1,0.4c-0.1,0.1-0.1,0.2-0.2,0.3c-0.1,0.1-0.2,0.1-0.3,0.2c-0.1,0-0.2,0.1-0.3,0.1c-0.2,0.1-0.3,0.1-0.4,0.2
			s-0.2,0.2-0.2,0.2s-0.1,0.2-0.1,0.3c0,0.1,0,0.2,0,0.3h1.8v0.2H188.7z"/>
	</g>
	<g>
		<path fill="#494946" d="M194.8,180.8h-2v-0.2h2.4l-1.8,3.5h-0.3L194.8,180.8z"/>
	</g>
	<g>
		<path fill="#494946" d="M196.9,183.3C196.9,183.3,196.9,183.3,196.9,183.3c-0.1,0.1-0.1,0.1-0.2,0.1c0,0-0.1,0-0.2,0
			c-0.1,0-0.1,0-0.2,0s-0.1,0-0.2,0c-0.1,0-0.1,0-0.2-0.1c0,0-0.1-0.1-0.1-0.1c0-0.1,0-0.1,0-0.2V181h-0.4v-0.2h0.4v-0.9h0.2v0.9
			h0.6v0.2h-0.6v1.9c0,0.1,0,0.2,0.1,0.2c0.1,0,0.1,0.1,0.2,0.1c0.1,0,0.2,0,0.3-0.1c0.1,0,0.1-0.1,0.1-0.1L196.9,183.3z"/>
	</g>
	<g>
		<path fill="#494946" d="M199.5,183.4h-0.2V182c0-0.3-0.1-0.6-0.2-0.7c-0.1-0.2-0.3-0.2-0.5-0.2c-0.1,0-0.2,0-0.3,0.1
			s-0.2,0.1-0.3,0.2c-0.1,0.1-0.2,0.2-0.2,0.3c-0.1,0.1-0.1,0.2-0.1,0.3v1.6h-0.2v-3.6h0.2v1.7c0.1-0.2,0.3-0.4,0.4-0.5
			c0.2-0.1,0.4-0.2,0.6-0.2c0.1,0,0.3,0,0.4,0.1c0.1,0.1,0.2,0.1,0.3,0.2c0.1,0.1,0.1,0.2,0.1,0.4s0,0.3,0,0.5V183.4z"/>
	</g>
	<g>
		<path fill="#494946" d="M201.8,183.4v-3.5h1.5c0.1,0,0.3,0,0.4,0.1c0.1,0.1,0.2,0.1,0.3,0.3c0.1,0.1,0.2,0.2,0.2,0.4
			c0.1,0.1,0.1,0.3,0.1,0.4c0,0.1,0,0.3-0.1,0.4c0,0.1-0.1,0.2-0.2,0.3c-0.1,0.1-0.2,0.2-0.3,0.2c-0.1,0.1-0.2,0.1-0.3,0.1l0.9,1.4
			h-0.3l-0.9-1.3h-1.1v1.3H201.8z M202.1,181.9h1.2c0.1,0,0.2,0,0.3-0.1c0.1,0,0.2-0.1,0.2-0.2c0.1-0.1,0.1-0.2,0.2-0.3
			c0-0.1,0.1-0.2,0.1-0.3c0-0.1,0-0.2-0.1-0.3s-0.1-0.2-0.2-0.3c-0.1-0.1-0.2-0.1-0.2-0.2c-0.1,0-0.2-0.1-0.3-0.1h-1.2V181.9z"/>
	</g>
	<g>
		<path fill="#494946" d="M206.1,183.5c-0.2,0-0.4,0-0.5-0.1c-0.2-0.1-0.3-0.2-0.4-0.3c-0.1-0.1-0.2-0.3-0.3-0.4
			c-0.1-0.2-0.1-0.3-0.1-0.5c0-0.2,0-0.4,0.1-0.5c0.1-0.2,0.2-0.3,0.3-0.4c0.1-0.1,0.2-0.2,0.4-0.3c0.2-0.1,0.3-0.1,0.5-0.1
			c0.2,0,0.3,0,0.5,0.1c0.2,0.1,0.3,0.2,0.4,0.3c0.1,0.1,0.2,0.3,0.3,0.4c0.1,0.2,0.1,0.3,0.1,0.5c0,0.2,0,0.3-0.1,0.5
			c-0.1,0.2-0.2,0.3-0.3,0.4c-0.1,0.1-0.2,0.2-0.4,0.3C206.5,183.4,206.3,183.5,206.1,183.5z M205.1,182.1c0,0.2,0,0.3,0.1,0.4
			c0.1,0.1,0.1,0.3,0.2,0.4c0.1,0.1,0.2,0.2,0.3,0.2c0.1,0.1,0.3,0.1,0.4,0.1c0.1,0,0.3,0,0.4-0.1c0.1-0.1,0.2-0.1,0.3-0.2
			c0.1-0.1,0.2-0.2,0.2-0.4c0.1-0.1,0.1-0.3,0.1-0.4c0-0.2,0-0.3-0.1-0.4c-0.1-0.1-0.1-0.3-0.2-0.4s-0.2-0.2-0.3-0.2
			c-0.1-0.1-0.3-0.1-0.4-0.1c-0.1,0-0.3,0-0.4,0.1c-0.1,0.1-0.2,0.1-0.3,0.2c-0.1,0.1-0.2,0.2-0.2,0.4
			C205.1,181.8,205.1,182,205.1,182.1z"/>
	</g>
	<g>
		<path fill="#494946" d="M208.7,183.5c-0.1,0-0.2,0-0.3-0.1c-0.1,0-0.2-0.1-0.3-0.2c-0.1-0.1-0.1-0.2-0.2-0.3
			c0-0.1-0.1-0.2-0.1-0.3c0-0.1,0-0.2,0.1-0.3c0.1-0.1,0.1-0.2,0.2-0.2c0.1-0.1,0.2-0.1,0.3-0.2s0.3-0.1,0.4-0.1c0.1,0,0.3,0,0.4,0
			c0.1,0,0.3,0.1,0.4,0.1v-0.3c0-0.2-0.1-0.4-0.2-0.6s-0.3-0.2-0.6-0.2c-0.1,0-0.3,0-0.4,0.1c-0.1,0.1-0.3,0.1-0.4,0.2l-0.1-0.2
			c0.3-0.2,0.7-0.3,0.9-0.3c0.3,0,0.6,0.1,0.7,0.3c0.2,0.2,0.3,0.4,0.3,0.7v1.3c0,0.1,0,0.1,0.1,0.1v0.2c0,0,0,0,0,0c0,0,0,0,0,0
			c-0.1,0-0.1,0-0.2-0.1c-0.1,0-0.1-0.1-0.1-0.2V183c-0.1,0.2-0.3,0.3-0.5,0.4C209.1,183.4,208.9,183.5,208.7,183.5z M208.8,183.3
			c0.2,0,0.4,0,0.5-0.1c0.2-0.1,0.3-0.2,0.4-0.3c0.1-0.1,0.1-0.1,0.1-0.2v-0.5c-0.3-0.1-0.5-0.1-0.8-0.1c-0.3,0-0.5,0.1-0.6,0.2
			c-0.2,0.1-0.2,0.2-0.2,0.4c0,0.1,0,0.2,0.1,0.2c0,0.1,0.1,0.1,0.1,0.2c0.1,0.1,0.1,0.1,0.2,0.1
			C208.6,183.3,208.7,183.3,208.8,183.3z"/>
	</g>
	<g>
		<path fill="#494946" d="M211.9,183.5c-0.2,0-0.3,0-0.5-0.1c-0.2-0.1-0.3-0.2-0.4-0.3c-0.1-0.1-0.2-0.3-0.3-0.4
			c-0.1-0.2-0.1-0.3-0.1-0.5c0-0.2,0-0.3,0.1-0.5c0.1-0.2,0.1-0.3,0.2-0.4c0.1-0.1,0.2-0.2,0.4-0.3c0.1-0.1,0.3-0.1,0.5-0.1
			c0.1,0,0.2,0,0.3,0c0.1,0,0.2,0.1,0.3,0.1c0.1,0.1,0.2,0.1,0.2,0.2c0.1,0.1,0.1,0.2,0.2,0.2v-1.6h0.2v3.3c0,0.1,0,0.1,0.1,0.1v0.2
			c0,0,0,0,0,0c0,0,0,0,0,0c-0.1,0-0.1,0-0.2-0.1c0,0-0.1-0.1-0.1-0.2v-0.3c-0.1,0.2-0.2,0.3-0.4,0.4
			C212.3,183.4,212.1,183.5,211.9,183.5z M212,183.2c0.1,0,0.2,0,0.3-0.1s0.2-0.1,0.3-0.2c0.1-0.1,0.2-0.1,0.2-0.2
			c0.1-0.1,0.1-0.2,0.1-0.3v-0.9c0-0.1-0.1-0.2-0.2-0.3c-0.1-0.1-0.1-0.2-0.2-0.2c-0.1-0.1-0.2-0.1-0.3-0.1c-0.1,0-0.2-0.1-0.3-0.1
			c-0.1,0-0.3,0-0.4,0.1s-0.2,0.1-0.3,0.3c-0.1,0.1-0.2,0.2-0.2,0.4c0,0.1-0.1,0.3-0.1,0.4c0,0.1,0,0.3,0.1,0.4
			c0.1,0.1,0.1,0.3,0.2,0.4c0.1,0.1,0.2,0.2,0.3,0.2C211.7,183.2,211.8,183.2,212,183.2z"/>
	</g>
	<g>
		<path fill="#494946" d="M182,186.5h0.2l0.5,1.3l0.5-1.3h0.2L183,188l0.7,1.7l1.4-3.2h0.3l-1.5,3.5h-0.2l-0.8-1.8l-0.8,1.8h-0.2
			l-1.5-3.5h0.3l1.4,3.2l0.7-1.7L182,186.5z"/>
	</g>
	<g>
		<path fill="#494946" d="M185.9,186.9v-0.5h0.2v0.5H185.9z M185.9,190.1v-2.6h0.2v2.6H185.9z"/>
	</g>
	<g>
		<path fill="#494946" d="M187.8,190.1c-0.2,0-0.4,0-0.6-0.1c-0.2-0.1-0.3-0.2-0.5-0.3l0.1-0.2c0.1,0.1,0.3,0.2,0.4,0.3
			c0.1,0.1,0.3,0.1,0.5,0.1c0.2,0,0.4,0,0.5-0.1c0.1-0.1,0.2-0.2,0.2-0.4c0-0.1,0-0.1-0.1-0.2c0-0.1-0.1-0.1-0.2-0.1
			s-0.2-0.1-0.3-0.1c-0.1,0-0.2-0.1-0.4-0.1c-0.1,0-0.3-0.1-0.4-0.1c-0.1,0-0.2-0.1-0.3-0.1c-0.1,0-0.1-0.1-0.2-0.2
			c0-0.1-0.1-0.2-0.1-0.3c0-0.1,0-0.2,0.1-0.3c0.1-0.1,0.1-0.2,0.2-0.2c0.1-0.1,0.2-0.1,0.3-0.1c0.1,0,0.2,0,0.4,0
			c0.2,0,0.4,0,0.5,0.1c0.2,0.1,0.3,0.2,0.4,0.3l-0.1,0.1c-0.1-0.1-0.2-0.2-0.3-0.2c-0.1-0.1-0.3-0.1-0.4-0.1c-0.1,0-0.2,0-0.3,0
			c-0.1,0-0.2,0.1-0.2,0.1s-0.1,0.1-0.1,0.2c0,0.1-0.1,0.1-0.1,0.2c0,0.1,0,0.1,0,0.2c0,0,0.1,0.1,0.1,0.1c0.1,0,0.1,0.1,0.2,0.1
			c0.1,0,0.2,0.1,0.3,0.1c0.2,0,0.3,0.1,0.4,0.1c0.1,0,0.2,0.1,0.3,0.1c0.1,0.1,0.1,0.1,0.2,0.2c0,0.1,0.1,0.2,0.1,0.3
			c0,0.2-0.1,0.4-0.3,0.6C188.4,190,188.1,190.1,187.8,190.1z"/>
	</g>
	<g>
		<path fill="#494946" d="M191.6,190.1h-0.2v-1.4c0-0.3,0-0.6-0.1-0.7c-0.1-0.2-0.2-0.2-0.5-0.2c-0.1,0-0.2,0-0.3,0.1
			c-0.1,0-0.2,0.1-0.3,0.2c-0.1,0.1-0.2,0.2-0.2,0.3c-0.1,0.1-0.1,0.2-0.2,0.3v1.6h-0.2v-2.6h0.2v0.6c0.1-0.1,0.1-0.2,0.2-0.3
			c0.1-0.1,0.2-0.2,0.3-0.2c0.1-0.1,0.2-0.1,0.3-0.1c0.1,0,0.2,0,0.3,0c0.3,0,0.5,0.1,0.6,0.3c0.1,0.2,0.2,0.5,0.2,0.8V190.1z"/>
	</g>
	<g>
		<path fill="#494946" d="M193.6,190.1c-0.2,0-0.4,0-0.5-0.1c-0.2-0.1-0.3-0.2-0.4-0.3c-0.1-0.1-0.2-0.3-0.3-0.4
			c-0.1-0.2-0.1-0.3-0.1-0.5c0-0.2,0-0.4,0.1-0.5c0.1-0.2,0.2-0.3,0.3-0.4c0.1-0.1,0.2-0.2,0.4-0.3c0.2-0.1,0.3-0.1,0.5-0.1
			c0.2,0,0.4,0,0.5,0.1c0.2,0.1,0.3,0.2,0.4,0.3c0.1,0.1,0.2,0.3,0.3,0.4c0.1,0.2,0.1,0.3,0.1,0.5c0,0,0,0,0,0.1c0,0,0,0,0,0h-2.3
			c0,0.1,0,0.3,0.1,0.4c0.1,0.1,0.1,0.2,0.2,0.3c0.1,0.1,0.2,0.2,0.3,0.2c0.1,0.1,0.2,0.1,0.4,0.1c0.1,0,0.2,0,0.3,0
			c0.1,0,0.2-0.1,0.2-0.1c0.1,0,0.1-0.1,0.2-0.2c0.1-0.1,0.1-0.1,0.1-0.2l0.2,0.1c0,0.1-0.1,0.2-0.2,0.3c-0.1,0.1-0.2,0.1-0.2,0.2
			c-0.1,0.1-0.2,0.1-0.3,0.1C193.8,190.1,193.7,190.1,193.6,190.1z M194.6,188.7c0-0.2,0-0.3-0.1-0.4c-0.1-0.1-0.1-0.2-0.2-0.3
			c-0.1-0.1-0.2-0.2-0.3-0.2c-0.1-0.1-0.2-0.1-0.4-0.1c-0.1,0-0.3,0-0.4,0.1c-0.1,0.1-0.2,0.1-0.3,0.2c-0.1,0.1-0.2,0.2-0.2,0.3
			c-0.1,0.1-0.1,0.3-0.1,0.4H194.6z"/>
	</g>
	<g>
		<path fill="#494946" d="M196.7,187.7c-0.2,0-0.4,0.1-0.6,0.2c-0.2,0.1-0.3,0.3-0.4,0.5v1.6h-0.2v-2.6h0.2v0.6
			c0.1-0.2,0.2-0.3,0.4-0.4c0.1-0.1,0.3-0.2,0.5-0.2c0,0,0.1,0,0.1,0c0,0,0,0,0.1,0V187.7z"/>
	</g>
	<g>
		<path fill="#494946" d="M197.2,190.1C197.2,190.1,197.2,190.1,197.2,190.1C197.3,190.1,197.3,190.1,197.2,190.1l0.1-0.5h0.2v0.4
			c0,0.1,0,0.2-0.1,0.2s-0.1,0.1-0.2,0.1V190.1z"/>
	</g>
	<g>
		<path fill="#494946" d="M200.1,187v3.1h-0.3v-3.5h0.2l2.5,3.1v-3.1h0.3v3.5h-0.2L200.1,187z"/>
	</g>
	<g>
		<path fill="#494946" d="M206.1,189.8v0.2h-2.4v-3.5h2.3v0.2H204v1.4h1.8v0.2H204v1.5H206.1z"/>
	</g>
	<g>
		<path fill="#494946" d="M210.7,188.9c0,0.2,0,0.3-0.1,0.5c-0.1,0.1-0.2,0.3-0.3,0.4c-0.1,0.1-0.2,0.2-0.4,0.3
			c-0.2,0.1-0.3,0.1-0.5,0.1c-0.2,0-0.4,0-0.5-0.1c-0.2-0.1-0.3-0.2-0.4-0.3c-0.1-0.1-0.2-0.3-0.3-0.5s-0.1-0.4-0.1-0.6
			c0-0.4,0-0.7,0.1-1s0.2-0.5,0.3-0.7c0.1-0.2,0.2-0.3,0.4-0.4c0.2-0.1,0.3-0.1,0.5-0.1c0.2,0,0.5,0.1,0.6,0.2
			c0.2,0.1,0.3,0.3,0.4,0.5l-0.2,0.1c-0.1-0.2-0.2-0.3-0.3-0.4s-0.3-0.2-0.5-0.2c-0.2,0-0.3,0-0.4,0.1c-0.1,0.1-0.2,0.2-0.3,0.3
			c-0.1,0.1-0.2,0.3-0.2,0.5c-0.1,0.2-0.1,0.4-0.1,0.7c0-0.1,0.1-0.2,0.2-0.3c0.1-0.1,0.1-0.2,0.2-0.2c0.1-0.1,0.2-0.1,0.3-0.1
			c0.1,0,0.2-0.1,0.3-0.1c0.2,0,0.3,0,0.5,0.1c0.1,0.1,0.3,0.1,0.4,0.3c0.1,0.1,0.2,0.2,0.3,0.4
			C210.6,188.6,210.7,188.7,210.7,188.9z M209.4,189.9c0.1,0,0.3,0,0.4-0.1c0.1-0.1,0.2-0.1,0.3-0.2c0.1-0.1,0.2-0.2,0.2-0.3
			c0.1-0.1,0.1-0.2,0.1-0.4c0-0.1,0-0.3-0.1-0.4c-0.1-0.1-0.1-0.2-0.2-0.3c-0.1-0.1-0.2-0.2-0.3-0.2c-0.1-0.1-0.2-0.1-0.4-0.1
			c-0.1,0-0.3,0-0.4,0.1c-0.1,0.1-0.2,0.1-0.3,0.2c-0.1,0.1-0.2,0.2-0.2,0.3c-0.1,0.1-0.1,0.2-0.1,0.4c0,0.1,0,0.3,0.1,0.4
			c0.1,0.1,0.1,0.2,0.2,0.3c0.1,0.1,0.2,0.2,0.3,0.2C209.2,189.9,209.3,189.9,209.4,189.9z"/>
	</g>
	<g>
		<path fill="#494946" d="M213.7,189.1c0,0.2,0,0.3-0.1,0.4c-0.1,0.1-0.2,0.2-0.3,0.3c-0.1,0.1-0.2,0.2-0.4,0.2
			c-0.1,0-0.3,0.1-0.5,0.1c-0.2,0-0.3,0-0.5-0.1c-0.1-0.1-0.3-0.1-0.4-0.2c-0.1-0.1-0.2-0.2-0.2-0.3c-0.1-0.1-0.1-0.3-0.1-0.4
			c0-0.1,0-0.2,0.1-0.3c0-0.1,0.1-0.2,0.2-0.3c0.1-0.1,0.2-0.1,0.2-0.2c0.1-0.1,0.2-0.1,0.3-0.1c-0.1,0-0.2-0.1-0.2-0.1
			c-0.1-0.1-0.1-0.1-0.2-0.2c-0.1-0.1-0.1-0.1-0.1-0.2c0-0.1,0-0.2,0-0.3c0-0.1,0-0.3,0.1-0.4c0.1-0.1,0.1-0.2,0.3-0.3
			c0.1-0.1,0.2-0.1,0.3-0.2c0.1,0,0.3-0.1,0.4-0.1s0.3,0,0.4,0.1c0.1,0,0.2,0.1,0.3,0.2c0.1,0.1,0.2,0.2,0.3,0.3
			c0.1,0.1,0.1,0.2,0.1,0.4c0,0.1,0,0.2-0.1,0.3c0,0.1-0.1,0.1-0.1,0.2c-0.1,0.1-0.1,0.1-0.2,0.2c-0.1,0-0.2,0.1-0.2,0.1
			c0.1,0,0.2,0.1,0.3,0.1c0.1,0.1,0.2,0.1,0.2,0.2c0.1,0.1,0.1,0.2,0.2,0.3C213.6,188.9,213.7,189,213.7,189.1z M213.4,189.1
			c0-0.1,0-0.2-0.1-0.3c-0.1-0.1-0.1-0.2-0.2-0.3c-0.1-0.1-0.2-0.1-0.3-0.2c-0.1,0-0.2-0.1-0.3-0.1c-0.1,0-0.2,0-0.3,0.1
			c-0.1,0-0.2,0.1-0.3,0.2c-0.1,0.1-0.2,0.2-0.2,0.3c-0.1,0.1-0.1,0.2-0.1,0.3c0,0.1,0,0.2,0.1,0.3c0.1,0.1,0.1,0.2,0.2,0.2
			c0.1,0.1,0.2,0.1,0.3,0.2c0.1,0,0.2,0.1,0.3,0.1c0.1,0,0.2,0,0.3-0.1c0.1,0,0.2-0.1,0.3-0.2c0.1-0.1,0.2-0.2,0.2-0.3
			C213.4,189.3,213.4,189.2,213.4,189.1z M211.6,187.4c0,0.1,0,0.2,0.1,0.3c0.1,0.1,0.1,0.1,0.2,0.2c0.1,0.1,0.2,0.1,0.3,0.1
			c0.1,0,0.2,0,0.3,0c0.1,0,0.2,0,0.3,0s0.2-0.1,0.3-0.1c0.1-0.1,0.1-0.1,0.2-0.2c0.1-0.1,0.1-0.2,0.1-0.3c0-0.1,0-0.2-0.1-0.3
			c0-0.1-0.1-0.1-0.2-0.2c-0.1-0.1-0.2-0.1-0.3-0.1c-0.1,0-0.2,0-0.3,0s-0.2,0-0.3,0c-0.1,0-0.2,0.1-0.3,0.1
			c-0.1,0.1-0.1,0.1-0.2,0.2C211.6,187.2,211.6,187.3,211.6,187.4z"/>
	</g>
	<g>
		<path fill="#494946" d="M216.3,187.4h-2v-0.2h2.4l-1.8,3.5h-0.3L216.3,187.4z"/>
	</g>
	<g>
		<path fill="#494946" d="M217,188.4c0-0.2,0-0.3,0.1-0.5s0.2-0.3,0.3-0.4c0.1-0.1,0.2-0.2,0.4-0.3c0.2-0.1,0.3-0.1,0.5-0.1
			c0.2,0,0.3,0,0.5,0.1c0.2,0.1,0.3,0.2,0.4,0.3c0.1,0.1,0.2,0.3,0.3,0.5c0.1,0.2,0.1,0.4,0.1,0.6c0,0.4,0,0.7-0.1,1
			c-0.1,0.3-0.2,0.5-0.3,0.7c-0.1,0.2-0.2,0.3-0.4,0.4c-0.2,0.1-0.3,0.1-0.5,0.1c-0.2,0-0.5-0.1-0.6-0.2c-0.2-0.1-0.3-0.3-0.4-0.5
			l0.2-0.1c0.1,0.2,0.2,0.3,0.3,0.4c0.2,0.1,0.3,0.2,0.5,0.2c0.2,0,0.3,0,0.4-0.1c0.1-0.1,0.2-0.2,0.3-0.3c0.1-0.1,0.2-0.3,0.2-0.5
			c0.1-0.2,0.1-0.4,0.1-0.7c0,0.1-0.1,0.2-0.2,0.3c-0.1,0.1-0.1,0.2-0.2,0.2s-0.2,0.1-0.3,0.1c-0.1,0-0.2,0.1-0.3,0.1
			c-0.2,0-0.3,0-0.5-0.1c-0.1-0.1-0.3-0.1-0.4-0.3c-0.1-0.1-0.2-0.2-0.3-0.4C217.1,188.7,217,188.6,217,188.4z M218.3,187.4
			c-0.1,0-0.3,0-0.4,0.1c-0.1,0.1-0.2,0.1-0.3,0.2c-0.1,0.1-0.2,0.2-0.2,0.3c-0.1,0.1-0.1,0.2-0.1,0.4s0,0.3,0.1,0.4
			c0.1,0.1,0.1,0.2,0.2,0.3c0.1,0.1,0.2,0.2,0.3,0.2c0.1,0.1,0.2,0.1,0.4,0.1c0.1,0,0.3,0,0.4-0.1c0.1-0.1,0.2-0.1,0.3-0.2
			c0.1-0.1,0.2-0.2,0.2-0.3c0.1-0.1,0.1-0.2,0.1-0.4c0-0.1,0-0.3-0.1-0.4c-0.1-0.1-0.1-0.2-0.2-0.3c-0.1-0.1-0.2-0.2-0.3-0.2
			C218.5,187.5,218.4,187.4,218.3,187.4z"/>
	</g>
	<g>
		<path fill="#494946" d="M221.8,189.8v0.2h-1.6v-0.2h0.7v-2.3c0,0-0.1,0.1-0.1,0.1c-0.1,0-0.1,0.1-0.2,0.1c-0.1,0-0.2,0.1-0.2,0.1
			c-0.1,0-0.2,0-0.2,0v-0.2c0.1,0,0.2,0,0.3-0.1c0.1,0,0.2-0.1,0.3-0.2c0.1-0.1,0.1-0.1,0.2-0.2c0.1-0.1,0.1-0.1,0.1-0.1h0.3v2.6
			H221.8z"/>
	</g>
</g>
<g>
	<g>
		<path fill="#F68720" d="M181.9,201.7c-0.2,0-0.4-0.1-0.6-0.2c-0.2-0.1-0.3-0.3-0.4-0.4v1.6h-0.2v-3.6h0.2v0.5
			c0.1-0.2,0.2-0.3,0.4-0.4s0.4-0.2,0.6-0.2c0.2,0,0.3,0,0.5,0.1c0.2,0.1,0.3,0.2,0.4,0.3c0.1,0.1,0.2,0.3,0.3,0.4
			c0.1,0.2,0.1,0.3,0.1,0.5c0,0.2,0,0.3-0.1,0.5c-0.1,0.2-0.1,0.3-0.2,0.4c-0.1,0.1-0.2,0.2-0.4,0.3
			C182.2,201.7,182,201.7,181.9,201.7z M181.8,201.5c0.1,0,0.3,0,0.4-0.1c0.1-0.1,0.2-0.1,0.3-0.3c0.1-0.1,0.2-0.2,0.2-0.4
			c0-0.1,0.1-0.3,0.1-0.4c0-0.1,0-0.3-0.1-0.4c-0.1-0.1-0.1-0.3-0.2-0.4c-0.1-0.1-0.2-0.2-0.3-0.2c-0.1-0.1-0.3-0.1-0.4-0.1
			c-0.1,0-0.2,0-0.3,0.1c-0.1,0-0.2,0.1-0.3,0.2c-0.1,0.1-0.2,0.1-0.2,0.2c-0.1,0.1-0.1,0.2-0.1,0.3v0.9c0,0.1,0.1,0.2,0.2,0.3
			s0.1,0.2,0.2,0.2c0.1,0.1,0.2,0.1,0.3,0.1C181.6,201.5,181.7,201.5,181.8,201.5z"/>
	</g>
	<g>
		<path fill="#9B8F84" d="M183.8,201.7v-0.4h0.2v0.4H183.8z"/>
	</g>
	<g>
		<path fill="#494946" d="M186.1,199.9c0-0.2,0-0.3,0.1-0.5c0-0.2,0.1-0.3,0.1-0.5c0.1-0.2,0.1-0.3,0.2-0.5c0.1-0.2,0.2-0.3,0.3-0.5
			l0.2,0.1c-0.1,0.1-0.1,0.2-0.2,0.4c-0.1,0.1-0.1,0.3-0.2,0.5c-0.1,0.2-0.1,0.3-0.2,0.5c0,0.2-0.1,0.3-0.1,0.5
			c0,0.3,0.1,0.5,0.2,0.8c0.1,0.3,0.3,0.6,0.5,0.9l-0.2,0.1c-0.2-0.3-0.4-0.6-0.5-0.9C186.2,200.6,186.1,200.3,186.1,199.9z"/>
	</g>
	<g>
		<path fill="#494946" d="M189.2,202.3v-0.9h-1.7v-0.2l1.8-2.3h0.2v2.3h0.4v0.2h-0.4v0.9H189.2z M187.7,201.1h1.5v-1.9L187.7,201.1z
			"/>
	</g>
	<g>
		<path fill="#494946" d="M192.9,200.2c0,0.2,0,0.4-0.1,0.6c-0.1,0.2-0.1,0.3-0.3,0.5c-0.1,0.1-0.2,0.2-0.4,0.3
			c-0.2,0.1-0.3,0.1-0.5,0.1c-0.2,0-0.3,0-0.5-0.1c-0.2-0.1-0.3-0.2-0.4-0.3c-0.1-0.1-0.2-0.3-0.3-0.5c-0.1-0.2-0.1-0.4-0.1-0.6
			c0-0.2,0-0.4,0.1-0.6c0.1-0.2,0.1-0.3,0.3-0.5c0.1-0.1,0.2-0.2,0.4-0.3c0.2-0.1,0.3-0.1,0.5-0.1c0.2,0,0.3,0,0.5,0.1
			c0.2,0.1,0.3,0.2,0.4,0.3c0.1,0.1,0.2,0.3,0.3,0.5C192.9,199.8,192.9,200,192.9,200.2z M192.7,200.2c0-0.2,0-0.4-0.1-0.5
			c0-0.2-0.1-0.3-0.2-0.4c-0.1-0.1-0.2-0.2-0.3-0.3c-0.1-0.1-0.3-0.1-0.4-0.1c-0.1,0-0.3,0-0.4,0.1c-0.1,0.1-0.2,0.1-0.3,0.3
			c-0.1,0.1-0.2,0.2-0.2,0.4c0,0.2-0.1,0.3-0.1,0.5c0,0.2,0,0.4,0.1,0.5c0,0.2,0.1,0.3,0.2,0.4c0.1,0.1,0.2,0.2,0.3,0.3
			c0.1,0.1,0.3,0.1,0.4,0.1c0.1,0,0.3,0,0.4-0.1c0.1-0.1,0.2-0.1,0.3-0.3c0.1-0.1,0.2-0.2,0.2-0.4
			C192.6,200.6,192.7,200.4,192.7,200.2z"/>
	</g>
	<g>
		<path fill="#494946" d="M193.6,201.7c0-0.1,0-0.2,0-0.3c0-0.1,0.1-0.2,0.1-0.3c0.1-0.1,0.1-0.2,0.3-0.3c0.1-0.1,0.3-0.2,0.4-0.3
			c0.1,0,0.2-0.1,0.3-0.1c0.1,0,0.2-0.1,0.3-0.2c0.1-0.1,0.2-0.1,0.2-0.2c0.1-0.1,0.1-0.2,0.1-0.3c0-0.1,0-0.1,0-0.2
			c0-0.1-0.1-0.1-0.1-0.2c-0.1-0.1-0.1-0.1-0.2-0.1c-0.1,0-0.2,0-0.3,0c-0.1,0-0.2,0-0.3,0c-0.1,0-0.2,0.1-0.2,0.1
			c-0.1,0-0.1,0.1-0.2,0.1c0,0-0.1,0.1-0.1,0.1l-0.2-0.2c0,0,0.1-0.1,0.2-0.1c0.1-0.1,0.1-0.1,0.2-0.2c0.1,0,0.2-0.1,0.3-0.1
			c0.1,0,0.2-0.1,0.4-0.1c0.1,0,0.3,0,0.4,0.1c0.1,0,0.2,0.1,0.3,0.2c0.1,0.1,0.1,0.2,0.2,0.3c0,0.1,0.1,0.2,0.1,0.3
			c0,0.1,0,0.3-0.1,0.4c-0.1,0.1-0.1,0.2-0.2,0.3c-0.1,0.1-0.2,0.1-0.3,0.2c-0.1,0-0.2,0.1-0.3,0.1c-0.2,0.1-0.3,0.1-0.4,0.2
			c-0.1,0.1-0.2,0.2-0.2,0.2c-0.1,0.1-0.1,0.2-0.1,0.3c0,0.1,0,0.2-0.1,0.3h1.8v0.2H193.6z"/>
	</g>
	<g>
		<path fill="#494946" d="M197.2,199.9c0,0.3-0.1,0.6-0.2,0.9c-0.1,0.3-0.3,0.6-0.5,0.9l-0.2-0.1c0.2-0.3,0.4-0.6,0.5-0.9
			c0.1-0.3,0.2-0.6,0.2-0.8c0-0.2,0-0.3-0.1-0.5c0-0.2-0.1-0.3-0.2-0.5c-0.1-0.2-0.1-0.3-0.2-0.5c-0.1-0.1-0.1-0.3-0.2-0.4l0.2-0.1
			c0.1,0.2,0.2,0.3,0.3,0.5c0.1,0.2,0.2,0.3,0.2,0.5c0.1,0.2,0.1,0.3,0.1,0.5C197.1,199.6,197.2,199.8,197.2,199.9z"/>
	</g>
	<g>
		<path fill="#494946" d="M200.6,200.5c0.2,0,0.4,0.1,0.5,0.3c0.1,0.2,0.2,0.4,0.2,0.6c0,0.1,0,0.3-0.1,0.4
			c-0.1,0.1-0.1,0.2-0.2,0.3c-0.1,0.1-0.2,0.2-0.4,0.2c-0.1,0-0.3,0.1-0.5,0.1c-0.2,0-0.5-0.1-0.7-0.2c-0.2-0.1-0.3-0.3-0.4-0.4
			l0.2-0.1c0.1,0.2,0.2,0.3,0.3,0.4c0.2,0.1,0.3,0.1,0.6,0.1c0.3,0,0.5-0.1,0.6-0.2c0.2-0.1,0.2-0.3,0.2-0.6c0-0.2-0.1-0.4-0.2-0.6
			c-0.2-0.1-0.4-0.2-0.7-0.2h-0.1v-0.2h0.1c0.3,0,0.5-0.1,0.6-0.2c0.1-0.1,0.2-0.3,0.2-0.5c0-0.1,0-0.2-0.1-0.3
			c0-0.1-0.1-0.2-0.2-0.2c-0.1-0.1-0.2-0.1-0.2-0.1c-0.1,0-0.2,0-0.3,0c-0.2,0-0.4,0-0.5,0.1c-0.1,0.1-0.3,0.2-0.3,0.4l-0.2-0.1
			c0-0.1,0.1-0.2,0.2-0.2c0.1-0.1,0.1-0.1,0.2-0.2c0.1-0.1,0.2-0.1,0.3-0.1c0.1,0,0.2,0,0.3,0c0.1,0,0.3,0,0.4,0.1
			c0.1,0,0.2,0.1,0.3,0.2c0.1,0.1,0.2,0.2,0.2,0.3c0.1,0.1,0.1,0.2,0.1,0.4c0,0.1,0,0.2,0,0.3c0,0.1-0.1,0.2-0.1,0.2
			c-0.1,0.1-0.1,0.1-0.2,0.2C200.8,200.4,200.7,200.5,200.6,200.5z"/>
	</g>
	<g>
		<path fill="#494946" d="M204.5,200.7c0,0.2,0,0.3-0.1,0.4c-0.1,0.1-0.2,0.2-0.3,0.3c-0.1,0.1-0.2,0.2-0.4,0.2
			c-0.1,0-0.3,0.1-0.5,0.1c-0.2,0-0.3,0-0.5-0.1c-0.1-0.1-0.3-0.1-0.4-0.2c-0.1-0.1-0.2-0.2-0.2-0.3c-0.1-0.1-0.1-0.3-0.1-0.4
			c0-0.1,0-0.2,0.1-0.3c0-0.1,0.1-0.2,0.2-0.3c0.1-0.1,0.2-0.1,0.2-0.2c0.1-0.1,0.2-0.1,0.3-0.1c-0.1,0-0.2-0.1-0.2-0.1
			c-0.1-0.1-0.1-0.1-0.2-0.2c-0.1-0.1-0.1-0.1-0.1-0.2c0-0.1-0.1-0.2-0.1-0.3c0-0.1,0-0.3,0.1-0.4s0.1-0.2,0.3-0.3s0.2-0.1,0.3-0.2
			c0.1,0,0.3-0.1,0.4-0.1c0.1,0,0.3,0,0.4,0.1c0.1,0,0.2,0.1,0.3,0.2s0.2,0.2,0.3,0.3s0.1,0.2,0.1,0.4c0,0.1,0,0.2-0.1,0.3
			c0,0.1-0.1,0.1-0.1,0.2c-0.1,0.1-0.1,0.1-0.2,0.2c-0.1,0-0.2,0.1-0.2,0.1c0.1,0,0.2,0.1,0.3,0.1c0.1,0.1,0.2,0.1,0.2,0.2
			c0.1,0.1,0.1,0.2,0.2,0.3C204.4,200.5,204.5,200.6,204.5,200.7z M204.2,200.7c0-0.1,0-0.2-0.1-0.3c-0.1-0.1-0.1-0.2-0.2-0.3
			c-0.1-0.1-0.2-0.1-0.3-0.2s-0.2-0.1-0.3-0.1c-0.1,0-0.2,0-0.3,0.1c-0.1,0-0.2,0.1-0.3,0.2c-0.1,0.1-0.2,0.2-0.2,0.3
			c-0.1,0.1-0.1,0.2-0.1,0.3c0,0.1,0,0.2,0.1,0.3c0.1,0.1,0.1,0.2,0.2,0.2c0.1,0.1,0.2,0.1,0.3,0.2c0.1,0,0.2,0.1,0.3,0.1
			c0.1,0,0.2,0,0.3-0.1c0.1,0,0.2-0.1,0.3-0.2c0.1-0.1,0.2-0.2,0.2-0.3C204.2,200.9,204.2,200.8,204.2,200.7z M202.4,199
			c0,0.1,0,0.2,0.1,0.3c0.1,0.1,0.1,0.1,0.2,0.2c0.1,0.1,0.2,0.1,0.3,0.1c0.1,0,0.2,0,0.3,0c0.1,0,0.2,0,0.3,0
			c0.1,0,0.2-0.1,0.3-0.1c0.1-0.1,0.1-0.1,0.2-0.2c0.1-0.1,0.1-0.2,0.1-0.3c0-0.1,0-0.2-0.1-0.3c0-0.1-0.1-0.1-0.2-0.2
			c-0.1-0.1-0.2-0.1-0.3-0.1c-0.1,0-0.2,0-0.3,0c-0.1,0-0.2,0-0.3,0c-0.1,0-0.2,0.1-0.3,0.1c-0.1,0.1-0.1,0.1-0.2,0.2
			C202.4,198.8,202.4,198.9,202.4,199z"/>
	</g>
	<g>
		<path fill="#494946" d="M207.7,200.2c0,0.2,0,0.4-0.1,0.6c-0.1,0.2-0.1,0.3-0.3,0.5c-0.1,0.1-0.2,0.2-0.4,0.3
			c-0.2,0.1-0.3,0.1-0.5,0.1c-0.2,0-0.3,0-0.5-0.1c-0.2-0.1-0.3-0.2-0.4-0.3c-0.1-0.1-0.2-0.3-0.3-0.5c-0.1-0.2-0.1-0.4-0.1-0.6
			c0-0.2,0-0.4,0.1-0.6c0.1-0.2,0.1-0.3,0.3-0.5c0.1-0.1,0.2-0.2,0.4-0.3c0.2-0.1,0.3-0.1,0.5-0.1c0.2,0,0.3,0,0.5,0.1
			c0.2,0.1,0.3,0.2,0.4,0.3c0.1,0.1,0.2,0.3,0.3,0.5C207.6,199.8,207.7,200,207.7,200.2z M207.4,200.2c0-0.2,0-0.4-0.1-0.5
			c0-0.2-0.1-0.3-0.2-0.4c-0.1-0.1-0.2-0.2-0.3-0.3c-0.1-0.1-0.3-0.1-0.4-0.1s-0.3,0-0.4,0.1c-0.1,0.1-0.2,0.1-0.3,0.3
			c-0.1,0.1-0.2,0.2-0.2,0.4c0,0.2-0.1,0.3-0.1,0.5c0,0.2,0,0.4,0.1,0.5c0,0.2,0.1,0.3,0.2,0.4c0.1,0.1,0.2,0.2,0.3,0.3
			c0.1,0.1,0.3,0.1,0.4,0.1s0.3,0,0.4-0.1c0.1-0.1,0.2-0.1,0.3-0.3c0.1-0.1,0.2-0.2,0.2-0.4C207.4,200.6,207.4,200.4,207.4,200.2z"
			/>
	</g>
	<g>
		<path fill="#494946" d="M208.4,200.4v-0.2h1.4v0.2H208.4z"/>
	</g>
	<g>
		<path fill="#494946" d="M211.7,200.1c0.2,0,0.3,0,0.4,0.1c0.1,0.1,0.3,0.1,0.4,0.2c0.1,0.1,0.2,0.2,0.2,0.4
			c0.1,0.1,0.1,0.3,0.1,0.5c0,0.2,0,0.3-0.1,0.5s-0.2,0.3-0.3,0.4c-0.1,0.1-0.2,0.2-0.4,0.2c-0.1,0.1-0.3,0.1-0.5,0.1
			c-0.1,0-0.2,0-0.4,0c-0.1,0-0.2-0.1-0.3-0.1c-0.1-0.1-0.2-0.1-0.3-0.2c-0.1-0.1-0.1-0.2-0.2-0.3l0.2-0.1c0.1,0.2,0.2,0.3,0.4,0.4
			s0.4,0.2,0.6,0.2c0.1,0,0.3,0,0.4-0.1c0.1,0,0.2-0.1,0.3-0.2c0.1-0.1,0.2-0.2,0.2-0.3c0-0.1,0.1-0.2,0.1-0.4c0-0.1,0-0.3-0.1-0.4
			c0-0.1-0.1-0.2-0.2-0.3c-0.1-0.1-0.2-0.1-0.3-0.2c-0.1,0-0.2-0.1-0.4-0.1c-0.2,0-0.3,0-0.5,0.1c-0.1,0.1-0.3,0.2-0.4,0.3h-0.2
			c0,0,0-0.1,0-0.1c0-0.1,0-0.2,0.1-0.2c0-0.1,0-0.2,0.1-0.3c0-0.1,0-0.2,0.1-0.3c0.1-0.3,0.1-0.6,0.2-0.9h1.7v0.2h-1.5l-0.3,1.4
			c0.1-0.1,0.2-0.2,0.4-0.2C211.4,200.1,211.6,200.1,211.7,200.1z"/>
	</g>
	<g>
		<path fill="#494946" d="M215.1,202.3v-0.9h-1.7v-0.2l1.8-2.3h0.2v2.3h0.4v0.2h-0.4v0.9H215.1z M213.6,201.1h1.5v-1.9L213.6,201.1z
			"/>
	</g>
	<g>
		<path fill="#494946" d="M216.3,201.7c0-0.1,0-0.2,0-0.3c0-0.1,0.1-0.2,0.1-0.3c0.1-0.1,0.1-0.2,0.3-0.3c0.1-0.1,0.3-0.2,0.4-0.3
			c0.1,0,0.2-0.1,0.3-0.1c0.1,0,0.2-0.1,0.3-0.2c0.1-0.1,0.2-0.1,0.2-0.2c0.1-0.1,0.1-0.2,0.1-0.3c0-0.1,0-0.1,0-0.2
			c0-0.1-0.1-0.1-0.1-0.2c-0.1-0.1-0.1-0.1-0.2-0.1c-0.1,0-0.2,0-0.3,0c-0.1,0-0.2,0-0.3,0c-0.1,0-0.2,0.1-0.2,0.1
			c-0.1,0-0.1,0.1-0.2,0.1c0,0-0.1,0.1-0.1,0.1l-0.2-0.2c0,0,0.1-0.1,0.2-0.1c0.1-0.1,0.1-0.1,0.2-0.2c0.1,0,0.2-0.1,0.3-0.1
			c0.1,0,0.2-0.1,0.4-0.1c0.1,0,0.3,0,0.4,0.1c0.1,0,0.2,0.1,0.3,0.2c0.1,0.1,0.1,0.2,0.2,0.3c0,0.1,0.1,0.2,0.1,0.3
			c0,0.1,0,0.3-0.1,0.4c-0.1,0.1-0.1,0.2-0.2,0.3c-0.1,0.1-0.2,0.1-0.3,0.2c-0.1,0-0.2,0.1-0.3,0.1c-0.2,0.1-0.3,0.1-0.4,0.2
			c-0.1,0.1-0.2,0.2-0.2,0.2c-0.1,0.1-0.1,0.2-0.1,0.3c0,0.1,0,0.2,0,0.3h1.8v0.2H216.3z"/>
	</g>
	<g>
		<path fill="#494946" d="M219,200c0-0.2,0-0.3,0.1-0.5s0.2-0.3,0.3-0.4c0.1-0.1,0.2-0.2,0.4-0.3c0.2-0.1,0.3-0.1,0.5-0.1
			c0.2,0,0.3,0,0.5,0.1c0.2,0.1,0.3,0.2,0.4,0.3c0.1,0.1,0.2,0.3,0.3,0.5c0.1,0.2,0.1,0.4,0.1,0.6c0,0.4,0,0.7-0.1,1
			c-0.1,0.3-0.2,0.5-0.3,0.7c-0.1,0.2-0.2,0.3-0.4,0.4c-0.2,0.1-0.3,0.1-0.5,0.1c-0.2,0-0.5-0.1-0.6-0.2c-0.2-0.1-0.3-0.3-0.4-0.5
			l0.2-0.1c0.1,0.2,0.2,0.3,0.3,0.4c0.2,0.1,0.3,0.2,0.5,0.2c0.2,0,0.3,0,0.4-0.1c0.1-0.1,0.2-0.2,0.3-0.3c0.1-0.1,0.2-0.3,0.2-0.5
			c0.1-0.2,0.1-0.4,0.1-0.7c0,0.1-0.1,0.2-0.2,0.3c-0.1,0.1-0.2,0.2-0.2,0.2c-0.1,0.1-0.2,0.1-0.3,0.1c-0.1,0-0.2,0.1-0.3,0.1
			c-0.2,0-0.3,0-0.5-0.1c-0.1-0.1-0.3-0.1-0.4-0.3c-0.1-0.1-0.2-0.2-0.3-0.4C219,200.3,219,200.2,219,200z M220.2,199
			c-0.1,0-0.3,0-0.4,0.1c-0.1,0.1-0.2,0.1-0.3,0.2c-0.1,0.1-0.2,0.2-0.2,0.3c-0.1,0.1-0.1,0.2-0.1,0.4c0,0.1,0,0.3,0.1,0.4
			c0.1,0.1,0.1,0.2,0.2,0.3c0.1,0.1,0.2,0.2,0.3,0.2c0.1,0.1,0.2,0.1,0.4,0.1c0.1,0,0.3,0,0.4-0.1c0.1-0.1,0.2-0.1,0.3-0.2
			s0.2-0.2,0.2-0.3c0.1-0.1,0.1-0.2,0.1-0.4c0-0.1,0-0.3-0.1-0.4c-0.1-0.1-0.1-0.2-0.2-0.3c-0.1-0.1-0.2-0.2-0.3-0.2
			C220.5,199.1,220.4,199,220.2,199z"/>
	</g>
	<g>
		<path fill="#F68720" d="M184.4,208.3h-0.2v-1.4c0-0.3-0.1-0.6-0.2-0.7c-0.1-0.2-0.3-0.2-0.5-0.2c-0.1,0-0.2,0-0.3,0.1
			c-0.1,0-0.2,0.1-0.3,0.2c-0.1,0.1-0.1,0.2-0.2,0.3c-0.1,0.1-0.1,0.2-0.1,0.3v1.6h-0.2v-1.4c0-0.3-0.1-0.6-0.1-0.7
			c-0.1-0.2-0.3-0.2-0.5-0.2c-0.1,0-0.2,0-0.3,0.1c-0.1,0-0.2,0.1-0.3,0.2c-0.1,0.1-0.1,0.2-0.2,0.3c-0.1,0.1-0.1,0.2-0.1,0.3v1.6
			h-0.2v-2.6h0.2v0.6c0.1-0.2,0.3-0.4,0.4-0.5c0.2-0.1,0.4-0.2,0.6-0.2c0.2,0,0.4,0.1,0.5,0.2c0.1,0.1,0.2,0.3,0.2,0.5
			c0.3-0.5,0.6-0.7,1-0.7c0.3,0,0.5,0.1,0.6,0.3c0.1,0.2,0.2,0.5,0.2,0.8V208.3z"/>
	</g>
	<g>
		<path fill="#F68720" d="M185.3,208.3v-0.4h0.2v0.4H185.3z"/>
	</g>
	<g>
		<path fill="#494946" d="M189.9,208.3h-0.2v-1.4c0-0.3,0-0.6-0.1-0.7c-0.1-0.2-0.2-0.2-0.5-0.2c-0.1,0-0.2,0-0.3,0.1
			c-0.1,0-0.2,0.1-0.3,0.2c-0.1,0.1-0.2,0.2-0.2,0.3c-0.1,0.1-0.1,0.2-0.2,0.3v1.6h-0.2v-2.6h0.2v0.6c0.1-0.1,0.1-0.2,0.2-0.3
			c0.1-0.1,0.2-0.2,0.3-0.2c0.1-0.1,0.2-0.1,0.3-0.1c0.1,0,0.2,0,0.3,0c0.3,0,0.5,0.1,0.6,0.3c0.1,0.2,0.2,0.5,0.2,0.8V208.3z"/>
	</g>
	<g>
		<path fill="#494946" d="M190.5,208.5v-0.2h1.9v0.2H190.5z"/>
	</g>
	<g>
		<path fill="#494946" d="M193.8,208.3c-0.6,0-0.8-0.4-0.8-1.1v-1.5h0.2v1.5c0,0.6,0.2,1,0.7,1c0.1,0,0.2,0,0.3-0.1
			c0.1,0,0.2-0.1,0.3-0.2c0.1-0.1,0.2-0.2,0.2-0.2c0.1-0.1,0.1-0.2,0.2-0.3v-1.6h0.2v2.2c0,0.1,0,0.1,0.1,0.1v0.2c0,0,0,0,0,0
			s0,0,0,0c-0.1,0-0.1,0-0.2-0.1c0,0-0.1-0.1-0.1-0.2v-0.4c-0.1,0.2-0.3,0.4-0.5,0.5C194.3,208.3,194.1,208.3,193.8,208.3z"/>
	</g>
	<g>
		<path fill="#494946" d="M196.1,204.7h0.3v3.1c0,0.1,0,0.2,0.1,0.2c0.1,0.1,0.1,0.1,0.2,0.1c0,0,0.1,0,0.1,0c0.1,0,0.1,0,0.1,0
			l0.1,0.2c-0.1,0-0.1,0-0.2,0.1c-0.1,0-0.2,0-0.2,0c-0.1,0-0.3,0-0.3-0.1c-0.1-0.1-0.1-0.2-0.1-0.3V204.7z"/>
	</g>
	<g>
		<path fill="#494946" d="M198.7,205.9c-0.2,0-0.4,0.1-0.6,0.2c-0.2,0.1-0.3,0.3-0.4,0.5v1.6h-0.2v-2.6h0.2v0.6
			c0.1-0.2,0.2-0.3,0.4-0.4c0.1-0.1,0.3-0.2,0.5-0.2c0,0,0.1,0,0.1,0s0.1,0,0.1,0V205.9z"/>
	</g>
	<g>
		<path fill="#494946" d="M199.4,205.1v-0.5h0.2v0.5H199.4z M199.4,208.3v-2.6h0.2v2.6H199.4z"/>
	</g>
	<g>
		<path fill="#494946" d="M200.3,207c0-0.2,0-0.4,0.1-0.5c0.1-0.2,0.2-0.3,0.3-0.4c0.1-0.1,0.2-0.2,0.4-0.3c0.2-0.1,0.3-0.1,0.5-0.1
			c0.2,0,0.4,0.1,0.6,0.2c0.2,0.1,0.3,0.3,0.4,0.4l-0.2,0.1c-0.1-0.1-0.2-0.3-0.3-0.3c-0.1-0.1-0.3-0.1-0.5-0.1
			c-0.1,0-0.3,0-0.4,0.1c-0.1,0.1-0.2,0.1-0.3,0.2c-0.1,0.1-0.2,0.2-0.2,0.4c-0.1,0.1-0.1,0.3-0.1,0.4c0,0.2,0,0.3,0.1,0.4
			c0.1,0.1,0.1,0.3,0.2,0.4c0.1,0.1,0.2,0.2,0.3,0.2c0.1,0.1,0.3,0.1,0.4,0.1c0.1,0,0.2,0,0.3,0c0.1,0,0.2-0.1,0.2-0.1
			c0.1,0,0.1-0.1,0.2-0.2c0.1-0.1,0.1-0.1,0.1-0.2l0.2,0.1c0,0.1-0.1,0.2-0.2,0.3c-0.1,0.1-0.1,0.1-0.2,0.2
			c-0.1,0.1-0.2,0.1-0.3,0.1c-0.1,0-0.2,0-0.3,0c-0.2,0-0.4,0-0.5-0.1c-0.2-0.1-0.3-0.2-0.4-0.3c-0.1-0.1-0.2-0.3-0.3-0.4
			C200.4,207.3,200.3,207.2,200.3,207z"/>
	</g>
	<g>
		<path fill="#494946" d="M205.5,208.3h-0.2v-1.4c0-0.3-0.1-0.6-0.2-0.7c-0.1-0.2-0.3-0.2-0.5-0.2c-0.1,0-0.2,0-0.3,0.1
			s-0.2,0.1-0.3,0.2c-0.1,0.1-0.2,0.2-0.2,0.3c-0.1,0.1-0.1,0.2-0.1,0.3v1.6h-0.2v-3.6h0.2v1.7c0.1-0.2,0.3-0.4,0.4-0.5
			c0.2-0.1,0.4-0.2,0.6-0.2c0.1,0,0.3,0,0.4,0.1c0.1,0.1,0.2,0.1,0.3,0.2s0.1,0.2,0.1,0.4c0,0.1,0,0.3,0,0.5V208.3z"/>
	</g>
	<g>
		<path fill="#494946" d="M207.9,208.1v0.2h-1.6v-0.2h0.7v-2.3c0,0-0.1,0.1-0.1,0.1c-0.1,0-0.1,0.1-0.2,0.1c-0.1,0-0.2,0.1-0.2,0.1
			c-0.1,0-0.2,0-0.2,0v-0.2c0.1,0,0.2,0,0.3-0.1c0.1,0,0.2-0.1,0.3-0.2c0.1-0.1,0.1-0.1,0.2-0.2c0.1-0.1,0.1-0.1,0.1-0.1h0.3v2.6
			H207.9z"/>
	</g>
	<g>
		<path fill="#494946" d="M210.1,208.1v0.2h-1.6v-0.2h0.7v-2.3c0,0-0.1,0.1-0.1,0.1c-0.1,0-0.1,0.1-0.2,0.1c-0.1,0-0.2,0.1-0.2,0.1
			c-0.1,0-0.2,0-0.2,0v-0.2c0.1,0,0.2,0,0.3-0.1c0.1,0,0.2-0.1,0.3-0.2c0.1-0.1,0.1-0.1,0.2-0.2c0.1-0.1,0.1-0.1,0.1-0.1h0.3v2.6
			H210.1z"/>
	</g>
	<g>
		<path fill="#494946" d="M212.5,205.3c0.2,0,0.5,0,0.7,0.1c0.2,0.1,0.4,0.2,0.6,0.4c0.2,0.2,0.3,0.4,0.4,0.6
			c0.1,0.2,0.1,0.5,0.1,0.8c0,0,0,0.1,0,0.2c0,0.1,0,0.2,0,0.2c0,0.1,0,0.2-0.1,0.3c0,0.1-0.1,0.2-0.1,0.2c-0.1,0.1-0.1,0.1-0.2,0.2
			c-0.1,0-0.2,0.1-0.3,0.1c-0.1,0-0.1,0-0.2,0c0,0-0.1-0.1-0.1-0.1c0,0,0-0.1-0.1-0.2c0-0.1,0-0.1,0-0.2c-0.1,0.1-0.2,0.2-0.4,0.2
			c-0.1,0.1-0.3,0.1-0.5,0.1c-0.2,0-0.4-0.1-0.5-0.2c-0.1-0.1-0.2-0.3-0.2-0.5c0-0.1,0-0.2,0.1-0.3c0.1-0.1,0.1-0.2,0.2-0.2
			c0.1,0,0.2-0.1,0.3-0.1c0.1,0,0.2,0,0.3,0c0.1,0,0.3,0,0.4,0c0.1,0,0.2,0.1,0.3,0.1c0-0.1,0-0.2,0-0.3c0-0.1-0.1-0.2-0.1-0.3
			c0-0.1-0.1-0.1-0.2-0.2c-0.1,0-0.2-0.1-0.3-0.1c-0.1,0-0.3,0-0.4,0.1c-0.1,0-0.2,0.1-0.3,0.2l-0.1-0.2c0.1-0.1,0.2-0.1,0.4-0.2
			s0.3-0.1,0.4-0.1c0.2,0,0.3,0,0.4,0.1c0.1,0.1,0.2,0.1,0.2,0.2c0.1,0.1,0.1,0.2,0.1,0.3c0,0.1,0,0.2,0,0.4v0.7c0,0.1,0,0.3,0,0.4
			c0,0.1,0.1,0.1,0.2,0.1c0.1,0,0.2,0,0.3-0.1c0.1-0.1,0.1-0.2,0.2-0.3s0.1-0.2,0.1-0.3c0-0.1,0-0.2,0-0.3c0-0.2,0-0.5-0.1-0.7
			c-0.1-0.2-0.2-0.4-0.4-0.6c-0.1-0.2-0.3-0.3-0.5-0.4c-0.2-0.1-0.4-0.1-0.6-0.1c-0.2,0-0.4,0-0.6,0.1c-0.2,0.1-0.4,0.2-0.5,0.4
			c-0.2,0.2-0.3,0.3-0.4,0.5s-0.1,0.4-0.1,0.7c0,0.2,0,0.5,0.1,0.7c0.1,0.2,0.2,0.4,0.4,0.5c0.1,0.2,0.3,0.3,0.5,0.4
			c0.2,0.1,0.4,0.1,0.7,0.1c0.1,0,0.3,0,0.4,0c0.1,0,0.2-0.1,0.4-0.1l0.1,0.1c-0.1,0.1-0.3,0.1-0.4,0.1c-0.1,0-0.3,0-0.4,0
			c-0.2,0-0.5,0-0.7-0.1c-0.2-0.1-0.4-0.2-0.6-0.4c-0.2-0.2-0.3-0.4-0.4-0.6c-0.1-0.2-0.1-0.5-0.1-0.7c0-0.3,0.1-0.5,0.2-0.8
			c0.1-0.2,0.2-0.4,0.4-0.6c0.2-0.2,0.4-0.3,0.6-0.4C212,205.3,212.2,205.3,212.5,205.3z M212.8,208c0.1,0,0.1-0.1,0.2-0.1
			c0,0,0.1-0.1,0.1-0.1c0,0,0-0.1,0-0.1c0,0,0-0.1,0-0.1v-0.2c0,0-0.1,0-0.2-0.1c-0.1,0-0.3-0.1-0.4-0.1c-0.1,0-0.2,0-0.3,0
			c-0.1,0-0.2,0-0.2,0.1c-0.1,0-0.1,0.1-0.2,0.1c0,0.1-0.1,0.1-0.1,0.2c0,0.1,0,0.1,0,0.2c0,0.1,0.1,0.1,0.1,0.2
			c0.1,0,0.1,0.1,0.2,0.1c0.1,0,0.1,0,0.2,0c0.1,0,0.2,0,0.3,0C212.6,208,212.7,208,212.8,208z"/>
	</g>
	<g>
		<path fill="#494946" d="M217.1,208.3h-0.2v-1.4c0-0.3-0.1-0.6-0.2-0.7c-0.1-0.2-0.3-0.2-0.5-0.2c-0.1,0-0.2,0-0.3,0.1
			s-0.2,0.1-0.3,0.2c-0.1,0.1-0.2,0.2-0.2,0.3c-0.1,0.1-0.1,0.2-0.1,0.3v1.6H215v-3.6h0.2v1.7c0.1-0.2,0.3-0.4,0.4-0.5
			c0.2-0.1,0.4-0.2,0.6-0.2c0.1,0,0.3,0,0.4,0.1c0.1,0.1,0.2,0.1,0.3,0.2c0.1,0.1,0.1,0.2,0.1,0.4c0,0.1,0,0.3,0,0.5V208.3z"/>
	</g>
	<g>
		<path fill="#494946" d="M219.1,208.3c-0.2,0-0.4,0-0.5-0.1c-0.2-0.1-0.3-0.2-0.4-0.3c-0.1-0.1-0.2-0.3-0.3-0.4
			c-0.1-0.2-0.1-0.3-0.1-0.5c0-0.2,0-0.4,0.1-0.5c0.1-0.2,0.2-0.3,0.3-0.4c0.1-0.1,0.2-0.2,0.4-0.3c0.2-0.1,0.3-0.1,0.5-0.1
			s0.3,0,0.5,0.1c0.2,0.1,0.3,0.2,0.4,0.3c0.1,0.1,0.2,0.3,0.3,0.4c0.1,0.2,0.1,0.3,0.1,0.5c0,0.2,0,0.3-0.1,0.5
			c-0.1,0.2-0.2,0.3-0.3,0.4c-0.1,0.1-0.2,0.2-0.4,0.3C219.4,208.3,219.3,208.3,219.1,208.3z M218.1,207c0,0.2,0,0.3,0.1,0.4
			c0.1,0.1,0.1,0.3,0.2,0.4c0.1,0.1,0.2,0.2,0.3,0.2c0.1,0.1,0.3,0.1,0.4,0.1s0.3,0,0.4-0.1c0.1-0.1,0.2-0.1,0.3-0.2
			c0.1-0.1,0.2-0.2,0.2-0.4c0.1-0.1,0.1-0.3,0.1-0.4c0-0.2,0-0.3-0.1-0.4c-0.1-0.1-0.1-0.3-0.2-0.4c-0.1-0.1-0.2-0.2-0.3-0.2
			c-0.1-0.1-0.3-0.1-0.4-0.1c-0.1,0-0.3,0-0.4,0.1c-0.1,0.1-0.2,0.1-0.3,0.2c-0.1,0.1-0.2,0.2-0.2,0.4
			C218.1,206.7,218.1,206.9,218.1,207z"/>
	</g>
	<g>
		<path fill="#494946" d="M222.2,208.2C222.2,208.2,222.2,208.2,222.2,208.2c-0.1,0.1-0.1,0.1-0.2,0.1c0,0-0.1,0-0.2,0
			c-0.1,0-0.1,0-0.2,0c-0.1,0-0.1,0-0.2,0c-0.1,0-0.1,0-0.2-0.1c0,0-0.1-0.1-0.1-0.1c0-0.1,0-0.1,0-0.2v-1.9h-0.4v-0.2h0.4v-0.9h0.2
			v0.9h0.6v0.2h-0.6v1.9c0,0.1,0,0.2,0.1,0.2c0.1,0,0.1,0.1,0.2,0.1c0.1,0,0.2,0,0.3-0.1c0.1,0,0.1-0.1,0.1-0.1L222.2,208.2z"/>
	</g>
	<g>
		<path fill="#494946" d="M226.6,208.3h-0.2v-1.4c0-0.3-0.1-0.6-0.2-0.7c-0.1-0.2-0.3-0.2-0.5-0.2c-0.1,0-0.2,0-0.3,0.1
			s-0.2,0.1-0.3,0.2c-0.1,0.1-0.1,0.2-0.2,0.3c-0.1,0.1-0.1,0.2-0.1,0.3v1.6h-0.2v-1.4c0-0.3,0-0.6-0.1-0.7
			c-0.1-0.2-0.3-0.2-0.5-0.2c-0.1,0-0.2,0-0.3,0.1c-0.1,0-0.2,0.1-0.3,0.2s-0.1,0.2-0.2,0.3c-0.1,0.1-0.1,0.2-0.1,0.3v1.6h-0.2v-2.6
			h0.2v0.6c0.1-0.2,0.3-0.4,0.4-0.5c0.2-0.1,0.4-0.2,0.6-0.2c0.2,0,0.4,0.1,0.5,0.2c0.1,0.1,0.2,0.3,0.2,0.5c0.3-0.5,0.6-0.7,1-0.7
			c0.3,0,0.5,0.1,0.6,0.3c0.1,0.2,0.2,0.5,0.2,0.8V208.3z"/>
	</g>
	<g>
		<path fill="#494946" d="M228.1,208.3c-0.1,0-0.2,0-0.3-0.1c-0.1,0-0.2-0.1-0.3-0.2c-0.1-0.1-0.1-0.2-0.2-0.3
			c0-0.1-0.1-0.2-0.1-0.3c0-0.1,0-0.2,0.1-0.3c0.1-0.1,0.1-0.2,0.2-0.2c0.1-0.1,0.2-0.1,0.3-0.2s0.3-0.1,0.4-0.1c0.1,0,0.3,0,0.4,0
			c0.1,0,0.3,0.1,0.4,0.1v-0.3c0-0.2-0.1-0.4-0.2-0.6s-0.3-0.2-0.6-0.2c-0.1,0-0.3,0-0.4,0.1c-0.1,0.1-0.3,0.1-0.4,0.2l-0.1-0.2
			c0.3-0.2,0.7-0.3,0.9-0.3c0.3,0,0.6,0.1,0.7,0.3c0.2,0.2,0.3,0.4,0.3,0.7v1.3c0,0.1,0,0.1,0.1,0.1v0.2c0,0,0,0,0,0c0,0,0,0,0,0
			c-0.1,0-0.1,0-0.2-0.1c-0.1,0-0.1-0.1-0.1-0.2v-0.2c-0.1,0.2-0.3,0.3-0.5,0.4C228.5,208.3,228.3,208.3,228.1,208.3z M228.2,208.1
			c0.2,0,0.4,0,0.5-0.1c0.2-0.1,0.3-0.2,0.4-0.3c0.1-0.1,0.1-0.1,0.1-0.2v-0.5c-0.3-0.1-0.5-0.1-0.8-0.1c-0.3,0-0.5,0.1-0.6,0.2
			c-0.2,0.1-0.2,0.2-0.2,0.4c0,0.1,0,0.2,0.1,0.2c0,0.1,0.1,0.1,0.1,0.2c0.1,0.1,0.1,0.1,0.2,0.1C228,208.1,228.1,208.1,228.2,208.1
			z"/>
	</g>
	<g>
		<path fill="#494946" d="M230.3,205.1v-0.5h0.2v0.5H230.3z M230.3,208.3v-2.6h0.2v2.6H230.3z"/>
	</g>
	<g>
		<path fill="#494946" d="M231.5,204.7h0.3v3.1c0,0.1,0,0.2,0.1,0.2c0.1,0.1,0.1,0.1,0.2,0.1c0,0,0.1,0,0.1,0c0.1,0,0.1,0,0.1,0
			l0.1,0.2c-0.1,0-0.1,0-0.2,0.1c-0.1,0-0.2,0-0.2,0c-0.1,0-0.3,0-0.3-0.1c-0.1-0.1-0.1-0.2-0.1-0.3V204.7z"/>
	</g>
	<g>
		<path fill="#494946" d="M232.8,208.3v-0.4h0.2v0.4H232.8z"/>
	</g>
	<g>
		<path fill="#494946" d="M233.7,207c0-0.2,0-0.4,0.1-0.5c0.1-0.2,0.2-0.3,0.3-0.4c0.1-0.1,0.2-0.2,0.4-0.3c0.2-0.1,0.3-0.1,0.5-0.1
			c0.2,0,0.4,0.1,0.6,0.2c0.2,0.1,0.3,0.3,0.4,0.4l-0.2,0.1c-0.1-0.1-0.2-0.3-0.3-0.3s-0.3-0.1-0.5-0.1c-0.1,0-0.3,0-0.4,0.1
			c-0.1,0.1-0.2,0.1-0.3,0.2c-0.1,0.1-0.2,0.2-0.2,0.4c-0.1,0.1-0.1,0.3-0.1,0.4c0,0.2,0,0.3,0.1,0.4c0.1,0.1,0.1,0.3,0.2,0.4
			c0.1,0.1,0.2,0.2,0.3,0.2c0.1,0.1,0.3,0.1,0.4,0.1c0.1,0,0.2,0,0.3,0c0.1,0,0.2-0.1,0.2-0.1s0.1-0.1,0.2-0.2
			c0.1-0.1,0.1-0.1,0.1-0.2l0.2,0.1c0,0.1-0.1,0.2-0.2,0.3c-0.1,0.1-0.1,0.1-0.2,0.2c-0.1,0.1-0.2,0.1-0.3,0.1c-0.1,0-0.2,0-0.3,0
			c-0.2,0-0.4,0-0.5-0.1c-0.2-0.1-0.3-0.2-0.4-0.3c-0.1-0.1-0.2-0.3-0.3-0.4C233.8,207.3,233.7,207.2,233.7,207z"/>
	</g>
	<g>
		<path fill="#494946" d="M237.8,208.3c-0.2,0-0.4,0-0.5-0.1c-0.2-0.1-0.3-0.2-0.4-0.3c-0.1-0.1-0.2-0.3-0.3-0.4
			c-0.1-0.2-0.1-0.3-0.1-0.5c0-0.2,0-0.4,0.1-0.5c0.1-0.2,0.2-0.3,0.3-0.4c0.1-0.1,0.2-0.2,0.4-0.3c0.2-0.1,0.3-0.1,0.5-0.1
			s0.3,0,0.5,0.1c0.2,0.1,0.3,0.2,0.4,0.3c0.1,0.1,0.2,0.3,0.3,0.4c0.1,0.2,0.1,0.3,0.1,0.5c0,0.2,0,0.3-0.1,0.5
			c-0.1,0.2-0.2,0.3-0.3,0.4c-0.1,0.1-0.2,0.2-0.4,0.3C238.2,208.3,238,208.3,237.8,208.3z M236.8,207c0,0.2,0,0.3,0.1,0.4
			c0.1,0.1,0.1,0.3,0.2,0.4c0.1,0.1,0.2,0.2,0.3,0.2c0.1,0.1,0.3,0.1,0.4,0.1s0.3,0,0.4-0.1c0.1-0.1,0.2-0.1,0.3-0.2
			c0.1-0.1,0.2-0.2,0.2-0.4c0.1-0.1,0.1-0.3,0.1-0.4c0-0.2,0-0.3-0.1-0.4c-0.1-0.1-0.1-0.3-0.2-0.4c-0.1-0.1-0.2-0.2-0.3-0.2
			c-0.1-0.1-0.3-0.1-0.4-0.1c-0.1,0-0.3,0-0.4,0.1c-0.1,0.1-0.2,0.1-0.3,0.2c-0.1,0.1-0.2,0.2-0.2,0.4
			C236.8,206.7,236.8,206.9,236.8,207z"/>
	</g>
	<g>
		<path fill="#494946" d="M243.6,208.3h-0.2v-1.4c0-0.3-0.1-0.6-0.2-0.7c-0.1-0.2-0.3-0.2-0.5-0.2c-0.1,0-0.2,0-0.3,0.1
			c-0.1,0-0.2,0.1-0.3,0.2c-0.1,0.1-0.1,0.2-0.2,0.3c-0.1,0.1-0.1,0.2-0.1,0.3v1.6h-0.2v-1.4c0-0.3-0.1-0.6-0.1-0.7
			c-0.1-0.2-0.3-0.2-0.5-0.2c-0.1,0-0.2,0-0.3,0.1c-0.1,0-0.2,0.1-0.3,0.2c-0.1,0.1-0.1,0.2-0.2,0.3c-0.1,0.1-0.1,0.2-0.1,0.3v1.6
			h-0.2v-2.6h0.2v0.6c0.1-0.2,0.3-0.4,0.4-0.5s0.4-0.2,0.6-0.2c0.2,0,0.4,0.1,0.5,0.2c0.1,0.1,0.2,0.3,0.2,0.5
			c0.3-0.5,0.6-0.7,1-0.7c0.3,0,0.5,0.1,0.6,0.3c0.1,0.2,0.2,0.5,0.2,0.8V208.3z"/>
	</g>
	<g>
		<path fill="#F68720" d="M183.9,212.3h0.2l-1.1,2.6h-0.2l-0.6-1.4l-0.6,1.4h-0.2l-1.1-2.6h0.2l1,2.3l0.5-1.3l-0.4-1h0.2l0.4,0.9
			l0.4-0.9h0.2l-0.4,1l0.5,1.3L183.9,212.3z"/>
	</g>
	<g>
		<path fill="#F68720" d="M184.5,214.9v-0.4h0.2v0.4H184.5z"/>
	</g>
	<g>
		<path fill="#494946" d="M190.2,212.3h0.2l-1.1,2.6h-0.2l-0.6-1.4l-0.6,1.4h-0.2l-1.1-2.6h0.2l1,2.3l0.5-1.3l-0.4-1h0.2l0.4,0.9
			l0.4-0.9h0.2l-0.4,1l0.5,1.3L190.2,212.3z"/>
	</g>
	<g>
		<path fill="#494946" d="M194.3,212.3h0.2l-1.1,2.6h-0.2l-0.6-1.4l-0.6,1.4h-0.2l-1.1-2.6h0.2l1,2.3l0.5-1.3l-0.4-1h0.2l0.4,0.9
			l0.4-0.9h0.2l-0.4,1l0.5,1.3L194.3,212.3z"/>
	</g>
	<g>
		<path fill="#494946" d="M198.5,212.3h0.2l-1.1,2.6h-0.2l-0.6-1.4l-0.6,1.4H196l-1.1-2.6h0.2l1,2.3l0.5-1.3l-0.4-1h0.2l0.4,0.9
			l0.4-0.9h0.2l-0.4,1l0.5,1.3L198.5,212.3z"/>
	</g>
	<g>
		<path fill="#494946" d="M199.1,214.9v-0.4h0.2v0.4H199.1z"/>
	</g>
	<g>
		<path fill="#494946" d="M200,213.6c0-0.2,0-0.4,0.1-0.5c0.1-0.2,0.2-0.3,0.3-0.4c0.1-0.1,0.2-0.2,0.4-0.3c0.2-0.1,0.3-0.1,0.5-0.1
			c0.2,0,0.4,0.1,0.6,0.2c0.2,0.1,0.3,0.3,0.4,0.4l-0.2,0.1c-0.1-0.1-0.2-0.3-0.3-0.3s-0.3-0.1-0.5-0.1c-0.1,0-0.3,0-0.4,0.1
			c-0.1,0.1-0.2,0.1-0.3,0.2c-0.1,0.1-0.2,0.2-0.2,0.4c-0.1,0.1-0.1,0.3-0.1,0.4c0,0.2,0,0.3,0.1,0.4c0.1,0.1,0.1,0.3,0.2,0.4
			c0.1,0.1,0.2,0.2,0.3,0.2c0.1,0.1,0.3,0.1,0.4,0.1c0.1,0,0.2,0,0.3,0c0.1,0,0.2-0.1,0.2-0.1c0.1,0,0.1-0.1,0.2-0.2
			c0.1-0.1,0.1-0.1,0.1-0.2l0.2,0.1c0,0.1-0.1,0.2-0.2,0.3c-0.1,0.1-0.1,0.1-0.2,0.2c-0.1,0.1-0.2,0.1-0.3,0.1c-0.1,0-0.2,0-0.3,0
			c-0.2,0-0.4,0-0.5-0.1c-0.2-0.1-0.3-0.2-0.4-0.3c-0.1-0.1-0.2-0.3-0.3-0.4C200,214,200,213.8,200,213.6z"/>
	</g>
	<g>
		<path fill="#494946" d="M204.1,215c-0.2,0-0.4,0-0.5-0.1c-0.2-0.1-0.3-0.2-0.4-0.3c-0.1-0.1-0.2-0.3-0.3-0.4
			c-0.1-0.2-0.1-0.3-0.1-0.5c0-0.2,0-0.4,0.1-0.5c0.1-0.2,0.2-0.3,0.3-0.4c0.1-0.1,0.2-0.2,0.4-0.3c0.2-0.1,0.3-0.1,0.5-0.1
			c0.2,0,0.4,0,0.5,0.1c0.2,0.1,0.3,0.2,0.4,0.3c0.1,0.1,0.2,0.3,0.3,0.4c0.1,0.2,0.1,0.3,0.1,0.5c0,0,0,0,0,0.1s0,0,0,0h-2.3
			c0,0.1,0,0.3,0.1,0.4c0.1,0.1,0.1,0.2,0.2,0.3c0.1,0.1,0.2,0.2,0.3,0.2c0.1,0.1,0.2,0.1,0.4,0.1c0.1,0,0.2,0,0.3,0
			c0.1,0,0.2-0.1,0.2-0.1c0.1,0,0.1-0.1,0.2-0.2s0.1-0.1,0.1-0.2l0.2,0.1c0,0.1-0.1,0.2-0.2,0.3c-0.1,0.1-0.2,0.1-0.2,0.2
			c-0.1,0.1-0.2,0.1-0.3,0.1C204.4,215,204.3,215,204.1,215z M205.2,213.5c0-0.2,0-0.3-0.1-0.4c-0.1-0.1-0.1-0.2-0.2-0.3
			c-0.1-0.1-0.2-0.2-0.3-0.2c-0.1-0.1-0.2-0.1-0.4-0.1c-0.1,0-0.3,0-0.4,0.1c-0.1,0.1-0.2,0.1-0.3,0.2c-0.1,0.1-0.2,0.2-0.2,0.3
			c-0.1,0.1-0.1,0.3-0.1,0.4H205.2z"/>
	</g>
	<g>
		<path fill="#494946" d="M208.2,214.9H208v-1.4c0-0.3,0-0.6-0.1-0.7c-0.1-0.2-0.2-0.2-0.5-0.2c-0.1,0-0.2,0-0.3,0.1
			s-0.2,0.1-0.3,0.2c-0.1,0.1-0.2,0.2-0.2,0.3c-0.1,0.1-0.1,0.2-0.2,0.3v1.6h-0.2v-2.6h0.2v0.6c0.1-0.1,0.1-0.2,0.2-0.3
			c0.1-0.1,0.2-0.2,0.3-0.2c0.1-0.1,0.2-0.1,0.3-0.1c0.1,0,0.2,0,0.3,0c0.3,0,0.5,0.1,0.6,0.3c0.1,0.2,0.2,0.5,0.2,0.8V214.9z"/>
	</g>
	<g>
		<path fill="#494946" d="M210.2,214.8C210.2,214.8,210.2,214.8,210.2,214.8c-0.1,0.1-0.1,0.1-0.2,0.1c0,0-0.1,0-0.2,0
			c-0.1,0-0.1,0-0.2,0c-0.1,0-0.1,0-0.2,0c-0.1,0-0.1,0-0.2-0.1c0,0-0.1-0.1-0.1-0.1c0-0.1,0-0.1,0-0.2v-1.9h-0.4v-0.2h0.4v-0.9h0.2
			v0.9h0.6v0.2h-0.6v1.9c0,0.1,0,0.2,0.1,0.2s0.1,0.1,0.2,0.1c0.1,0,0.2,0,0.3-0.1c0.1,0,0.1-0.1,0.1-0.1L210.2,214.8z"/>
	</g>
	<g>
		<path fill="#494946" d="M212,212.6c-0.2,0-0.4,0.1-0.6,0.2c-0.2,0.1-0.3,0.3-0.4,0.5v1.6h-0.2v-2.6h0.2v0.6
			c0.1-0.2,0.2-0.3,0.4-0.4c0.1-0.1,0.3-0.2,0.5-0.2c0,0,0.1,0,0.1,0s0.1,0,0.1,0V212.6z"/>
	</g>
	<g>
		<path fill="#494946" d="M213.2,215c-0.1,0-0.2,0-0.3-0.1c-0.1,0-0.2-0.1-0.3-0.2c-0.1-0.1-0.1-0.2-0.2-0.3c0-0.1-0.1-0.2-0.1-0.3
			c0-0.1,0-0.2,0.1-0.3c0.1-0.1,0.1-0.2,0.2-0.2c0.1-0.1,0.2-0.1,0.3-0.2s0.3-0.1,0.4-0.1c0.1,0,0.3,0,0.4,0c0.1,0,0.3,0.1,0.4,0.1
			v-0.3c0-0.2-0.1-0.4-0.2-0.6c-0.1-0.1-0.3-0.2-0.6-0.2c-0.1,0-0.3,0-0.4,0.1c-0.1,0.1-0.3,0.1-0.4,0.2l-0.1-0.2
			c0.3-0.2,0.7-0.3,0.9-0.3c0.3,0,0.6,0.1,0.7,0.3c0.2,0.2,0.3,0.4,0.3,0.7v1.3c0,0.1,0,0.1,0.1,0.1v0.2c0,0,0,0,0,0c0,0,0,0,0,0
			c-0.1,0-0.1,0-0.2-0.1c-0.1,0-0.1-0.1-0.1-0.2v-0.2c-0.1,0.2-0.3,0.3-0.5,0.4C213.7,214.9,213.5,215,213.2,215z M213.3,214.8
			c0.2,0,0.4,0,0.5-0.1c0.2-0.1,0.3-0.2,0.4-0.3c0.1-0.1,0.1-0.1,0.1-0.2v-0.5c-0.3-0.1-0.5-0.1-0.8-0.1c-0.3,0-0.5,0.1-0.6,0.2
			c-0.2,0.1-0.2,0.2-0.2,0.4c0,0.1,0,0.2,0.1,0.2c0,0.1,0.1,0.1,0.1,0.2c0.1,0.1,0.1,0.1,0.2,0.1
			C213.1,214.8,213.2,214.8,213.3,214.8z"/>
	</g>
	<g>
		<path fill="#494946" d="M215.4,211.3h0.3v3.1c0,0.1,0,0.2,0.1,0.2c0.1,0.1,0.1,0.1,0.2,0.1c0,0,0.1,0,0.1,0c0.1,0,0.1,0,0.1,0
			l0,0.2c-0.1,0-0.1,0-0.2,0.1c-0.1,0-0.2,0-0.2,0c-0.1,0-0.3,0-0.3-0.1c-0.1-0.1-0.1-0.2-0.1-0.3V211.3z"/>
	</g>
	<g>
		<path fill="#494946" d="M218.1,215c-0.2,0-0.4-0.1-0.6-0.2c-0.2-0.1-0.3-0.3-0.4-0.4v1.6h-0.2v-3.6h0.2v0.5
			c0.1-0.2,0.2-0.3,0.4-0.4c0.2-0.1,0.4-0.2,0.6-0.2c0.2,0,0.3,0,0.5,0.1c0.2,0.1,0.3,0.2,0.4,0.3c0.1,0.1,0.2,0.3,0.3,0.4
			c0.1,0.2,0.1,0.3,0.1,0.5c0,0.2,0,0.3-0.1,0.5c-0.1,0.2-0.1,0.3-0.2,0.4c-0.1,0.1-0.2,0.2-0.4,0.3
			C218.4,214.9,218.2,215,218.1,215z M218,214.7c0.1,0,0.3,0,0.4-0.1c0.1-0.1,0.2-0.1,0.3-0.3c0.1-0.1,0.2-0.2,0.2-0.4
			c0-0.1,0.1-0.3,0.1-0.4c0-0.1,0-0.3-0.1-0.4c-0.1-0.1-0.1-0.3-0.2-0.4c-0.1-0.1-0.2-0.2-0.3-0.2c-0.1-0.1-0.3-0.1-0.4-0.1
			c-0.1,0-0.2,0-0.3,0.1s-0.2,0.1-0.3,0.2c-0.1,0.1-0.2,0.1-0.2,0.2c-0.1,0.1-0.1,0.2-0.1,0.3v0.9c0,0.1,0.1,0.2,0.2,0.3
			c0.1,0.1,0.1,0.2,0.2,0.2c0.1,0.1,0.2,0.1,0.3,0.1C217.8,214.7,217.9,214.7,218,214.7z"/>
	</g>
	<g>
		<path fill="#494946" d="M220,211.3h0.3v3.1c0,0.1,0,0.2,0.1,0.2c0.1,0.1,0.1,0.1,0.2,0.1c0,0,0.1,0,0.1,0c0.1,0,0.1,0,0.1,0l0,0.2
			c-0.1,0-0.1,0-0.2,0.1c-0.1,0-0.2,0-0.2,0c-0.1,0-0.3,0-0.3-0.1c-0.1-0.1-0.1-0.2-0.1-0.3V211.3z"/>
	</g>
	<g>
		<path fill="#494946" d="M222,215c-0.1,0-0.2,0-0.3-0.1c-0.1,0-0.2-0.1-0.3-0.2c-0.1-0.1-0.1-0.2-0.2-0.3c0-0.1-0.1-0.2-0.1-0.3
			c0-0.1,0-0.2,0.1-0.3c0.1-0.1,0.1-0.2,0.2-0.2s0.2-0.1,0.3-0.2s0.3-0.1,0.4-0.1c0.1,0,0.3,0,0.4,0c0.1,0,0.3,0.1,0.4,0.1v-0.3
			c0-0.2-0.1-0.4-0.2-0.6c-0.1-0.1-0.3-0.2-0.6-0.2c-0.1,0-0.3,0-0.4,0.1c-0.1,0.1-0.3,0.1-0.4,0.2l-0.1-0.2
			c0.3-0.2,0.7-0.3,0.9-0.3c0.3,0,0.6,0.1,0.7,0.3c0.2,0.2,0.3,0.4,0.3,0.7v1.3c0,0.1,0,0.1,0.1,0.1v0.2c0,0,0,0,0,0c0,0,0,0,0,0
			c-0.1,0-0.1,0-0.2-0.1c-0.1,0-0.1-0.1-0.1-0.2v-0.2c-0.1,0.2-0.3,0.3-0.5,0.4C222.4,214.9,222.2,215,222,215z M222.1,214.8
			c0.2,0,0.4,0,0.5-0.1c0.2-0.1,0.3-0.2,0.4-0.3c0.1-0.1,0.1-0.1,0.1-0.2v-0.5c-0.3-0.1-0.5-0.1-0.8-0.1c-0.3,0-0.5,0.1-0.6,0.2
			c-0.2,0.1-0.2,0.2-0.2,0.4c0,0.1,0,0.2,0.1,0.2c0,0.1,0.1,0.1,0.1,0.2c0.1,0.1,0.1,0.1,0.2,0.1C221.9,214.8,222,214.8,222.1,214.8
			z"/>
	</g>
	<g>
		<path fill="#494946" d="M224.2,211.7v-0.5h0.2v0.5H224.2z M224.2,214.9v-2.6h0.2v2.6H224.2z"/>
	</g>
	<g>
		<path fill="#494946" d="M227.5,214.9h-0.2v-1.4c0-0.3,0-0.6-0.1-0.7c-0.1-0.2-0.2-0.2-0.5-0.2c-0.1,0-0.2,0-0.3,0.1
			c-0.1,0-0.2,0.1-0.3,0.2c-0.1,0.1-0.2,0.2-0.2,0.3c-0.1,0.1-0.1,0.2-0.2,0.3v1.6h-0.2v-2.6h0.2v0.6c0.1-0.1,0.1-0.2,0.2-0.3
			c0.1-0.1,0.2-0.2,0.3-0.2c0.1-0.1,0.2-0.1,0.3-0.1c0.1,0,0.2,0,0.3,0c0.3,0,0.5,0.1,0.6,0.3c0.1,0.2,0.2,0.5,0.2,0.8V214.9z"/>
	</g>
	<g>
		<path fill="#494946" d="M229.2,215c-0.2,0-0.4,0-0.6-0.1c-0.2-0.1-0.3-0.2-0.5-0.3l0.1-0.2c0.1,0.1,0.3,0.2,0.4,0.3
			c0.1,0.1,0.3,0.1,0.5,0.1c0.2,0,0.4,0,0.5-0.1c0.1-0.1,0.2-0.2,0.2-0.4c0-0.1,0-0.1-0.1-0.2c0-0.1-0.1-0.1-0.2-0.1
			c-0.1,0-0.2-0.1-0.3-0.1c-0.1,0-0.2-0.1-0.4-0.1c-0.1,0-0.3-0.1-0.4-0.1c-0.1,0-0.2-0.1-0.3-0.1c-0.1,0-0.1-0.1-0.2-0.2
			c0-0.1-0.1-0.2-0.1-0.3c0-0.1,0-0.2,0.1-0.3c0.1-0.1,0.1-0.2,0.2-0.2c0.1-0.1,0.2-0.1,0.3-0.1c0.1,0,0.2,0,0.4,0
			c0.2,0,0.4,0,0.5,0.1c0.2,0.1,0.3,0.2,0.4,0.3l-0.1,0.1c-0.1-0.1-0.2-0.2-0.3-0.2c-0.1-0.1-0.3-0.1-0.4-0.1c-0.1,0-0.2,0-0.3,0
			c-0.1,0-0.2,0.1-0.2,0.1s-0.1,0.1-0.1,0.2s-0.1,0.1-0.1,0.2c0,0.1,0,0.1,0,0.2c0,0,0.1,0.1,0.1,0.1c0.1,0,0.1,0.1,0.2,0.1
			c0.1,0,0.2,0.1,0.3,0.1c0.2,0,0.3,0.1,0.4,0.1c0.1,0,0.2,0.1,0.3,0.1c0.1,0.1,0.1,0.1,0.2,0.2c0,0.1,0.1,0.2,0.1,0.3
			c0,0.2-0.1,0.4-0.3,0.6C229.8,214.9,229.5,215,229.2,215z"/>
	</g>
	<g>
		<path fill="#494946" d="M230.9,214.9v-0.4h0.2v0.4H230.9z"/>
	</g>
	<g>
		<path fill="#494946" d="M231.8,213.6c0-0.2,0-0.4,0.1-0.5c0.1-0.2,0.2-0.3,0.3-0.4c0.1-0.1,0.2-0.2,0.4-0.3
			c0.2-0.1,0.3-0.1,0.5-0.1c0.2,0,0.4,0.1,0.6,0.2c0.2,0.1,0.3,0.3,0.4,0.4l-0.2,0.1c-0.1-0.1-0.2-0.3-0.3-0.3s-0.3-0.1-0.5-0.1
			c-0.1,0-0.3,0-0.4,0.1c-0.1,0.1-0.2,0.1-0.3,0.2c-0.1,0.1-0.2,0.2-0.2,0.4c-0.1,0.1-0.1,0.3-0.1,0.4c0,0.2,0,0.3,0.1,0.4
			c0.1,0.1,0.1,0.3,0.2,0.4c0.1,0.1,0.2,0.2,0.3,0.2c0.1,0.1,0.3,0.1,0.4,0.1c0.1,0,0.2,0,0.3,0c0.1,0,0.2-0.1,0.2-0.1
			c0.1,0,0.1-0.1,0.2-0.2c0.1-0.1,0.1-0.1,0.1-0.2l0.2,0.1c0,0.1-0.1,0.2-0.2,0.3c-0.1,0.1-0.1,0.1-0.2,0.2
			c-0.1,0.1-0.2,0.1-0.3,0.1c-0.1,0-0.2,0-0.3,0c-0.2,0-0.4,0-0.5-0.1c-0.2-0.1-0.3-0.2-0.4-0.3c-0.1-0.1-0.2-0.3-0.3-0.4
			C231.8,214,231.8,213.8,231.8,213.6z"/>
	</g>
	<g>
		<path fill="#494946" d="M235.9,215c-0.2,0-0.4,0-0.5-0.1c-0.2-0.1-0.3-0.2-0.4-0.3c-0.1-0.1-0.2-0.3-0.3-0.4
			c-0.1-0.2-0.1-0.3-0.1-0.5c0-0.2,0-0.4,0.1-0.5c0.1-0.2,0.2-0.3,0.3-0.4c0.1-0.1,0.2-0.2,0.4-0.3c0.2-0.1,0.3-0.1,0.5-0.1
			c0.2,0,0.3,0,0.5,0.1c0.2,0.1,0.3,0.2,0.4,0.3c0.1,0.1,0.2,0.3,0.3,0.4c0.1,0.2,0.1,0.3,0.1,0.5c0,0.2,0,0.3-0.1,0.5
			c-0.1,0.2-0.2,0.3-0.3,0.4c-0.1,0.1-0.2,0.2-0.4,0.3C236.2,214.9,236.1,215,235.9,215z M234.9,213.6c0,0.2,0,0.3,0.1,0.4
			c0.1,0.1,0.1,0.3,0.2,0.4c0.1,0.1,0.2,0.2,0.3,0.2c0.1,0.1,0.3,0.1,0.4,0.1s0.3,0,0.4-0.1c0.1-0.1,0.2-0.1,0.3-0.2
			c0.1-0.1,0.2-0.2,0.2-0.4c0.1-0.1,0.1-0.3,0.1-0.4c0-0.2,0-0.3-0.1-0.4c-0.1-0.1-0.1-0.3-0.2-0.4s-0.2-0.2-0.3-0.2
			c-0.1-0.1-0.3-0.1-0.4-0.1c-0.1,0-0.3,0-0.4,0.1c-0.1,0.1-0.2,0.1-0.3,0.2c-0.1,0.1-0.2,0.2-0.2,0.4
			C234.9,213.3,234.9,213.5,234.9,213.6z"/>
	</g>
	<g>
		<path fill="#494946" d="M241.7,214.9h-0.2v-1.4c0-0.3-0.1-0.6-0.2-0.7c-0.1-0.2-0.3-0.2-0.5-0.2c-0.1,0-0.2,0-0.3,0.1
			c-0.1,0-0.2,0.1-0.3,0.2c-0.1,0.1-0.1,0.2-0.2,0.3c-0.1,0.1-0.1,0.2-0.1,0.3v1.6h-0.2v-1.4c0-0.3-0.1-0.6-0.1-0.7
			c-0.1-0.2-0.3-0.2-0.5-0.2c-0.1,0-0.2,0-0.3,0.1c-0.1,0-0.2,0.1-0.3,0.2c-0.1,0.1-0.1,0.2-0.2,0.3c-0.1,0.1-0.1,0.2-0.1,0.3v1.6
			h-0.2v-2.6h0.2v0.6c0.1-0.2,0.3-0.4,0.4-0.5c0.2-0.1,0.4-0.2,0.6-0.2c0.2,0,0.4,0.1,0.5,0.2c0.1,0.1,0.2,0.3,0.2,0.5
			c0.3-0.5,0.6-0.7,1-0.7c0.3,0,0.5,0.1,0.6,0.3c0.1,0.2,0.2,0.5,0.2,0.8V214.9z"/>
	</g>
</g>
<g>
	<path fill="#FFFFFF" d="M121,189c0.4,1.4,1,2.8,1.6,4.1C122.1,191.7,121.6,190.4,121,189z"/>
</g>
<g>
	<path fill="#FFFFFF" d="M123.3,194.8c-0.2-0.6-0.4-1.1-0.7-1.7c0.1,0.3,0.2,0.6,0.3,0.9C123.1,194.3,123.2,194.5,123.3,194.8
		c0.4,1.2,1.5,5.5,0.6,7.5c0,0,0.1,0,0.1-0.1C124.8,200.2,123.8,196.1,123.3,194.8z"/>
</g>
<g>
	<path fill="#FFFFFF" d="M131.7,188c0.4,2.1,1.4,4,2.2,6c-0.1-0.3-0.2-0.6-0.3-0.9c-0.6-1.4-1.2-2.7-1.6-4.1c0,0,0,0,0,0
		C131.9,188.7,131.8,188.4,131.7,188z"/>
</g>
<g>
	<path fill="#FFFFFF" d="M123.1,202.8c0.3-0.1,0.5-0.3,0.8-0.4c0.8-2-0.2-6.3-0.7-7.6c-0.1-0.3-0.2-0.5-0.3-0.8
		C123.9,197,124.5,200.1,123.1,202.8z"/>
</g>
<g>
	<path fill="#686562" d="M138.6,175.7c0-6.7-5.4-12.1-12.1-12.1c-6.7,0-12.1,5.4-12.1,12.1c0,2.4,0.7,4.6,1.9,6.5
		c-0.3-1.2,0-2.9,0.1-3.7c0.7-4.1,4.3-7,8-8.2c0.8-0.3,1.6-0.4,2.4-0.5c0.3,0,0.6-0.1,0.9-0.1c2.5-0.2,5.7,0.3,7.9,1.4
		c-0.9,0.1-2,0.6-2.7,1c-1.6,1-2.6,2.6-2.6,4.5c0,0.7,0.1,1.3,0.3,1.9c0.3,0.8,0.6,1.6,0.9,2.4c0.1,0.3,0.3,0.7,0.4,1
		c0.3,0.7,0.9,3.2,0.4,4.4C136,184.3,138.6,180.3,138.6,175.7z"/>
</g>
<g>
	<path fill="#FFFFFF" d="M124,178.5c0.2,0.8,0.6,1.6,0.9,2.4C124.7,180.1,124.3,179.3,124,178.5z"/>
</g>
<g>
	<path fill="#FFFFFF" d="M116.4,178.5c0.9-4.8,5.7-8.1,10.4-8.8c-0.8,0.1-1.6,0.3-2.4,0.5C120.7,171.5,117.1,174.4,116.4,178.5
		c-0.2,0.8-0.4,2.5-0.1,3.7c0,0,0,0.1,0.1,0.1C116.1,181.1,116.3,179.3,116.4,178.5z"/>
</g>
<g>
	<path fill="#FFFFFF" d="M131.7,186.6c0.8-1.6,0.5-3.4-0.1-5.2c-0.5-1.2-1.1-2.3-1.3-3.5c-0.1-0.3-0.1-0.6-0.1-0.9
		c0-0.1,0-0.3,0-0.4c0-1.3,0.5-2.5,1.4-3.4c0.4-0.4,0.8-0.8,1.2-1.1c0.8-0.5,1.7-0.9,2.7-1c-0.2-0.1-0.4-0.2-0.6-0.3
		c-1.2-0.6-2.6-0.9-4-1c0,0,0,0,0,0c-0.4,0-0.8-0.1-1.1-0.1c-1.3,0-2.7,0.1-4,0.4c-6,1.5-10,6.5-9.2,11.9c0,0.2,0.1,0.5,0.1,0.7
		c-0.1-0.1-0.2-0.3-0.3-0.4c0.1,0.3,0.2,0.6,0.3,0.8c2.1,2.7,4.4,4,6.6,4.6c0.1-0.3,0.2-0.7,0.3-1c0.2-0.9,0-1.8-0.3-2.6
		c-0.6-1.6-1.8-2.8-1.8-4.5c0-1.5,0.5-3,1.4-4.1c1.7-2.1,4.4-3.2,7.2-3.4c-1.6,0.5-3.1,1.1-4.4,2c-2.8,1.9-3.5,5-1.8,7.8
		c0.9,1.5,1.2,3.2,1.1,4.9c0,0.4-0.1,0.9-0.1,1.3c3.9,0.5,7-1,7-1c0.2-0.1,0.4-0.3,0.5-0.6c0,0,0,0-0.1,0
		C132,186.5,131.9,186.5,131.7,186.6z M128.3,178.4c-0.1,0.6-0.2,1.1-0.7,1.5c-0.7,0.6-1.8,0.8-2.6,0.2c-1-0.7-1.2-2.1-0.8-3.2
		c1.1-2.4,5.5-4.1,6.5-4.5c0.1,0,0.1-0.1,0.2-0.1c0,0-0.1,0-0.2,0.1c-0.5,0.2-0.9,0.8-1.3,1.2c-0.8,1.1-1.2,2.1-1.2,3.5
		C128.4,177.6,128.4,178,128.3,178.4z"/>
</g>
<g>
	<path fill="#FFFFFF" d="M125.4,181.9c-0.1-0.3-0.3-0.7-0.4-1c0.1,0.2,0.1,0.3,0.2,0.5C125.2,181.6,125.3,181.8,125.4,181.9
		c0.2,0.7,0.9,3.2,0.4,4.4c0,0,0,0,0.1,0C126.3,185.1,125.7,182.7,125.4,181.9z"/>
</g>
<g>
	<path fill="#FFFFFF" d="M130.3,177.9c0.2,1.2,0.8,2.4,1.3,3.5c-0.1-0.2-0.1-0.3-0.2-0.5c-0.3-0.8-0.7-1.6-0.9-2.4c0,0,0,0,0,0
		C130.4,178.3,130.4,178.1,130.3,177.9z"/>
</g>
<g>
	<path fill="#FFFFFF" d="M125.3,186.6c0.2-0.1,0.3-0.2,0.5-0.2c0.5-1.2-0.1-3.7-0.4-4.5c-0.1-0.2-0.1-0.3-0.2-0.5
		C125.7,183.2,126,185,125.3,186.6z"/>
</g>
<g>
	<path fill="#FFFFFF" d="M116.5,182c-0.8-5.4,3.3-10.4,9.2-11.9c1.3-0.3,2.6-0.5,4-0.4c0.4,0,0.8,0,1.1,0.1c-0.4,0-0.7-0.1-1.1-0.1
		c-1-0.1-2-0.1-3,0.1c-4.7,0.7-9.5,4-10.4,8.8c-0.1,0.8-0.4,2.6-0.1,3.8c0.1,0.1,0.2,0.3,0.3,0.4C116.6,182.5,116.5,182.3,116.5,182
		z"/>
</g>
<g>
	<path fill="#F18E3B" d="M130.9,172.5c-1,0.4-5.5,2-6.5,4.5c-0.5,1.1-0.2,2.5,0.8,3.2c0.8,0.5,1.9,0.4,2.6-0.2
		c0.4-0.4,0.6-0.9,0.7-1.5c0-0.4,0-0.8,0-1.2c0-1.4,0.4-2.5,1.2-3.5C129.9,173.3,130.3,172.7,130.9,172.5z"/>
</g>
<g>
	<path fill="#F18E3B" d="M123.6,181.7c-1.7-2.9-1-5.9,1.8-7.8c1.3-0.9,2.9-1.5,4.4-2c-2.7,0.2-5.5,1.3-7.2,3.4
		c-0.9,1.2-1.4,2.7-1.4,4.1c0,1.4,0.9,2.6,1.5,3.8c0.7,1.4,0.9,2.9,0.3,4.4c0.2,0.1,1.4,0.3,1.4,0.3c0.1-0.4,0.1-0.9,0.1-1.3
		C124.8,184.9,124.5,183.2,123.6,181.7z"/>
</g>
<g>
	<g>
		<path fill="#686562" d="M98.7,192.9c0-0.3,0-0.5,0.1-0.8c0.1-0.3,0.2-0.5,0.4-0.7c0.2-0.2,0.4-0.4,0.7-0.5
			c0.3-0.1,0.6-0.2,0.9-0.2c0.4,0,0.7,0.1,1,0.3c0.3,0.2,0.5,0.4,0.6,0.7l-0.4,0.2c-0.1-0.1-0.2-0.3-0.3-0.4
			c-0.1-0.1-0.2-0.2-0.3-0.2c-0.1-0.1-0.2-0.1-0.4-0.1c-0.1,0-0.3,0-0.4,0c-0.3,0-0.5,0.1-0.7,0.2c-0.2,0.1-0.4,0.3-0.5,0.4
			c-0.1,0.2-0.3,0.4-0.3,0.6c-0.1,0.2-0.1,0.5-0.1,0.7c0,0.3,0,0.5,0.1,0.7c0.1,0.2,0.2,0.4,0.4,0.6c0.2,0.2,0.3,0.3,0.5,0.4
			c0.2,0.1,0.4,0.2,0.7,0.2c0.1,0,0.3,0,0.4,0c0.1,0,0.3-0.1,0.4-0.2c0.1-0.1,0.2-0.2,0.3-0.3c0.1-0.1,0.2-0.2,0.3-0.4l0.4,0.2
			c-0.1,0.2-0.2,0.3-0.3,0.5c-0.1,0.1-0.3,0.2-0.4,0.3c-0.2,0.1-0.3,0.2-0.5,0.2c-0.2,0-0.4,0.1-0.5,0.1c-0.3,0-0.6-0.1-0.9-0.2
			c-0.3-0.1-0.5-0.3-0.7-0.5c-0.2-0.2-0.3-0.5-0.4-0.7C98.7,193.5,98.7,193.2,98.7,192.9z"/>
	</g>
	<g>
		<path fill="#686562" d="M106.6,194.8v0.4h-3v-4.5h3v0.4H104v1.6h2.2v0.4H104v1.7H106.6z"/>
	</g>
	<g>
		<path fill="#686562" d="M107.9,191.5v3.7h-0.4v-4.5h0.3l3,3.8v-3.8h0.4v4.5h-0.4L107.9,191.5z"/>
	</g>
	<g>
		<path fill="#686562" d="M115.8,191.1h-1.6v4.1h-0.4v-4.1h-1.6v-0.4h3.7V191.1z"/>
	</g>
	<g>
		<path fill="#686562" d="M116.6,195.2v-4.5h1.9c0.2,0,0.4,0,0.5,0.1c0.2,0.1,0.3,0.2,0.4,0.3c0.1,0.1,0.2,0.3,0.3,0.5
			c0.1,0.2,0.1,0.3,0.1,0.5c0,0.2,0,0.3-0.1,0.5c0,0.2-0.1,0.3-0.2,0.4c-0.1,0.1-0.2,0.2-0.3,0.3c-0.1,0.1-0.3,0.1-0.4,0.2l1.1,1.8
			h-0.5l-1.1-1.7h-1.3v1.7H116.6z M117.1,193.1h1.5c0.1,0,0.3,0,0.4-0.1c0.1-0.1,0.2-0.1,0.3-0.2c0.1-0.1,0.1-0.2,0.2-0.3
			c0-0.1,0.1-0.3,0.1-0.4s0-0.3-0.1-0.4c0-0.1-0.1-0.2-0.2-0.3c-0.1-0.1-0.2-0.2-0.3-0.2c-0.1-0.1-0.2-0.1-0.4-0.1h-1.4V193.1z"/>
	</g>
	<g>
		<path fill="#686562" d="M120.7,195.2l1.9-4.5h0.4l1.9,4.5h-0.5l-0.6-1.4h-2l-0.6,1.4H120.7z M122.7,191.2l-0.9,2.2h1.8
			L122.7,191.2z"/>
	</g>
	<g>
		<path fill="#686562" d="M125.6,195.2v-4.5h0.4v4.1h2.6v0.4H125.6z"/>
	</g>
	<g>
		<path fill="#686562" d="M131.6,195.2v-4.5h1.9c0.2,0,0.4,0,0.5,0.1c0.2,0.1,0.3,0.2,0.4,0.3s0.2,0.3,0.3,0.5
			c0.1,0.2,0.1,0.3,0.1,0.5c0,0.2,0,0.4-0.1,0.5c-0.1,0.2-0.2,0.3-0.3,0.5c-0.1,0.1-0.3,0.2-0.4,0.3c-0.2,0.1-0.3,0.1-0.5,0.1H132
			v1.7H131.6z M132,193.1h1.5c0.1,0,0.3,0,0.4-0.1c0.1-0.1,0.2-0.1,0.3-0.2c0.1-0.1,0.1-0.2,0.2-0.3c0-0.1,0.1-0.3,0.1-0.4
			c0-0.1,0-0.3-0.1-0.4c0-0.1-0.1-0.2-0.2-0.3c-0.1-0.1-0.2-0.2-0.3-0.2c-0.1-0.1-0.2-0.1-0.4-0.1H132V193.1z"/>
	</g>
	<g>
		<path fill="#686562" d="M135.7,195.2v-4.5h0.4v4.1h2.6v0.4H135.7z"/>
	</g>
	<g>
		<path fill="#686562" d="M139.4,195.2l1.9-4.5h0.4l1.9,4.5H143l-0.6-1.4h-2l-0.6,1.4H139.4z M141.4,191.2l-0.9,2.2h1.8L141.4,191.2
			z"/>
	</g>
	<g>
		<path fill="#686562" d="M144.3,195.2v-4.5h0.4v4.5H144.3z"/>
	</g>
	<g>
		<path fill="#686562" d="M146.4,191.5v3.7H146v-4.5h0.3l3,3.8v-3.8h0.4v4.5h-0.4L146.4,191.5z"/>
	</g>
	<g>
		<path fill="#686562" d="M153.6,191.5c-0.1-0.1-0.3-0.3-0.5-0.4c-0.2-0.1-0.5-0.1-0.7-0.1c-0.4,0-0.7,0.1-0.9,0.2
			c-0.2,0.2-0.3,0.4-0.3,0.6c0,0.1,0,0.2,0.1,0.3c0,0.1,0.1,0.2,0.2,0.2s0.2,0.1,0.4,0.2c0.2,0,0.3,0.1,0.6,0.1
			c0.2,0.1,0.5,0.1,0.7,0.2c0.2,0.1,0.4,0.1,0.5,0.2s0.2,0.2,0.3,0.4c0.1,0.1,0.1,0.3,0.1,0.5c0,0.2,0,0.4-0.1,0.5
			c-0.1,0.2-0.2,0.3-0.3,0.4c-0.1,0.1-0.3,0.2-0.5,0.2c-0.2,0-0.4,0.1-0.7,0.1c-0.7,0-1.3-0.2-1.8-0.7l0.2-0.4
			c0.2,0.2,0.4,0.3,0.7,0.4c0.3,0.1,0.6,0.2,0.9,0.2c0.4,0,0.6-0.1,0.8-0.2c0.2-0.1,0.3-0.3,0.3-0.6c0-0.1,0-0.3-0.1-0.4
			c-0.1-0.1-0.1-0.2-0.3-0.2c-0.1-0.1-0.3-0.1-0.4-0.2c-0.2-0.1-0.4-0.1-0.6-0.2c-0.2-0.1-0.4-0.1-0.6-0.2c-0.2-0.1-0.3-0.1-0.5-0.2
			c-0.1-0.1-0.2-0.2-0.3-0.3c-0.1-0.1-0.1-0.3-0.1-0.5c0-0.2,0-0.4,0.1-0.6c0.1-0.2,0.2-0.3,0.3-0.4c0.1-0.1,0.3-0.2,0.5-0.2
			c0.2-0.1,0.4-0.1,0.7-0.1c0.3,0,0.6,0,0.8,0.1c0.2,0.1,0.5,0.2,0.6,0.4L153.6,191.5z"/>
	</g>
</g>
<g>
	<g>
		<path fill="#F18E3B" d="M103.1,199.5c-0.1-0.1-0.2-0.2-0.3-0.2c-0.1-0.1-0.3-0.2-0.5-0.2c-0.2-0.1-0.4-0.1-0.6-0.2
			c-0.2,0-0.4-0.1-0.7-0.1c-0.4,0-0.8,0.1-1,0.3c-0.2,0.2-0.3,0.4-0.3,0.7c0,0.2,0,0.3,0.1,0.4c0.1,0.1,0.2,0.2,0.3,0.3
			c0.1,0.1,0.3,0.2,0.6,0.2c0.2,0.1,0.5,0.1,0.8,0.2c0.4,0.1,0.7,0.2,1,0.3c0.3,0.1,0.5,0.2,0.8,0.4c0.2,0.2,0.4,0.3,0.5,0.6
			c0.1,0.2,0.2,0.5,0.2,0.8c0,0.4-0.1,0.7-0.2,1s-0.3,0.5-0.6,0.6c-0.2,0.2-0.5,0.3-0.8,0.4c-0.3,0.1-0.7,0.1-1,0.1
			c-0.5,0-1.1-0.1-1.6-0.2c-0.5-0.2-1-0.4-1.4-0.7l0.5-1c0.1,0.1,0.2,0.2,0.4,0.3c0.2,0.1,0.4,0.2,0.6,0.3s0.5,0.2,0.7,0.2
			c0.3,0.1,0.5,0.1,0.8,0.1c0.4,0,0.8-0.1,1-0.2c0.2-0.2,0.4-0.4,0.4-0.7c0-0.2,0-0.3-0.1-0.5c-0.1-0.1-0.2-0.2-0.4-0.3
			c-0.2-0.1-0.4-0.2-0.6-0.2c-0.2-0.1-0.5-0.1-0.8-0.2c-0.4-0.1-0.7-0.2-0.9-0.3c-0.3-0.1-0.5-0.2-0.7-0.4c-0.2-0.1-0.3-0.3-0.4-0.5
			c-0.1-0.2-0.1-0.4-0.1-0.7c0-0.4,0.1-0.7,0.2-0.9c0.1-0.3,0.3-0.5,0.5-0.7c0.2-0.2,0.5-0.3,0.8-0.4c0.3-0.1,0.7-0.1,1-0.1
			c0.5,0,1,0.1,1.4,0.2c0.4,0.2,0.8,0.3,1.1,0.6L103.1,199.5z"/>
	</g>
	<g>
		<path fill="#F18E3B" d="M107.8,205.1c-0.5,0-1-0.1-1.4-0.3c-0.4-0.2-0.8-0.5-1.1-0.8c-0.3-0.3-0.5-0.7-0.7-1.2
			c-0.2-0.4-0.2-0.9-0.2-1.4c0-0.5,0.1-0.9,0.3-1.4c0.2-0.4,0.4-0.8,0.7-1.2c0.3-0.3,0.7-0.6,1.1-0.8c0.4-0.2,0.9-0.3,1.4-0.3
			c0.5,0,1,0.1,1.4,0.3c0.4,0.2,0.8,0.5,1.1,0.8c0.3,0.3,0.5,0.7,0.7,1.2c0.2,0.4,0.2,0.9,0.2,1.3c0,0.5-0.1,0.9-0.3,1.4
			c-0.2,0.4-0.4,0.8-0.7,1.2c-0.3,0.3-0.7,0.6-1.1,0.8C108.7,205,108.3,205.1,107.8,205.1z M105.5,201.5c0,0.3,0.1,0.7,0.2,1
			c0.1,0.3,0.3,0.6,0.5,0.8c0.2,0.2,0.4,0.4,0.7,0.6c0.3,0.1,0.6,0.2,0.9,0.2c0.4,0,0.7-0.1,1-0.2c0.3-0.2,0.5-0.4,0.7-0.6
			c0.2-0.3,0.3-0.5,0.4-0.8c0.1-0.3,0.2-0.6,0.2-1c0-0.3-0.1-0.7-0.2-1c-0.1-0.3-0.3-0.6-0.5-0.8c-0.2-0.2-0.4-0.4-0.7-0.6
			c-0.3-0.1-0.6-0.2-0.9-0.2c-0.4,0-0.7,0.1-1,0.2c-0.3,0.2-0.5,0.4-0.7,0.6c-0.2,0.2-0.3,0.5-0.4,0.8
			C105.6,200.8,105.5,201.1,105.5,201.5z"/>
	</g>
	<g>
		<path fill="#F18E3B" d="M112,205.1v-7.2h1.1v6.2h3.9v1H112z"/>
	</g>
	<g>
		<path fill="#F18E3B" d="M120.4,204.1c0.4,0,0.7-0.1,0.9-0.2c0.3-0.1,0.5-0.3,0.6-0.6c0.2-0.2,0.3-0.5,0.3-0.8
			c0.1-0.3,0.1-0.6,0.1-1v-3.7h1.1v3.7c0,0.5-0.1,1-0.2,1.4c-0.1,0.4-0.3,0.8-0.5,1.1c-0.3,0.3-0.6,0.6-1,0.8
			c-0.4,0.2-0.9,0.3-1.4,0.3c-0.6,0-1.1-0.1-1.5-0.3c-0.4-0.2-0.7-0.5-1-0.8c-0.2-0.3-0.4-0.7-0.5-1.2c-0.1-0.4-0.2-0.9-0.2-1.4
			v-3.7h1.1v3.7c0,0.3,0,0.7,0.1,1c0.1,0.3,0.2,0.6,0.3,0.8c0.2,0.2,0.4,0.4,0.6,0.6C119.7,204,120.1,204.1,120.4,204.1z"/>
	</g>
	<g>
		<path fill="#F18E3B" d="M130.4,198.8H128v6.2h-1.1v-6.2h-2.4v-1h6V198.8z"/>
	</g>
	<g>
		<path fill="#F18E3B" d="M131.4,205.1v-7.2h1.1v7.2H131.4z"/>
	</g>
	<g>
		<path fill="#F18E3B" d="M137,205.1c-0.5,0-1-0.1-1.4-0.3c-0.4-0.2-0.8-0.5-1.1-0.8c-0.3-0.3-0.5-0.7-0.7-1.2
			c-0.2-0.4-0.2-0.9-0.2-1.4c0-0.5,0.1-0.9,0.3-1.4c0.2-0.4,0.4-0.8,0.7-1.2c0.3-0.3,0.7-0.6,1.1-0.8c0.4-0.2,0.9-0.3,1.4-0.3
			c0.5,0,1,0.1,1.4,0.3c0.4,0.2,0.8,0.5,1.1,0.8c0.3,0.3,0.5,0.7,0.7,1.2c0.2,0.4,0.2,0.9,0.2,1.3c0,0.5-0.1,0.9-0.3,1.4
			c-0.2,0.4-0.4,0.8-0.7,1.2c-0.3,0.3-0.7,0.6-1.1,0.8C137.9,205,137.5,205.1,137,205.1z M134.7,201.5c0,0.3,0.1,0.7,0.2,1
			c0.1,0.3,0.3,0.6,0.5,0.8c0.2,0.2,0.4,0.4,0.7,0.6c0.3,0.1,0.6,0.2,0.9,0.2c0.4,0,0.7-0.1,1-0.2c0.3-0.2,0.5-0.4,0.7-0.6
			c0.2-0.3,0.3-0.5,0.4-0.8c0.1-0.3,0.2-0.6,0.2-1c0-0.3-0.1-0.7-0.2-1c-0.1-0.3-0.3-0.6-0.5-0.8c-0.2-0.2-0.4-0.4-0.7-0.6
			c-0.3-0.1-0.6-0.2-0.9-0.2c-0.4,0-0.7,0.1-1,0.2c-0.3,0.2-0.5,0.4-0.7,0.6c-0.2,0.2-0.3,0.5-0.4,0.8
			C134.8,200.8,134.7,201.1,134.7,201.5z"/>
	</g>
	<g>
		<path fill="#F18E3B" d="M142.1,200v5.1H141v-7.2h0.9l4.1,5.2v-5.2h1.1v7.2h-0.9L142.1,200z"/>
	</g>
	<g>
		<path fill="#F18E3B" d="M153.1,199.5c-0.1-0.1-0.2-0.2-0.3-0.2c-0.1-0.1-0.3-0.2-0.5-0.2c-0.2-0.1-0.4-0.1-0.6-0.2
			c-0.2,0-0.4-0.1-0.7-0.1c-0.4,0-0.8,0.1-1,0.3c-0.2,0.2-0.3,0.4-0.3,0.7c0,0.2,0,0.3,0.1,0.4c0.1,0.1,0.2,0.2,0.3,0.3
			c0.1,0.1,0.3,0.2,0.6,0.2c0.2,0.1,0.5,0.1,0.8,0.2c0.4,0.1,0.7,0.2,1,0.3c0.3,0.1,0.5,0.2,0.8,0.4c0.2,0.2,0.4,0.3,0.5,0.6
			c0.1,0.2,0.2,0.5,0.2,0.8c0,0.4-0.1,0.7-0.2,1c-0.1,0.3-0.3,0.5-0.6,0.6c-0.2,0.2-0.5,0.3-0.8,0.4c-0.3,0.1-0.7,0.1-1,0.1
			c-0.5,0-1.1-0.1-1.6-0.2c-0.5-0.2-1-0.4-1.4-0.7l0.5-1c0.1,0.1,0.2,0.2,0.4,0.3c0.2,0.1,0.4,0.2,0.6,0.3c0.2,0.1,0.5,0.2,0.7,0.2
			c0.3,0.1,0.5,0.1,0.8,0.1c0.4,0,0.8-0.1,1-0.2c0.2-0.2,0.4-0.4,0.4-0.7c0-0.2,0-0.3-0.1-0.5c-0.1-0.1-0.2-0.2-0.4-0.3
			c-0.2-0.1-0.4-0.2-0.6-0.2c-0.2-0.1-0.5-0.1-0.8-0.2c-0.4-0.1-0.7-0.2-0.9-0.3c-0.3-0.1-0.5-0.2-0.7-0.4c-0.2-0.1-0.3-0.3-0.4-0.5
			c-0.1-0.2-0.1-0.4-0.1-0.7c0-0.4,0.1-0.7,0.2-0.9c0.1-0.3,0.3-0.5,0.5-0.7c0.2-0.2,0.5-0.3,0.8-0.4c0.3-0.1,0.7-0.1,1-0.1
			c0.5,0,1,0.1,1.4,0.2c0.4,0.2,0.8,0.3,1.1,0.6L153.1,199.5z"/>
	</g>
</g>
<g>
	<g>
		<path fill="#FFFFFF" d="M211.1,69c0-22.5-18.3-40.8-40.8-40.8S129.5,46.5,129.5,69c0,8.1,2.4,15.6,6.4,22c-0.9-4-0.2-9.9,0.3-12.5
			c2.5-13.7,14.4-23.6,27.1-27.7c2.6-0.9,5.3-1.4,8-1.8c1.1-0.1,2.1-0.3,3.1-0.3c8.3-0.6,19.1,0.9,26.5,4.8c-2.9,0.3-6.9,2-9.3,3.5
			c-5.3,3.4-8.6,8.9-8.8,15.2c-0.1,2.2,0.3,4.3,0.9,6.3c1,2.6,2.2,5.4,3.2,8.2c0.5,1.1,1,2.3,1.4,3.4c0.9,2.5,3,10.7,1.4,14.8
			C202.4,98,211.1,84.5,211.1,69z"/>
	</g>
	<g>
		<path fill="#FFFFFF" d="M185,58.3c-3.4,1.2-18.4,6.9-22,15c-1.6,3.6-0.8,8.4,2.6,10.7c2.6,1.8,6.3,1.3,8.6-0.7
			c1.5-1.3,2.1-3.2,2.3-5.2c0.2-1.3,0.2-2.7,0.1-3.9c0-4.6,1.2-8.3,4.1-11.8C181.9,60.9,183.1,59.1,185,58.3z"/>
	</g>
	<g>
		<path fill="#FFFFFF" d="M160.6,89.3c-5.8-9.6-3.3-19.9,6.2-26.4c4.5-3.1,9.7-5,14.9-6.7c-9.3,0.7-18.6,4.5-24.2,11.6
			c-3.1,4-4.7,9-4.6,13.9c0.1,4.8,3.1,8.7,5.1,12.9c2.3,4.7,3,9.8,0.9,14.7c0.5,0.2,4.8,1.2,4.8,1c0.2-1.4,0.4-2.9,0.5-4.3
			C164.7,100.2,163.7,94.4,160.6,89.3z"/>
	</g>
</g>
<g>
	<path fill="#F18E3B" d="M275.6,242H66.2V125.8h209.4V242z M66.7,241.5h208.5V126.3H66.7V241.5z"/>
</g>
</svg>
