<?xml version="1.0" encoding="utf-8"?>
<!-- Generator: Adobe Illustrator 18.1.0, SVG Export Plug-In . SVG Version: 6.00 Build 0)  -->
<!DOCTYPE svg PUBLIC "-//W3C//DTD SVG 1.1//EN" "http://www.w3.org/Graphics/SVG/1.1/DTD/svg11.dtd">
<svg version="1.1" id="Layer_1" xmlns="http://www.w3.org/2000/svg" xmlns:xlink="http://www.w3.org/1999/xlink" x="0px" y="0px"
	 viewBox="0 0 370 195" enable-background="new 0 0 370 195" xml:space="preserve">
<g>
	<path fill="#686562" d="M236.3,61.8c0-27.6-22.4-49.9-49.9-49.9s-49.9,22.4-49.9,49.9c0,9.9,2.9,19.2,7.9,26.9
		c-1.1-4.8-0.2-12.1,0.4-15.3c3.1-16.7,17.6-28.8,33.1-33.9c3.2-1.1,6.5-1.8,9.8-2.2c1.3-0.2,2.6-0.3,3.9-0.4
		c10.1-0.7,23.4,1.1,32.4,5.9c-3.6,0.3-8.4,2.4-11.3,4.3c-6.5,4.1-10.6,10.9-10.8,18.6c-0.1,2.7,0.3,5.3,1.1,7.7
		c1.3,3.2,2.7,6.6,3.9,10c0.6,1.4,1.2,2.8,1.7,4.2c1.1,3.1,3.6,13.1,1.8,18.1C225.7,97.2,236.3,80.7,236.3,61.8z"/>
	<path fill="#686562" d="M144.8,73.5c3.7-19.9,23.5-33.5,42.8-36.2c-3.3,0.4-6.6,1.1-9.8,2.2c-15.5,5.1-30.1,17.2-33.1,33.9
		c-0.6,3.2-1.4,10.5-0.4,15.3c0.1,0.1,0.2,0.3,0.3,0.4C143.4,84.2,144.2,76.8,144.8,73.5z"/>
	<path fill="#F18E3B" d="M204.3,48.6c-4.2,1.5-22.5,8.4-26.9,18.4c-2,4.4-1,10.3,3.1,13.1c3.2,2.2,7.7,1.6,10.5-0.9
		c1.8-1.6,2.6-3.9,2.8-6.3c0.2-1.6,0.2-3.3,0.2-4.8c-0.1-5.6,1.5-10.1,5-14.4C200.5,51.9,202,49.6,204.3,48.6z"/>
	<path fill="#F18E3B" d="M174.5,86.6c-7-11.8-4-24.3,7.6-32.3c5.5-3.8,11.9-6.1,18.3-8.2c-11.3,0.8-22.8,5.5-29.6,14.2
		c-3.8,4.8-5.8,11-5.6,17c0.1,5.9,3.8,10.7,6.3,15.8c2.8,5.7,3.7,12,1.1,18c0.7,0.2,5.9,1.4,5.9,1.3c0.3-1.8,0.5-3.5,0.6-5.3
		C179.5,99.9,178.3,92.9,174.5,86.6z"/>
	<g>
		<path fill="#686562" d="M71.6,132.8c0-1.1,0.2-2.2,0.6-3.4c0.4-1.1,1-2.1,1.7-3c0.8-0.9,1.7-1.6,2.8-2.1c1.1-0.6,2.4-0.8,3.8-0.8
			c1.7,0,3.1,0.4,4.3,1.1c1.2,0.8,2.1,1.7,2.6,3l-1.5,0.9c-0.3-0.6-0.7-1.1-1.1-1.6c-0.4-0.4-0.9-0.8-1.4-1c-0.5-0.3-1-0.5-1.5-0.6
			c-0.5-0.1-1-0.2-1.6-0.2c-1.1,0-2.1,0.2-3,0.7c-0.9,0.5-1.6,1.1-2.2,1.8c-0.6,0.7-1,1.6-1.3,2.5c-0.3,0.9-0.4,1.9-0.4,2.8
			c0,1,0.2,2,0.5,3c0.4,0.9,0.9,1.8,1.5,2.5c0.6,0.7,1.4,1.3,2.2,1.7c0.9,0.4,1.8,0.6,2.8,0.6c0.5,0,1.1-0.1,1.6-0.2
			c0.6-0.1,1.1-0.3,1.6-0.6c0.5-0.3,1-0.6,1.4-1.1c0.4-0.4,0.8-1,1.1-1.6l1.5,0.8c-0.3,0.7-0.7,1.3-1.3,1.9c-0.5,0.5-1.2,1-1.8,1.4
			c-0.7,0.4-1.4,0.7-2.1,0.8c-0.7,0.2-1.5,0.3-2.2,0.3c-1.3,0-2.5-0.3-3.5-0.8c-1.1-0.6-2-1.3-2.8-2.2c-0.8-0.9-1.4-1.9-1.8-3.1
			C71.8,135.2,71.6,134,71.6,132.8z"/>
		<path fill="#686562" d="M104.1,140.7v1.6H91.6v-18.7h12.3v1.6H93.4v6.7h9.2v1.6h-9.2v7.1H104.1z"/>
		<path fill="#686562" d="M109.7,127v15.3h-1.8v-18.7h1.4l12.4,15.6v-15.5h1.8v18.7H122L109.7,127z"/>
		<path fill="#686562" d="M142.1,125.2h-6.7v17.1h-1.8v-17.1H127v-1.6h15.2V125.2z"/>
		<path fill="#686562" d="M145.6,142.3v-18.7h7.9c0.8,0,1.6,0.2,2.2,0.5c0.7,0.3,1.3,0.8,1.8,1.3c0.5,0.6,0.9,1.2,1.1,1.9
			c0.3,0.7,0.4,1.4,0.4,2.1c0,0.7-0.1,1.3-0.3,2c-0.2,0.6-0.5,1.2-0.9,1.7c-0.4,0.5-0.8,0.9-1.3,1.3c-0.5,0.3-1.1,0.6-1.7,0.7
			l4.6,7.2h-2.1l-4.4-6.9h-5.5v6.9H145.6z M147.4,133.8h6.1c0.5,0,1-0.1,1.5-0.4c0.4-0.2,0.8-0.6,1.1-1c0.3-0.4,0.6-0.9,0.7-1.4
			c0.2-0.5,0.3-1,0.3-1.6c0-0.6-0.1-1.1-0.3-1.6c-0.2-0.5-0.5-1-0.8-1.4c-0.3-0.4-0.7-0.7-1.2-0.9c-0.5-0.2-1-0.3-1.5-0.3h-6V133.8z
			"/>
		<path fill="#686562" d="M162.3,142.3l7.8-18.7h1.5l7.8,18.7h-2l-2.4-5.8h-8.4l-2.4,5.8H162.3z M170.8,125.7L167,135h7.6
			L170.8,125.7z"/>
		<path fill="#686562" d="M182.8,142.3v-18.7h1.8v17.1h10.8v1.6H182.8z"/>
		<path fill="#686562" d="M207.3,142.3v-18.7h7.7c0.8,0,1.6,0.2,2.2,0.5c0.7,0.3,1.3,0.8,1.8,1.3s0.9,1.2,1.1,1.9
			c0.3,0.7,0.4,1.4,0.4,2.1c0,0.8-0.1,1.5-0.4,2.2c-0.3,0.7-0.6,1.3-1.1,1.9c-0.5,0.5-1,1-1.7,1.3c-0.7,0.3-1.4,0.5-2.2,0.5h-6.1
			v6.9H207.3z M209.1,133.8h6c0.5,0,1-0.1,1.5-0.4c0.4-0.2,0.8-0.6,1.1-0.9c0.3-0.4,0.6-0.9,0.7-1.4c0.2-0.5,0.3-1.1,0.3-1.6
			c0-0.6-0.1-1.1-0.3-1.6c-0.2-0.5-0.5-1-0.8-1.4c-0.3-0.4-0.7-0.7-1.2-0.9c-0.5-0.2-1-0.3-1.5-0.3h-5.8V133.8z"/>
		<path fill="#686562" d="M224.2,142.3v-18.7h1.8v17.1h10.8v1.6H224.2z"/>
		<path fill="#686562" d="M239.4,142.3l7.8-18.7h1.5l7.8,18.7h-2l-2.4-5.8h-8.4l-2.4,5.8H239.4z M248,125.7l-3.8,9.2h7.6L248,125.7z
			"/>
		<path fill="#686562" d="M259.9,142.3v-18.7h1.8v18.7H259.9z"/>
		<path fill="#686562" d="M268.4,127v15.3h-1.8v-18.7h1.4l12.4,15.6v-15.5h1.8v18.7h-1.6L268.4,127z"/>
		<path fill="#686562" d="M298.2,127.1c-0.5-0.6-1.2-1.1-2.1-1.4c-0.9-0.4-1.9-0.6-3-0.6c-1.7,0-2.9,0.3-3.6,0.9
			c-0.8,0.6-1.1,1.5-1.1,2.5c0,0.6,0.1,1,0.3,1.4c0.2,0.4,0.5,0.7,0.9,0.9c0.4,0.3,1,0.5,1.6,0.7c0.7,0.2,1.4,0.4,2.3,0.6
			c1,0.2,1.9,0.4,2.7,0.7c0.8,0.3,1.5,0.6,2,1c0.6,0.4,1,0.9,1.3,1.4c0.3,0.6,0.4,1.3,0.4,2.1c0,0.9-0.2,1.6-0.5,2.2
			c-0.3,0.6-0.8,1.2-1.4,1.6c-0.6,0.4-1.3,0.7-2.1,0.9c-0.8,0.2-1.7,0.3-2.7,0.3c-2.9,0-5.4-0.9-7.5-2.7l0.9-1.5
			c0.7,0.7,1.6,1.3,2.8,1.8c1.2,0.5,2.4,0.8,3.9,0.8c1.5,0,2.7-0.3,3.5-0.8c0.8-0.5,1.3-1.3,1.3-2.4c0-0.6-0.1-1.1-0.4-1.5
			c-0.2-0.4-0.6-0.7-1.1-1c-0.5-0.3-1.1-0.5-1.8-0.8c-0.7-0.2-1.5-0.4-2.5-0.6c-1-0.2-1.8-0.5-2.6-0.7c-0.7-0.2-1.4-0.6-1.9-0.9
			c-0.5-0.4-0.9-0.8-1.1-1.3c-0.3-0.5-0.4-1.2-0.4-1.9c0-0.9,0.2-1.6,0.5-2.3c0.3-0.7,0.8-1.2,1.4-1.7c0.6-0.4,1.3-0.8,2.1-1
			c0.8-0.2,1.7-0.4,2.7-0.4c1.2,0,2.3,0.2,3.3,0.6c1,0.4,1.9,0.9,2.6,1.6L298.2,127.1z"/>
	</g>
	<g>
		<path fill="#F18E3B" d="M89.9,160.1c-0.3-0.3-0.7-0.6-1.2-1c-0.5-0.3-1.2-0.7-1.9-1c-0.7-0.3-1.5-0.6-2.4-0.8
			c-0.9-0.2-1.8-0.3-2.8-0.3c-1.8,0-3.2,0.4-4.2,1.1c-1,0.7-1.4,1.7-1.4,3.1c0,0.7,0.2,1.3,0.5,1.8c0.3,0.5,0.8,0.9,1.4,1.2
			c0.6,0.3,1.4,0.6,2.3,0.9c0.9,0.3,2,0.6,3.2,0.9c1.5,0.4,2.8,0.8,4,1.2c1.2,0.4,2.3,0.9,3.1,1.6c0.9,0.6,1.5,1.4,2,2.3
			c0.5,0.9,0.7,2.1,0.7,3.4c0,1.6-0.3,2.9-0.9,4s-1.4,2-2.4,2.7c-1,0.7-2.1,1.2-3.5,1.5c-1.3,0.3-2.7,0.5-4.2,0.5
			c-2.3,0-4.5-0.3-6.6-1c-2.1-0.7-4-1.7-5.7-3l2.2-4c0.4,0.4,0.9,0.8,1.6,1.2c0.7,0.4,1.5,0.9,2.4,1.2c0.9,0.4,1.9,0.7,3,1
			c1.1,0.3,2.2,0.4,3.4,0.4c1.8,0,3.2-0.3,4.2-1c1-0.7,1.5-1.6,1.5-2.9c0-0.8-0.2-1.4-0.5-1.9c-0.4-0.5-0.9-0.9-1.6-1.3
			c-0.7-0.4-1.6-0.7-2.6-1c-1-0.3-2.2-0.6-3.4-0.9c-1.5-0.4-2.8-0.8-3.9-1.2c-1.1-0.4-2-1-2.7-1.6c-0.7-0.6-1.3-1.3-1.7-2.2
			c-0.4-0.8-0.6-1.8-0.6-3c0-1.5,0.3-2.7,0.8-3.9c0.5-1.1,1.3-2.1,2.3-2.9c1-0.8,2.1-1.3,3.4-1.7c1.3-0.4,2.7-0.6,4.2-0.6
			c2.1,0,3.9,0.3,5.6,1c1.7,0.6,3.2,1.4,4.5,2.4L89.9,160.1z"/>
		<path fill="#F18E3B" d="M109.2,183.1c-2.1,0-4-0.4-5.7-1.3c-1.7-0.9-3.2-2-4.4-3.4c-1.2-1.4-2.2-3-2.9-4.8c-0.7-1.8-1-3.7-1-5.6
			c0-2,0.4-3.9,1.1-5.7c0.7-1.8,1.7-3.4,3-4.8c1.3-1.4,2.8-2.5,4.5-3.3c1.7-0.8,3.6-1.2,5.7-1.2c2.1,0,4,0.4,5.7,1.3
			c1.7,0.9,3.2,2,4.4,3.5c1.2,1.4,2.2,3,2.9,4.8c0.7,1.8,1,3.6,1,5.5c0,2-0.4,3.9-1.1,5.7c-0.7,1.8-1.7,3.4-3,4.8
			c-1.3,1.4-2.7,2.5-4.5,3.3C113.1,182.7,111.3,183.1,109.2,183.1z M100,168c0,1.4,0.2,2.8,0.7,4.1c0.4,1.3,1.1,2.5,1.9,3.5
			c0.8,1,1.8,1.8,2.9,2.4c1.1,0.6,2.4,0.9,3.9,0.9c1.5,0,2.8-0.3,3.9-0.9c1.2-0.6,2.1-1.5,2.9-2.5c0.8-1,1.4-2.2,1.8-3.5
			c0.4-1.3,0.6-2.6,0.6-3.9c0-1.4-0.2-2.8-0.7-4.1c-0.4-1.3-1.1-2.4-1.9-3.4c-0.8-1-1.8-1.8-2.9-2.4c-1.1-0.6-2.4-0.9-3.8-0.9
			c-1.5,0-2.8,0.3-3.9,0.9c-1.2,0.6-2.1,1.4-2.9,2.5c-0.8,1-1.4,2.2-1.8,3.5C100.2,165.3,100,166.7,100,168z"/>
		<path fill="#F18E3B" d="M126.7,182.9v-29.8h4.7v25.6h16v4.2H126.7z"/>
		<path fill="#F18E3B" d="M161.3,178.9c1.6,0,2.9-0.3,3.9-0.9c1-0.6,1.9-1.4,2.5-2.4c0.6-1,1.1-2.1,1.3-3.4c0.3-1.3,0.4-2.6,0.4-3.9
			v-15.1h4.7v15.1c0,2-0.2,4-0.7,5.8c-0.5,1.8-1.2,3.4-2.3,4.7c-1,1.4-2.4,2.4-4,3.2c-1.6,0.8-3.6,1.2-5.9,1.2c-2.4,0-4.4-0.4-6-1.2
			c-1.6-0.8-3-1.9-4-3.3c-1-1.4-1.7-3-2.2-4.8c-0.4-1.8-0.7-3.6-0.7-5.6v-15.1h4.7v15.1c0,1.4,0.1,2.7,0.4,4
			c0.3,1.3,0.7,2.4,1.3,3.4c0.6,1,1.5,1.8,2.5,2.4C158.5,178.6,159.8,178.9,161.3,178.9z"/>
		<path fill="#F18E3B" d="M202.6,157.3h-9.9v25.6H188v-25.6H178v-4.2h24.5V157.3z"/>
		<path fill="#F18E3B" d="M206.6,182.9v-29.7h4.7v29.7H206.6z"/>
		<path fill="#F18E3B" d="M229.5,183.1c-2.1,0-4-0.4-5.7-1.3c-1.7-0.9-3.2-2-4.4-3.4c-1.2-1.4-2.2-3-2.9-4.8c-0.7-1.8-1-3.7-1-5.6
			c0-2,0.4-3.9,1.1-5.7c0.7-1.8,1.7-3.4,3-4.8c1.3-1.4,2.8-2.5,4.5-3.3c1.7-0.8,3.6-1.2,5.7-1.2c2.1,0,4,0.4,5.7,1.3
			c1.7,0.9,3.2,2,4.4,3.5c1.2,1.4,2.2,3,2.9,4.8c0.7,1.8,1,3.6,1,5.5c0,2-0.4,3.9-1.1,5.7c-0.7,1.8-1.7,3.4-3,4.8
			c-1.3,1.4-2.7,2.5-4.5,3.3C233.5,182.7,231.6,183.1,229.5,183.1z M220.3,168c0,1.4,0.2,2.8,0.6,4.1c0.4,1.3,1.1,2.5,1.9,3.5
			c0.8,1,1.8,1.8,2.9,2.4c1.1,0.6,2.4,0.9,3.9,0.9c1.5,0,2.8-0.3,3.9-0.9c1.2-0.6,2.1-1.5,2.9-2.5c0.8-1,1.4-2.2,1.8-3.5
			c0.4-1.3,0.6-2.6,0.6-3.9c0-1.4-0.2-2.8-0.7-4.1c-0.4-1.3-1.1-2.4-1.9-3.4c-0.8-1-1.8-1.8-2.9-2.4c-1.1-0.6-2.4-0.9-3.8-0.9
			c-1.5,0-2.8,0.3-3.9,0.9c-1.2,0.6-2.1,1.4-2.9,2.5c-0.8,1-1.4,2.2-1.8,3.5C220.5,165.3,220.3,166.7,220.3,168z"/>
		<path fill="#F18E3B" d="M250.8,161.9v21h-4.7v-29.8h3.7l17,21.5v-21.4h4.7v29.7h-3.9L250.8,161.9z"/>
		<path fill="#F18E3B" d="M296.1,160.1c-0.3-0.3-0.7-0.6-1.2-1c-0.5-0.3-1.2-0.7-1.9-1c-0.7-0.3-1.5-0.6-2.4-0.8
			c-0.9-0.2-1.8-0.3-2.8-0.3c-1.8,0-3.2,0.4-4.2,1.1c-1,0.7-1.4,1.7-1.4,3.1c0,0.7,0.2,1.3,0.5,1.8c0.3,0.5,0.8,0.9,1.4,1.2
			c0.6,0.3,1.4,0.6,2.3,0.9c0.9,0.3,2,0.6,3.2,0.9c1.5,0.4,2.8,0.8,4,1.2c1.2,0.4,2.3,0.9,3.1,1.6c0.9,0.6,1.5,1.4,2,2.3
			c0.5,0.9,0.7,2.1,0.7,3.4c0,1.6-0.3,2.9-0.9,4s-1.4,2-2.4,2.7c-1,0.7-2.1,1.2-3.5,1.5c-1.3,0.3-2.7,0.5-4.2,0.5
			c-2.3,0-4.5-0.3-6.6-1c-2.1-0.7-4-1.7-5.7-3l2.2-4c0.4,0.4,0.9,0.8,1.6,1.2c0.7,0.4,1.5,0.9,2.4,1.2c0.9,0.4,1.9,0.7,3,1
			c1.1,0.3,2.2,0.4,3.4,0.4c1.8,0,3.2-0.3,4.2-1c1-0.7,1.5-1.6,1.5-2.9c0-0.8-0.2-1.4-0.5-1.9c-0.4-0.5-0.9-0.9-1.6-1.3
			c-0.7-0.4-1.6-0.7-2.6-1c-1-0.3-2.2-0.6-3.4-0.9c-1.5-0.4-2.8-0.8-3.9-1.2c-1.1-0.4-2-1-2.7-1.6c-0.7-0.6-1.3-1.3-1.7-2.2
			c-0.4-0.8-0.6-1.8-0.6-3c0-1.5,0.3-2.7,0.8-3.9c0.5-1.1,1.3-2.1,2.3-2.9c1-0.8,2.1-1.3,3.4-1.7c1.3-0.4,2.7-0.6,4.2-0.6
			c2.1,0,3.9,0.3,5.6,1c1.7,0.6,3.2,1.4,4.5,2.4L296.1,160.1z"/>
	</g>
</g>
</svg>
