<?xml version="1.0" encoding="utf-8"?>
<!-- Generator: Adobe Illustrator 18.1.0, SVG Export Plug-In . SVG Version: 6.00 Build 0)  -->
<!DOCTYPE svg PUBLIC "-//W3C//DTD SVG 1.1//EN" "http://www.w3.org/Graphics/SVG/1.1/DTD/svg11.dtd">
<svg version="1.1" id="Layer_1" xmlns="http://www.w3.org/2000/svg" xmlns:xlink="http://www.w3.org/1999/xlink" x="0px" y="0px"
	 viewBox="0 0 400 250" enable-background="new 0 0 400 250" xml:space="preserve">
<g>
	<path fill="#686562" d="M266.9,78.4c0-36-29.2-65.1-65.1-65.1s-65.1,29.2-65.1,65.1c0,12.9,3.8,25,10.3,35.1
		c-1.4-6.3-0.3-15.8,0.5-20c4-21.8,23-37.6,43.2-44.3c4.2-1.4,8.5-2.3,12.8-2.8c1.7-0.2,3.4-0.4,5-0.5c13.2-0.9,30.5,1.4,42.3,7.7
		c-4.7,0.4-10.9,3.1-14.8,5.6c-8.4,5.4-13.8,14.2-14.1,24.2c-0.1,3.5,0.4,6.9,1.4,10.1c1.6,4.2,3.5,8.6,5.1,13.1
		c0.8,1.8,1.5,3.6,2.2,5.4c1.5,4,4.7,17,2.3,23.6C253.1,124.6,266.9,103.1,266.9,78.4z"/>
	<path fill="#686562" d="M147.6,93.6c4.8-26,30.7-43.6,55.8-47.2c-4.3,0.5-8.6,1.5-12.8,2.8c-20.3,6.7-39.2,22.4-43.2,44.3
		c-0.8,4.2-1.9,13.7-0.5,20c0.1,0.2,0.2,0.3,0.3,0.5C145.7,107.7,146.8,97.9,147.6,93.6z"/>
	<path fill="#686562" d="M225.2,61.2c-5.5,1.9-29.3,11-35.1,24c-2.6,5.8-1.3,13.4,4.1,17.1c4.2,2.9,10,2.1,13.7-1.1
		c2.4-2.1,3.3-5.1,3.7-8.2c0.3-2.1,0.2-4.3,0.2-6.3c-0.1-7.3,2-13.2,6.5-18.8C220.3,65.5,222.2,62.5,225.2,61.2z"/>
	<path fill="#686562" d="M186.3,110.8c-9.2-15.3-5.2-31.8,9.9-42.1c7.2-4.9,15.5-8,23.9-10.7c-14.8,1.1-29.7,7.1-38.6,18.5
		c-4.9,6.3-7.5,14.3-7.3,22.2c0.2,7.7,5,13.9,8.2,20.6c3.6,7.4,4.8,15.7,1.4,23.5c0.9,0.3,7.7,1.9,7.7,1.6c0.4-2.3,0.6-4.6,0.8-6.9
		C192.9,128.1,191.2,119,186.3,110.8z"/>
	<g>
		<path fill="#686562" d="M52.1,171.1c0-1.5,0.3-2.9,0.8-4.4c0.5-1.5,1.3-2.8,2.3-3.9c1-1.1,2.2-2.1,3.6-2.8
			c1.4-0.7,3.1-1.1,4.9-1.1c2.2,0,4,0.5,5.6,1.5c1.5,1,2.7,2.3,3.4,3.8l-1.9,1.2c-0.4-0.8-0.9-1.5-1.4-2s-1.1-1-1.8-1.3
			c-0.6-0.3-1.3-0.6-2-0.7c-0.7-0.1-1.4-0.2-2-0.2c-1.5,0-2.8,0.3-3.9,0.9c-1.1,0.6-2.1,1.4-2.8,2.3c-0.8,1-1.3,2-1.7,3.2
			c-0.4,1.2-0.6,2.4-0.6,3.7c0,1.4,0.2,2.6,0.7,3.9c0.5,1.2,1.1,2.3,1.9,3.3c0.8,1,1.8,1.7,2.9,2.3c1.1,0.6,2.3,0.8,3.6,0.8
			c0.7,0,1.4-0.1,2.1-0.3c0.7-0.2,1.4-0.4,2.1-0.8c0.7-0.4,1.3-0.8,1.9-1.4c0.6-0.6,1.1-1.2,1.4-2l2,1c-0.4,0.9-0.9,1.7-1.6,2.4
			c-0.7,0.7-1.5,1.3-2.4,1.8c-0.9,0.5-1.8,0.8-2.8,1.1c-1,0.3-1.9,0.4-2.9,0.4c-1.7,0-3.2-0.4-4.6-1.1c-1.4-0.7-2.6-1.7-3.6-2.9
			c-1-1.2-1.8-2.5-2.4-4C52.4,174.1,52.1,172.6,52.1,171.1z"/>
		<path fill="#686562" d="M94.5,181.3v2.1H78.1V159h16.1v2.1H80.5v8.8h12v2h-12v9.3H94.5z"/>
		<path fill="#686562" d="M101.8,163.5v19.9h-2.4V159h1.9l16.1,20.3v-20.3h2.4v24.4h-2.1L101.8,163.5z"/>
		<path fill="#686562" d="M144.1,161.2h-8.7v22.3H133v-22.3h-8.7V159h19.8V161.2z"/>
		<path fill="#686562" d="M148.6,183.4V159h10.3c1.1,0,2,0.2,2.9,0.7c0.9,0.4,1.7,1,2.3,1.8c0.6,0.7,1.1,1.5,1.5,2.5
			c0.4,0.9,0.5,1.8,0.5,2.8c0,0.9-0.1,1.7-0.4,2.6c-0.3,0.8-0.6,1.5-1.1,2.2c-0.5,0.7-1.1,1.2-1.7,1.6c-0.7,0.4-1.4,0.8-2.2,0.9
			l6,9.4h-2.7l-5.8-9h-7.2v9H148.6z M150.9,172.3h8c0.7,0,1.4-0.2,1.9-0.5c0.6-0.3,1.1-0.7,1.5-1.3c0.4-0.5,0.7-1.1,1-1.8
			c0.2-0.7,0.3-1.4,0.3-2.1s-0.1-1.4-0.4-2.1c-0.3-0.7-0.6-1.3-1.1-1.8c-0.4-0.5-1-0.9-1.6-1.2c-0.6-0.3-1.2-0.4-1.9-0.4h-7.8V172.3
			z"/>
		<path fill="#686562" d="M170.3,183.4l10.2-24.4h2l10.2,24.4h-2.6l-3.2-7.6h-11l-3.1,7.6H170.3z M181.5,161.8l-5,12.1h9.9
			L181.5,161.8z"/>
		<path fill="#686562" d="M197.1,183.4V159h2.4v22.3h14.1v2.1H197.1z"/>
		<path fill="#686562" d="M229.1,183.4V159h10.1c1.1,0,2,0.2,2.9,0.7c0.9,0.4,1.6,1,2.3,1.8c0.6,0.7,1.1,1.5,1.5,2.5
			c0.4,0.9,0.5,1.8,0.5,2.8c0,1-0.2,2-0.5,2.9c-0.3,0.9-0.8,1.7-1.4,2.5c-0.6,0.7-1.4,1.3-2.2,1.7s-1.8,0.7-2.9,0.7h-7.9v9H229.1z
			 M231.5,172.3h7.8c0.7,0,1.4-0.2,1.9-0.5c0.6-0.3,1.1-0.7,1.5-1.2c0.4-0.5,0.7-1.1,1-1.8c0.2-0.7,0.3-1.4,0.3-2.1
			c0-0.8-0.1-1.5-0.4-2.1c-0.3-0.7-0.6-1.3-1.1-1.8c-0.4-0.5-1-0.9-1.6-1.2c-0.6-0.3-1.2-0.4-1.9-0.4h-7.6V172.3z"/>
		<path fill="#686562" d="M251.1,183.4V159h2.4v22.3h14.1v2.1H251.1z"/>
		<path fill="#686562" d="M270.9,183.4l10.2-24.4h2l10.2,24.4h-2.6l-3.2-7.6h-11l-3.1,7.6H270.9z M282.1,161.8l-5,12.1h9.9
			L282.1,161.8z"/>
		<path fill="#686562" d="M297.7,183.4v-24.4h2.4v24.4H297.7z"/>
		<path fill="#686562" d="M308.8,163.5v19.9h-2.4V159h1.9l16.1,20.3v-20.3h2.4v24.4h-2.1L308.8,163.5z"/>
		<path fill="#686562" d="M347.7,163.6c-0.7-0.8-1.6-1.4-2.8-1.9c-1.2-0.5-2.5-0.7-3.9-0.7c-2.2,0-3.8,0.4-4.7,1.2
			c-1,0.8-1.5,1.9-1.5,3.3c0,0.7,0.1,1.3,0.4,1.8c0.3,0.5,0.7,0.9,1.2,1.2c0.6,0.3,1.3,0.6,2.1,0.9c0.9,0.3,1.9,0.5,3,0.8
			c1.3,0.3,2.5,0.6,3.5,0.9c1,0.3,1.9,0.8,2.6,1.3s1.3,1.1,1.7,1.9c0.4,0.7,0.6,1.7,0.6,2.8c0,1.1-0.2,2.1-0.7,2.9
			c-0.4,0.8-1,1.5-1.8,2.1c-0.8,0.5-1.7,1-2.8,1.2c-1.1,0.3-2.2,0.4-3.5,0.4c-3.8,0-7.1-1.2-9.8-3.5l1.2-2c0.9,0.9,2.1,1.7,3.6,2.4
			c1.5,0.7,3.2,1,5.1,1c1.9,0,3.5-0.3,4.6-1c1.1-0.7,1.6-1.8,1.6-3.2c0-0.8-0.2-1.4-0.5-1.9c-0.3-0.5-0.8-1-1.4-1.3
			c-0.6-0.4-1.4-0.7-2.3-1c-0.9-0.3-2-0.5-3.2-0.8c-1.3-0.3-2.4-0.6-3.4-0.9c-1-0.3-1.8-0.7-2.4-1.2c-0.7-0.5-1.1-1.1-1.5-1.7
			c-0.3-0.7-0.5-1.5-0.5-2.5c0-1.1,0.2-2.1,0.6-3c0.4-0.9,1-1.6,1.8-2.2c0.8-0.6,1.7-1,2.7-1.3c1.1-0.3,2.2-0.5,3.5-0.5
			c1.6,0,3,0.2,4.3,0.7c1.3,0.5,2.4,1.2,3.5,2.1L347.7,163.6z"/>
	</g>
	<g>
		<path fill="#686562" d="M75.9,206.7c-0.4-0.4-0.9-0.8-1.6-1.3c-0.7-0.5-1.5-0.9-2.4-1.3c-0.9-0.4-2-0.7-3.1-1
			c-1.1-0.3-2.3-0.4-3.6-0.4c-2.4,0-4.2,0.5-5.5,1.4c-1.2,0.9-1.9,2.3-1.9,4c0,0.9,0.2,1.7,0.6,2.3c0.4,0.6,1,1.1,1.8,1.6
			c0.8,0.4,1.8,0.8,3,1.2c1.2,0.3,2.6,0.7,4.2,1.1c1.9,0.5,3.6,1,5.2,1.6c1.6,0.5,2.9,1.2,4,2.1c1.1,0.8,2,1.8,2.6,3
			c0.6,1.2,0.9,2.7,0.9,4.5c0,2-0.4,3.8-1.1,5.2c-0.8,1.4-1.8,2.6-3.1,3.5c-1.3,0.9-2.8,1.6-4.5,2c-1.7,0.4-3.5,0.6-5.5,0.6
			c-3,0-5.8-0.4-8.6-1.3c-2.8-0.9-5.3-2.2-7.5-3.9l2.8-5.3c0.5,0.5,1.1,1,2,1.6c0.9,0.6,1.9,1.1,3.1,1.6c1.2,0.5,2.5,0.9,3.9,1.3
			c1.4,0.3,2.9,0.5,4.4,0.5c2.3,0,4.1-0.4,5.4-1.3c1.3-0.9,1.9-2.1,1.9-3.7c0-1-0.2-1.8-0.7-2.5c-0.5-0.7-1.2-1.2-2.1-1.7
			c-0.9-0.5-2-0.9-3.3-1.3c-1.3-0.4-2.8-0.8-4.5-1.2c-1.9-0.5-3.6-1-5.1-1.6c-1.4-0.6-2.6-1.2-3.6-2.1c-0.9-0.8-1.7-1.7-2.2-2.8
			c-0.5-1.1-0.7-2.4-0.7-3.9c0-1.9,0.4-3.6,1.1-5.1c0.7-1.5,1.7-2.7,3-3.7c1.3-1,2.7-1.8,4.5-2.3c1.7-0.5,3.6-0.8,5.5-0.8
			c2.7,0,5.2,0.4,7.4,1.3c2.2,0.8,4.1,1.9,5.8,3.1L75.9,206.7z"/>
		<path fill="#686562" d="M101.2,236.7c-2.7,0-5.2-0.6-7.5-1.7c-2.2-1.1-4.2-2.6-5.8-4.4c-1.6-1.8-2.9-3.9-3.7-6.3
			c-0.9-2.4-1.3-4.8-1.3-7.3c0-2.6,0.5-5.1,1.4-7.4c0.9-2.4,2.2-4.5,3.9-6.3c1.6-1.8,3.6-3.3,5.9-4.3c2.3-1.1,4.7-1.6,7.4-1.6
			c2.7,0,5.2,0.6,7.5,1.7c2.2,1.1,4.2,2.7,5.8,4.5c1.6,1.9,2.8,4,3.7,6.3c0.9,2.4,1.3,4.8,1.3,7.2c0,2.6-0.5,5.1-1.4,7.4
			c-0.9,2.4-2.2,4.5-3.9,6.3c-1.6,1.8-3.6,3.2-5.8,4.3C106.3,236.1,103.8,236.7,101.2,236.7z M89.1,217c0,1.8,0.3,3.6,0.8,5.3
			c0.6,1.7,1.4,3.2,2.4,4.5c1.1,1.3,2.3,2.4,3.8,3.1c1.5,0.8,3.2,1.2,5,1.2c1.9,0,3.6-0.4,5.1-1.2c1.5-0.8,2.8-1.9,3.8-3.3
			c1-1.3,1.8-2.9,2.4-4.5c0.5-1.7,0.8-3.4,0.8-5.1c0-1.9-0.3-3.6-0.9-5.3c-0.6-1.7-1.4-3.2-2.5-4.5c-1.1-1.3-2.3-2.3-3.8-3.1
			c-1.5-0.8-3.2-1.2-5-1.2c-1.9,0-3.6,0.4-5.1,1.2c-1.5,0.8-2.8,1.9-3.8,3.2c-1,1.3-1.8,2.8-2.4,4.5C89.3,213.5,89.1,215.2,89.1,217
			z"/>
		<path fill="#686562" d="M123.9,236.4v-38.8h6.1V231h20.8v5.4H123.9z"/>
		<path fill="#686562" d="M169.1,231.1c2,0,3.7-0.4,5.1-1.2c1.3-0.8,2.4-1.9,3.3-3.1c0.8-1.3,1.4-2.8,1.8-4.4
			c0.3-1.7,0.5-3.4,0.5-5.1v-19.7h6.2v19.7c0,2.7-0.3,5.2-0.9,7.5c-0.6,2.4-1.6,4.4-3,6.2c-1.4,1.8-3.1,3.2-5.2,4.2
			c-2.1,1-4.7,1.5-7.7,1.5c-3.1,0-5.7-0.5-7.9-1.6c-2.1-1.1-3.9-2.5-5.2-4.3c-1.3-1.8-2.3-3.9-2.8-6.2c-0.6-2.3-0.9-4.8-0.9-7.3
			v-19.7h6.1v19.7c0,1.8,0.2,3.5,0.5,5.2c0.3,1.7,0.9,3.1,1.8,4.4c0.8,1.3,1.9,2.3,3.3,3.1C165.4,230.7,167.1,231.1,169.1,231.1z"/>
		<path fill="#686562" d="M222.9,203H210v33.4h-6.1V203h-13v-5.4h32V203z"/>
		<path fill="#686562" d="M228.2,236.4v-38.8h6.1v38.8H228.2z"/>
		<path fill="#686562" d="M258.1,236.7c-2.7,0-5.2-0.6-7.5-1.7c-2.2-1.1-4.2-2.6-5.8-4.4c-1.6-1.8-2.9-3.9-3.7-6.3
			c-0.9-2.4-1.3-4.8-1.3-7.3c0-2.6,0.5-5.1,1.4-7.4c0.9-2.4,2.2-4.5,3.9-6.3c1.6-1.8,3.6-3.3,5.9-4.3c2.3-1.1,4.7-1.6,7.4-1.6
			c2.7,0,5.2,0.6,7.5,1.7s4.2,2.7,5.8,4.5c1.6,1.9,2.8,4,3.7,6.3c0.9,2.4,1.3,4.8,1.3,7.2c0,2.6-0.5,5.1-1.4,7.4
			c-0.9,2.4-2.2,4.5-3.9,6.3c-1.6,1.8-3.6,3.2-5.8,4.3C263.2,236.1,260.8,236.7,258.1,236.7z M246,217c0,1.8,0.3,3.6,0.8,5.3
			c0.6,1.7,1.4,3.2,2.4,4.5c1.1,1.3,2.3,2.4,3.8,3.1c1.5,0.8,3.2,1.2,5,1.2c1.9,0,3.6-0.4,5.1-1.2c1.5-0.8,2.8-1.9,3.8-3.3
			c1-1.3,1.8-2.9,2.4-4.5c0.5-1.7,0.8-3.4,0.8-5.1c0-1.9-0.3-3.6-0.9-5.3c-0.6-1.7-1.4-3.2-2.5-4.5c-1.1-1.3-2.3-2.3-3.8-3.1
			c-1.5-0.8-3.2-1.2-5-1.2c-1.9,0-3.6,0.4-5.1,1.2c-1.5,0.8-2.8,1.9-3.8,3.2c-1,1.3-1.8,2.8-2.4,4.5C246.3,213.5,246,215.2,246,217z
			"/>
		<path fill="#686562" d="M285.9,209v27.4h-6.1v-38.8h4.8l22.2,28v-28h6.2v38.8h-5.1L285.9,209z"/>
		<path fill="#686562" d="M344.9,206.7c-0.4-0.4-0.9-0.8-1.6-1.3c-0.7-0.5-1.5-0.9-2.4-1.3c-0.9-0.4-2-0.7-3.1-1
			c-1.1-0.3-2.3-0.4-3.6-0.4c-2.4,0-4.2,0.5-5.5,1.4c-1.2,0.9-1.9,2.3-1.9,4c0,0.9,0.2,1.7,0.6,2.3c0.4,0.6,1,1.1,1.8,1.6
			c0.8,0.4,1.8,0.8,3,1.2c1.2,0.3,2.6,0.7,4.2,1.1c1.9,0.5,3.6,1,5.2,1.6c1.6,0.5,2.9,1.2,4,2.1c1.1,0.8,2,1.8,2.6,3
			c0.6,1.2,0.9,2.7,0.9,4.5c0,2-0.4,3.8-1.1,5.2c-0.8,1.4-1.8,2.6-3.1,3.5c-1.3,0.9-2.8,1.6-4.5,2c-1.7,0.4-3.5,0.6-5.5,0.6
			c-3,0-5.8-0.4-8.6-1.3c-2.8-0.9-5.3-2.2-7.5-3.9l2.8-5.3c0.5,0.5,1.1,1,2,1.6c0.9,0.6,1.9,1.1,3.1,1.6c1.2,0.5,2.5,0.9,3.9,1.3
			c1.4,0.3,2.9,0.5,4.4,0.5c2.3,0,4.1-0.4,5.4-1.3c1.3-0.9,1.9-2.1,1.9-3.7c0-1-0.2-1.8-0.7-2.5c-0.5-0.7-1.2-1.2-2.1-1.7
			c-0.9-0.5-2-0.9-3.3-1.3c-1.3-0.4-2.8-0.8-4.5-1.2c-1.9-0.5-3.6-1-5.1-1.6c-1.4-0.6-2.6-1.2-3.6-2.1c-0.9-0.8-1.7-1.7-2.2-2.8
			c-0.5-1.1-0.7-2.4-0.7-3.9c0-1.9,0.4-3.6,1.1-5.1c0.7-1.5,1.7-2.7,3-3.7c1.3-1,2.7-1.8,4.5-2.3c1.7-0.5,3.6-0.8,5.5-0.8
			c2.7,0,5.2,0.4,7.4,1.3c2.2,0.8,4.1,1.9,5.8,3.1L344.9,206.7z"/>
	</g>
</g>
</svg>
