<?xml version="1.0" encoding="utf-8"?>
<!-- Generator: Adobe Illustrator 18.1.0, SVG Export Plug-In . SVG Version: 6.00 Build 0)  -->
<!DOCTYPE svg PUBLIC "-//W3C//DTD SVG 1.1//EN" "http://www.w3.org/Graphics/SVG/1.1/DTD/svg11.dtd">
<svg version="1.1" id="Layer_1" xmlns="http://www.w3.org/2000/svg" xmlns:xlink="http://www.w3.org/1999/xlink" x="0px" y="0px"
	 viewBox="0 0 343 253" enable-background="new 0 0 343 253" xml:space="preserve">
<g>
	<path fill="#686562" d="M200.5,106.3c0-15.6-12.6-28.2-28.2-28.2S144,90.7,144,106.3c0,5.6,1.6,10.8,4.5,15.2
		c-0.6-2.7-0.1-6.8,0.2-8.7c1.7-9.5,9.9-16.3,18.7-19.2c1.8-0.6,3.7-1,5.6-1.2c0.7-0.1,1.5-0.2,2.2-0.2c5.7-0.4,13.2,0.6,18.3,3.4
		c-2,0.2-4.7,1.4-6.4,2.4c-3.7,2.3-6,6.1-6.1,10.5c-0.1,1.5,0.2,3,0.6,4.4c0.7,1.8,1.5,3.7,2.2,5.7c0.3,0.8,0.7,1.6,0.9,2.3
		c0.6,1.7,2.1,7.4,1,10.2C194.5,126.3,200.5,117,200.5,106.3z"/>
	<path fill="#686562" d="M148.8,112.9c2.1-11.3,13.3-18.9,24.2-20.5c-1.9,0.2-3.7,0.6-5.6,1.2c-8.8,2.9-17,9.7-18.7,19.2
		c-0.3,1.8-0.8,5.9-0.2,8.7c0,0.1,0.1,0.1,0.1,0.2C148,119,148.5,114.8,148.8,112.9z"/>
	<path fill="#F18E3B" d="M182.4,98.9c-2.4,0.8-12.7,4.8-15.2,10.4c-1.1,2.5-0.6,5.8,1.8,7.4c1.8,1.3,4.3,0.9,5.9-0.5
		c1-0.9,1.4-2.2,1.6-3.6c0.1-0.9,0.1-1.9,0.1-2.7c0-3.2,0.9-5.7,2.8-8.2C180.3,100.7,181.1,99.4,182.4,98.9z"/>
	<path fill="#F18E3B" d="M165.6,120.4c-4-6.7-2.3-13.8,4.3-18.2c3.1-2.1,6.7-3.5,10.3-4.7c-6.4,0.5-12.9,3.1-16.7,8
		c-2.1,2.7-3.3,6.2-3.2,9.6c0.1,3.3,2.1,6,3.5,8.9c1.6,3.2,2.1,6.8,0.6,10.2c0.4,0.1,3.3,0.8,3.3,0.7c0.2-1,0.3-2,0.3-3
		C168.4,127.9,167.7,123.9,165.6,120.4z"/>
	<g>
		<path fill="#686562" d="M107.4,146.5c0-0.6,0.1-1.3,0.3-1.9c0.2-0.6,0.5-1.2,1-1.7c0.4-0.5,1-0.9,1.6-1.2c0.6-0.3,1.3-0.5,2.1-0.5
			c0.9,0,1.7,0.2,2.4,0.6c0.7,0.4,1.2,1,1.5,1.7l-0.8,0.5c-0.2-0.3-0.4-0.6-0.6-0.9s-0.5-0.4-0.8-0.6c-0.3-0.1-0.6-0.3-0.9-0.3
			c-0.3-0.1-0.6-0.1-0.9-0.1c-0.6,0-1.2,0.1-1.7,0.4c-0.5,0.3-0.9,0.6-1.2,1c-0.3,0.4-0.6,0.9-0.8,1.4c-0.2,0.5-0.3,1-0.3,1.6
			c0,0.6,0.1,1.1,0.3,1.7c0.2,0.5,0.5,1,0.8,1.4c0.4,0.4,0.8,0.7,1.3,1c0.5,0.2,1,0.4,1.6,0.4c0.3,0,0.6,0,0.9-0.1s0.6-0.2,0.9-0.4
			c0.3-0.2,0.6-0.4,0.8-0.6c0.2-0.2,0.5-0.5,0.6-0.9l0.9,0.4c-0.2,0.4-0.4,0.7-0.7,1c-0.3,0.3-0.7,0.6-1,0.8
			c-0.4,0.2-0.8,0.4-1.2,0.5c-0.4,0.1-0.8,0.2-1.2,0.2c-0.7,0-1.4-0.2-2-0.5c-0.6-0.3-1.1-0.7-1.6-1.2c-0.4-0.5-0.8-1.1-1-1.7
			C107.5,147.8,107.4,147.1,107.4,146.5z"/>
		<path fill="#686562" d="M125.8,150.9v0.9h-7.1v-10.6h7v0.9h-5.9v3.8h5.2v0.9h-5.2v4H125.8z"/>
		<path fill="#686562" d="M129,143.2v8.6h-1v-10.6h0.8l7,8.8v-8.8h1v10.6h-0.9L129,143.2z"/>
		<path fill="#686562" d="M147.3,142.2h-3.8v9.6h-1v-9.6h-3.8v-0.9h8.6V142.2z"/>
		<path fill="#686562" d="M149.2,151.8v-10.6h4.5c0.5,0,0.9,0.1,1.3,0.3c0.4,0.2,0.7,0.4,1,0.8c0.3,0.3,0.5,0.7,0.6,1.1
			c0.2,0.4,0.2,0.8,0.2,1.2c0,0.4-0.1,0.8-0.2,1.1c-0.1,0.4-0.3,0.7-0.5,1c-0.2,0.3-0.5,0.5-0.7,0.7c-0.3,0.2-0.6,0.3-1,0.4l2.6,4.1
			h-1.2l-2.5-3.9h-3.1v3.9H149.2z M150.2,147h3.5c0.3,0,0.6-0.1,0.8-0.2c0.3-0.1,0.5-0.3,0.6-0.5c0.2-0.2,0.3-0.5,0.4-0.8
			c0.1-0.3,0.1-0.6,0.1-0.9c0-0.3-0.1-0.6-0.2-0.9c-0.1-0.3-0.3-0.5-0.5-0.8c-0.2-0.2-0.4-0.4-0.7-0.5c-0.3-0.1-0.5-0.2-0.8-0.2
			h-3.4V147z"/>
		<path fill="#686562" d="M158.6,151.8l4.4-10.6h0.8l4.4,10.6h-1.1l-1.4-3.3h-4.7l-1.4,3.3H158.6z M163.5,142.5l-2.2,5.2h4.3
			L163.5,142.5z"/>
		<path fill="#686562" d="M170.2,151.8v-10.6h1v9.6h6.1v0.9H170.2z"/>
		<path fill="#686562" d="M184.1,151.8v-10.6h4.4c0.5,0,0.9,0.1,1.3,0.3c0.4,0.2,0.7,0.4,1,0.8c0.3,0.3,0.5,0.7,0.6,1.1
			c0.2,0.4,0.2,0.8,0.2,1.2c0,0.4-0.1,0.9-0.2,1.3c-0.1,0.4-0.3,0.8-0.6,1.1c-0.3,0.3-0.6,0.6-1,0.7c-0.4,0.2-0.8,0.3-1.2,0.3h-3.4
			v3.9H184.1z M185.1,147h3.4c0.3,0,0.6-0.1,0.8-0.2c0.3-0.1,0.5-0.3,0.6-0.5c0.2-0.2,0.3-0.5,0.4-0.8c0.1-0.3,0.1-0.6,0.1-0.9
			c0-0.3-0.1-0.6-0.2-0.9c-0.1-0.3-0.3-0.5-0.5-0.8c-0.2-0.2-0.4-0.4-0.7-0.5c-0.3-0.1-0.5-0.2-0.8-0.2h-3.3V147z"/>
		<path fill="#686562" d="M193.7,151.8v-10.6h1v9.6h6.1v0.9H193.7z"/>
		<path fill="#686562" d="M202.2,151.8l4.4-10.6h0.8l4.4,10.6h-1.1l-1.4-3.3h-4.7l-1.4,3.3H202.2z M207.1,142.5l-2.2,5.2h4.3
			L207.1,142.5z"/>
		<path fill="#686562" d="M213.8,151.8v-10.6h1v10.6H213.8z"/>
		<path fill="#686562" d="M218.7,143.2v8.6h-1v-10.6h0.8l7,8.8v-8.8h1v10.6h-0.9L218.7,143.2z"/>
		<path fill="#686562" d="M235.5,143.2c-0.3-0.3-0.7-0.6-1.2-0.8c-0.5-0.2-1.1-0.3-1.7-0.3c-0.9,0-1.6,0.2-2.1,0.5
			c-0.4,0.4-0.6,0.8-0.6,1.4c0,0.3,0.1,0.6,0.2,0.8c0.1,0.2,0.3,0.4,0.5,0.5c0.2,0.1,0.6,0.3,0.9,0.4c0.4,0.1,0.8,0.2,1.3,0.3
			c0.6,0.1,1.1,0.3,1.5,0.4c0.4,0.1,0.8,0.3,1.1,0.6s0.6,0.5,0.7,0.8c0.2,0.3,0.3,0.7,0.3,1.2c0,0.5-0.1,0.9-0.3,1.3
			c-0.2,0.4-0.5,0.7-0.8,0.9c-0.3,0.2-0.7,0.4-1.2,0.5c-0.5,0.1-1,0.2-1.5,0.2c-1.7,0-3.1-0.5-4.2-1.5l0.5-0.8
			c0.4,0.4,0.9,0.8,1.6,1c0.7,0.3,1.4,0.4,2.2,0.4c0.8,0,1.5-0.2,2-0.5c0.5-0.3,0.7-0.8,0.7-1.4c0-0.3-0.1-0.6-0.2-0.8
			c-0.1-0.2-0.3-0.4-0.6-0.6c-0.3-0.2-0.6-0.3-1-0.4c-0.4-0.1-0.9-0.2-1.4-0.4c-0.6-0.1-1-0.3-1.5-0.4c-0.4-0.1-0.8-0.3-1-0.5
			c-0.3-0.2-0.5-0.5-0.6-0.8c-0.1-0.3-0.2-0.7-0.2-1.1c0-0.5,0.1-0.9,0.3-1.3c0.2-0.4,0.4-0.7,0.8-1c0.3-0.3,0.7-0.4,1.2-0.6
			c0.5-0.1,1-0.2,1.5-0.2c0.7,0,1.3,0.1,1.9,0.3c0.6,0.2,1,0.5,1.5,0.9L235.5,143.2z"/>
	</g>
	<g>
		<path fill="#F18E3B" d="M117.7,161.9c-0.2-0.2-0.4-0.4-0.7-0.6c-0.3-0.2-0.7-0.4-1.1-0.6c-0.4-0.2-0.8-0.3-1.3-0.4
			c-0.5-0.1-1-0.2-1.6-0.2c-1,0-1.8,0.2-2.4,0.6c-0.5,0.4-0.8,1-0.8,1.7c0,0.4,0.1,0.7,0.3,1c0.2,0.3,0.4,0.5,0.8,0.7
			c0.3,0.2,0.8,0.4,1.3,0.5c0.5,0.2,1.1,0.3,1.8,0.5c0.8,0.2,1.6,0.5,2.3,0.7c0.7,0.2,1.3,0.5,1.8,0.9c0.5,0.4,0.9,0.8,1.1,1.3
			c0.3,0.5,0.4,1.2,0.4,1.9c0,0.9-0.2,1.6-0.5,2.3c-0.3,0.6-0.8,1.1-1.3,1.5c-0.6,0.4-1.2,0.7-2,0.9c-0.7,0.2-1.5,0.3-2.4,0.3
			c-1.3,0-2.5-0.2-3.7-0.6c-1.2-0.4-2.3-1-3.2-1.7l1.2-2.3c0.2,0.2,0.5,0.4,0.9,0.7c0.4,0.3,0.8,0.5,1.3,0.7
			c0.5,0.2,1.1,0.4,1.7,0.5c0.6,0.2,1.3,0.2,1.9,0.2c1,0,1.8-0.2,2.4-0.6c0.6-0.4,0.8-0.9,0.8-1.6c0-0.4-0.1-0.8-0.3-1.1
			c-0.2-0.3-0.5-0.5-0.9-0.7c-0.4-0.2-0.9-0.4-1.4-0.6c-0.6-0.2-1.2-0.3-1.9-0.5c-0.8-0.2-1.6-0.5-2.2-0.7c-0.6-0.2-1.1-0.5-1.6-0.9
			c-0.4-0.3-0.7-0.8-0.9-1.2c-0.2-0.5-0.3-1-0.3-1.7c0-0.8,0.2-1.6,0.5-2.2c0.3-0.6,0.7-1.2,1.3-1.6c0.5-0.4,1.2-0.8,1.9-1
			c0.7-0.2,1.5-0.3,2.4-0.3c1.2,0,2.2,0.2,3.2,0.5c1,0.4,1.8,0.8,2.5,1.4L117.7,161.9z"/>
		<path fill="#F18E3B" d="M128.7,174.9c-1.2,0-2.3-0.2-3.2-0.7c-1-0.5-1.8-1.1-2.5-1.9c-0.7-0.8-1.2-1.7-1.6-2.7
			c-0.4-1-0.6-2.1-0.6-3.2c0-1.1,0.2-2.2,0.6-3.2c0.4-1,1-1.9,1.7-2.7c0.7-0.8,1.6-1.4,2.5-1.9c1-0.5,2-0.7,3.2-0.7
			c1.2,0,2.3,0.2,3.2,0.7c1,0.5,1.8,1.1,2.5,2c0.7,0.8,1.2,1.7,1.6,2.7c0.4,1,0.6,2.1,0.6,3.1c0,1.1-0.2,2.2-0.6,3.2
			c-0.4,1-1,1.9-1.7,2.7c-0.7,0.8-1.6,1.4-2.5,1.9C130.9,174.7,129.8,174.9,128.7,174.9z M123.4,166.3c0,0.8,0.1,1.6,0.4,2.3
			c0.2,0.7,0.6,1.4,1.1,2c0.5,0.6,1,1,1.7,1.4c0.6,0.3,1.4,0.5,2.2,0.5c0.8,0,1.6-0.2,2.2-0.5c0.7-0.4,1.2-0.8,1.7-1.4
			c0.5-0.6,0.8-1.2,1-2c0.2-0.7,0.4-1.5,0.4-2.2c0-0.8-0.1-1.6-0.4-2.3s-0.6-1.4-1.1-1.9c-0.5-0.6-1-1-1.7-1.4
			c-0.6-0.3-1.4-0.5-2.2-0.5c-0.8,0-1.6,0.2-2.2,0.5c-0.7,0.4-1.2,0.8-1.7,1.4c-0.5,0.6-0.8,1.2-1,2
			C123.5,164.8,123.4,165.6,123.4,166.3z"/>
		<path fill="#F18E3B" d="M138.5,174.8v-16.8h2.7v14.5h9v2.3H138.5z"/>
		<path fill="#F18E3B" d="M158.1,172.5c0.9,0,1.6-0.2,2.2-0.5c0.6-0.3,1.1-0.8,1.4-1.4c0.4-0.6,0.6-1.2,0.8-1.9
			c0.2-0.7,0.2-1.5,0.2-2.2v-8.5h2.7v8.5c0,1.2-0.1,2.2-0.4,3.3c-0.3,1-0.7,1.9-1.3,2.7c-0.6,0.8-1.3,1.4-2.3,1.8
			c-0.9,0.4-2,0.7-3.3,0.7c-1.3,0-2.5-0.2-3.4-0.7c-0.9-0.5-1.7-1.1-2.2-1.9c-0.6-0.8-1-1.7-1.2-2.7c-0.3-1-0.4-2.1-0.4-3.2v-8.5
			h2.7v8.5c0,0.8,0.1,1.5,0.2,2.2c0.1,0.7,0.4,1.4,0.8,1.9c0.4,0.6,0.8,1,1.4,1.4C156.5,172.3,157.2,172.5,158.1,172.5z"/>
		<path fill="#F18E3B" d="M181.4,160.3h-5.6v14.5h-2.7v-14.5h-5.6v-2.3h13.9V160.3z"/>
		<path fill="#F18E3B" d="M183.7,174.8V158h2.7v16.8H183.7z"/>
		<path fill="#F18E3B" d="M196.7,174.9c-1.2,0-2.3-0.2-3.2-0.7c-1-0.5-1.8-1.1-2.5-1.9c-0.7-0.8-1.2-1.7-1.6-2.7
			c-0.4-1-0.6-2.1-0.6-3.2c0-1.1,0.2-2.2,0.6-3.2c0.4-1,1-1.9,1.7-2.7c0.7-0.8,1.6-1.4,2.5-1.9c1-0.5,2-0.7,3.2-0.7
			c1.2,0,2.3,0.2,3.2,0.7c1,0.5,1.8,1.1,2.5,2c0.7,0.8,1.2,1.7,1.6,2.7c0.4,1,0.6,2.1,0.6,3.1c0,1.1-0.2,2.2-0.6,3.2
			c-0.4,1-1,1.9-1.7,2.7c-0.7,0.8-1.6,1.4-2.5,1.9C198.9,174.7,197.8,174.9,196.7,174.9z M191.4,166.3c0,0.8,0.1,1.6,0.4,2.3
			c0.2,0.7,0.6,1.4,1.1,2c0.5,0.6,1,1,1.7,1.4c0.6,0.3,1.4,0.5,2.2,0.5c0.8,0,1.6-0.2,2.2-0.5c0.7-0.4,1.2-0.8,1.7-1.4
			c0.5-0.6,0.8-1.2,1-2c0.2-0.7,0.4-1.5,0.4-2.2c0-0.8-0.1-1.6-0.4-2.3c-0.3-0.7-0.6-1.4-1.1-1.9c-0.5-0.6-1-1-1.7-1.4
			c-0.6-0.3-1.4-0.5-2.2-0.5c-0.8,0-1.6,0.2-2.2,0.5c-0.7,0.4-1.2,0.8-1.7,1.4c-0.5,0.6-0.8,1.2-1,2S191.4,165.6,191.4,166.3z"/>
		<path fill="#F18E3B" d="M208.7,162.9v11.9h-2.7v-16.8h2.1l9.6,12.1V158h2.7v16.8h-2.2L208.7,162.9z"/>
		<path fill="#F18E3B" d="M234.3,161.9c-0.2-0.2-0.4-0.4-0.7-0.6c-0.3-0.2-0.7-0.4-1.1-0.6c-0.4-0.2-0.8-0.3-1.3-0.4
			c-0.5-0.1-1-0.2-1.6-0.2c-1,0-1.8,0.2-2.4,0.6c-0.5,0.4-0.8,1-0.8,1.7c0,0.4,0.1,0.7,0.3,1c0.2,0.3,0.4,0.5,0.8,0.7
			c0.3,0.2,0.8,0.4,1.3,0.5c0.5,0.2,1.1,0.3,1.8,0.5c0.8,0.2,1.6,0.5,2.3,0.7c0.7,0.2,1.3,0.5,1.8,0.9c0.5,0.4,0.9,0.8,1.1,1.3
			c0.3,0.5,0.4,1.2,0.4,1.9c0,0.9-0.2,1.6-0.5,2.3c-0.3,0.6-0.8,1.1-1.3,1.5c-0.6,0.4-1.2,0.7-2,0.9c-0.7,0.2-1.5,0.3-2.4,0.3
			c-1.3,0-2.5-0.2-3.7-0.6c-1.2-0.4-2.3-1-3.2-1.7l1.2-2.3c0.2,0.2,0.5,0.4,0.9,0.7c0.4,0.3,0.8,0.5,1.3,0.7
			c0.5,0.2,1.1,0.4,1.7,0.5c0.6,0.2,1.3,0.2,1.9,0.2c1,0,1.8-0.2,2.4-0.6c0.6-0.4,0.8-0.9,0.8-1.6c0-0.4-0.1-0.8-0.3-1.1
			c-0.2-0.3-0.5-0.5-0.9-0.7c-0.4-0.2-0.9-0.4-1.4-0.6c-0.6-0.2-1.2-0.3-1.9-0.5c-0.8-0.2-1.6-0.5-2.2-0.7c-0.6-0.2-1.1-0.5-1.6-0.9
			c-0.4-0.3-0.7-0.8-0.9-1.2c-0.2-0.5-0.3-1-0.3-1.7c0-0.8,0.2-1.6,0.5-2.2c0.3-0.6,0.7-1.2,1.3-1.6c0.5-0.4,1.2-0.8,1.9-1
			c0.7-0.2,1.5-0.3,2.4-0.3c1.2,0,2.2,0.2,3.2,0.5c1,0.4,1.8,0.8,2.5,1.4L234.3,161.9z"/>
	</g>
</g>
</svg>
