<?xml version="1.0" encoding="utf-8"?>
<!-- Generator: Adobe Illustrator 18.1.0, SVG Export Plug-In . SVG Version: 6.00 Build 0)  -->
<!DOCTYPE svg PUBLIC "-//W3C//DTD SVG 1.1//EN" "http://www.w3.org/Graphics/SVG/1.1/DTD/svg11.dtd">
<svg version="1.1" id="Layer_1" xmlns="http://www.w3.org/2000/svg" xmlns:xlink="http://www.w3.org/1999/xlink" x="0px" y="0px"
	 viewBox="0 0 458.2 364.6" enable-background="new 0 0 458.2 364.6" xml:space="preserve">
<path fill="#686562" d="M325.7,112.2c0-51.8-42-93.8-93.8-93.8s-93.8,42-93.8,93.8c0,18.6,5.4,36,14.8,50.6
	c-2-9.1-0.4-22.7,0.7-28.8c5.8-31.4,33.1-54.2,62.3-63.7c6-2,12.2-3.3,18.5-4.1c2.4-0.3,4.8-0.6,7.2-0.8c19-1.3,43.9,2.1,60.9,11.2
	c-6.7,0.6-15.8,4.5-21.3,8c-12.1,7.7-19.8,20.4-20.3,34.9c-0.2,5.1,0.6,9.9,2,14.5c2.4,6.1,5,12.4,7.3,18.8c1.1,2.6,2.2,5.2,3.1,7.8
	c2.1,5.8,6.8,24.5,3.3,34.1C305.8,178.8,325.7,147.8,325.7,112.2z"/>
<path fill="#686562" d="M153.9,134.2c6.9-37.4,44.1-62.8,80.4-68c-6.3,0.8-12.4,2.1-18.5,4.1c-29.2,9.6-56.5,32.3-62.3,63.7
	c-1.1,6.1-2.7,19.7-0.7,28.8c0.2,0.2,0.3,0.5,0.5,0.7C151.1,154.4,152.8,140.4,153.9,134.2z"/>
<path fill="#686562" d="M265.6,87.6c-7.9,2.8-42.2,15.8-50.6,34.5c-3.7,8.3-1.9,19.3,5.9,24.7c6,4.2,14.4,3.1,19.8-1.6
	c3.4-3,4.8-7.3,5.3-11.9c0.4-3.1,0.4-6.2,0.3-9c-0.1-10.5,2.8-19,9.4-27.1C258.5,93.6,261.4,89.4,265.6,87.6z"/>
<path fill="#686562" d="M209.7,158.9c-13.2-22.1-7.6-45.7,14.3-60.6c10.3-7.1,22.4-11.5,34.4-15.5c-21.3,1.6-42.8,10.3-55.6,26.7
	c-7.1,9.1-10.9,20.6-10.6,31.9c0.3,11.1,7.1,20.1,11.8,29.6c5.2,10.7,7,22.6,2,33.8c1.2,0.4,11,2.7,11.1,2.4c0.5-3.3,0.9-6.6,1.2-10
	C219.1,183.9,216.7,170.7,209.7,158.9z"/>
<g>
	<path fill="#686562" d="M16.4,245.7c0-2.1,0.4-4.2,1.1-6.3c0.7-2.1,1.8-4,3.2-5.6c1.4-1.6,3.2-3,5.2-4c2.1-1,4.4-1.6,7.1-1.6
		c3.1,0,5.8,0.7,8,2.1c2.2,1.4,3.9,3.3,4.9,5.5l-2.8,1.7c-0.6-1.2-1.2-2.1-2-2.9c-0.8-0.8-1.7-1.4-2.6-1.9c-0.9-0.5-1.9-0.8-2.9-1.1
		c-1-0.2-2-0.3-2.9-0.3c-2.1,0-4,0.4-5.6,1.3c-1.6,0.9-3,2-4.1,3.4c-1.1,1.4-1.9,2.9-2.5,4.7c-0.6,1.7-0.8,3.5-0.8,5.3
		c0,1.9,0.3,3.8,1,5.6c0.7,1.8,1.6,3.4,2.8,4.7c1.2,1.4,2.6,2.5,4.2,3.3c1.6,0.8,3.3,1.2,5.2,1.2c1,0,2-0.1,3-0.4c1-0.2,2-0.6,3-1.2
		c1-0.5,1.9-1.2,2.7-2c0.8-0.8,1.5-1.8,2.1-2.9l2.9,1.5c-0.6,1.3-1.4,2.5-2.4,3.5c-1,1-2.2,1.9-3.4,2.5c-1.3,0.7-2.6,1.2-4,1.6
		c-1.4,0.4-2.8,0.5-4.1,0.5c-2.4,0-4.6-0.5-6.6-1.6c-2-1.1-3.7-2.4-5.2-4.1c-1.5-1.7-2.6-3.6-3.4-5.8
		C16.8,250.1,16.4,247.9,16.4,245.7z"/>
	<path fill="#686562" d="M77.5,260.4v3.1H53.9v-35.1H77v3.1H57.3v12.7h17.2v2.9H57.3v13.4H77.5z"/>
	<path fill="#686562" d="M88,234.8v28.7h-3.4v-35.1h2.7l23.3,29.2v-29.2h3.4v35.1h-3L88,234.8z"/>
	<path fill="#686562" d="M148.9,231.4h-12.5v32.1h-3.5v-32.1h-12.5v-3.1h28.5V231.4z"/>
	<path fill="#686562" d="M155.3,263.5v-35.1h14.8c1.5,0,2.9,0.3,4.2,1c1.3,0.6,2.4,1.5,3.3,2.5c0.9,1,1.6,2.2,2.2,3.5
		c0.5,1.3,0.8,2.7,0.8,4c0,1.3-0.2,2.5-0.6,3.7c-0.4,1.2-0.9,2.2-1.6,3.2c-0.7,0.9-1.5,1.7-2.5,2.4c-1,0.6-2,1.1-3.2,1.3l8.7,13.6
		h-3.9l-8.3-13h-10.4v13H155.3z M158.7,247.5h11.5c1,0,2-0.2,2.8-0.7c0.8-0.4,1.6-1,2.2-1.8c0.6-0.8,1.1-1.6,1.4-2.6
		c0.3-1,0.5-2,0.5-3s-0.2-2.1-0.6-3c-0.4-1-0.9-1.8-1.5-2.5c-0.6-0.7-1.4-1.3-2.3-1.7c-0.9-0.4-1.8-0.6-2.7-0.6h-11.2V247.5z"/>
	<path fill="#686562" d="M186.6,263.5l14.7-35.1h2.8l14.7,35.1h-3.7l-4.6-11h-15.8l-4.5,11H186.6z M202.8,232.4l-7.2,17.4h14.2
		L202.8,232.4z"/>
	<path fill="#686562" d="M225.1,263.5v-35.1h3.4v32.1h20.3v3.1H225.1z"/>
	<path fill="#686562" d="M271.3,263.5v-35.1h14.5c1.5,0,2.9,0.3,4.2,1c1.3,0.6,2.4,1.5,3.3,2.5s1.6,2.2,2.2,3.5
		c0.5,1.3,0.8,2.7,0.8,4c0,1.5-0.2,2.8-0.7,4.2c-0.5,1.3-1.2,2.5-2.1,3.5c-0.9,1-2,1.8-3.2,2.5c-1.2,0.6-2.6,0.9-4.1,0.9h-11.4v13
		H271.3z M274.7,247.5h11.2c1,0,2-0.2,2.8-0.7c0.8-0.4,1.6-1,2.2-1.8c0.6-0.7,1.1-1.6,1.4-2.6c0.3-1,0.5-2,0.5-3
		c0-1.1-0.2-2.1-0.6-3.1c-0.4-1-0.9-1.8-1.5-2.5c-0.6-0.7-1.4-1.3-2.3-1.7c-0.9-0.4-1.8-0.6-2.7-0.6h-10.9V247.5z"/>
	<path fill="#686562" d="M303,263.5v-35.1h3.4v32.1h20.3v3.1H303z"/>
	<path fill="#686562" d="M331.5,263.5l14.7-35.1h2.8l14.7,35.1H360l-4.6-11h-15.8l-4.5,11H331.5z M347.6,232.4l-7.2,17.4h14.2
		L347.6,232.4z"/>
	<path fill="#686562" d="M370,263.5v-35.1h3.4v35.1H370z"/>
	<path fill="#686562" d="M386.1,234.8v28.7h-3.4v-35.1h2.7l23.3,29.2v-29.2h3.4v35.1h-3L386.1,234.8z"/>
	<path fill="#686562" d="M442,234.9c-1-1.1-2.3-2-4-2.7c-1.7-0.7-3.5-1-5.6-1c-3.1,0-5.4,0.6-6.8,1.8c-1.4,1.2-2.1,2.8-2.1,4.8
		c0,1.1,0.2,1.9,0.6,2.6c0.4,0.7,1,1.3,1.8,1.8c0.8,0.5,1.8,0.9,3.1,1.3c1.2,0.4,2.7,0.7,4.4,1.1c1.9,0.4,3.6,0.8,5,1.3
		c1.5,0.5,2.8,1.1,3.8,1.8c1.1,0.7,1.9,1.6,2.4,2.7c0.6,1.1,0.8,2.4,0.8,4c0,1.6-0.3,3-0.9,4.2c-0.6,1.2-1.5,2.2-2.6,3
		c-1.1,0.8-2.5,1.4-4,1.8c-1.6,0.4-3.2,0.6-5,0.6c-5.5,0-10.2-1.7-14.1-5.1l1.7-2.8c1.3,1.4,3,2.5,5.2,3.4c2.2,0.9,4.6,1.4,7.3,1.4
		c2.8,0,5-0.5,6.6-1.5c1.6-1,2.4-2.5,2.4-4.6c0-1.1-0.2-2-0.7-2.7c-0.4-0.7-1.1-1.4-2-1.9c-0.9-0.5-2-1-3.3-1.4
		c-1.3-0.4-2.9-0.8-4.6-1.2c-1.8-0.4-3.5-0.9-4.8-1.3c-1.4-0.5-2.5-1-3.5-1.7c-0.9-0.7-1.6-1.5-2.1-2.5c-0.5-1-0.7-2.2-0.7-3.6
		c0-1.6,0.3-3.1,0.9-4.3c0.6-1.3,1.5-2.3,2.6-3.2c1.1-0.8,2.4-1.5,4-1.9c1.5-0.4,3.2-0.7,5.1-0.7c2.3,0,4.4,0.4,6.2,1.1
		c1.8,0.7,3.5,1.7,5,3L442,234.9z"/>
</g>
<g>
	<path fill="#686562" d="M50.7,297c-0.5-0.6-1.3-1.2-2.3-1.9c-1-0.7-2.2-1.3-3.5-1.9c-1.3-0.6-2.8-1-4.5-1.4
		c-1.6-0.4-3.4-0.6-5.2-0.6c-3.5,0-6.1,0.7-7.9,2c-1.8,1.4-2.7,3.3-2.7,5.8c0,1.4,0.3,2.5,0.9,3.3c0.6,0.9,1.4,1.6,2.6,2.2
		c1.2,0.6,2.6,1.2,4.3,1.7c1.7,0.5,3.8,1,6.1,1.6c2.7,0.7,5.2,1.5,7.5,2.3c2.3,0.8,4.2,1.8,5.8,3c1.6,1.2,2.8,2.6,3.7,4.4
		c0.9,1.7,1.3,3.9,1.3,6.5c0,2.9-0.6,5.4-1.7,7.5c-1.1,2-2.6,3.7-4.5,5c-1.9,1.3-4,2.2-6.5,2.8c-2.5,0.6-5.1,0.9-7.9,0.9
		c-4.3,0-8.4-0.6-12.4-1.9c-4-1.3-7.6-3.2-10.8-5.6l4.1-7.6c0.7,0.7,1.7,1.4,2.9,2.3c1.3,0.8,2.7,1.6,4.5,2.3
		c1.7,0.7,3.6,1.3,5.6,1.8c2,0.5,4.2,0.7,6.4,0.7c3.4,0,6-0.6,7.8-1.9c1.9-1.2,2.8-3,2.8-5.4c0-1.4-0.3-2.6-1-3.5
		c-0.7-0.9-1.7-1.8-3-2.5c-1.3-0.7-2.9-1.3-4.8-1.9c-1.9-0.6-4-1.1-6.5-1.8c-2.8-0.7-5.2-1.5-7.3-2.3c-2.1-0.8-3.8-1.8-5.2-3
		c-1.4-1.2-2.4-2.5-3.1-4.1c-0.7-1.5-1.1-3.4-1.1-5.6c0-2.7,0.5-5.2,1.5-7.3c1-2.1,2.4-3.9,4.3-5.4c1.8-1.4,4-2.5,6.4-3.3
		c2.5-0.7,5.1-1.1,8-1.1c3.9,0,7.4,0.6,10.6,1.8c3.2,1.2,6,2.7,8.4,4.5L50.7,297z"/>
	<path fill="#686562" d="M87,340.2c-3.9,0-7.5-0.8-10.8-2.4c-3.2-1.6-6-3.7-8.4-6.4c-2.3-2.7-4.1-5.7-5.4-9.1
		c-1.3-3.4-1.9-6.9-1.9-10.5c0-3.7,0.7-7.3,2-10.7c1.3-3.4,3.2-6.4,5.6-9.1c2.4-2.6,5.2-4.7,8.4-6.3c3.3-1.5,6.8-2.3,10.6-2.3
		c3.9,0,7.5,0.8,10.8,2.5c3.2,1.7,6,3.8,8.3,6.5c2.3,2.7,4.1,5.7,5.4,9.1c1.3,3.4,1.9,6.8,1.9,10.4c0,3.7-0.7,7.3-2,10.7
		c-1.3,3.4-3.2,6.4-5.6,9c-2.4,2.6-5.2,4.7-8.4,6.2C94.4,339.4,90.9,340.2,87,340.2z M69.6,311.8c0,2.6,0.4,5.2,1.2,7.6
		c0.8,2.5,2,4.6,3.5,6.5c1.5,1.9,3.4,3.4,5.5,4.5c2.2,1.1,4.6,1.7,7.2,1.7c2.7,0,5.2-0.6,7.4-1.8c2.2-1.2,4-2.7,5.5-4.7
		c1.5-1.9,2.6-4.1,3.4-6.5c0.8-2.4,1.2-4.9,1.2-7.4c0-2.7-0.4-5.2-1.3-7.7c-0.8-2.4-2-4.6-3.5-6.5c-1.5-1.9-3.4-3.4-5.5-4.5
		c-2.2-1.1-4.5-1.7-7.2-1.7c-2.7,0-5.2,0.6-7.4,1.8c-2.2,1.2-4,2.7-5.5,4.6c-1.5,1.9-2.6,4.1-3.4,6.5
		C70,306.8,69.6,309.3,69.6,311.8z"/>
	<path fill="#686562" d="M119.8,339.8v-55.9h8.8V332h30v7.8H119.8z"/>
	<path fill="#686562" d="M184.9,332.2c2.9,0,5.4-0.6,7.3-1.7c1.9-1.2,3.5-2.7,4.7-4.5c1.2-1.9,2-4,2.5-6.4c0.5-2.4,0.7-4.8,0.7-7.4
		v-28.4h8.9v28.4c0,3.8-0.4,7.4-1.3,10.8c-0.9,3.4-2.3,6.4-4.3,8.9c-1.9,2.5-4.5,4.6-7.5,6c-3.1,1.5-6.8,2.2-11.1,2.2
		c-4.5,0-8.2-0.8-11.3-2.3c-3.1-1.5-5.6-3.6-7.4-6.2c-1.9-2.6-3.3-5.6-4.1-8.9c-0.8-3.4-1.3-6.9-1.3-10.5v-28.4h8.8v28.4
		c0,2.6,0.2,5.1,0.7,7.4c0.5,2.4,1.3,4.5,2.5,6.4c1.2,1.9,2.8,3.4,4.7,4.5C179.6,331.6,182,332.2,184.9,332.2z"/>
	<path fill="#686562" d="M262.3,291.6h-18.6v48.1h-8.8v-48.1h-18.7v-7.8h46.1V291.6z"/>
	<path fill="#686562" d="M269.9,339.8v-55.9h8.8v55.9H269.9z"/>
	<path fill="#686562" d="M313,340.2c-3.9,0-7.5-0.8-10.8-2.4c-3.2-1.6-6-3.7-8.4-6.4c-2.3-2.7-4.1-5.7-5.4-9.1
		c-1.3-3.4-1.9-6.9-1.9-10.5c0-3.7,0.7-7.3,2-10.7c1.3-3.4,3.2-6.4,5.6-9.1c2.4-2.6,5.2-4.7,8.4-6.3c3.3-1.5,6.8-2.3,10.6-2.3
		c3.9,0,7.5,0.8,10.8,2.5c3.2,1.7,6,3.8,8.3,6.5c2.3,2.7,4.1,5.7,5.4,9.1c1.3,3.4,1.9,6.8,1.9,10.4c0,3.7-0.7,7.3-2,10.7
		c-1.3,3.4-3.2,6.4-5.6,9c-2.4,2.6-5.2,4.7-8.4,6.2C320.4,339.4,316.8,340.2,313,340.2z M295.6,311.8c0,2.6,0.4,5.2,1.2,7.6
		c0.8,2.5,2,4.6,3.5,6.5c1.5,1.9,3.4,3.4,5.5,4.5c2.2,1.1,4.6,1.7,7.2,1.7c2.7,0,5.2-0.6,7.4-1.8c2.2-1.2,4-2.7,5.5-4.7
		c1.5-1.9,2.6-4.1,3.4-6.5c0.8-2.4,1.2-4.9,1.2-7.4c0-2.7-0.4-5.2-1.3-7.7c-0.8-2.4-2-4.6-3.5-6.5c-1.5-1.9-3.4-3.4-5.5-4.5
		c-2.2-1.1-4.5-1.7-7.2-1.7c-2.7,0-5.2,0.6-7.4,1.8c-2.2,1.2-4,2.7-5.5,4.6c-1.5,1.9-2.6,4.1-3.4,6.5
		C296,306.8,295.6,309.3,295.6,311.8z"/>
	<path fill="#686562" d="M353,300.4v39.4h-8.8v-55.9h6.9l32,40.3v-40.3h8.9v55.9h-7.3L353,300.4z"/>
	<path fill="#686562" d="M438,297c-0.5-0.6-1.3-1.2-2.3-1.9c-1-0.7-2.2-1.3-3.5-1.9c-1.3-0.6-2.8-1-4.5-1.4
		c-1.6-0.4-3.4-0.6-5.2-0.6c-3.5,0-6.1,0.7-7.9,2c-1.8,1.4-2.7,3.3-2.7,5.8c0,1.4,0.3,2.5,0.9,3.3c0.6,0.9,1.4,1.6,2.6,2.2
		c1.2,0.6,2.6,1.2,4.3,1.7c1.7,0.5,3.8,1,6.1,1.6c2.7,0.7,5.2,1.5,7.5,2.3c2.3,0.8,4.2,1.8,5.8,3c1.6,1.2,2.8,2.6,3.7,4.4
		c0.9,1.7,1.3,3.9,1.3,6.5c0,2.9-0.6,5.4-1.7,7.5c-1.1,2-2.6,3.7-4.5,5c-1.9,1.3-4,2.2-6.5,2.8c-2.5,0.6-5.1,0.9-7.9,0.9
		c-4.3,0-8.4-0.6-12.4-1.9c-4-1.3-7.6-3.2-10.8-5.6l4.1-7.6c0.7,0.7,1.7,1.4,2.9,2.3c1.3,0.8,2.7,1.6,4.5,2.3
		c1.7,0.7,3.6,1.3,5.6,1.8c2,0.5,4.2,0.7,6.4,0.7c3.4,0,6-0.6,7.8-1.9c1.9-1.2,2.8-3,2.8-5.4c0-1.4-0.3-2.6-1-3.5
		c-0.7-0.9-1.7-1.8-3-2.5c-1.3-0.7-2.9-1.3-4.8-1.9c-1.9-0.6-4-1.1-6.5-1.8c-2.8-0.7-5.2-1.5-7.3-2.3c-2.1-0.8-3.8-1.8-5.2-3
		c-1.4-1.2-2.4-2.5-3.1-4.1c-0.7-1.5-1.1-3.4-1.1-5.6c0-2.7,0.5-5.2,1.5-7.3c1-2.1,2.4-3.9,4.3-5.4c1.8-1.4,4-2.5,6.4-3.3
		c2.5-0.7,5.1-1.1,8-1.1c3.9,0,7.4,0.6,10.6,1.8c3.2,1.2,6,2.7,8.4,4.5L438,297z"/>
</g>
</svg>
