<?xml version="1.0" encoding="utf-8"?>
<!-- Generator: Adobe Illustrator 18.1.0, SVG Export Plug-In . SVG Version: 6.00 Build 0)  -->
<!DOCTYPE svg PUBLIC "-//W3C//DTD SVG 1.1//EN" "http://www.w3.org/Graphics/SVG/1.1/DTD/svg11.dtd">
<svg version="1.1" id="Layer_1" xmlns="http://www.w3.org/2000/svg" xmlns:xlink="http://www.w3.org/1999/xlink" x="0px" y="0px"
	 viewBox="0 0 716 378" enable-background="new 0 0 716 378" xml:space="preserve">
<g>
	<path fill="#686562" d="M454.3,121.9c0-51.8-42-93.8-93.8-93.8s-93.8,42-93.8,93.8c0,18.6,5.4,36,14.8,50.6
		c-2-9.1-0.4-22.7,0.7-28.8c5.8-31.4,33.1-54.2,62.3-63.7c6-2,12.2-3.3,18.5-4.1c2.4-0.3,4.8-0.6,7.2-0.8c19-1.3,43.9,2.1,60.9,11.2
		c-6.7,0.6-15.8,4.5-21.3,8c-12.1,7.7-19.8,20.4-20.3,34.9c-0.2,5.1,0.6,9.9,2,14.5c2.4,6.1,5,12.4,7.3,18.8
		c1.1,2.6,2.2,5.2,3.1,7.8c2.1,5.8,6.8,24.5,3.3,34.1C434.5,188.4,454.3,157.5,454.3,121.9z"/>
	<path fill="#686562" d="M282.6,143.8c6.9-37.4,44.1-62.8,80.4-68c-6.3,0.8-12.4,2.1-18.5,4.1c-29.2,9.6-56.5,32.3-62.3,63.7
		c-1.1,6.1-2.7,19.7-0.7,28.8c0.2,0.2,0.3,0.5,0.5,0.7C279.8,164.1,281.4,150,282.6,143.8z"/>
	<path fill="#F18E3B" d="M394.2,97.2c-7.9,2.8-42.2,15.8-50.6,34.5c-3.7,8.3-1.9,19.3,5.9,24.7c6,4.2,14.4,3.1,19.8-1.6
		c3.4-3,4.8-7.3,5.3-11.9c0.4-3.1,0.4-6.2,0.3-9c-0.1-10.5,2.8-19,9.4-27.1C387.2,103.3,390,99,394.2,97.2z"/>
	<path fill="#F18E3B" d="M338.3,168.6c-13.2-22.1-7.6-45.7,14.3-60.6C363,100.9,375,96.4,387,92.5c-21.3,1.6-42.8,10.3-55.6,26.7
		c-7.1,9.1-10.9,20.6-10.6,31.9c0.3,11.1,7.1,20.1,11.8,29.6c5.2,10.7,7,22.6,2,33.8c1.2,0.4,11,2.7,11.1,2.4
		c0.5-3.3,0.9-6.6,1.2-10C347.7,193.5,345.4,180.3,338.3,168.6z"/>
	<g>
		<path fill="#686562" d="M145,255.3c0-2.1,0.4-4.2,1.1-6.3c0.7-2.1,1.8-4,3.2-5.6c1.4-1.6,3.2-3,5.2-4c2.1-1,4.4-1.6,7.1-1.6
			c3.1,0,5.8,0.7,8,2.1c2.2,1.4,3.9,3.3,4.9,5.5l-2.8,1.7c-0.6-1.2-1.2-2.1-2-2.9c-0.8-0.8-1.7-1.4-2.6-1.9
			c-0.9-0.5-1.9-0.8-2.9-1.1c-1-0.2-2-0.3-2.9-0.3c-2.1,0-4,0.4-5.6,1.3c-1.6,0.9-3,2-4.1,3.4c-1.1,1.4-1.9,2.9-2.5,4.7
			c-0.6,1.7-0.8,3.5-0.8,5.3c0,1.9,0.3,3.8,1,5.6c0.7,1.8,1.6,3.4,2.8,4.7c1.2,1.4,2.6,2.5,4.2,3.3c1.6,0.8,3.3,1.2,5.2,1.2
			c1,0,2-0.1,3-0.4c1-0.2,2-0.6,3-1.2c1-0.5,1.9-1.2,2.7-2c0.8-0.8,1.5-1.8,2.1-2.9l2.9,1.5c-0.6,1.3-1.4,2.5-2.4,3.5
			c-1,1-2.2,1.9-3.4,2.5c-1.3,0.7-2.6,1.2-4,1.6c-1.4,0.4-2.8,0.5-4.1,0.5c-2.4,0-4.6-0.5-6.6-1.6c-2-1.1-3.7-2.4-5.2-4.1
			c-1.5-1.7-2.6-3.6-3.4-5.8C145.4,259.8,145,257.6,145,255.3z"/>
		<path fill="#686562" d="M206.1,270.1v3.1h-23.6V238h23.2v3.1h-19.7v12.7h17.2v2.9h-17.2v13.4H206.1z"/>
		<path fill="#686562" d="M216.6,244.4v28.7h-3.4V238h2.7l23.3,29.2V238h3.4v35.1h-3L216.6,244.4z"/>
		<path fill="#686562" d="M277.5,241.1H265v32.1h-3.5v-32.1H249V238h28.5V241.1z"/>
		<path fill="#686562" d="M284,273.1V238h14.8c1.5,0,2.9,0.3,4.2,1c1.3,0.6,2.4,1.5,3.3,2.5c0.9,1,1.6,2.2,2.2,3.5
			c0.5,1.3,0.8,2.7,0.8,4c0,1.3-0.2,2.5-0.6,3.7c-0.4,1.2-0.9,2.2-1.6,3.2c-0.7,0.9-1.5,1.7-2.5,2.4c-1,0.6-2,1.1-3.2,1.3l8.7,13.6
			h-3.9l-8.3-13h-10.4v13H284z M287.4,257.1h11.5c1,0,2-0.2,2.8-0.7c0.8-0.4,1.6-1,2.2-1.8c0.6-0.8,1.1-1.6,1.4-2.6
			c0.3-1,0.5-2,0.5-3c0-1.1-0.2-2.1-0.6-3c-0.4-1-0.9-1.8-1.5-2.5c-0.6-0.7-1.4-1.3-2.3-1.7c-0.9-0.4-1.8-0.6-2.7-0.6h-11.2V257.1z"
			/>
		<path fill="#686562" d="M315.3,273.1L330,238h2.8l14.7,35.1h-3.7l-4.6-11h-15.8l-4.5,11H315.3z M331.4,242.1l-7.2,17.4h14.2
			L331.4,242.1z"/>
		<path fill="#686562" d="M353.8,273.1V238h3.4v32.1h20.3v3.1H353.8z"/>
		<path fill="#686562" d="M399.9,273.1V238h14.5c1.5,0,2.9,0.3,4.2,1c1.3,0.6,2.4,1.5,3.3,2.5c0.9,1,1.6,2.2,2.2,3.5
			c0.5,1.3,0.8,2.7,0.8,4c0,1.5-0.2,2.8-0.7,4.2c-0.5,1.3-1.2,2.5-2.1,3.5c-0.9,1-2,1.8-3.2,2.5c-1.2,0.6-2.6,0.9-4.1,0.9h-11.4v13
			H399.9z M403.3,257.1h11.2c1,0,2-0.2,2.8-0.7c0.8-0.4,1.6-1,2.2-1.8c0.6-0.7,1.1-1.6,1.4-2.6c0.3-1,0.5-2,0.5-3
			c0-1.1-0.2-2.1-0.6-3.1c-0.4-1-0.9-1.8-1.5-2.5c-0.6-0.7-1.4-1.3-2.3-1.7c-0.9-0.4-1.8-0.6-2.7-0.6h-10.9V257.1z"/>
		<path fill="#686562" d="M431.6,273.1V238h3.4v32.1h20.3v3.1H431.6z"/>
		<path fill="#686562" d="M460.1,273.1l14.7-35.1h2.8l14.7,35.1h-3.7l-4.6-11h-15.8l-4.5,11H460.1z M476.3,242.1l-7.2,17.4h14.2
			L476.3,242.1z"/>
		<path fill="#686562" d="M498.7,273.1V238h3.4v35.1H498.7z"/>
		<path fill="#686562" d="M514.7,244.4v28.7h-3.4V238h2.7l23.3,29.2V238h3.4v35.1h-3L514.7,244.4z"/>
		<path fill="#686562" d="M570.6,244.6c-1-1.1-2.3-2-4-2.7c-1.7-0.7-3.5-1-5.6-1c-3.1,0-5.4,0.6-6.8,1.8c-1.4,1.2-2.1,2.8-2.1,4.8
			c0,1.1,0.2,1.9,0.6,2.6c0.4,0.7,1,1.3,1.8,1.8c0.8,0.5,1.8,0.9,3.1,1.3c1.2,0.4,2.7,0.7,4.4,1.1c1.9,0.4,3.6,0.8,5,1.3
			c1.5,0.5,2.8,1.1,3.8,1.8c1.1,0.7,1.9,1.6,2.4,2.7c0.6,1.1,0.8,2.4,0.8,4c0,1.6-0.3,3-0.9,4.2c-0.6,1.2-1.5,2.2-2.6,3
			c-1.1,0.8-2.5,1.4-4,1.8c-1.6,0.4-3.2,0.6-5,0.6c-5.5,0-10.2-1.7-14.1-5.1l1.7-2.8c1.3,1.4,3,2.5,5.2,3.4c2.2,0.9,4.6,1.4,7.3,1.4
			c2.8,0,5-0.5,6.6-1.5c1.6-1,2.4-2.5,2.4-4.6c0-1.1-0.2-2-0.7-2.7c-0.4-0.7-1.1-1.4-2-1.9c-0.9-0.5-2-1-3.3-1.4
			c-1.3-0.4-2.9-0.8-4.6-1.2c-1.8-0.4-3.5-0.9-4.8-1.3c-1.4-0.5-2.5-1-3.5-1.7c-0.9-0.7-1.6-1.5-2.1-2.5c-0.5-1-0.7-2.2-0.7-3.6
			c0-1.6,0.3-3.1,0.9-4.3c0.6-1.3,1.5-2.3,2.6-3.2c1.1-0.8,2.4-1.5,4-1.9c1.5-0.4,3.2-0.7,5.1-0.7c2.3,0,4.4,0.4,6.2,1.1
			c1.8,0.7,3.5,1.7,5,3L570.6,244.6z"/>
	</g>
	<g>
		<path fill="#F18E3B" d="M179.3,306.6c-0.5-0.6-1.3-1.2-2.3-1.9c-1-0.7-2.2-1.3-3.5-1.9c-1.3-0.6-2.8-1-4.5-1.4
			c-1.6-0.4-3.4-0.6-5.2-0.6c-3.5,0-6.1,0.7-7.9,2c-1.8,1.4-2.7,3.3-2.7,5.8c0,1.4,0.3,2.5,0.9,3.3c0.6,0.9,1.4,1.6,2.6,2.2
			c1.2,0.6,2.6,1.2,4.3,1.7c1.7,0.5,3.8,1,6.1,1.6c2.7,0.7,5.2,1.5,7.5,2.3c2.3,0.8,4.2,1.8,5.8,3c1.6,1.2,2.8,2.6,3.7,4.4
			c0.9,1.7,1.3,3.9,1.3,6.5c0,2.9-0.6,5.4-1.7,7.5s-2.6,3.7-4.5,5c-1.9,1.3-4,2.2-6.5,2.8c-2.5,0.6-5.1,0.9-7.9,0.9
			c-4.3,0-8.4-0.6-12.4-1.9c-4-1.3-7.6-3.2-10.8-5.6l4.1-7.6c0.7,0.7,1.7,1.4,2.9,2.3c1.3,0.8,2.7,1.6,4.5,2.3
			c1.7,0.7,3.6,1.3,5.6,1.8c2,0.5,4.2,0.7,6.4,0.7c3.4,0,6-0.6,7.8-1.9c1.9-1.2,2.8-3,2.8-5.4c0-1.4-0.3-2.6-1-3.5
			c-0.7-0.9-1.7-1.8-3-2.5c-1.3-0.7-2.9-1.3-4.8-1.9c-1.9-0.6-4-1.1-6.5-1.8c-2.8-0.7-5.2-1.5-7.3-2.3c-2.1-0.8-3.8-1.8-5.2-3
			c-1.4-1.2-2.4-2.5-3.1-4.1c-0.7-1.5-1.1-3.4-1.1-5.6c0-2.7,0.5-5.2,1.5-7.3c1-2.1,2.4-3.9,4.3-5.4c1.8-1.4,4-2.5,6.4-3.3
			c2.5-0.7,5.1-1.1,8-1.1c3.9,0,7.4,0.6,10.6,1.8c3.2,1.2,6,2.7,8.4,4.5L179.3,306.6z"/>
		<path fill="#F18E3B" d="M215.7,349.8c-3.9,0-7.5-0.8-10.8-2.4c-3.2-1.6-6-3.7-8.4-6.4c-2.3-2.7-4.1-5.7-5.4-9.1
			c-1.3-3.4-1.9-6.9-1.9-10.5c0-3.7,0.7-7.3,2-10.7c1.3-3.4,3.2-6.4,5.6-9.1c2.4-2.6,5.2-4.7,8.4-6.3c3.3-1.5,6.8-2.3,10.6-2.3
			c3.9,0,7.5,0.8,10.8,2.5c3.2,1.7,6,3.8,8.3,6.5c2.3,2.7,4.1,5.7,5.4,9.1c1.3,3.4,1.9,6.8,1.9,10.4c0,3.7-0.7,7.3-2,10.7
			c-1.3,3.4-3.2,6.4-5.6,9c-2.4,2.6-5.2,4.7-8.4,6.2C223,349,219.5,349.8,215.7,349.8z M198.3,321.4c0,2.6,0.4,5.2,1.2,7.6
			c0.8,2.5,2,4.6,3.5,6.5c1.5,1.9,3.4,3.4,5.5,4.5c2.2,1.1,4.6,1.7,7.2,1.7c2.7,0,5.2-0.6,7.4-1.8c2.2-1.2,4-2.7,5.5-4.7
			c1.5-1.9,2.6-4.1,3.4-6.5c0.8-2.4,1.2-4.9,1.2-7.4c0-2.7-0.4-5.2-1.3-7.7c-0.8-2.4-2-4.6-3.5-6.5c-1.5-1.9-3.4-3.4-5.5-4.5
			c-2.2-1.1-4.5-1.7-7.2-1.7c-2.7,0-5.2,0.6-7.4,1.8c-2.2,1.2-4,2.7-5.5,4.6s-2.6,4.1-3.4,6.5C198.7,316.4,198.3,318.9,198.3,321.4z
			"/>
		<path fill="#F18E3B" d="M248.4,349.4v-55.9h8.8v48.1h30v7.8H248.4z"/>
		<path fill="#F18E3B" d="M313.5,341.8c2.9,0,5.4-0.6,7.3-1.7c1.9-1.2,3.5-2.7,4.7-4.5c1.2-1.9,2-4,2.5-6.4c0.5-2.4,0.7-4.8,0.7-7.4
			v-28.4h8.9v28.4c0,3.8-0.4,7.4-1.3,10.8c-0.9,3.4-2.3,6.4-4.3,8.9c-1.9,2.5-4.5,4.6-7.5,6c-3.1,1.5-6.8,2.2-11.1,2.2
			c-4.5,0-8.2-0.8-11.3-2.3c-3.1-1.5-5.6-3.6-7.4-6.2c-1.9-2.6-3.3-5.6-4.1-8.9c-0.8-3.4-1.3-6.9-1.3-10.5v-28.4h8.8v28.4
			c0,2.6,0.2,5.1,0.7,7.4c0.5,2.4,1.3,4.5,2.5,6.4c1.2,1.9,2.8,3.4,4.7,4.5C308.2,341.3,310.6,341.8,313.5,341.8z"/>
		<path fill="#F18E3B" d="M391,301.2h-18.6v48.1h-8.8v-48.1h-18.7v-7.8H391V301.2z"/>
		<path fill="#F18E3B" d="M398.6,349.4v-55.9h8.8v55.9H398.6z"/>
		<path fill="#F18E3B" d="M441.7,349.8c-3.9,0-7.5-0.8-10.8-2.4c-3.2-1.6-6-3.7-8.4-6.4c-2.3-2.7-4.1-5.7-5.4-9.1
			c-1.3-3.4-1.9-6.9-1.9-10.5c0-3.7,0.7-7.3,2-10.7c1.3-3.4,3.2-6.4,5.6-9.1c2.4-2.6,5.2-4.7,8.4-6.3c3.3-1.5,6.8-2.3,10.6-2.3
			c3.9,0,7.5,0.8,10.8,2.5c3.2,1.7,6,3.8,8.3,6.5c2.3,2.7,4.1,5.7,5.4,9.1c1.3,3.4,1.9,6.8,1.9,10.4c0,3.7-0.7,7.3-2,10.7
			c-1.3,3.4-3.2,6.4-5.6,9c-2.4,2.6-5.2,4.7-8.4,6.2C449,349,445.5,349.8,441.7,349.8z M424.2,321.4c0,2.6,0.4,5.2,1.2,7.6
			c0.8,2.5,2,4.6,3.5,6.5c1.5,1.9,3.4,3.4,5.5,4.5c2.2,1.1,4.6,1.7,7.2,1.7c2.7,0,5.2-0.6,7.4-1.8c2.2-1.2,4-2.7,5.5-4.7
			c1.5-1.9,2.6-4.1,3.4-6.5c0.8-2.4,1.2-4.9,1.2-7.4c0-2.7-0.4-5.2-1.3-7.7c-0.8-2.4-2-4.6-3.5-6.5c-1.5-1.9-3.4-3.4-5.5-4.5
			c-2.2-1.1-4.5-1.7-7.2-1.7c-2.7,0-5.2,0.6-7.4,1.8c-2.2,1.2-4,2.7-5.5,4.6c-1.5,1.9-2.6,4.1-3.4,6.5
			C424.6,316.4,424.2,318.9,424.2,321.4z"/>
		<path fill="#F18E3B" d="M481.7,310v39.4h-8.8v-55.9h6.9l32,40.3v-40.3h8.9v55.9h-7.3L481.7,310z"/>
		<path fill="#F18E3B" d="M566.7,306.6c-0.5-0.6-1.3-1.2-2.3-1.9c-1-0.7-2.2-1.3-3.5-1.9c-1.3-0.6-2.8-1-4.5-1.4
			c-1.6-0.4-3.4-0.6-5.2-0.6c-3.5,0-6.1,0.7-7.9,2c-1.8,1.4-2.7,3.3-2.7,5.8c0,1.4,0.3,2.5,0.9,3.3c0.6,0.9,1.4,1.6,2.6,2.2
			c1.2,0.6,2.6,1.2,4.3,1.7c1.7,0.5,3.8,1,6.1,1.6c2.7,0.7,5.2,1.5,7.5,2.3c2.3,0.8,4.2,1.8,5.8,3c1.6,1.2,2.8,2.6,3.7,4.4
			c0.9,1.7,1.3,3.9,1.3,6.5c0,2.9-0.6,5.4-1.7,7.5s-2.6,3.7-4.5,5c-1.9,1.3-4,2.2-6.5,2.8c-2.5,0.6-5.1,0.9-7.9,0.9
			c-4.3,0-8.4-0.6-12.4-1.9c-4-1.3-7.6-3.2-10.8-5.6l4.1-7.6c0.7,0.7,1.7,1.4,2.9,2.3c1.3,0.8,2.7,1.6,4.5,2.3
			c1.7,0.7,3.6,1.3,5.6,1.8c2,0.5,4.2,0.7,6.4,0.7c3.4,0,6-0.6,7.8-1.9c1.9-1.2,2.8-3,2.8-5.4c0-1.4-0.3-2.6-1-3.5
			c-0.7-0.9-1.7-1.8-3-2.5c-1.3-0.7-2.9-1.3-4.8-1.9c-1.9-0.6-4-1.1-6.5-1.8c-2.8-0.7-5.2-1.5-7.3-2.3c-2.1-0.8-3.8-1.8-5.2-3
			c-1.4-1.2-2.4-2.5-3.1-4.1c-0.7-1.5-1.1-3.4-1.1-5.6c0-2.7,0.5-5.2,1.5-7.3c1-2.1,2.4-3.9,4.3-5.4c1.8-1.4,4-2.5,6.4-3.3
			c2.5-0.7,5.1-1.1,8-1.1c3.9,0,7.4,0.6,10.6,1.8c3.2,1.2,6,2.7,8.4,4.5L566.7,306.6z"/>
	</g>
</g>
</svg>
