<?xml version="1.0" encoding="utf-8"?>
<!-- Generator: Adobe Illustrator 18.1.0, SVG Export Plug-In . SVG Version: 6.00 Build 0)  -->
<!DOCTYPE svg PUBLIC "-//W3C//DTD SVG 1.1//EN" "http://www.w3.org/Graphics/SVG/1.1/DTD/svg11.dtd">
<svg version="1.1" id="Layer_1" xmlns="http://www.w3.org/2000/svg" xmlns:xlink="http://www.w3.org/1999/xlink" x="0px" y="0px"
	 viewBox="0 0 329.1 250.6" enable-background="new 0 0 329.1 250.6" xml:space="preserve">
<path fill="#686562" d="M233.9,78c0-37.2-30.1-67.3-67.3-67.3S99.3,40.8,99.3,78c0,13.4,3.9,25.8,10.6,36.3
	c-1.4-6.5-0.3-16.3,0.5-20.7c4.2-22.5,23.7-38.9,44.7-45.7c4.3-1.4,8.8-2.4,13.2-2.9c1.7-0.2,3.5-0.4,5.2-0.5
	c13.7-0.9,31.5,1.5,43.7,8c-4.8,0.4-11.3,3.2-15.3,5.8c-8.7,5.5-14.2,14.6-14.6,25c-0.1,3.6,0.5,7.1,1.4,10.4
	c1.7,4.3,3.6,8.9,5.2,13.5c0.8,1.9,1.6,3.7,2.3,5.6c1.5,4.1,4.9,17.6,2.4,24.4C219.7,125.8,233.9,103.6,233.9,78z"/>
<path fill="#686562" d="M110.7,93.8c4.9-26.8,31.7-45.1,57.7-48.8c-4.5,0.6-8.9,1.5-13.2,2.9c-20.9,6.9-40.5,23.2-44.7,45.7
	c-0.8,4.4-2,14.1-0.5,20.7c0.1,0.2,0.2,0.3,0.3,0.5C108.7,108.3,109.8,98.2,110.7,93.8z"/>
<path fill="#686562" d="M190.8,60.3c-5.6,2-30.3,11.3-36.3,24.8c-2.7,6-1.4,13.8,4.2,17.7c4.3,3,10.3,2.2,14.2-1.2
	c2.4-2.1,3.4-5.3,3.8-8.5c0.3-2.2,0.3-4.4,0.2-6.5c-0.1-7.6,2-13.6,6.8-19.5C185.7,64.7,187.8,61.6,190.8,60.3z"/>
<path fill="#686562" d="M150.7,111.5c-9.5-15.9-5.4-32.8,10.2-43.5c7.4-5.1,16-8.3,24.7-11.1c-15.3,1.1-30.7,7.4-39.9,19.2
	c-5.1,6.5-7.8,14.8-7.6,22.9c0.2,7.9,5.1,14.4,8.5,21.3c3.7,7.7,5,16.2,1.4,24.2c0.9,0.3,7.9,1.9,8,1.7c0.4-2.4,0.7-4.8,0.8-7.2
	C157.4,129.4,155.7,120,150.7,111.5z"/>
<g>
	<path fill="#686562" d="M12,173.8c0-1.5,0.3-3,0.8-4.5c0.5-1.5,1.3-2.8,2.3-4c1-1.2,2.3-2.1,3.8-2.9c1.5-0.7,3.2-1.1,5.1-1.1
		c2.2,0,4.2,0.5,5.8,1.5c1.6,1,2.8,2.3,3.6,4l-2,1.2c-0.4-0.8-0.9-1.5-1.5-2.1c-0.6-0.6-1.2-1-1.8-1.4s-1.3-0.6-2.1-0.8
		c-0.7-0.2-1.4-0.2-2.1-0.2c-1.5,0-2.9,0.3-4,0.9c-1.2,0.6-2.1,1.4-2.9,2.4c-0.8,1-1.4,2.1-1.8,3.4c-0.4,1.2-0.6,2.5-0.6,3.8
		c0,1.4,0.2,2.7,0.7,4c0.5,1.3,1.1,2.4,2,3.4c0.8,1,1.8,1.8,3,2.3c1.1,0.6,2.4,0.9,3.7,0.9c0.7,0,1.4-0.1,2.2-0.3
		c0.7-0.2,1.5-0.5,2.2-0.9c0.7-0.4,1.3-0.9,1.9-1.5c0.6-0.6,1.1-1.3,1.5-2.1l2.1,1.1c-0.4,0.9-1,1.8-1.7,2.5
		c-0.7,0.7-1.6,1.3-2.4,1.8c-0.9,0.5-1.9,0.9-2.9,1.1c-1,0.3-2,0.4-3,0.4c-1.7,0-3.3-0.4-4.8-1.1c-1.4-0.8-2.7-1.7-3.7-3
		c-1-1.2-1.9-2.6-2.4-4.2C12.3,177,12,175.4,12,173.8z"/>
	<path fill="#686562" d="M55.8,184.4v2.2H38.9v-25.2h16.6v2.2H41.3v9.1h12.4v2.1H41.3v9.6H55.8z"/>
	<path fill="#686562" d="M63.4,166v20.6h-2.4v-25.2h1.9l16.7,21v-20.9H82v25.2h-2.1L63.4,166z"/>
	<path fill="#686562" d="M107,163.6h-9v23h-2.5v-23h-9v-2.2H107V163.6z"/>
	<path fill="#686562" d="M111.7,186.6v-25.2h10.6c1.1,0,2.1,0.2,3,0.7c0.9,0.5,1.7,1.1,2.4,1.8c0.7,0.7,1.2,1.6,1.5,2.5
		c0.4,0.9,0.6,1.9,0.6,2.9c0,0.9-0.1,1.8-0.4,2.6c-0.3,0.8-0.7,1.6-1.2,2.3c-0.5,0.7-1.1,1.2-1.8,1.7c-0.7,0.5-1.5,0.8-2.3,0.9
		l6.2,9.7h-2.8l-6-9.3h-7.5v9.3H111.7z M114.1,175.1h8.3c0.7,0,1.4-0.2,2-0.5c0.6-0.3,1.1-0.8,1.5-1.3c0.4-0.5,0.8-1.2,1-1.8
		c0.2-0.7,0.4-1.4,0.4-2.2c0-0.8-0.1-1.5-0.4-2.2c-0.3-0.7-0.6-1.3-1.1-1.8c-0.5-0.5-1-0.9-1.6-1.2c-0.6-0.3-1.3-0.5-2-0.5h-8.1
		V175.1z"/>
	<path fill="#686562" d="M134.1,186.6l10.5-25.2h2l10.5,25.2h-2.7l-3.3-7.9H140l-3.2,7.9H134.1z M145.7,164.3l-5.2,12.5h10.2
		L145.7,164.3z"/>
	<path fill="#686562" d="M161.8,186.6v-25.2h2.5v23h14.6v2.2H161.8z"/>
	<path fill="#686562" d="M194.9,186.6v-25.2h10.4c1.1,0,2.1,0.2,3,0.7c0.9,0.5,1.7,1.1,2.4,1.8c0.7,0.7,1.2,1.6,1.5,2.5
		c0.4,0.9,0.6,1.9,0.6,2.9c0,1-0.2,2-0.5,3c-0.3,1-0.8,1.8-1.5,2.5c-0.6,0.7-1.4,1.3-2.3,1.8s-1.9,0.7-3,0.7h-8.2v9.3H194.9z
		 M197.3,175.1h8.1c0.7,0,1.4-0.2,2-0.5c0.6-0.3,1.1-0.7,1.5-1.3c0.4-0.5,0.8-1.1,1-1.8c0.2-0.7,0.4-1.4,0.4-2.2
		c0-0.8-0.1-1.5-0.4-2.2c-0.3-0.7-0.6-1.3-1.1-1.8c-0.5-0.5-1-0.9-1.6-1.2c-0.6-0.3-1.3-0.4-2-0.4h-7.8V175.1z"/>
	<path fill="#686562" d="M217.6,186.6v-25.2h2.4v23h14.6v2.2H217.6z"/>
	<path fill="#686562" d="M238.1,186.6l10.5-25.2h2l10.5,25.2h-2.7l-3.3-7.9h-11.3l-3.2,7.9H238.1z M249.7,164.3l-5.2,12.5h10.2
		L249.7,164.3z"/>
	<path fill="#686562" d="M265.7,186.6v-25.2h2.5v25.2H265.7z"/>
	<path fill="#686562" d="M277.3,166v20.6h-2.5v-25.2h1.9l16.7,21v-20.9h2.5v25.2h-2.1L277.3,166z"/>
	<path fill="#686562" d="M317.4,166.1c-0.7-0.8-1.7-1.5-2.9-2c-1.2-0.5-2.5-0.7-4-0.7c-2.2,0-3.9,0.4-4.9,1.3c-1,0.8-1.5,2-1.5,3.4
		c0,0.8,0.1,1.4,0.4,1.9c0.3,0.5,0.7,0.9,1.3,1.3s1.3,0.7,2.2,0.9c0.9,0.3,1.9,0.5,3.1,0.8c1.3,0.3,2.6,0.6,3.6,0.9
		c1.1,0.3,2,0.8,2.7,1.3s1.3,1.2,1.7,2c0.4,0.8,0.6,1.7,0.6,2.9c0,1.2-0.2,2.2-0.7,3c-0.4,0.9-1.1,1.6-1.9,2.1
		c-0.8,0.6-1.8,1-2.9,1.3c-1.1,0.3-2.3,0.4-3.6,0.4c-4,0-7.3-1.2-10.1-3.7l1.2-2c0.9,1,2.2,1.8,3.7,2.5c1.6,0.7,3.3,1,5.2,1
		c2,0,3.6-0.4,4.7-1.1c1.1-0.7,1.7-1.8,1.7-3.3c0-0.8-0.2-1.4-0.5-2c-0.3-0.5-0.8-1-1.4-1.4c-0.6-0.4-1.4-0.7-2.4-1
		c-1-0.3-2.1-0.6-3.3-0.9c-1.3-0.3-2.5-0.6-3.5-1c-1-0.3-1.8-0.7-2.5-1.2s-1.2-1.1-1.5-1.8c-0.3-0.7-0.5-1.6-0.5-2.6
		c0-1.2,0.2-2.2,0.7-3.1c0.4-0.9,1.1-1.7,1.8-2.3c0.8-0.6,1.7-1.1,2.8-1.4c1.1-0.3,2.3-0.5,3.6-0.5c1.7,0,3.1,0.3,4.5,0.8
		c1.3,0.5,2.5,1.2,3.6,2.1L317.4,166.1z"/>
</g>
<g>
	<path fill="#686562" d="M36.6,210.6c-0.4-0.4-0.9-0.9-1.6-1.3c-0.7-0.5-1.6-0.9-2.5-1.3c-1-0.4-2-0.8-3.2-1
		c-1.2-0.3-2.4-0.4-3.7-0.4c-2.5,0-4.4,0.5-5.7,1.5c-1.3,1-1.9,2.4-1.9,4.1c0,1,0.2,1.8,0.6,2.4c0.4,0.6,1,1.2,1.9,1.6
		c0.8,0.5,1.9,0.9,3.1,1.2c1.2,0.4,2.7,0.7,4.4,1.2c2,0.5,3.8,1.1,5.4,1.6c1.6,0.6,3,1.3,4.2,2.1c1.1,0.8,2,1.9,2.7,3.1
		c0.6,1.2,1,2.8,1,4.6c0,2.1-0.4,3.9-1.2,5.4c-0.8,1.5-1.9,2.7-3.2,3.6c-1.3,0.9-2.9,1.6-4.7,2c-1.8,0.4-3.7,0.7-5.7,0.7
		c-3.1,0-6-0.5-8.9-1.4c-2.9-0.9-5.4-2.3-7.7-4l2.9-5.4c0.5,0.5,1.2,1,2.1,1.6c0.9,0.6,2,1.2,3.2,1.7c1.2,0.5,2.6,0.9,4,1.3
		c1.5,0.4,3,0.5,4.6,0.5c2.4,0,4.3-0.4,5.6-1.3c1.3-0.9,2-2.2,2-3.9c0-1-0.2-1.9-0.7-2.5c-0.5-0.7-1.2-1.3-2.1-1.8
		c-0.9-0.5-2.1-1-3.4-1.4c-1.4-0.4-2.9-0.8-4.6-1.3c-2-0.5-3.7-1.1-5.2-1.7c-1.5-0.6-2.7-1.3-3.7-2.1c-1-0.8-1.7-1.8-2.2-2.9
		c-0.5-1.1-0.8-2.5-0.8-4c0-2,0.4-3.7,1.1-5.2c0.7-1.5,1.8-2.8,3.1-3.8c1.3-1,2.8-1.8,4.6-2.3c1.8-0.5,3.7-0.8,5.7-0.8
		c2.8,0,5.3,0.4,7.6,1.3c2.3,0.9,4.3,1.9,6,3.2L36.6,210.6z"/>
	<path fill="#686562" d="M62.7,241.6c-2.8,0-5.4-0.6-7.7-1.7c-2.3-1.1-4.3-2.7-6-4.6c-1.7-1.9-3-4.1-3.9-6.5c-0.9-2.4-1.4-5-1.4-7.5
		c0-2.7,0.5-5.2,1.4-7.7c1-2.4,2.3-4.6,4-6.5c1.7-1.9,3.7-3.4,6.1-4.5c2.3-1.1,4.9-1.7,7.6-1.7c2.8,0,5.4,0.6,7.7,1.8
		c2.3,1.2,4.3,2.7,6,4.7c1.7,1.9,2.9,4.1,3.8,6.5c0.9,2.4,1.4,4.9,1.4,7.4c0,2.7-0.5,5.2-1.4,7.7c-1,2.5-2.3,4.6-4,6.5
		c-1.7,1.9-3.7,3.4-6,4.5C67.9,241,65.4,241.6,62.7,241.6z M50.2,221.2c0,1.9,0.3,3.7,0.9,5.5c0.6,1.8,1.4,3.3,2.5,4.7
		c1.1,1.4,2.4,2.4,4,3.3c1.5,0.8,3.3,1.2,5.2,1.2c2,0,3.7-0.4,5.3-1.3c1.6-0.8,2.9-2,4-3.4c1.1-1.4,1.9-3,2.5-4.7
		c0.6-1.7,0.8-3.5,0.8-5.3c0-1.9-0.3-3.8-0.9-5.5c-0.6-1.8-1.5-3.3-2.5-4.6c-1.1-1.3-2.4-2.4-4-3.2c-1.5-0.8-3.3-1.2-5.1-1.2
		c-2,0-3.7,0.4-5.3,1.3c-1.6,0.8-2.9,2-4,3.3c-1.1,1.4-1.9,2.9-2.5,4.7S50.2,219.4,50.2,221.2z"/>
	<path fill="#686562" d="M86.2,241.3v-40.1h6.3v34.5h21.5v5.6H86.2z"/>
	<path fill="#686562" d="M132.9,235.9c2.1,0,3.9-0.4,5.3-1.2c1.4-0.8,2.5-1.9,3.4-3.3c0.8-1.3,1.5-2.9,1.8-4.6
		c0.4-1.7,0.5-3.5,0.5-5.3v-20.4h6.4v20.4c0,2.8-0.3,5.3-1,7.8c-0.6,2.4-1.7,4.6-3.1,6.4c-1.4,1.8-3.2,3.3-5.4,4.3
		c-2.2,1.1-4.9,1.6-7.9,1.6c-3.2,0-5.9-0.6-8.1-1.7c-2.2-1.1-4-2.6-5.3-4.5c-1.4-1.9-2.3-4-2.9-6.4c-0.6-2.4-0.9-4.9-0.9-7.5v-20.4
		h6.3v20.4c0,1.8,0.2,3.6,0.5,5.3c0.4,1.7,1,3.2,1.8,4.6c0.8,1.3,2,2.4,3.4,3.2C129.1,235.5,130.8,235.9,132.9,235.9z"/>
	<path fill="#686562" d="M188.5,206.8h-13.3v34.5h-6.3v-34.5h-13.4v-5.6h33.1V206.8z"/>
	<path fill="#686562" d="M193.9,241.3v-40.1h6.3v40.1H193.9z"/>
	<path fill="#686562" d="M224.8,241.6c-2.8,0-5.4-0.6-7.7-1.7c-2.3-1.1-4.3-2.7-6-4.6c-1.7-1.9-3-4.1-3.9-6.5
		c-0.9-2.4-1.4-5-1.4-7.5c0-2.7,0.5-5.2,1.4-7.7c1-2.4,2.3-4.6,4-6.5c1.7-1.9,3.7-3.4,6-4.5c2.3-1.1,4.9-1.7,7.6-1.7
		c2.8,0,5.4,0.6,7.7,1.8s4.3,2.7,6,4.7c1.7,1.9,2.9,4.1,3.8,6.5c0.9,2.4,1.4,4.9,1.4,7.4c0,2.7-0.5,5.2-1.4,7.7
		c-1,2.5-2.3,4.6-4,6.5c-1.7,1.9-3.7,3.4-6,4.5C230.1,241,227.6,241.6,224.8,241.6z M212.3,221.2c0,1.9,0.3,3.7,0.9,5.5
		c0.6,1.8,1.4,3.3,2.5,4.7c1.1,1.4,2.4,2.4,4,3.3c1.5,0.8,3.3,1.2,5.2,1.2c2,0,3.7-0.4,5.3-1.3c1.6-0.8,2.9-2,4-3.4
		c1.1-1.4,1.9-3,2.5-4.7c0.6-1.7,0.8-3.5,0.8-5.3c0-1.9-0.3-3.8-0.9-5.5c-0.6-1.8-1.5-3.3-2.5-4.6c-1.1-1.3-2.4-2.4-4-3.2
		c-1.5-0.8-3.3-1.2-5.1-1.2c-2,0-3.7,0.4-5.3,1.3c-1.6,0.8-2.9,2-4,3.3c-1.1,1.4-1.9,2.9-2.5,4.7S212.3,219.4,212.3,221.2z"/>
	<path fill="#686562" d="M253.5,213v28.3h-6.3v-40.1h5l23,28.9v-28.9h6.4v40.1h-5.3L253.5,213z"/>
	<path fill="#686562" d="M314.6,210.6c-0.4-0.4-0.9-0.9-1.6-1.3c-0.7-0.5-1.6-0.9-2.5-1.3c-1-0.4-2-0.8-3.2-1
		c-1.2-0.3-2.4-0.4-3.7-0.4c-2.5,0-4.4,0.5-5.7,1.5c-1.3,1-1.9,2.4-1.9,4.1c0,1,0.2,1.8,0.6,2.4c0.4,0.6,1,1.2,1.9,1.6
		c0.8,0.5,1.9,0.9,3.1,1.2c1.2,0.4,2.7,0.7,4.4,1.2c2,0.5,3.8,1.1,5.4,1.6c1.6,0.6,3,1.3,4.2,2.1c1.1,0.8,2,1.9,2.7,3.1
		c0.6,1.2,1,2.8,1,4.6c0,2.1-0.4,3.9-1.2,5.4s-1.9,2.7-3.2,3.6c-1.3,0.9-2.9,1.6-4.7,2c-1.8,0.4-3.7,0.7-5.7,0.7
		c-3.1,0-6-0.5-8.9-1.4c-2.9-0.9-5.4-2.3-7.7-4l2.9-5.4c0.5,0.5,1.2,1,2.1,1.6c0.9,0.6,2,1.2,3.2,1.7s2.6,0.9,4,1.3
		c1.5,0.4,3,0.5,4.6,0.5c2.4,0,4.3-0.4,5.6-1.3c1.3-0.9,2-2.2,2-3.9c0-1-0.2-1.9-0.7-2.5c-0.5-0.7-1.2-1.3-2.1-1.8
		c-0.9-0.5-2.1-1-3.4-1.4c-1.4-0.4-2.9-0.8-4.6-1.3c-2-0.5-3.7-1.1-5.2-1.7c-1.5-0.6-2.7-1.3-3.7-2.1c-1-0.8-1.7-1.8-2.2-2.9
		c-0.5-1.1-0.8-2.5-0.8-4c0-2,0.4-3.7,1.1-5.2c0.7-1.5,1.8-2.8,3.1-3.8c1.3-1,2.8-1.8,4.6-2.3c1.8-0.5,3.7-0.8,5.7-0.8
		c2.8,0,5.3,0.4,7.6,1.3c2.3,0.9,4.3,1.9,6,3.2L314.6,210.6z"/>
</g>
</svg>
