<?xml version="1.0" encoding="utf-8"?>
<!-- Generator: Adobe Illustrator 18.1.0, SVG Export Plug-In . SVG Version: 6.00 Build 0)  -->
<!DOCTYPE svg PUBLIC "-//W3C//DTD SVG 1.1//EN" "http://www.w3.org/Graphics/SVG/1.1/DTD/svg11.dtd">
<svg version="1.1" id="Layer_1" xmlns="http://www.w3.org/2000/svg" xmlns:xlink="http://www.w3.org/1999/xlink" x="0px" y="0px"
	 viewBox="0 0 284.8 213.9" enable-background="new 0 0 284.8 213.9" xml:space="preserve">
<g>
	<path fill="#686562" d="M198.6,65.3c0-31.2-25.3-56.5-56.5-56.5S85.7,34.1,85.7,65.3c0,11.2,3.3,21.7,8.9,30.4
		c-1.2-5.5-0.2-13.7,0.4-17.3C98.6,59.5,115,45.8,132.5,40c3.6-1.2,7.3-2,11.1-2.5c1.5-0.2,2.9-0.4,4.4-0.5
		c11.5-0.8,26.4,1.3,36.7,6.7c-4,0.3-9.5,2.7-12.8,4.8c-7.3,4.6-11.9,12.3-12.2,21c-0.1,3,0.4,5.9,1.2,8.8c1.4,3.6,3,7.5,4.4,11.3
		c0.7,1.6,1.3,3.1,1.9,4.7c1.3,3.5,4.1,14.8,2,20.5C186.7,105.3,198.6,86.7,198.6,65.3z"/>
	<path fill="#686562" d="M95.3,78.5c4.2-22.5,26.6-37.8,48.4-40.9c-3.8,0.5-7.5,1.3-11.1,2.5c-17.6,5.8-34,19.5-37.5,38.4
		c-0.7,3.7-1.6,11.9-0.4,17.3c0.1,0.1,0.2,0.3,0.3,0.4C93.6,90.7,94.6,82.2,95.3,78.5z"/>
	<path fill="#F18E3B" d="M162.5,50.4c-4.7,1.7-25.4,9.5-30.4,20.8c-2.2,5-1.1,11.6,3.5,14.9c3.6,2.5,8.7,1.8,11.9-1
		c2.1-1.8,2.9-4.4,3.2-7.1c0.2-1.8,0.2-3.7,0.2-5.4c-0.1-6.3,1.7-11.4,5.7-16.3C158.2,54.1,159.9,51.5,162.5,50.4z"/>
	<path fill="#F18E3B" d="M128.8,93.4c-8-13.3-4.5-27.5,8.6-36.5c6.2-4.3,13.5-6.9,20.7-9.3c-12.8,1-25.7,6.2-33.5,16.1
		c-4.3,5.5-6.5,12.4-6.4,19.2c0.2,6.7,4.3,12.1,7.1,17.8c3.1,6.4,4.2,13.6,1.2,20.3c0.7,0.2,6.6,1.6,6.7,1.4c0.3-2,0.6-4,0.7-6
		C134.5,108.4,133.1,100.5,128.8,93.4z"/>
	<g>
		<path fill="#686562" d="M12.5,145.6c0-1.3,0.2-2.5,0.7-3.8c0.4-1.3,1.1-2.4,2-3.4c0.9-1,1.9-1.8,3.2-2.4c1.3-0.6,2.7-0.9,4.3-0.9
			c1.9,0,3.5,0.4,4.8,1.3c1.3,0.9,2.3,2,3,3.3l-1.7,1c-0.3-0.7-0.7-1.3-1.2-1.8c-0.5-0.5-1-0.9-1.5-1.2s-1.1-0.5-1.7-0.6
			c-0.6-0.1-1.2-0.2-1.8-0.2c-1.3,0-2.4,0.3-3.4,0.8c-1,0.5-1.8,1.2-2.5,2c-0.7,0.8-1.2,1.8-1.5,2.8c-0.3,1-0.5,2.1-0.5,3.2
			c0,1.2,0.2,2.3,0.6,3.4c0.4,1.1,1,2,1.7,2.8c0.7,0.8,1.5,1.5,2.5,2c1,0.5,2,0.7,3.1,0.7c0.6,0,1.2-0.1,1.8-0.2
			c0.6-0.1,1.2-0.4,1.8-0.7c0.6-0.3,1.1-0.7,1.6-1.2c0.5-0.5,0.9-1.1,1.3-1.8l1.7,0.9c-0.3,0.8-0.8,1.5-1.4,2.1
			c-0.6,0.6-1.3,1.1-2.1,1.5c-0.8,0.4-1.6,0.7-2.4,1c-0.8,0.2-1.7,0.3-2.5,0.3c-1.4,0-2.8-0.3-4-1c-1.2-0.6-2.3-1.5-3.1-2.5
			c-0.9-1-1.6-2.2-2-3.5C12.7,148.3,12.5,147,12.5,145.6z"/>
		<path fill="#686562" d="M49.3,154.5v1.8H35.1v-21.1H49v1.8H37.1v7.6h10.4v1.8H37.1v8.1H49.3z"/>
		<path fill="#686562" d="M55.6,139.1v17.3h-2.1v-21.1h1.6l14,17.6v-17.6h2.1v21.1h-1.8L55.6,139.1z"/>
		<path fill="#686562" d="M92.2,137h-7.5v19.3h-2.1V137h-7.5v-1.8h17.2V137z"/>
		<path fill="#686562" d="M96.1,156.3v-21.1h8.9c0.9,0,1.8,0.2,2.5,0.6c0.8,0.4,1.4,0.9,2,1.5c0.6,0.6,1,1.3,1.3,2.1
			c0.3,0.8,0.5,1.6,0.5,2.4c0,0.8-0.1,1.5-0.3,2.2c-0.2,0.7-0.6,1.3-1,1.9c-0.4,0.6-0.9,1-1.5,1.4c-0.6,0.4-1.2,0.7-1.9,0.8l5.2,8.2
			h-2.4l-5-7.8h-6.3v7.8H96.1z M98.2,146.7h6.9c0.6,0,1.2-0.1,1.7-0.4c0.5-0.3,0.9-0.6,1.3-1.1c0.4-0.5,0.6-1,0.8-1.5
			c0.2-0.6,0.3-1.2,0.3-1.8s-0.1-1.2-0.3-1.8c-0.2-0.6-0.5-1.1-0.9-1.5c-0.4-0.4-0.8-0.8-1.4-1c-0.5-0.3-1.1-0.4-1.7-0.4h-6.8V146.7
			z"/>
		<path fill="#686562" d="M115,156.3l8.8-21.1h1.7l8.8,21.1h-2.2l-2.7-6.6h-9.5l-2.7,6.6H115z M124.7,137.6l-4.3,10.5h8.6
			L124.7,137.6z"/>
		<path fill="#686562" d="M138.2,156.3v-21.1h2.1v19.3h12.2v1.8H138.2z"/>
		<path fill="#686562" d="M165.9,156.3v-21.1h8.8c0.9,0,1.8,0.2,2.5,0.6c0.8,0.4,1.4,0.9,2,1.5c0.6,0.6,1,1.3,1.3,2.1
			c0.3,0.8,0.5,1.6,0.5,2.4c0,0.9-0.1,1.7-0.4,2.5c-0.3,0.8-0.7,1.5-1.2,2.1c-0.5,0.6-1.2,1.1-1.9,1.5c-0.7,0.4-1.6,0.6-2.5,0.6H168
			v7.8H165.9z M168,146.7h6.8c0.6,0,1.2-0.1,1.7-0.4c0.5-0.3,0.9-0.6,1.3-1.1c0.4-0.4,0.6-1,0.8-1.5c0.2-0.6,0.3-1.2,0.3-1.8
			c0-0.7-0.1-1.3-0.3-1.9c-0.2-0.6-0.5-1.1-0.9-1.5c-0.4-0.4-0.8-0.8-1.4-1c-0.5-0.2-1.1-0.4-1.7-0.4H168V146.7z"/>
		<path fill="#686562" d="M185,156.3v-21.1h2.1v19.3h12.2v1.8H185z"/>
		<path fill="#686562" d="M202.2,156.3l8.8-21.1h1.7l8.8,21.1h-2.2l-2.7-6.6h-9.5l-2.7,6.6H202.2z M211.9,137.6l-4.3,10.5h8.6
			L211.9,137.6z"/>
		<path fill="#686562" d="M225.3,156.3v-21.1h2.1v21.1H225.3z"/>
		<path fill="#686562" d="M235,139.1v17.3H233v-21.1h1.6l14,17.6v-17.6h2.1v21.1h-1.8L235,139.1z"/>
		<path fill="#686562" d="M268.7,139.1c-0.6-0.7-1.4-1.2-2.4-1.6c-1-0.4-2.1-0.6-3.4-0.6c-1.9,0-3.3,0.4-4.1,1.1
			c-0.9,0.7-1.3,1.7-1.3,2.9c0,0.6,0.1,1.2,0.3,1.6c0.2,0.4,0.6,0.8,1.1,1.1c0.5,0.3,1.1,0.6,1.8,0.8c0.7,0.2,1.6,0.4,2.6,0.7
			c1.1,0.2,2.1,0.5,3,0.8c0.9,0.3,1.7,0.7,2.3,1.1c0.6,0.4,1.1,1,1.5,1.6c0.3,0.6,0.5,1.4,0.5,2.4c0,1-0.2,1.8-0.6,2.5
			c-0.4,0.7-0.9,1.3-1.6,1.8c-0.7,0.5-1.5,0.8-2.4,1.1c-0.9,0.2-1.9,0.3-3,0.3c-3.3,0-6.1-1-8.5-3.1l1-1.7c0.8,0.8,1.8,1.5,3.1,2.1
			c1.3,0.6,2.8,0.8,4.4,0.8c1.7,0,3-0.3,4-0.9c1-0.6,1.4-1.5,1.4-2.8c0-0.7-0.1-1.2-0.4-1.7c-0.3-0.4-0.7-0.8-1.2-1.2
			c-0.5-0.3-1.2-0.6-2-0.8c-0.8-0.2-1.7-0.5-2.8-0.7c-1.1-0.3-2.1-0.5-2.9-0.8c-0.8-0.3-1.5-0.6-2.1-1c-0.6-0.4-1-0.9-1.3-1.5
			c-0.3-0.6-0.4-1.3-0.4-2.2c0-1,0.2-1.8,0.6-2.6c0.4-0.8,0.9-1.4,1.5-1.9c0.7-0.5,1.5-0.9,2.4-1.2c0.9-0.3,1.9-0.4,3.1-0.4
			c1.4,0,2.6,0.2,3.7,0.6c1.1,0.4,2.1,1,3,1.8L268.7,139.1z"/>
	</g>
	<g>
		<path fill="#F18E3B" d="M33.2,176.5c-0.3-0.3-0.8-0.7-1.4-1.1c-0.6-0.4-1.3-0.8-2.1-1.1c-0.8-0.3-1.7-0.6-2.7-0.9
			c-1-0.2-2-0.3-3.1-0.3c-2.1,0-3.7,0.4-4.7,1.2c-1.1,0.8-1.6,2-1.6,3.5c0,0.8,0.2,1.5,0.5,2c0.3,0.5,0.9,1,1.6,1.4
			c0.7,0.4,1.6,0.7,2.6,1c1,0.3,2.3,0.6,3.7,1c1.6,0.4,3.2,0.9,4.5,1.4c1.4,0.5,2.5,1.1,3.5,1.8c1,0.7,1.7,1.6,2.3,2.6
			c0.5,1,0.8,2.3,0.8,3.9c0,1.8-0.3,3.3-1,4.5c-0.7,1.2-1.6,2.2-2.7,3c-1.1,0.8-2.4,1.3-3.9,1.7c-1.5,0.4-3.1,0.5-4.7,0.5
			c-2.6,0-5-0.4-7.4-1.2c-2.4-0.8-4.6-1.9-6.5-3.4l2.5-4.6c0.4,0.4,1,0.9,1.8,1.4c0.8,0.5,1.7,1,2.7,1.4s2.2,0.8,3.4,1.1
			c1.2,0.3,2.5,0.5,3.8,0.5c2,0,3.6-0.4,4.7-1.1c1.1-0.7,1.7-1.8,1.7-3.2c0-0.9-0.2-1.6-0.6-2.1c-0.4-0.6-1-1.1-1.8-1.5
			c-0.8-0.4-1.8-0.8-2.9-1.1c-1.1-0.3-2.4-0.7-3.9-1.1c-1.7-0.4-3.1-0.9-4.4-1.4c-1.2-0.5-2.3-1.1-3.1-1.8c-0.8-0.7-1.4-1.5-1.9-2.4
			c-0.4-0.9-0.6-2.1-0.6-3.4c0-1.6,0.3-3.1,0.9-4.4c0.6-1.3,1.5-2.4,2.6-3.2c1.1-0.9,2.4-1.5,3.9-2c1.5-0.4,3.1-0.7,4.8-0.7
			c2.3,0,4.5,0.4,6.4,1.1c1.9,0.7,3.6,1.6,5.1,2.7L33.2,176.5z"/>
		<path fill="#F18E3B" d="M55,202.5c-2.4,0-4.5-0.5-6.5-1.4c-1.9-1-3.6-2.2-5-3.8c-1.4-1.6-2.5-3.4-3.2-5.5
			c-0.8-2.1-1.1-4.2-1.1-6.3c0-2.2,0.4-4.4,1.2-6.4c0.8-2.1,1.9-3.9,3.3-5.5c1.4-1.6,3.1-2.8,5.1-3.8c2-0.9,4.1-1.4,6.4-1.4
			c2.4,0,4.5,0.5,6.5,1.5c1.9,1,3.6,2.3,5,3.9c1.4,1.6,2.5,3.4,3.2,5.5c0.8,2,1.1,4.1,1.1,6.2c0,2.2-0.4,4.4-1.2,6.4
			c-0.8,2.1-1.9,3.9-3.3,5.4c-1.4,1.6-3.1,2.8-5.1,3.7C59.5,202,57.3,202.5,55,202.5z M44.5,185.4c0,1.6,0.2,3.1,0.7,4.6
			c0.5,1.5,1.2,2.8,2.1,3.9c0.9,1.1,2,2,3.3,2.7c1.3,0.7,2.8,1,4.4,1c1.6,0,3.1-0.4,4.4-1.1c1.3-0.7,2.4-1.7,3.3-2.8
			c0.9-1.2,1.6-2.5,2.1-3.9c0.5-1.5,0.7-2.9,0.7-4.5c0-1.6-0.3-3.2-0.8-4.6s-1.2-2.8-2.1-3.9c-0.9-1.1-2-2-3.3-2.7
			c-1.3-0.7-2.7-1-4.3-1c-1.6,0-3.1,0.4-4.4,1.1c-1.3,0.7-2.4,1.6-3.3,2.8c-0.9,1.1-1.6,2.4-2.1,3.9S44.5,183.9,44.5,185.4z"/>
		<path fill="#F18E3B" d="M74.7,202.2v-33.7h5.3v29h18.1v4.7H74.7z"/>
		<path fill="#F18E3B" d="M113.9,197.7c1.8,0,3.2-0.3,4.4-1c1.2-0.7,2.1-1.6,2.8-2.7c0.7-1.1,1.2-2.4,1.5-3.8
			c0.3-1.4,0.5-2.9,0.5-4.4v-17.1h5.4v17.1c0,2.3-0.3,4.5-0.8,6.5c-0.5,2-1.4,3.8-2.6,5.4c-1.2,1.5-2.7,2.7-4.5,3.6
			c-1.8,0.9-4.1,1.3-6.7,1.3c-2.7,0-5-0.5-6.8-1.4c-1.8-0.9-3.3-2.2-4.5-3.7c-1.1-1.6-2-3.4-2.5-5.4c-0.5-2-0.8-4.1-0.8-6.3v-17.1
			h5.3v17.1c0,1.5,0.1,3,0.5,4.5c0.3,1.4,0.8,2.7,1.5,3.8c0.7,1.1,1.7,2,2.8,2.7C110.7,197.3,112.2,197.7,113.9,197.7z"/>
		<path fill="#F18E3B" d="M160.5,173.2h-11.2v29H144v-29h-11.2v-4.7h27.7V173.2z"/>
		<path fill="#F18E3B" d="M165.1,202.2v-33.6h5.3v33.6H165.1z"/>
		<path fill="#F18E3B" d="M191,202.5c-2.4,0-4.5-0.5-6.5-1.4c-1.9-1-3.6-2.2-5-3.8c-1.4-1.6-2.5-3.4-3.2-5.5
			c-0.8-2.1-1.1-4.2-1.1-6.3c0-2.2,0.4-4.4,1.2-6.4c0.8-2.1,1.9-3.9,3.3-5.5c1.4-1.6,3.1-2.8,5.1-3.8c2-0.9,4.1-1.4,6.4-1.4
			c2.4,0,4.5,0.5,6.5,1.5c1.9,1,3.6,2.3,5,3.9c1.4,1.6,2.5,3.4,3.2,5.5c0.8,2,1.1,4.1,1.1,6.2c0,2.2-0.4,4.4-1.2,6.4
			c-0.8,2.1-1.9,3.9-3.3,5.4c-1.4,1.6-3.1,2.8-5.1,3.7C195.5,202,193.3,202.5,191,202.5z M180.6,185.4c0,1.6,0.2,3.1,0.7,4.6
			c0.5,1.5,1.2,2.8,2.1,3.9c0.9,1.1,2,2,3.3,2.7c1.3,0.7,2.8,1,4.4,1c1.6,0,3.1-0.4,4.4-1.1c1.3-0.7,2.4-1.7,3.3-2.8
			c0.9-1.2,1.6-2.5,2.1-3.9c0.5-1.5,0.7-2.9,0.7-4.5c0-1.6-0.3-3.2-0.8-4.6c-0.5-1.5-1.2-2.8-2.1-3.9c-0.9-1.1-2-2-3.3-2.7
			c-1.3-0.7-2.7-1-4.3-1c-1.6,0-3.1,0.4-4.4,1.1c-1.3,0.7-2.4,1.6-3.3,2.8c-0.9,1.1-1.6,2.4-2.1,3.9S180.6,183.9,180.6,185.4z"/>
		<path fill="#F18E3B" d="M215.1,178.5v23.7h-5.3v-33.7h4.2l19.3,24.3v-24.2h5.4v33.6h-4.4L215.1,178.5z"/>
		<path fill="#F18E3B" d="M266.3,176.5c-0.3-0.3-0.8-0.7-1.4-1.1c-0.6-0.4-1.3-0.8-2.1-1.1c-0.8-0.3-1.7-0.6-2.7-0.9
			c-1-0.2-2-0.3-3.1-0.3c-2.1,0-3.7,0.4-4.7,1.2c-1.1,0.8-1.6,2-1.6,3.5c0,0.8,0.2,1.5,0.5,2c0.3,0.5,0.9,1,1.6,1.4
			c0.7,0.4,1.6,0.7,2.6,1c1,0.3,2.3,0.6,3.7,1c1.6,0.4,3.2,0.9,4.5,1.4c1.4,0.5,2.5,1.1,3.5,1.8c1,0.7,1.7,1.6,2.3,2.6
			c0.5,1,0.8,2.3,0.8,3.9c0,1.8-0.3,3.3-1,4.5c-0.7,1.2-1.6,2.2-2.7,3c-1.1,0.8-2.4,1.3-3.9,1.7c-1.5,0.4-3.1,0.5-4.7,0.5
			c-2.6,0-5-0.4-7.4-1.2c-2.4-0.8-4.6-1.9-6.5-3.4l2.5-4.6c0.4,0.4,1,0.9,1.8,1.4c0.8,0.5,1.7,1,2.7,1.4s2.2,0.8,3.4,1.1
			c1.2,0.3,2.5,0.5,3.8,0.5c2,0,3.6-0.4,4.7-1.1c1.1-0.7,1.7-1.8,1.7-3.2c0-0.9-0.2-1.6-0.6-2.1c-0.4-0.6-1-1.1-1.8-1.5
			c-0.8-0.4-1.8-0.8-2.9-1.1c-1.1-0.3-2.4-0.7-3.9-1.1c-1.7-0.4-3.1-0.9-4.4-1.4c-1.2-0.5-2.3-1.1-3.1-1.8c-0.8-0.7-1.4-1.5-1.9-2.4
			c-0.4-0.9-0.6-2.1-0.6-3.4c0-1.6,0.3-3.1,0.9-4.4c0.6-1.3,1.5-2.4,2.6-3.2c1.1-0.9,2.4-1.5,3.9-2c1.5-0.4,3.1-0.7,4.8-0.7
			c2.3,0,4.5,0.4,6.4,1.1c1.9,0.7,3.6,1.6,5.1,2.7L266.3,176.5z"/>
	</g>
</g>
</svg>
