<?xml version="1.0" encoding="utf-8"?>
<!-- Generator: Adobe Illustrator 18.1.0, SVG Export Plug-In . SVG Version: 6.00 Build 0)  -->
<!DOCTYPE svg PUBLIC "-//W3C//DTD SVG 1.1//EN" "http://www.w3.org/Graphics/SVG/1.1/DTD/svg11.dtd">
<svg version="1.1" id="Layer_1" xmlns="http://www.w3.org/2000/svg" xmlns:xlink="http://www.w3.org/1999/xlink" x="0px" y="0px"
	 viewBox="0 0 262.7 138.7" enable-background="new 0 0 262.7 138.7" xml:space="preserve">
<g>
	<path fill="#686562" d="M127.1,42.3c0-20.5-16.6-37.2-37.2-37.2S52.8,21.8,52.8,42.3c0,7.4,2.2,14.2,5.9,20
		c-0.8-3.6-0.2-9,0.3-11.4c2.3-12.4,13.1-21.5,24.7-25.2c2.4-0.8,4.8-1.3,7.3-1.6c1-0.1,1.9-0.2,2.9-0.3c7.5-0.5,17.4,0.8,24.1,4.4
		c-2.7,0.2-6.2,1.8-8.4,3.2c-4.8,3.1-7.9,8.1-8.1,13.8c-0.1,2,0.3,3.9,0.8,5.8c0.9,2.4,2,4.9,2.9,7.5c0.4,1,0.9,2.1,1.2,3.1
		c0.8,2.3,2.7,9.7,1.3,13.5C119.3,68.7,127.1,56.4,127.1,42.3z"/>
	<path fill="#686562" d="M59.1,51C61.9,36.2,76.6,26.1,91,24.1c-2.5,0.3-4.9,0.8-7.3,1.6C72.1,29.5,61.3,38.5,59,50.9
		c-0.4,2.4-1.1,7.8-0.3,11.4c0.1,0.1,0.1,0.2,0.2,0.3C58,59,58.7,53.5,59.1,51z"/>
	<path fill="#F18E3B" d="M103.4,32.5c-3.1,1.1-16.7,6.3-20,13.7c-1.5,3.3-0.7,7.6,2.3,9.8c2.4,1.7,5.7,1.2,7.8-0.7
		c1.4-1.2,1.9-2.9,2.1-4.7c0.1-1.2,0.1-2.4,0.1-3.6c0-4.2,1.1-7.5,3.7-10.7C100.6,34.9,101.7,33.2,103.4,32.5z"/>
	<path fill="#F18E3B" d="M81.2,60.8c-5.2-8.8-3-18.1,5.7-24c4.1-2.8,8.9-4.6,13.6-6.1c-8.4,0.6-16.9,4.1-22,10.6
		c-2.8,3.6-4.3,8.2-4.2,12.7c0.1,4.4,2.8,7.9,4.7,11.7c2.1,4.2,2.8,8.9,0.8,13.4c0.5,0.2,4.4,1.1,4.4,0.9c0.2-1.3,0.4-2.6,0.5-4
		C84.9,70.7,84,65.4,81.2,60.8z"/>
	<g>
		<path fill="#686562" d="M4.6,95.2c0-0.8,0.1-1.7,0.4-2.5c0.3-0.8,0.7-1.6,1.3-2.2c0.6-0.7,1.3-1.2,2.1-1.6
			c0.8-0.4,1.8-0.6,2.8-0.6c1.2,0,2.3,0.3,3.2,0.8c0.9,0.6,1.5,1.3,2,2.2l-1.1,0.7c-0.2-0.5-0.5-0.8-0.8-1.2c-0.3-0.3-0.7-0.6-1-0.8
			c-0.4-0.2-0.7-0.3-1.1-0.4c-0.4-0.1-0.8-0.1-1.2-0.1c-0.8,0-1.6,0.2-2.2,0.5c-0.6,0.3-1.2,0.8-1.6,1.3c-0.4,0.5-0.8,1.2-1,1.9
			C6.1,93.8,6,94.5,6,95.2c0,0.8,0.1,1.5,0.4,2.2c0.3,0.7,0.6,1.3,1.1,1.9c0.5,0.5,1,1,1.6,1.3c0.6,0.3,1.3,0.5,2.1,0.5
			c0.4,0,0.8,0,1.2-0.1c0.4-0.1,0.8-0.3,1.2-0.5c0.4-0.2,0.7-0.5,1.1-0.8c0.3-0.3,0.6-0.7,0.8-1.2l1.1,0.6c-0.2,0.5-0.5,1-0.9,1.4
			c-0.4,0.4-0.9,0.7-1.4,1c-0.5,0.3-1,0.5-1.6,0.6c-0.6,0.1-1.1,0.2-1.6,0.2c-1,0-1.8-0.2-2.6-0.6c-0.8-0.4-1.5-1-2.1-1.6
			c-0.6-0.7-1-1.4-1.3-2.3C4.8,96.9,4.6,96.1,4.6,95.2z"/>
		<path fill="#686562" d="M28.8,101v1.2h-9.3V88.3h9.2v1.2h-7.8v5h6.8v1.2h-6.8v5.3H28.8z"/>
		<path fill="#686562" d="M33,90.9v11.4h-1.4V88.3h1.1l9.2,11.6V88.3h1.4v13.9h-1.2L33,90.9z"/>
		<path fill="#686562" d="M57.1,89.5h-5v12.7h-1.4V89.5h-5v-1.2h11.3V89.5z"/>
		<path fill="#686562" d="M59.7,102.2V88.3h5.9c0.6,0,1.2,0.1,1.7,0.4c0.5,0.3,0.9,0.6,1.3,1c0.4,0.4,0.6,0.9,0.9,1.4
			c0.2,0.5,0.3,1.1,0.3,1.6c0,0.5-0.1,1-0.2,1.5c-0.1,0.5-0.4,0.9-0.6,1.3c-0.3,0.4-0.6,0.7-1,0.9c-0.4,0.3-0.8,0.4-1.3,0.5l3.4,5.4
			h-1.5l-3.3-5.1H61v5.1H59.7z M61,95.9h4.6c0.4,0,0.8-0.1,1.1-0.3c0.3-0.2,0.6-0.4,0.9-0.7c0.2-0.3,0.4-0.6,0.5-1
			c0.1-0.4,0.2-0.8,0.2-1.2c0-0.4-0.1-0.8-0.2-1.2c-0.1-0.4-0.4-0.7-0.6-1c-0.3-0.3-0.6-0.5-0.9-0.7c-0.3-0.2-0.7-0.3-1.1-0.3H61
			V95.9z"/>
		<path fill="#686562" d="M72.1,102.2l5.8-13.9H79l5.8,13.9h-1.5l-1.8-4.4h-6.3l-1.8,4.4H72.1z M78.5,89.9l-2.9,6.9h5.6L78.5,89.9z"
			/>
		<path fill="#686562" d="M87.3,102.2V88.3h1.4V101h8.1v1.2H87.3z"/>
		<path fill="#686562" d="M105.6,102.2V88.3h5.8c0.6,0,1.2,0.1,1.7,0.4c0.5,0.3,0.9,0.6,1.3,1c0.4,0.4,0.6,0.9,0.9,1.4
			c0.2,0.5,0.3,1.1,0.3,1.6c0,0.6-0.1,1.1-0.3,1.7c-0.2,0.5-0.5,1-0.8,1.4c-0.4,0.4-0.8,0.7-1.3,1c-0.5,0.2-1,0.4-1.6,0.4H107v5.1
			H105.6z M107,95.9h4.4c0.4,0,0.8-0.1,1.1-0.3c0.3-0.2,0.6-0.4,0.9-0.7c0.2-0.3,0.4-0.6,0.5-1c0.1-0.4,0.2-0.8,0.2-1.2
			c0-0.4-0.1-0.8-0.2-1.2c-0.2-0.4-0.4-0.7-0.6-1c-0.3-0.3-0.6-0.5-0.9-0.7c-0.3-0.2-0.7-0.2-1.1-0.2H107V95.9z"/>
		<path fill="#686562" d="M118.2,102.2V88.3h1.4V101h8.1v1.2H118.2z"/>
		<path fill="#686562" d="M129.5,102.2l5.8-13.9h1.1l5.8,13.9h-1.5l-1.8-4.4h-6.3l-1.8,4.4H129.5z M135.8,89.9l-2.9,6.9h5.6
			L135.8,89.9z"/>
		<path fill="#686562" d="M144.7,102.2V88.3h1.4v13.9H144.7z"/>
		<path fill="#686562" d="M151.1,90.9v11.4h-1.4V88.3h1.1l9.2,11.6V88.3h1.4v13.9h-1.2L151.1,90.9z"/>
		<path fill="#686562" d="M173.2,90.9c-0.4-0.4-0.9-0.8-1.6-1.1c-0.7-0.3-1.4-0.4-2.2-0.4c-1.2,0-2.1,0.2-2.7,0.7
			c-0.6,0.5-0.8,1.1-0.8,1.9c0,0.4,0.1,0.8,0.2,1c0.1,0.3,0.4,0.5,0.7,0.7c0.3,0.2,0.7,0.4,1.2,0.5c0.5,0.1,1.1,0.3,1.7,0.4
			c0.7,0.2,1.4,0.3,2,0.5c0.6,0.2,1.1,0.4,1.5,0.7c0.4,0.3,0.7,0.7,1,1.1c0.2,0.4,0.3,1,0.3,1.6c0,0.6-0.1,1.2-0.4,1.7
			c-0.2,0.5-0.6,0.9-1,1.2c-0.4,0.3-1,0.5-1.6,0.7c-0.6,0.2-1.3,0.2-2,0.2c-2.2,0-4-0.7-5.6-2l0.7-1.1c0.5,0.5,1.2,1,2.1,1.4
			c0.9,0.4,1.8,0.6,2.9,0.6c1.1,0,2-0.2,2.6-0.6c0.6-0.4,0.9-1,0.9-1.8c0-0.4-0.1-0.8-0.3-1.1c-0.2-0.3-0.4-0.5-0.8-0.8
			c-0.4-0.2-0.8-0.4-1.3-0.6c-0.5-0.2-1.1-0.3-1.8-0.5c-0.7-0.2-1.4-0.3-1.9-0.5c-0.5-0.2-1-0.4-1.4-0.7c-0.4-0.3-0.7-0.6-0.8-1
			c-0.2-0.4-0.3-0.9-0.3-1.4c0-0.6,0.1-1.2,0.4-1.7c0.2-0.5,0.6-0.9,1-1.3c0.4-0.3,1-0.6,1.6-0.8c0.6-0.2,1.3-0.3,2-0.3
			c0.9,0,1.7,0.1,2.5,0.4c0.7,0.3,1.4,0.7,2,1.2L173.2,90.9z"/>
	</g>
	<g>
		<path fill="#F18E3B" d="M18.2,115.5c-0.2-0.2-0.5-0.5-0.9-0.7c-0.4-0.3-0.9-0.5-1.4-0.7c-0.5-0.2-1.1-0.4-1.8-0.6
			c-0.6-0.1-1.3-0.2-2.1-0.2c-1.4,0-2.4,0.3-3.1,0.8c-0.7,0.5-1.1,1.3-1.1,2.3c0,0.5,0.1,1,0.3,1.3c0.2,0.3,0.6,0.6,1,0.9
			c0.5,0.2,1,0.5,1.7,0.7c0.7,0.2,1.5,0.4,2.4,0.6c1.1,0.3,2.1,0.6,3,0.9c0.9,0.3,1.7,0.7,2.3,1.2c0.6,0.5,1.1,1,1.5,1.7
			c0.4,0.7,0.5,1.5,0.5,2.6c0,1.2-0.2,2.2-0.7,3c-0.4,0.8-1,1.5-1.8,2c-0.7,0.5-1.6,0.9-2.6,1.1c-1,0.2-2,0.4-3.1,0.4
			c-1.7,0-3.3-0.3-4.9-0.8c-1.6-0.5-3-1.3-4.3-2.2l1.6-3c0.3,0.3,0.7,0.6,1.2,0.9c0.5,0.3,1.1,0.6,1.8,0.9s1.4,0.5,2.2,0.7
			c0.8,0.2,1.7,0.3,2.5,0.3c1.3,0,2.4-0.2,3.1-0.7c0.7-0.5,1.1-1.2,1.1-2.1c0-0.6-0.1-1-0.4-1.4c-0.3-0.4-0.7-0.7-1.2-1
			c-0.5-0.3-1.2-0.5-1.9-0.7c-0.7-0.2-1.6-0.5-2.6-0.7c-1.1-0.3-2.1-0.6-2.9-0.9c-0.8-0.3-1.5-0.7-2-1.2c-0.5-0.5-1-1-1.2-1.6
			c-0.3-0.6-0.4-1.4-0.4-2.2c0-1.1,0.2-2,0.6-2.9c0.4-0.8,1-1.5,1.7-2.1c0.7-0.6,1.6-1,2.5-1.3c1-0.3,2-0.4,3.2-0.4
			c1.5,0,2.9,0.2,4.2,0.7c1.3,0.5,2.4,1.1,3.3,1.8L18.2,115.5z"/>
		<path fill="#F18E3B" d="M32.6,132.6c-1.6,0-3-0.3-4.3-1c-1.3-0.6-2.4-1.5-3.3-2.5c-0.9-1.1-1.6-2.3-2.1-3.6
			c-0.5-1.4-0.7-2.7-0.7-4.2c0-1.5,0.3-2.9,0.8-4.2c0.5-1.4,1.3-2.5,2.2-3.6c0.9-1,2-1.9,3.3-2.5c1.3-0.6,2.7-0.9,4.2-0.9
			c1.6,0,3,0.3,4.3,1c1.3,0.7,2.4,1.5,3.3,2.6c0.9,1.1,1.6,2.3,2.1,3.6c0.5,1.3,0.7,2.7,0.7,4.1c0,1.5-0.3,2.9-0.8,4.2
			c-0.5,1.4-1.3,2.5-2.2,3.6c-0.9,1-2,1.9-3.3,2.5C35.5,132.3,34.1,132.6,32.6,132.6z M25.7,121.3c0,1,0.2,2,0.5,3
			c0.3,1,0.8,1.8,1.4,2.6c0.6,0.7,1.3,1.3,2.2,1.8c0.9,0.4,1.8,0.7,2.9,0.7c1.1,0,2.1-0.2,2.9-0.7c0.9-0.5,1.6-1.1,2.2-1.9
			c0.6-0.8,1-1.6,1.4-2.6c0.3-1,0.5-1.9,0.5-2.9c0-1.1-0.2-2.1-0.5-3c-0.3-1-0.8-1.8-1.4-2.6c-0.6-0.7-1.3-1.3-2.2-1.8
			c-0.9-0.4-1.8-0.7-2.8-0.7c-1.1,0-2.1,0.2-2.9,0.7c-0.9,0.5-1.6,1.1-2.2,1.8s-1,1.6-1.4,2.6C25.9,119.4,25.7,120.3,25.7,121.3z"/>
		<path fill="#F18E3B" d="M45.6,132.4v-22.2h3.5v19.1H61v3.1H45.6z"/>
		<path fill="#F18E3B" d="M71.4,129.4c1.2,0,2.1-0.2,2.9-0.7c0.8-0.5,1.4-1.1,1.9-1.8c0.5-0.7,0.8-1.6,1-2.5
			c0.2-0.9,0.3-1.9,0.3-2.9v-11.2H81v11.2c0,1.5-0.2,2.9-0.5,4.3c-0.4,1.3-0.9,2.5-1.7,3.5c-0.8,1-1.8,1.8-3,2.4
			c-1.2,0.6-2.7,0.9-4.4,0.9c-1.8,0-3.3-0.3-4.5-0.9c-1.2-0.6-2.2-1.4-2.9-2.5c-0.7-1-1.3-2.2-1.6-3.5c-0.3-1.3-0.5-2.7-0.5-4.2
			v-11.2h3.5v11.2c0,1,0.1,2,0.3,2.9c0.2,0.9,0.5,1.8,1,2.5c0.5,0.7,1.1,1.3,1.9,1.8C69.3,129.2,70.2,129.4,71.4,129.4z"/>
		<path fill="#F18E3B" d="M102.1,113.4h-7.4v19.1h-3.5v-19.1h-7.4v-3.1h18.3V113.4z"/>
		<path fill="#F18E3B" d="M105.1,132.4v-22.1h3.5v22.1H105.1z"/>
		<path fill="#F18E3B" d="M122.1,132.6c-1.6,0-3-0.3-4.3-1c-1.3-0.6-2.4-1.5-3.3-2.5c-0.9-1.1-1.6-2.3-2.1-3.6
			c-0.5-1.4-0.7-2.7-0.7-4.2c0-1.5,0.3-2.9,0.8-4.2c0.5-1.4,1.3-2.5,2.2-3.6c0.9-1,2-1.9,3.3-2.5c1.3-0.6,2.7-0.9,4.2-0.9
			c1.6,0,3,0.3,4.3,1c1.3,0.7,2.4,1.5,3.3,2.6c0.9,1.1,1.6,2.3,2.1,3.6c0.5,1.3,0.7,2.7,0.7,4.1c0,1.5-0.3,2.9-0.8,4.2
			c-0.5,1.4-1.3,2.5-2.2,3.6c-0.9,1-2,1.9-3.3,2.5C125.1,132.3,123.7,132.6,122.1,132.6z M115.2,121.3c0,1,0.2,2,0.5,3
			c0.3,1,0.8,1.8,1.4,2.6c0.6,0.7,1.3,1.3,2.2,1.8c0.9,0.4,1.8,0.7,2.9,0.7c1.1,0,2.1-0.2,2.9-0.7c0.9-0.5,1.6-1.1,2.2-1.9
			c0.6-0.8,1-1.6,1.4-2.6c0.3-1,0.5-1.9,0.5-2.9c0-1.1-0.2-2.1-0.5-3c-0.3-1-0.8-1.8-1.4-2.6c-0.6-0.7-1.3-1.3-2.2-1.8
			c-0.9-0.4-1.8-0.7-2.8-0.7c-1.1,0-2.1,0.2-2.9,0.7c-0.9,0.5-1.6,1.1-2.2,1.8c-0.6,0.7-1,1.6-1.4,2.6
			C115.4,119.4,115.2,120.3,115.2,121.3z"/>
		<path fill="#F18E3B" d="M138,116.8v15.6h-3.5v-22.2h2.7l12.7,16v-15.9h3.5v22.1h-2.9L138,116.8z"/>
		<path fill="#F18E3B" d="M171.7,115.5c-0.2-0.2-0.5-0.5-0.9-0.7c-0.4-0.3-0.9-0.5-1.4-0.7c-0.5-0.2-1.1-0.4-1.8-0.6
			c-0.6-0.1-1.3-0.2-2.1-0.2c-1.4,0-2.4,0.3-3.1,0.8c-0.7,0.5-1.1,1.3-1.1,2.3c0,0.5,0.1,1,0.3,1.3c0.2,0.3,0.6,0.6,1,0.9
			c0.5,0.2,1,0.5,1.7,0.7c0.7,0.2,1.5,0.4,2.4,0.6c1.1,0.3,2.1,0.6,3,0.9c0.9,0.3,1.7,0.7,2.3,1.2c0.6,0.5,1.1,1,1.5,1.7
			c0.4,0.7,0.5,1.5,0.5,2.6c0,1.2-0.2,2.2-0.7,3c-0.4,0.8-1,1.5-1.8,2c-0.7,0.5-1.6,0.9-2.6,1.1c-1,0.2-2,0.4-3.1,0.4
			c-1.7,0-3.3-0.3-4.9-0.8c-1.6-0.5-3-1.3-4.3-2.2l1.6-3c0.3,0.3,0.7,0.6,1.2,0.9c0.5,0.3,1.1,0.6,1.8,0.9s1.4,0.5,2.2,0.7
			c0.8,0.2,1.7,0.3,2.5,0.3c1.3,0,2.4-0.2,3.1-0.7c0.7-0.5,1.1-1.2,1.1-2.1c0-0.6-0.1-1-0.4-1.4c-0.3-0.4-0.7-0.7-1.2-1
			c-0.5-0.3-1.2-0.5-1.9-0.7c-0.7-0.2-1.6-0.5-2.6-0.7c-1.1-0.3-2.1-0.6-2.9-0.9c-0.8-0.3-1.5-0.7-2-1.2c-0.5-0.5-1-1-1.2-1.6
			c-0.3-0.6-0.4-1.4-0.4-2.2c0-1.1,0.2-2,0.6-2.9c0.4-0.8,1-1.5,1.7-2.1c0.7-0.6,1.6-1,2.5-1.3c1-0.3,2-0.4,3.2-0.4
			c1.5,0,2.9,0.2,4.2,0.7c1.3,0.5,2.4,1.1,3.3,1.8L171.7,115.5z"/>
	</g>
</g>
<g>
	<path fill="#686562" d="M242.9,103.5c0-6.4-5.2-11.7-11.7-11.7s-11.7,5.2-11.7,11.7c0,2.3,0.7,4.5,1.8,6.3c-0.2-1.1,0-2.8,0.1-3.6
		c0.7-3.9,4.1-6.7,7.7-7.9c0.7-0.2,1.5-0.4,2.3-0.5c0.3,0,0.6-0.1,0.9-0.1c2.4-0.2,5.5,0.3,7.6,1.4c-0.8,0.1-2,0.6-2.6,1
		c-1.5,1-2.5,2.5-2.5,4.3c0,0.6,0.1,1.2,0.2,1.8c0.3,0.8,0.6,1.5,0.9,2.3c0.1,0.3,0.3,0.6,0.4,1c0.3,0.7,0.8,3,0.4,4.2
		C240.5,111.8,242.9,107.9,242.9,103.5z"/>
	<path fill="#686562" d="M221.6,106.2c0.9-4.7,5.5-7.8,10-8.5c-0.8,0.1-1.5,0.3-2.3,0.5C225.6,99.5,222.2,102.3,221.6,106.2
		c-0.2,0.7-0.4,2.4-0.1,3.6c0,0,0,0.1,0.1,0.1C221.2,108.8,221.4,107,221.6,106.2z"/>
	<path fill="#F18E3B" d="M235.5,100.4c-1,0.3-5.3,2-6.3,4.3c-0.5,1-0.2,2.4,0.7,3.1c0.7,0.5,1.8,0.4,2.5-0.2
		c0.4-0.4,0.6-0.9,0.7-1.5c0-0.4,0-0.8,0-1.1c0-1.3,0.4-2.4,1.2-3.4C234.6,101.2,234.9,100.7,235.5,100.4z"/>
	<path fill="#F18E3B" d="M228.5,109.3c-1.6-2.7-0.9-5.7,1.8-7.5c1.3-0.9,2.8-1.4,4.3-1.9c-2.6,0.2-5.3,1.3-6.9,3.3
		c-0.9,1.1-1.4,2.6-1.3,4c0,1.4,0.9,2.5,1.5,3.7c0.6,1.3,0.9,2.8,0.2,4.2c0.2,0,1.4,0.3,1.4,0.3c0.1-0.4,0.1-0.8,0.1-1.2
		C229.7,112.4,229.4,110.8,228.5,109.3z"/>
	<g>
		<path fill="#686562" d="M204.5,120.1c0-0.3,0-0.5,0.1-0.8c0.1-0.3,0.2-0.5,0.4-0.7c0.2-0.2,0.4-0.4,0.7-0.5
			c0.3-0.1,0.6-0.2,0.9-0.2c0.4,0,0.7,0.1,1,0.3c0.3,0.2,0.5,0.4,0.6,0.7l-0.3,0.2c-0.1-0.1-0.2-0.3-0.3-0.4
			c-0.1-0.1-0.2-0.2-0.3-0.2c-0.1-0.1-0.2-0.1-0.4-0.1c-0.1,0-0.2,0-0.4,0c-0.3,0-0.5,0.1-0.7,0.2c-0.2,0.1-0.4,0.2-0.5,0.4
			c-0.1,0.2-0.2,0.4-0.3,0.6c-0.1,0.2-0.1,0.4-0.1,0.7c0,0.2,0,0.5,0.1,0.7c0.1,0.2,0.2,0.4,0.3,0.6c0.1,0.2,0.3,0.3,0.5,0.4
			c0.2,0.1,0.4,0.2,0.6,0.2c0.1,0,0.2,0,0.4,0c0.1,0,0.3-0.1,0.4-0.1c0.1-0.1,0.2-0.2,0.3-0.3c0.1-0.1,0.2-0.2,0.3-0.4l0.4,0.2
			c-0.1,0.2-0.2,0.3-0.3,0.4c-0.1,0.1-0.3,0.2-0.4,0.3c-0.2,0.1-0.3,0.2-0.5,0.2c-0.2,0-0.3,0.1-0.5,0.1c-0.3,0-0.6-0.1-0.8-0.2
			c-0.3-0.1-0.5-0.3-0.6-0.5c-0.2-0.2-0.3-0.5-0.4-0.7C204.5,120.7,204.5,120.4,204.5,120.1z"/>
		<path fill="#686562" d="M212.1,121.9v0.4h-2.9v-4.4h2.9v0.4h-2.5v1.6h2.1v0.4h-2.1v1.7H212.1z"/>
		<path fill="#686562" d="M213.4,118.7v3.6h-0.4v-4.4h0.3l2.9,3.6V118h0.4v4.4h-0.4L213.4,118.7z"/>
		<path fill="#686562" d="M220.9,118.3h-1.6v4H219v-4h-1.6v-0.4h3.5V118.3z"/>
		<path fill="#686562" d="M221.7,122.3v-4.4h1.8c0.2,0,0.4,0,0.5,0.1c0.2,0.1,0.3,0.2,0.4,0.3c0.1,0.1,0.2,0.3,0.3,0.4
			c0.1,0.2,0.1,0.3,0.1,0.5c0,0.2,0,0.3-0.1,0.5c0,0.1-0.1,0.3-0.2,0.4c-0.1,0.1-0.2,0.2-0.3,0.3c-0.1,0.1-0.3,0.1-0.4,0.2l1.1,1.7
			h-0.5l-1-1.6h-1.3v1.6H221.7z M222.2,120.3h1.4c0.1,0,0.2,0,0.3-0.1c0.1-0.1,0.2-0.1,0.3-0.2c0.1-0.1,0.1-0.2,0.2-0.3
			c0-0.1,0.1-0.2,0.1-0.4s0-0.3-0.1-0.4c0-0.1-0.1-0.2-0.2-0.3c-0.1-0.1-0.2-0.2-0.3-0.2c-0.1-0.1-0.2-0.1-0.3-0.1h-1.4V120.3z"/>
		<path fill="#686562" d="M225.6,122.3l1.8-4.4h0.4l1.8,4.4h-0.5l-0.6-1.4h-2l-0.6,1.4H225.6z M227.6,118.5l-0.9,2.2h1.8
			L227.6,118.5z"/>
		<path fill="#686562" d="M230.4,122.3v-4.4h0.4v4h2.5v0.4H230.4z"/>
		<path fill="#686562" d="M236.2,122.3v-4.4h1.8c0.2,0,0.4,0,0.5,0.1c0.2,0.1,0.3,0.2,0.4,0.3c0.1,0.1,0.2,0.3,0.3,0.4
			c0.1,0.2,0.1,0.3,0.1,0.5c0,0.2,0,0.4-0.1,0.5c-0.1,0.2-0.1,0.3-0.3,0.4c-0.1,0.1-0.2,0.2-0.4,0.3s-0.3,0.1-0.5,0.1h-1.4v1.6
			H236.2z M236.6,120.3h1.4c0.1,0,0.2,0,0.3-0.1c0.1-0.1,0.2-0.1,0.3-0.2c0.1-0.1,0.1-0.2,0.2-0.3c0-0.1,0.1-0.2,0.1-0.4
			c0-0.1,0-0.3-0.1-0.4c0-0.1-0.1-0.2-0.2-0.3c-0.1-0.1-0.2-0.2-0.3-0.2c-0.1-0.1-0.2-0.1-0.3-0.1h-1.4V120.3z"/>
		<path fill="#686562" d="M240.1,122.3v-4.4h0.4v4h2.5v0.4H240.1z"/>
		<path fill="#686562" d="M243.7,122.3l1.8-4.4h0.4l1.8,4.4h-0.5l-0.6-1.4h-2l-0.6,1.4H243.7z M245.7,118.5l-0.9,2.2h1.8
			L245.7,118.5z"/>
		<path fill="#686562" d="M248.4,122.3V118h0.4v4.4H248.4z"/>
		<path fill="#686562" d="M250.4,118.7v3.6H250v-4.4h0.3l2.9,3.6V118h0.4v4.4h-0.4L250.4,118.7z"/>
		<path fill="#686562" d="M257.4,118.8c-0.1-0.1-0.3-0.3-0.5-0.3c-0.2-0.1-0.4-0.1-0.7-0.1c-0.4,0-0.7,0.1-0.8,0.2
			c-0.2,0.1-0.3,0.3-0.3,0.6c0,0.1,0,0.2,0.1,0.3c0,0.1,0.1,0.2,0.2,0.2c0.1,0.1,0.2,0.1,0.4,0.2c0.2,0,0.3,0.1,0.5,0.1
			c0.2,0,0.4,0.1,0.6,0.2c0.2,0.1,0.3,0.1,0.5,0.2c0.1,0.1,0.2,0.2,0.3,0.3c0.1,0.1,0.1,0.3,0.1,0.5c0,0.2,0,0.4-0.1,0.5
			c-0.1,0.1-0.2,0.3-0.3,0.4c-0.1,0.1-0.3,0.2-0.5,0.2c-0.2,0-0.4,0.1-0.6,0.1c-0.7,0-1.3-0.2-1.8-0.6l0.2-0.4
			c0.2,0.2,0.4,0.3,0.6,0.4c0.3,0.1,0.6,0.2,0.9,0.2c0.3,0,0.6-0.1,0.8-0.2c0.2-0.1,0.3-0.3,0.3-0.6c0-0.1,0-0.2-0.1-0.3
			c-0.1-0.1-0.1-0.2-0.2-0.2c-0.1-0.1-0.2-0.1-0.4-0.2c-0.2,0-0.4-0.1-0.6-0.1c-0.2-0.1-0.4-0.1-0.6-0.2c-0.2-0.1-0.3-0.1-0.4-0.2
			c-0.1-0.1-0.2-0.2-0.3-0.3c-0.1-0.1-0.1-0.3-0.1-0.4c0-0.2,0-0.4,0.1-0.5c0.1-0.2,0.2-0.3,0.3-0.4c0.1-0.1,0.3-0.2,0.5-0.2
			c0.2-0.1,0.4-0.1,0.6-0.1c0.3,0,0.5,0,0.8,0.1c0.2,0.1,0.4,0.2,0.6,0.4L257.4,118.8z"/>
	</g>
	<g>
		<path fill="#F18E3B" d="M208.7,126.5c-0.1-0.1-0.2-0.1-0.3-0.2c-0.1-0.1-0.3-0.2-0.4-0.2c-0.2-0.1-0.4-0.1-0.6-0.2
			c-0.2,0-0.4-0.1-0.6-0.1c-0.4,0-0.8,0.1-1,0.3c-0.2,0.2-0.3,0.4-0.3,0.7c0,0.2,0,0.3,0.1,0.4c0.1,0.1,0.2,0.2,0.3,0.3
			c0.1,0.1,0.3,0.1,0.5,0.2c0.2,0.1,0.5,0.1,0.8,0.2c0.3,0.1,0.7,0.2,0.9,0.3c0.3,0.1,0.5,0.2,0.7,0.4c0.2,0.1,0.4,0.3,0.5,0.5
			c0.1,0.2,0.2,0.5,0.2,0.8c0,0.4-0.1,0.7-0.2,0.9c-0.1,0.3-0.3,0.5-0.6,0.6c-0.2,0.2-0.5,0.3-0.8,0.4c-0.3,0.1-0.6,0.1-1,0.1
			c-0.5,0-1-0.1-1.5-0.2c-0.5-0.2-0.9-0.4-1.3-0.7l0.5-0.9c0.1,0.1,0.2,0.2,0.4,0.3c0.2,0.1,0.3,0.2,0.6,0.3
			c0.2,0.1,0.4,0.2,0.7,0.2c0.3,0.1,0.5,0.1,0.8,0.1c0.4,0,0.7-0.1,1-0.2c0.2-0.2,0.3-0.4,0.3-0.7c0-0.2,0-0.3-0.1-0.4
			c-0.1-0.1-0.2-0.2-0.4-0.3c-0.2-0.1-0.4-0.2-0.6-0.2c-0.2-0.1-0.5-0.1-0.8-0.2c-0.3-0.1-0.6-0.2-0.9-0.3c-0.3-0.1-0.5-0.2-0.6-0.4
			c-0.2-0.1-0.3-0.3-0.4-0.5c-0.1-0.2-0.1-0.4-0.1-0.7c0-0.3,0.1-0.6,0.2-0.9c0.1-0.3,0.3-0.5,0.5-0.7c0.2-0.2,0.5-0.3,0.8-0.4
			c0.3-0.1,0.6-0.1,1-0.1c0.5,0,0.9,0.1,1.3,0.2c0.4,0.2,0.7,0.3,1,0.6L208.7,126.5z"/>
		<path fill="#F18E3B" d="M213.2,131.9c-0.5,0-0.9-0.1-1.3-0.3c-0.4-0.2-0.7-0.5-1-0.8c-0.3-0.3-0.5-0.7-0.7-1.1
			c-0.2-0.4-0.2-0.9-0.2-1.3c0-0.5,0.1-0.9,0.2-1.3c0.2-0.4,0.4-0.8,0.7-1.1c0.3-0.3,0.6-0.6,1-0.8c0.4-0.2,0.8-0.3,1.3-0.3
			c0.5,0,0.9,0.1,1.3,0.3c0.4,0.2,0.7,0.5,1,0.8c0.3,0.3,0.5,0.7,0.7,1.1c0.2,0.4,0.2,0.9,0.2,1.3c0,0.5-0.1,0.9-0.2,1.3
			c-0.2,0.4-0.4,0.8-0.7,1.1c-0.3,0.3-0.6,0.6-1,0.8C214.2,131.8,213.7,131.9,213.2,131.9z M211.1,128.3c0,0.3,0.1,0.6,0.2,1
			c0.1,0.3,0.2,0.6,0.4,0.8c0.2,0.2,0.4,0.4,0.7,0.6c0.3,0.1,0.6,0.2,0.9,0.2c0.3,0,0.6-0.1,0.9-0.2c0.3-0.1,0.5-0.3,0.7-0.6
			c0.2-0.2,0.3-0.5,0.4-0.8c0.1-0.3,0.1-0.6,0.1-0.9c0-0.3-0.1-0.7-0.2-1s-0.3-0.6-0.4-0.8c-0.2-0.2-0.4-0.4-0.7-0.6
			c-0.3-0.1-0.6-0.2-0.9-0.2c-0.3,0-0.6,0.1-0.9,0.2c-0.3,0.1-0.5,0.3-0.7,0.6c-0.2,0.2-0.3,0.5-0.4,0.8
			C211.1,127.7,211.1,128,211.1,128.3z"/>
		<path fill="#F18E3B" d="M217.3,131.8v-7h1.1v6h3.7v1H217.3z"/>
		<path fill="#F18E3B" d="M225.4,130.9c0.4,0,0.7-0.1,0.9-0.2c0.2-0.1,0.4-0.3,0.6-0.6c0.1-0.2,0.3-0.5,0.3-0.8
			c0.1-0.3,0.1-0.6,0.1-0.9v-3.5h1.1v3.5c0,0.5-0.1,0.9-0.2,1.3c-0.1,0.4-0.3,0.8-0.5,1.1c-0.2,0.3-0.6,0.6-0.9,0.7
			c-0.4,0.2-0.8,0.3-1.4,0.3c-0.6,0-1-0.1-1.4-0.3c-0.4-0.2-0.7-0.5-0.9-0.8c-0.2-0.3-0.4-0.7-0.5-1.1c-0.1-0.4-0.2-0.9-0.2-1.3
			v-3.5h1.1v3.5c0,0.3,0,0.6,0.1,0.9c0.1,0.3,0.2,0.6,0.3,0.8c0.1,0.2,0.3,0.4,0.6,0.6C224.8,130.8,225.1,130.9,225.4,130.9z"/>
		<path fill="#F18E3B" d="M235,125.8h-2.3v6h-1.1v-6h-2.3v-1h5.7V125.8z"/>
		<path fill="#F18E3B" d="M236,131.8v-6.9h1.1v6.9H236z"/>
		<path fill="#F18E3B" d="M241.4,131.9c-0.5,0-0.9-0.1-1.3-0.3c-0.4-0.2-0.7-0.5-1-0.8c-0.3-0.3-0.5-0.7-0.7-1.1
			c-0.2-0.4-0.2-0.9-0.2-1.3c0-0.5,0.1-0.9,0.2-1.3c0.2-0.4,0.4-0.8,0.7-1.1c0.3-0.3,0.6-0.6,1-0.8c0.4-0.2,0.8-0.3,1.3-0.3
			c0.5,0,0.9,0.1,1.3,0.3c0.4,0.2,0.7,0.5,1,0.8c0.3,0.3,0.5,0.7,0.7,1.1c0.2,0.4,0.2,0.9,0.2,1.3c0,0.5-0.1,0.9-0.2,1.3
			c-0.2,0.4-0.4,0.8-0.7,1.1c-0.3,0.3-0.6,0.6-1,0.8C242.3,131.8,241.8,131.9,241.4,131.9z M239.2,128.3c0,0.3,0.1,0.6,0.2,1
			c0.1,0.3,0.2,0.6,0.4,0.8c0.2,0.2,0.4,0.4,0.7,0.6c0.3,0.1,0.6,0.2,0.9,0.2c0.3,0,0.6-0.1,0.9-0.2c0.3-0.1,0.5-0.3,0.7-0.6
			c0.2-0.2,0.3-0.5,0.4-0.8c0.1-0.3,0.1-0.6,0.1-0.9c0-0.3-0.1-0.7-0.2-1c-0.1-0.3-0.3-0.6-0.4-0.8c-0.2-0.2-0.4-0.4-0.7-0.6
			c-0.3-0.1-0.6-0.2-0.9-0.2c-0.3,0-0.6,0.1-0.9,0.2c-0.3,0.1-0.5,0.3-0.7,0.6c-0.2,0.2-0.3,0.5-0.4,0.8
			C239.2,127.7,239.2,128,239.2,128.3z"/>
		<path fill="#F18E3B" d="M246.3,126.9v4.9h-1.1v-7h0.9l4,5v-5h1.1v6.9h-0.9L246.3,126.9z"/>
		<path fill="#F18E3B" d="M256.9,126.5c-0.1-0.1-0.2-0.1-0.3-0.2c-0.1-0.1-0.3-0.2-0.4-0.2c-0.2-0.1-0.4-0.1-0.6-0.2
			c-0.2,0-0.4-0.1-0.6-0.1c-0.4,0-0.8,0.1-1,0.3c-0.2,0.2-0.3,0.4-0.3,0.7c0,0.2,0,0.3,0.1,0.4c0.1,0.1,0.2,0.2,0.3,0.3
			c0.1,0.1,0.3,0.1,0.5,0.2c0.2,0.1,0.5,0.1,0.8,0.2c0.3,0.1,0.7,0.2,0.9,0.3c0.3,0.1,0.5,0.2,0.7,0.4c0.2,0.1,0.4,0.3,0.5,0.5
			c0.1,0.2,0.2,0.5,0.2,0.8c0,0.4-0.1,0.7-0.2,0.9c-0.1,0.3-0.3,0.5-0.6,0.6c-0.2,0.2-0.5,0.3-0.8,0.4c-0.3,0.1-0.6,0.1-1,0.1
			c-0.5,0-1-0.1-1.5-0.2c-0.5-0.2-0.9-0.4-1.3-0.7l0.5-0.9c0.1,0.1,0.2,0.2,0.4,0.3c0.2,0.1,0.3,0.2,0.6,0.3
			c0.2,0.1,0.4,0.2,0.7,0.2c0.3,0.1,0.5,0.1,0.8,0.1c0.4,0,0.7-0.1,1-0.2c0.2-0.2,0.3-0.4,0.3-0.7c0-0.2,0-0.3-0.1-0.4
			c-0.1-0.1-0.2-0.2-0.4-0.3c-0.2-0.1-0.4-0.2-0.6-0.2c-0.2-0.1-0.5-0.1-0.8-0.2c-0.3-0.1-0.6-0.2-0.9-0.3c-0.3-0.1-0.5-0.2-0.6-0.4
			c-0.2-0.1-0.3-0.3-0.4-0.5c-0.1-0.2-0.1-0.4-0.1-0.7c0-0.3,0.1-0.6,0.2-0.9c0.1-0.3,0.3-0.5,0.5-0.7c0.2-0.2,0.5-0.3,0.8-0.4
			c0.3-0.1,0.6-0.1,1-0.1c0.5,0,0.9,0.1,1.3,0.2c0.4,0.2,0.7,0.3,1,0.6L256.9,126.5z"/>
	</g>
</g>
</svg>
