<?xml version="1.0" encoding="utf-8"?>
<!-- Generator: Adobe Illustrator 18.1.0, SVG Export Plug-In . SVG Version: 6.00 Build 0)  -->
<!DOCTYPE svg PUBLIC "-//W3C//DTD SVG 1.1//EN" "http://www.w3.org/Graphics/SVG/1.1/DTD/svg11.dtd">
<svg version="1.1" id="Layer_1" xmlns="http://www.w3.org/2000/svg" xmlns:xlink="http://www.w3.org/1999/xlink" x="0px" y="0px"
	 viewBox="0 0 355 261" enable-background="new 0 0 355 261" xml:space="preserve">
<g>
	<path fill="#686562" d="M243.9,83.9c0-36-29.2-65.1-65.1-65.1s-65.1,29.2-65.1,65.1c0,12.9,3.8,25,10.3,35.1
		c-1.4-6.3-0.3-15.8,0.5-20c4-21.8,23-37.6,43.2-44.3c4.2-1.4,8.5-2.3,12.8-2.8c1.7-0.2,3.4-0.4,5-0.5c13.2-0.9,30.5,1.4,42.3,7.7
		c-4.7,0.4-10.9,3.1-14.8,5.6c-8.4,5.4-13.8,14.2-14.1,24.2c-0.1,3.5,0.4,6.9,1.4,10.1c1.6,4.2,3.5,8.6,5.1,13.1
		c0.8,1.8,1.5,3.6,2.2,5.4c1.5,4,4.7,17,2.3,23.6C230.1,130.1,243.9,108.6,243.9,83.9z"/>
	<path fill="#686562" d="M124.6,99.1c4.8-26,30.7-43.6,55.8-47.2c-4.3,0.5-8.6,1.5-12.8,2.8c-20.3,6.7-39.2,22.4-43.2,44.3
		c-0.8,4.2-1.9,13.7-0.5,20c0.1,0.2,0.2,0.3,0.3,0.5C122.7,113.2,123.8,103.4,124.6,99.1z"/>
	<path fill="#F18E3B" d="M202.2,66.7c-5.5,1.9-29.3,11-35.1,24c-2.6,5.8-1.3,13.4,4.1,17.1c4.2,2.9,10,2.1,13.7-1.1
		c2.4-2.1,3.3-5.1,3.7-8.2c0.3-2.1,0.2-4.3,0.2-6.3c-0.1-7.3,2-13.2,6.5-18.8C197.3,71,199.2,68,202.2,66.7z"/>
	<path fill="#F18E3B" d="M163.3,116.3c-9.2-15.3-5.2-31.8,9.9-42.1c7.2-4.9,15.5-8,23.9-10.7c-14.8,1.1-29.7,7.1-38.6,18.5
		c-4.9,6.3-7.5,14.3-7.3,22.2c0.2,7.7,5,13.9,8.2,20.6c3.6,7.4,4.8,15.7,1.4,23.5c0.9,0.3,7.7,1.9,7.7,1.6c0.4-2.3,0.6-4.6,0.8-6.9
		C169.9,133.6,168.2,124.5,163.3,116.3z"/>
	<g>
		<path fill="#686562" d="M29.1,176.6c0-1.5,0.3-2.9,0.8-4.4c0.5-1.5,1.3-2.8,2.3-3.9c1-1.1,2.2-2.1,3.6-2.8
			c1.4-0.7,3.1-1.1,4.9-1.1c2.2,0,4,0.5,5.6,1.5c1.5,1,2.7,2.3,3.4,3.8l-1.9,1.2c-0.4-0.8-0.9-1.5-1.4-2s-1.1-1-1.8-1.3
			c-0.6-0.3-1.3-0.6-2-0.7c-0.7-0.1-1.4-0.2-2-0.2c-1.5,0-2.8,0.3-3.9,0.9c-1.1,0.6-2.1,1.4-2.8,2.3c-0.8,1-1.3,2-1.7,3.2
			c-0.4,1.2-0.6,2.4-0.6,3.7c0,1.4,0.2,2.6,0.7,3.9c0.5,1.2,1.1,2.3,1.9,3.3c0.8,1,1.8,1.7,2.9,2.3c1.1,0.6,2.3,0.8,3.6,0.8
			c0.7,0,1.4-0.1,2.1-0.3c0.7-0.2,1.4-0.4,2.1-0.8c0.7-0.4,1.3-0.8,1.9-1.4c0.6-0.6,1.1-1.2,1.4-2l2,1c-0.4,0.9-0.9,1.7-1.6,2.4
			c-0.7,0.7-1.5,1.3-2.4,1.8c-0.9,0.5-1.8,0.8-2.8,1.1c-1,0.3-1.9,0.4-2.9,0.4c-1.7,0-3.2-0.4-4.6-1.1c-1.4-0.7-2.6-1.7-3.6-2.9
			c-1-1.2-1.8-2.5-2.4-4C29.4,179.6,29.1,178.1,29.1,176.6z"/>
		<path fill="#686562" d="M71.5,186.8v2.1H55.1v-24.4h16.1v2.1H57.5v8.8h12v2h-12v9.3H71.5z"/>
		<path fill="#686562" d="M78.8,169v19.9h-2.4v-24.4h1.9l16.1,20.3v-20.3h2.4v24.4h-2.1L78.8,169z"/>
		<path fill="#686562" d="M121.1,166.7h-8.7v22.3H110v-22.3h-8.7v-2.1h19.8V166.7z"/>
		<path fill="#686562" d="M125.6,188.9v-24.4h10.3c1.1,0,2,0.2,2.9,0.7c0.9,0.4,1.7,1,2.3,1.8c0.6,0.7,1.1,1.5,1.5,2.5
			c0.4,0.9,0.5,1.8,0.5,2.8c0,0.9-0.1,1.7-0.4,2.6c-0.3,0.8-0.6,1.5-1.1,2.2c-0.5,0.7-1.1,1.2-1.7,1.6c-0.7,0.4-1.4,0.8-2.2,0.9
			l6,9.4h-2.7l-5.8-9h-7.2v9H125.6z M127.9,177.8h8c0.7,0,1.4-0.2,1.9-0.5c0.6-0.3,1.1-0.7,1.5-1.3c0.4-0.5,0.7-1.1,1-1.8
			c0.2-0.7,0.3-1.4,0.3-2.1s-0.1-1.4-0.4-2.1c-0.3-0.7-0.6-1.3-1.1-1.8c-0.4-0.5-1-0.9-1.6-1.2c-0.6-0.3-1.2-0.4-1.9-0.4h-7.8V177.8
			z"/>
		<path fill="#686562" d="M147.3,188.9l10.2-24.4h2l10.2,24.4h-2.6l-3.2-7.6h-11l-3.1,7.6H147.3z M158.5,167.3l-5,12.1h9.9
			L158.5,167.3z"/>
		<path fill="#686562" d="M174.1,188.9v-24.4h2.4v22.3h14.1v2.1H174.1z"/>
		<path fill="#686562" d="M206.1,188.9v-24.4h10.1c1.1,0,2,0.2,2.9,0.7c0.9,0.4,1.6,1,2.3,1.8c0.6,0.7,1.1,1.5,1.5,2.5
			c0.4,0.9,0.5,1.8,0.5,2.8c0,1-0.2,2-0.5,2.9c-0.3,0.9-0.8,1.7-1.4,2.5c-0.6,0.7-1.4,1.3-2.2,1.7s-1.8,0.7-2.9,0.7h-7.9v9H206.1z
			 M208.5,177.8h7.8c0.7,0,1.4-0.2,1.9-0.5c0.6-0.3,1.1-0.7,1.5-1.2c0.4-0.5,0.7-1.1,1-1.8c0.2-0.7,0.3-1.4,0.3-2.1
			c0-0.8-0.1-1.5-0.4-2.1c-0.3-0.7-0.6-1.3-1.1-1.8c-0.4-0.5-1-0.9-1.6-1.2c-0.6-0.3-1.2-0.4-1.9-0.4h-7.6V177.8z"/>
		<path fill="#686562" d="M228.1,188.9v-24.4h2.4v22.3h14.1v2.1H228.1z"/>
		<path fill="#686562" d="M247.9,188.9l10.2-24.4h2l10.2,24.4h-2.6l-3.2-7.6h-11l-3.1,7.6H247.9z M259.1,167.3l-5,12.1h9.9
			L259.1,167.3z"/>
		<path fill="#686562" d="M274.7,188.9v-24.4h2.4v24.4H274.7z"/>
		<path fill="#686562" d="M285.8,169v19.9h-2.4v-24.4h1.9l16.1,20.3v-20.3h2.4v24.4h-2.1L285.8,169z"/>
		<path fill="#686562" d="M324.7,169.1c-0.7-0.8-1.6-1.4-2.8-1.9c-1.2-0.5-2.5-0.7-3.9-0.7c-2.2,0-3.8,0.4-4.7,1.2
			c-1,0.8-1.5,1.9-1.5,3.3c0,0.7,0.1,1.3,0.4,1.8c0.3,0.5,0.7,0.9,1.2,1.2c0.6,0.3,1.3,0.6,2.1,0.9c0.9,0.3,1.9,0.5,3,0.8
			c1.3,0.3,2.5,0.6,3.5,0.9c1,0.3,1.9,0.8,2.6,1.3s1.3,1.1,1.7,1.9c0.4,0.7,0.6,1.7,0.6,2.8c0,1.1-0.2,2.1-0.7,2.9
			c-0.4,0.8-1,1.5-1.8,2.1c-0.8,0.5-1.7,1-2.8,1.2c-1.1,0.3-2.2,0.4-3.5,0.4c-3.8,0-7.1-1.2-9.8-3.5l1.2-2c0.9,0.9,2.1,1.7,3.6,2.4
			c1.5,0.7,3.2,1,5.1,1c1.9,0,3.5-0.3,4.6-1c1.1-0.7,1.6-1.8,1.6-3.2c0-0.8-0.2-1.4-0.5-1.9c-0.3-0.5-0.8-1-1.4-1.3
			c-0.6-0.4-1.4-0.7-2.3-1c-0.9-0.3-2-0.5-3.2-0.8c-1.3-0.3-2.4-0.6-3.4-0.9c-1-0.3-1.8-0.7-2.4-1.2c-0.7-0.5-1.1-1.1-1.5-1.7
			c-0.3-0.7-0.5-1.5-0.5-2.5c0-1.1,0.2-2.1,0.6-3c0.4-0.9,1-1.6,1.8-2.2c0.8-0.6,1.7-1,2.7-1.3c1.1-0.3,2.2-0.5,3.5-0.5
			c1.6,0,3,0.2,4.3,0.7c1.3,0.5,2.4,1.2,3.5,2.1L324.7,169.1z"/>
	</g>
	<g>
		<path fill="#F18E3B" d="M52.9,212.2c-0.4-0.4-0.9-0.8-1.6-1.3c-0.7-0.5-1.5-0.9-2.4-1.3c-0.9-0.4-2-0.7-3.1-1
			c-1.1-0.3-2.3-0.4-3.6-0.4c-2.4,0-4.2,0.5-5.5,1.4c-1.2,0.9-1.9,2.3-1.9,4c0,0.9,0.2,1.7,0.6,2.3c0.4,0.6,1,1.1,1.8,1.6
			c0.8,0.4,1.8,0.8,3,1.2c1.2,0.3,2.6,0.7,4.2,1.1c1.9,0.5,3.6,1,5.2,1.6c1.6,0.5,2.9,1.2,4,2.1c1.1,0.8,2,1.8,2.6,3
			c0.6,1.2,0.9,2.7,0.9,4.5c0,2-0.4,3.8-1.1,5.2c-0.8,1.4-1.8,2.6-3.1,3.5c-1.3,0.9-2.8,1.6-4.5,2c-1.7,0.4-3.5,0.6-5.5,0.6
			c-3,0-5.8-0.4-8.6-1.3c-2.8-0.9-5.3-2.2-7.5-3.9l2.8-5.3c0.5,0.5,1.1,1,2,1.6c0.9,0.6,1.9,1.1,3.1,1.6c1.2,0.5,2.5,0.9,3.9,1.3
			c1.4,0.3,2.9,0.5,4.4,0.5c2.3,0,4.1-0.4,5.4-1.3c1.3-0.9,1.9-2.1,1.9-3.7c0-1-0.2-1.8-0.7-2.5c-0.5-0.7-1.2-1.2-2.1-1.7
			c-0.9-0.5-2-0.9-3.3-1.3c-1.3-0.4-2.8-0.8-4.5-1.2c-1.9-0.5-3.6-1-5.1-1.6c-1.4-0.6-2.6-1.2-3.6-2.1c-0.9-0.8-1.7-1.7-2.2-2.8
			c-0.5-1.1-0.7-2.4-0.7-3.9c0-1.9,0.4-3.6,1.1-5.1c0.7-1.5,1.7-2.7,3-3.7c1.3-1,2.7-1.8,4.5-2.3c1.7-0.5,3.6-0.8,5.5-0.8
			c2.7,0,5.2,0.4,7.4,1.3c2.2,0.8,4.1,1.9,5.8,3.1L52.9,212.2z"/>
		<path fill="#F18E3B" d="M78.2,242.2c-2.7,0-5.2-0.6-7.5-1.7c-2.2-1.1-4.2-2.6-5.8-4.4c-1.6-1.8-2.9-3.9-3.7-6.3
			c-0.9-2.4-1.3-4.8-1.3-7.3c0-2.6,0.5-5.1,1.4-7.4c0.9-2.4,2.2-4.5,3.9-6.3c1.6-1.8,3.6-3.3,5.9-4.3c2.3-1.1,4.7-1.6,7.4-1.6
			c2.7,0,5.2,0.6,7.5,1.7c2.2,1.1,4.2,2.7,5.8,4.5c1.6,1.9,2.8,4,3.7,6.3c0.9,2.4,1.3,4.8,1.3,7.2c0,2.6-0.5,5.1-1.4,7.4
			c-0.9,2.4-2.2,4.5-3.9,6.3c-1.6,1.8-3.6,3.2-5.8,4.3C83.3,241.6,80.8,242.2,78.2,242.2z M66.1,222.5c0,1.8,0.3,3.6,0.8,5.3
			c0.6,1.7,1.4,3.2,2.4,4.5c1.1,1.3,2.3,2.4,3.8,3.1c1.5,0.8,3.2,1.2,5,1.2c1.9,0,3.6-0.4,5.1-1.2c1.5-0.8,2.8-1.9,3.8-3.3
			c1-1.3,1.8-2.9,2.4-4.5c0.5-1.7,0.8-3.4,0.8-5.1c0-1.9-0.3-3.6-0.9-5.3c-0.6-1.7-1.4-3.2-2.5-4.5c-1.1-1.3-2.3-2.3-3.8-3.1
			c-1.5-0.8-3.2-1.2-5-1.2c-1.9,0-3.6,0.4-5.1,1.2c-1.5,0.8-2.8,1.9-3.8,3.2c-1,1.3-1.8,2.8-2.4,4.5C66.3,219,66.1,220.7,66.1,222.5
			z"/>
		<path fill="#F18E3B" d="M100.9,241.9V203h6.1v33.4h20.8v5.4H100.9z"/>
		<path fill="#F18E3B" d="M146.1,236.6c2,0,3.7-0.4,5.1-1.2c1.3-0.8,2.4-1.9,3.3-3.1c0.8-1.3,1.4-2.8,1.8-4.4
			c0.3-1.7,0.5-3.4,0.5-5.1V203h6.2v19.7c0,2.7-0.3,5.2-0.9,7.5c-0.6,2.4-1.6,4.4-3,6.2c-1.4,1.8-3.1,3.2-5.2,4.2
			c-2.1,1-4.7,1.5-7.7,1.5c-3.1,0-5.7-0.5-7.9-1.6c-2.1-1.1-3.9-2.5-5.2-4.3c-1.3-1.8-2.3-3.9-2.8-6.2c-0.6-2.3-0.9-4.8-0.9-7.3V203
			h6.1v19.7c0,1.8,0.2,3.5,0.5,5.2c0.3,1.7,0.9,3.1,1.8,4.4c0.8,1.3,1.9,2.3,3.3,3.1C142.4,236.2,144.1,236.6,146.1,236.6z"/>
		<path fill="#F18E3B" d="M199.9,208.5H187v33.4h-6.1v-33.4h-13V203h32V208.5z"/>
		<path fill="#F18E3B" d="M205.2,241.9v-38.8h6.1v38.8H205.2z"/>
		<path fill="#F18E3B" d="M235.1,242.2c-2.7,0-5.2-0.6-7.5-1.7c-2.2-1.1-4.2-2.6-5.8-4.4c-1.6-1.8-2.9-3.9-3.7-6.3
			c-0.9-2.4-1.3-4.8-1.3-7.3c0-2.6,0.5-5.1,1.4-7.4c0.9-2.4,2.2-4.5,3.9-6.3c1.6-1.8,3.6-3.3,5.9-4.3c2.3-1.1,4.7-1.6,7.4-1.6
			c2.7,0,5.2,0.6,7.5,1.7c2.2,1.1,4.2,2.7,5.8,4.5c1.6,1.9,2.8,4,3.7,6.3c0.9,2.4,1.3,4.8,1.3,7.2c0,2.6-0.5,5.1-1.4,7.4
			c-0.9,2.4-2.2,4.5-3.9,6.3c-1.6,1.8-3.6,3.2-5.8,4.3C240.2,241.6,237.8,242.2,235.1,242.2z M223,222.5c0,1.8,0.3,3.6,0.8,5.3
			c0.6,1.7,1.4,3.2,2.4,4.5c1.1,1.3,2.3,2.4,3.8,3.1c1.5,0.8,3.2,1.2,5,1.2c1.9,0,3.6-0.4,5.1-1.2c1.5-0.8,2.8-1.9,3.8-3.3
			c1-1.3,1.8-2.9,2.4-4.5c0.5-1.7,0.8-3.4,0.8-5.1c0-1.9-0.3-3.6-0.9-5.3c-0.6-1.7-1.4-3.2-2.5-4.5c-1.1-1.3-2.3-2.3-3.8-3.1
			c-1.5-0.8-3.2-1.2-5-1.2c-1.9,0-3.6,0.4-5.1,1.2c-1.5,0.8-2.8,1.9-3.8,3.2c-1,1.3-1.8,2.8-2.4,4.5C223.3,219,223,220.7,223,222.5z
			"/>
		<path fill="#F18E3B" d="M262.9,214.5v27.4h-6.1V203h4.8l22.2,28v-28h6.2v38.8h-5.1L262.9,214.5z"/>
		<path fill="#F18E3B" d="M321.9,212.2c-0.4-0.4-0.9-0.8-1.6-1.3c-0.7-0.5-1.5-0.9-2.4-1.3c-0.9-0.4-2-0.7-3.1-1
			c-1.1-0.3-2.3-0.4-3.6-0.4c-2.4,0-4.2,0.5-5.5,1.4c-1.2,0.9-1.9,2.3-1.9,4c0,0.9,0.2,1.7,0.6,2.3c0.4,0.6,1,1.1,1.8,1.6
			c0.8,0.4,1.8,0.8,3,1.2c1.2,0.3,2.6,0.7,4.2,1.1c1.9,0.5,3.6,1,5.2,1.6c1.6,0.5,2.9,1.2,4,2.1c1.1,0.8,2,1.8,2.6,3
			c0.6,1.2,0.9,2.7,0.9,4.5c0,2-0.4,3.8-1.1,5.2c-0.8,1.4-1.8,2.6-3.1,3.5c-1.3,0.9-2.8,1.6-4.5,2c-1.7,0.4-3.5,0.6-5.5,0.6
			c-3,0-5.8-0.4-8.6-1.3c-2.8-0.9-5.3-2.2-7.5-3.9l2.8-5.3c0.5,0.5,1.1,1,2,1.6c0.9,0.6,1.9,1.1,3.1,1.6c1.2,0.5,2.5,0.9,3.9,1.3
			c1.4,0.3,2.9,0.5,4.4,0.5c2.3,0,4.1-0.4,5.4-1.3c1.3-0.9,1.9-2.1,1.9-3.7c0-1-0.2-1.8-0.7-2.5c-0.5-0.7-1.2-1.2-2.1-1.7
			c-0.9-0.5-2-0.9-3.3-1.3c-1.3-0.4-2.8-0.8-4.5-1.2c-1.9-0.5-3.6-1-5.1-1.6c-1.4-0.6-2.6-1.2-3.6-2.1c-0.9-0.8-1.7-1.7-2.2-2.8
			c-0.5-1.1-0.7-2.4-0.7-3.9c0-1.9,0.4-3.6,1.1-5.1c0.7-1.5,1.7-2.7,3-3.7c1.3-1,2.7-1.8,4.5-2.3c1.7-0.5,3.6-0.8,5.5-0.8
			c2.7,0,5.2,0.4,7.4,1.3c2.2,0.8,4.1,1.9,5.8,3.1L321.9,212.2z"/>
	</g>
</g>
</svg>
