<?xml version="1.0" encoding="utf-8"?>
<!-- Generator: Adobe Illustrator 18.1.0, SVG Export Plug-In . SVG Version: 6.00 Build 0)  -->
<!DOCTYPE svg PUBLIC "-//W3C//DTD SVG 1.1//EN" "http://www.w3.org/Graphics/SVG/1.1/DTD/svg11.dtd">
<svg version="1.1" id="Layer_1" xmlns="http://www.w3.org/2000/svg" xmlns:xlink="http://www.w3.org/1999/xlink" x="0px" y="0px"
	 viewBox="0 0 130 130" enable-background="new 0 0 130 130" xml:space="preserve">
<g>
	<g>
		<polygon fill="#F79131" points="121,57 83.4,36.3 94.5,90 		"/>
	</g>
	<g>
		<polygon fill="#F79131" stroke="#F79131" stroke-width="1.0008" stroke-linecap="round" stroke-miterlimit="10" points="
			66.4,82.8 17.5,96.3 11,53.5 61.5,51.8 		"/>
	</g>
	<g>
		<circle fill="#434345" cx="61.3" cy="68.9" r="38.5"/>
		<path fill="#FFFFFF" d="M61.3,108.1c-5.2,0-10.3-1-15.1-3c-4.6-1.9-8.8-4.7-12.4-8.2c-7.4-7.3-11.6-17-11.7-27.4
			C22,64.2,23,59.1,24.9,54.2c1.9-4.7,4.7-8.9,8.2-12.6S40.8,35,45.5,33c4.8-2.1,9.9-3.2,15.2-3.3c5.5-0.1,10.8,0.9,15.7,3
			c4.6,1.9,8.8,4.7,12.4,8.2c7.4,7.3,11.6,17,11.7,27.4c0.1,5.3-0.9,10.5-2.8,15.3c-1.9,4.7-4.7,8.9-8.2,12.6
			c-3.5,3.7-7.7,6.6-12.3,8.6c-4.8,2.1-9.9,3.2-15.2,3.3C61.7,108.1,61.5,108.1,61.3,108.1z M61.3,31.1c-0.2,0-0.4,0-0.6,0
			c-5.1,0.1-10,1.2-14.6,3.2c-4.5,2-8.5,4.8-11.9,8.3c-3.4,3.5-6.1,7.6-7.9,12.1c-1.9,4.7-2.8,9.6-2.7,14.7
			c0.2,10,4.2,19.3,11.3,26.3c7.1,7,16.5,10.8,26.5,10.8c0.2,0,0.4,0,0.6,0c5.1-0.1,10-1.2,14.6-3.2c4.5-2,8.5-4.8,11.9-8.3
			c3.4-3.5,6.1-7.6,7.9-12.1c1.9-4.7,2.8-9.6,2.7-14.7C98.9,58.3,94.9,49,87.8,42C80.7,35,71.3,31.1,61.3,31.1z"/>
	</g>
	<g>
		<path fill="#434345" stroke="#FFFFFF" stroke-width="18" stroke-miterlimit="10" d="M28.5,79.8"/>
	</g>
	<g>
		<path fill="#434345" d="M28.8,57.2c4.7-13.2,17.2-22.7,32-22.9c19.1-0.3,34.8,14.9,35.1,34c0.3,19.1-14.9,34.8-34,35.1
			c-5,0.1-9.7-0.9-14-2.7"/>
		<path fill="#FFFFFF" d="M61.3,104.6c-4.8,0-9.5-0.9-13.8-2.8l0.9-2.1c4.3,1.8,8.8,2.7,13.5,2.6c4.5-0.1,8.9-1,13-2.8
			c4-1.7,7.5-4.2,10.5-7.3c3-3.1,5.4-6.7,7-10.7c1.7-4.1,2.5-8.5,2.4-13c-0.1-4.5-1-8.9-2.8-13c-1.7-4-4.2-7.5-7.3-10.5
			c-3.1-3-6.7-5.4-10.7-7c-4.1-1.7-8.5-2.5-13-2.4c-6.9,0.1-13.5,2.3-19.1,6.4c-5.5,4-9.5,9.4-11.8,15.8l-2.2-0.8
			c2.4-6.8,6.8-12.6,12.6-16.8c6-4.3,13-6.7,20.4-6.8c4.8-0.1,9.5,0.8,13.9,2.6c4.3,1.7,8.1,4.2,11.5,7.5c3.3,3.2,6,7,7.8,11.2
			c1.9,4.4,2.9,9,3,13.8c0.1,4.8-0.8,9.5-2.6,13.9c-1.7,4.3-4.2,8.1-7.5,11.5c-3.2,3.3-7,6-11.2,7.8c-4.4,1.9-9,2.9-13.8,3
			C61.7,104.6,61.5,104.6,61.3,104.6z"/>
	</g>
	<g>
		<path fill="#F79131" d="M37.7,47.1c-0.2,2.5,4.7,6.2,6.8,5.7c2.5-0.6,3.3-3.7,3.4-5.9c0.3-5.7-4-10.4-9.6-11.2
			c-9.2-1.2-16.4,7.4-16.1,16.2c0.2,4.9,2.8,10.2,7.4,12.3c-1.1-0.5-3.2,5.2-3.5,5.8c-2.4,5.6-4,11-2.6,17.1
			c1.2,5.4,4.4,10.4,9,13.5c6.3,4.2,15.7,3.8,21.8-0.4c7-4.8,8.8-17.4-0.4-21.2c-0.6-0.3-1.3-0.4-1.9-0.2c-0.5,0.2-0.8,0.5-1.1,0.9
			c-1.8,2.2-2.8,5.2-2.5,8.1c0,0.5,0.1,0.9,0.4,1.3c0.5,0.6,1.4,0.6,2.1,0.9c1.7,0.7,2.4,2.8,1.9,4.5c-0.5,1.7-2,3-3.7,3.7
			c-3.6,1.6-8,1-11.2-1.2c-7.4-5.1-7.3-14.5-5-22.3c0.8-2.7,1.9-5.3,3-7.8c1-2.3,1.8-4.3,3.3-6.3c-2.3-0.8-4.6-1.1-6.6-2.8
			c-3.7-3.1-4.1-8.3-3.3-12.8c0.6-3.2,3.5-7.8,7-6.5c2.9,1,4.3,5.4,1.8,7.7c-0.2,0.1-0.3,0.3-0.4,0.5C37.7,46.7,37.7,46.9,37.7,47.1
			z"/>
		<path fill="#F79131" d="M42.9,104.3c-4,0-7.9-1.1-10.9-3.1c-4.7-3.1-8.1-8.2-9.3-14c-1.5-6.6,0.4-12.4,2.7-17.6
			c0-0.1,0.1-0.2,0.1-0.3c1.1-2.7,1.9-4.3,2.6-5.1c-1.8-1.1-3.3-2.7-4.5-4.8c-1.3-2.3-2.1-5-2.2-7.6c-0.2-4.6,1.6-9.3,4.8-12.6
			c2.8-2.9,6.5-4.6,10.3-4.6c0.6,0,1.2,0,1.8,0.1c2.9,0.4,5.6,1.8,7.5,4c2,2.2,3,5.1,2.8,8c-0.1,1.7-0.7,5.9-4,6.6
			c-0.2,0-0.4,0.1-0.6,0.1h0c-1.8,0-4.3-1.6-5.7-3.1c-0.8-0.9-1.7-2.2-1.5-3.5c0-0.3,0.1-0.5,0.2-0.8c0.2-0.3,0.4-0.6,0.6-0.7
			c0.8-0.8,1.2-1.9,0.9-3.2c-0.3-1.4-1.3-2.7-2.4-3.1c-0.3-0.1-0.6-0.2-0.9-0.2c-2.6,0-4.6,3.6-5,6.1c-0.4,2.4-0.4,4.7,0,6.6
			c0.5,2.3,1.5,4.1,3.1,5.4c1.4,1.1,2.9,1.6,4.5,2c0.6,0.2,1.2,0.4,1.9,0.6l1.1,0.4L39.9,61c-1.2,1.6-2,3.3-2.8,5.2
			c-0.1,0.3-0.3,0.7-0.5,1c-1.1,2.4-2.2,5-3,7.7c-1.2,4.3-1.6,8.4-1.1,11.8c0.6,4.2,2.6,7.4,5.8,9.6c1.8,1.3,4.1,2,6.3,2
			c1.4,0,2.8-0.3,4.1-0.9c1.6-0.8,2.8-1.9,3.2-3.2c0.4-1.3-0.1-3-1.4-3.6c-0.2-0.1-0.4-0.1-0.6-0.2c-0.6-0.2-1.3-0.4-1.8-1
			c-0.4-0.5-0.5-1.2-0.6-1.7c-0.3-3.1,0.6-6.3,2.6-8.7c0.4-0.4,0.8-0.9,1.5-1.2c0.3-0.1,0.6-0.1,0.9-0.1c0.5,0,1,0.1,1.6,0.4
			c3.9,1.6,6.3,4.8,6.7,9c0.5,5.1-2,10.7-6.2,13.6C51.5,103.1,47.3,104.3,42.9,104.3z M29.6,64.9C29.5,65,28.7,65.7,27,70
			c-0.1,0.2-0.1,0.3-0.1,0.3c-2.1,5-3.9,10.5-2.6,16.6c1.2,5.3,4.3,10.1,8.6,13c2.7,1.8,6.3,2.8,10,2.8c4,0,7.9-1.1,11-3.2
			c3.7-2.5,6-7.5,5.5-12.1c-0.4-3.6-2.4-6.3-5.7-7.7c-0.6-0.2-1-0.3-1.3-0.2c-0.3,0.1-0.6,0.4-0.8,0.7c-1.7,2-2.5,4.8-2.3,7.5
			c0,0.3,0.1,0.7,0.2,0.8c0.2,0.2,0.5,0.3,1,0.4c0.2,0.1,0.5,0.1,0.8,0.2c1,0.4,1.8,1.2,2.2,2.3c0.4,1,0.4,2.2,0.1,3.2
			c-0.3,1-1.3,2.9-4.1,4.2c-1.5,0.7-3.1,1-4.7,1c-2.6,0-5.2-0.8-7.3-2.3c-3.6-2.5-5.7-6.1-6.4-10.7c-0.6-3.7-0.2-8,1.1-12.5
			c0.8-2.8,2-5.5,3.1-8c0.2-0.3,0.3-0.7,0.5-1c0.7-1.6,1.4-3.1,2.3-4.5c-0.2-0.1-0.5-0.1-0.7-0.2c-1.7-0.5-3.5-1-5.1-2.4
			c-1.9-1.6-3.1-3.7-3.6-6.3c-0.4-2.1-0.4-4.6,0-7.2c0.5-3,3-7.4,6.7-7.4c0.5,0,1,0.1,1.4,0.2c1.7,0.6,3.1,2.3,3.5,4.3
			c0.4,1.9-0.1,3.6-1.4,4.8c-0.1,0.1-0.2,0.2-0.2,0.2c0,0.1-0.1,0.2-0.1,0.3c-0.1,0.6,0.4,1.4,1.1,2.2c1.3,1.4,3.3,2.6,4.5,2.6
			c0,0,0,0,0,0c0.1,0,0.2,0,0.2,0c0.9-0.2,1.6-0.8,2-1.9c0.4-0.9,0.7-2,0.7-3.3c0.1-2.5-0.7-5-2.4-6.9c-1.7-1.9-4-3.1-6.5-3.4
			c-0.5-0.1-1.1-0.1-1.6-0.1c-3.4,0-6.6,1.4-9.2,4.1c-2.9,3-4.5,7.2-4.4,11.4c0.1,2.3,0.8,4.8,2,6.8c1.3,2.2,3,3.8,5,4.8l-0.7,1.5
			c0.1,0,0.1,0,0.2,0C29.6,65,29.6,64.9,29.6,64.9L29.6,64.9z"/>
	</g>
	<g>
		<path fill="#F79131" d="M79.1,57.8c-0.8-1.5-1.8-2.7-2.9-4c-2.3-2.6-2.8-6.3-0.8-9.4c-3.5-0.1-7.3,4.6-6.7,7.9
			c0.2,1.2,1,1.9,1.9,2.6c2,1.6,3.7,3.8,4.5,6.2c0.6,1.8,1.5,7.9-1.6,8c-2,0.1-4.1-3-4.4-4.7c-0.6-3.1,0.7-6.4,1.3-9.3
			c0,0.1-0.8,0.4-0.9,0.5c-1.9,1.1-4.4,2.6-5.1,4.8c-0.5,1.5,0,3.3,0.9,4.6c0.8,1.2-0.2,4.6-1.5,4.9c-2.8,0.7-5.2-17.2-4.2-17.5
			c0,0-3.1,0.8-3.1,0.8S56,56,56,56c0.1-0.4-2.5-1.5-2.8-1.7c-0.8-0.3-1.7-0.6-2.6-0.6c-4.4-0.2-6.6,4.2-7.3,7.9
			C42.5,65.8,43,71,46,74.2c1.5,1.6,3.6,2.4,5.7,2.2c2.7-0.3,6.7-2.1,5.9-5.5c0.6,2.3,2.8,3.1,5,2.9c2-0.2,4.3-2.2,4.2-4.3
			c0.1,1.5,2.1,2,3.3,2.2c1.5,0.4,3.2,0.4,4.7,0c2.5-0.6,5-2.3,5.9-4.9C81.7,64,80.5,60.4,79.1,57.8z M54.9,65.1
			c0,1.5,0.1,3.1-0.4,4.6c-1.1,3.1-4.6,1.7-5.7-0.6c-1.1-2.2-1.1-5-0.5-7.3c0.3-1.2,1.1-3.7,2.6-3.9c2-0.3,3,1.2,3.5,2.8
			c0.1,0.4,0.2,0.8,0.3,1.1C54.9,62.9,54.9,64,54.9,65.1z"/>
		<path fill="#F79131" d="M51,76.5c-1.9,0-3.8-0.8-5.1-2.2c-3.1-3.3-3.4-8.7-2.7-12.6c0.4-2.1,1.2-3.9,2.2-5.3
			c1.3-1.7,2.9-2.6,4.8-2.6c0.1,0,0.2,0,0.3,0c0.8,0,1.7,0.3,2.6,0.6c0,0,2.4,1,2.8,1.6c0-0.2,0.2-0.9,0.5-2.5l0,0l0,0
			c0.3-0.1,3.1-0.8,3.1-0.8l0,0.1c-0.3,0.1-0.3,2,0.1,5.6C60.5,64,62.1,70,63.6,70c0,0,0,0,0,0c0,0,0.1,0,0.1,0
			c0.5-0.1,1-0.8,1.4-1.7c0.5-1.5,0.4-2.7,0.1-3.2c-1-1.5-1.4-3.3-0.9-4.7c0.8-2.3,3.6-3.9,5.1-4.8c0,0,0.1,0,0.2-0.1
			c0.2-0.1,0.7-0.3,0.7-0.4l0.1,0v0l0,0c-0.2,0.7-0.3,1.5-0.5,2.2c-0.6,2.3-1.3,4.7-0.8,7.1c0.3,1.6,2.3,4.7,4.3,4.7h0
			c0,0,0.1,0,0.1,0c0.6,0,1.1-0.3,1.5-0.8c1.2-1.7,0.6-5.8,0.1-7.1c-0.8-2.3-2.4-4.5-4.5-6.2c-0.9-0.8-1.7-1.4-1.9-2.7
			c-0.3-1.6,0.4-3.6,1.9-5.3c1.4-1.7,3.2-2.7,4.7-2.7c0,0,0.1,0,0.1,0l0.1,0l0,0.1c-1.9,2.9-1.6,6.6,0.8,9.3c1.1,1.2,2.2,2.5,2.9,4
			c0.5,1,1.2,2.6,1.6,4.4c0.4,1.8,0.3,3.3-0.1,4.6c-0.8,2.3-3.1,4.2-5.9,4.9C74,71.9,73.2,72,72.4,72h0c-0.8,0-1.6-0.1-2.4-0.3
			l-0.1,0c-1.1-0.3-2.8-0.7-3.2-1.8c-0.1,0.9-0.5,1.7-1.3,2.5c-0.8,0.8-1.9,1.4-2.9,1.5c-0.3,0-0.5,0-0.8,0c-2,0-3.5-0.9-4.1-2.4
			c0.1,0.8-0.1,1.6-0.6,2.3c-1.1,1.6-3.5,2.5-5.4,2.7C51.5,76.4,51.2,76.5,51,76.5z M50.3,53.7c-1.9,0-3.5,0.9-4.7,2.6
			c-1,1.4-1.8,3.2-2.2,5.3c-0.7,3.9-0.4,9.3,2.7,12.6c1.3,1.4,3.1,2.2,5,2.2c0.2,0,0.4,0,0.7,0c1.8-0.2,4.2-1.1,5.3-2.6
			c0.6-0.8,0.8-1.8,0.5-2.8l0.1,0c0.4,1.8,2,2.9,4.2,2.9c0.2,0,0.5,0,0.8,0c2-0.2,4.2-2.3,4.1-4.3l0,0l0,0l0.1,0
			c0.1,1.4,2,1.9,3.2,2.2l0.1,0c1.5,0.4,3.2,0.4,4.7,0c2.8-0.7,5.1-2.6,5.9-4.9c0.4-1.1,1-4.1-1.5-9c-0.8-1.5-1.9-2.8-2.9-3.9
			c-2.4-2.7-2.7-6.4-0.8-9.3c-1.6,0-3.3,1-4.7,2.6c-1.4,1.7-2.1,3.7-1.8,5.2c0.2,1.2,0.9,1.9,1.9,2.6c2.1,1.7,3.7,3.9,4.5,6.2
			c0.5,1.4,1.1,5.4-0.1,7.2c-0.4,0.5-0.9,0.8-1.6,0.9c0,0-0.1,0-0.1,0h0c-0.9,0-1.9-0.6-2.8-1.7c-0.8-0.9-1.4-2.1-1.6-3
			c-0.5-2.3,0.2-4.8,0.8-7.1c0.2-0.7,0.4-1.4,0.5-2.1c-0.1,0.1-0.3,0.2-0.6,0.3c-0.1,0-0.2,0.1-0.2,0.1c-1.5,0.9-4.3,2.5-5.1,4.7
			c-0.5,1.4-0.1,3.1,0.9,4.6c0.5,0.7,0.3,2.2-0.1,3.2c-0.4,1-0.9,1.6-1.4,1.8c-0.1,0-0.1,0-0.2,0c0,0,0,0,0,0
			c-0.8,0-1.6-1.4-2.4-4.1c-0.6-2.1-1.2-5-1.6-7.9c-0.3-2.3-0.5-4.9-0.2-5.5c-0.6,0.2-2.7,0.7-2.9,0.8C56.5,53.7,56,56,56,56
			c0,0,0,0,0,0l-0.1,0c0,0,0,0,0,0h0c0.1-0.3-2.1-1.3-2.8-1.6c-0.9-0.4-1.7-0.6-2.5-0.6C50.5,53.7,50.4,53.7,50.3,53.7z M52.3,71.5
			c-1.3,0-2.8-1-3.5-2.4c-1-2-1.2-4.7-0.5-7.3c0.7-2.4,1.5-3.7,2.6-3.9c0.2,0,0.3,0,0.5,0c1.5,0,2.5,1,3.1,2.9
			c0.1,0.3,0.2,0.7,0.3,1.1C54.9,62.9,55,64,55,65l0,0.1c0,1.5,0.1,3.1-0.4,4.5C54.2,70.8,53.4,71.5,52.3,71.5z M51.4,57.9
			c-0.2,0-0.3,0-0.5,0c-1.1,0.1-1.9,1.4-2.6,3.8c-0.5,2-0.7,4.9,0.5,7.3c0.7,1.3,2.2,2.4,3.4,2.4c1,0,1.8-0.6,2.2-1.8
			c0.5-1.4,0.4-3,0.4-4.5l0-0.1c0-1-0.1-2.1-0.2-3.2c-0.1-0.4-0.1-0.8-0.3-1.1C53.9,58.8,52.8,57.9,51.4,57.9z"/>
	</g>
	<g>
		<g>
			<path fill="#F79131" d="M57.6,44.7c5.4-0.6,10.7-1.8,15.9-3.2c4.6-1.2,9.2-2.7,13.8-3.7c0.3-0.1,0.6-0.1,1-0.2
				c0.8-0.2-1.4,0.3-0.6,0.1c0.2,0,0.3-0.1,0.5-0.1c0.7-0.1,1.3-0.3,2-0.4c1.4-0.3,2.8-0.5,4.3-0.6c1.2-0.1,2.5-0.6,3.6-1.2
				c0.5-0.3,1.7-1,1.9-1.7c0.4-1.9-3-1.5-3.9-1.4c-5.1,0.6-10.2,1.8-15.2,3.1c-4.7,1.3-9.5,2.7-14.3,3.8c-0.1,0-0.3,0.1-0.4,0.1
				c-0.9,0.2,1.3-0.3,0.5-0.1c-0.3,0.1-0.7,0.1-1,0.2c-0.7,0.1-1.4,0.3-2.1,0.4c-1.4,0.2-2.9,0.5-4.3,0.6c-1.2,0.1-2.6,0.6-3.6,1.2
				c-0.5,0.3-1.7,1-1.9,1.7C53.3,45.1,56.7,44.8,57.6,44.7L57.6,44.7z"/>
		</g>
	</g>
	<g>
		<g>
			<path fill="#F79131" d="M77.3,26.5c1,6.1,2,12.2,2.4,18.3c0-0.2,0-0.4,0-0.6c0.2,2,0.2,4.1,0.3,6.1c0,2,0,4.1,0.2,6.1
				c0.3,3.3,1.3,6.6,3.5,9.2c1.1,1.3,2.5,2.4,4,3.1c1.7,0.8,3.7,0.9,5.5,0.5c3.6-0.9,6-4,6.6-7.5c0.5-3.1-0.3-6.7-2.3-9.1
				c-0.9-1.1-2.6-1.1-3.8-0.5c-0.9,0.5-2.2,1.8-1.3,3c0.4,0.5,0.8,1.1,1.1,1.7c-0.1-0.2-0.2-0.3-0.2-0.5c0.6,1.2,0.9,2.6,1,4
				c0-0.2,0-0.4,0-0.6c0.1,1.1,0,2.2-0.3,3.3c0.1-0.2,0.1-0.4,0.2-0.6c-0.1,0.5-0.3,0.9-0.5,1.3c-0.1,0.2-0.2,0.4-0.3,0.6
				c0.4-0.7,0,0-0.1,0.1c-0.1,0.1-0.2,0.2-0.3,0.3c-0.2,0.2-0.5,0.3,0.2-0.2c-0.2,0.1-0.4,0.3-0.6,0.5c-0.1,0.1-0.1,0.1-0.2,0.1
				c0.4-0.2,0.5-0.3,0.3-0.2c-0.1,0.1-0.2,0.1-0.3,0.2c-0.3,0.1-0.7,0.1,0.2-0.1c-0.1,0-0.2,0.1-0.3,0.1c-0.3,0.1-0.6,0,0.3,0
				c-0.1,0-0.2,0-0.3,0c-0.1,0-0.2,0-0.3,0c0.9-0.1,0.5,0,0.2,0c-0.1,0-0.3,0-0.4-0.1c-0.4-0.1,0.6,0.2,0.2,0.1
				c-0.2-0.1-0.4-0.1-0.6-0.2c-0.1,0-0.2-0.1-0.3-0.1c-0.4-0.2,0.5,0.3,0.1,0c-0.2-0.1-0.4-0.3-0.7-0.4c-0.4-0.3-0.8-0.7-1.2-1
				c0.1,0.1,0.3,0.3,0.4,0.4c-1.1-1-2-2.3-2.6-3.6c0.1,0.2,0.2,0.3,0.2,0.5c-0.9-2-1.3-4.2-1.5-6.3c0,0.2,0,0.4,0,0.6
				c-0.1-1.8-0.1-3.6-0.2-5.5c0-2.1-0.1-4.2-0.3-6.2c-0.3-3.9-0.8-7.9-1.4-11.8c-0.3-2.2-0.7-4.4-1-6.6c-0.1-0.6-0.7-1-1.2-1.2
				c-0.6-0.2-1.5-0.2-2.1-0.1C78.3,24.1,77,25.1,77.3,26.5L77.3,26.5z"/>
		</g>
	</g>
	<g>
		<g>
			<path fill="#F79131" d="M57.6,70.5c2.3-5.8-1.5-12.6,0.3-18.6c0.1,5.2,0.2,10.3,1.1,15.4c0.2,1.2,0.5,2.5,1.2,3.6
				c0.7,1.1,1.1,2,2.3,2"/>
		</g>
		<g>
			<g>
				<path fill="#F79131" d="M59.9,70.2c1.9-4.7-0.1-9.8-0.2-14.6c0-1.4,0.1-2.7,0.5-4c-1.6,0.3-3.1,0.7-4.7,1c0,3.3,0.1,6.6,0.4,9.9
					c0.1,1.6,0.3,3.2,0.6,4.8c0.2,1.4,0.5,2.9,1.3,4.2c0.3,0.6,0.7,1.2,1.1,1.7c0.5,0.6,1.3,0.8,2.1,0.8c1.1,0,2.4-0.2,3.3-0.9
					c0.2-0.2,0.6-0.5,0.5-0.8c-0.1-0.3-0.6-0.4-0.9-0.4c-0.1,0-0.1,0-0.2,0c-0.2,0,0.1,0,0.1,0c0,0-0.2-0.1-0.2-0.1
					c0,0,0.2,0.1,0.1,0c-0.2-0.1-0.4-0.3-0.5-0.5C63,71,62.7,70.5,62.5,70c-0.7-1.2-1-2.7-1.2-4.1c-0.5-3.1-0.8-6.2-0.9-9.4
					c-0.1-1.8-0.1-3.6-0.1-5.3c0-0.3-0.7-0.4-0.9-0.4c-0.5,0-1,0-1.4,0.1c-0.5,0.1-1,0.3-1.5,0.5c-0.3,0.2-0.8,0.4-0.9,0.8
					c-1.5,4.9,0.5,9.8,0.4,14.7c0,1.3-0.3,2.7-0.8,3.9c-0.3,0.9,1.6,0.7,1.9,0.6c0.6-0.1,1.2-0.3,1.8-0.6
					C59.3,70.8,59.8,70.5,59.9,70.2L59.9,70.2z"/>
			</g>
		</g>
	</g>
	<g>
		<path fill="#FFFFFF" d="M37.5,45c-0.2,2.5,4.7,6.2,6.8,5.7c2.5-0.6,3.3-3.7,3.4-5.9c0.3-5.7-4-10.4-9.6-11.2
			c-9.2-1.2-16.4,7.4-16.1,16.2c0.2,4.9,2.8,10.2,7.4,12.3c-1.1-0.5-3.2,5.2-3.5,5.8c-2.4,5.6-4,11-2.6,17.1
			c1.2,5.4,4.4,10.4,9,13.5c6.3,4.2,15.7,3.8,21.8-0.4c7-4.8,8.8-17.4-0.4-21.2c-0.6-0.3-1.3-0.4-1.9-0.2c-0.5,0.2-0.8,0.5-1.1,0.9
			c-1.8,2.2-2.8,5.2-2.5,8.1c0,0.5,0.1,0.9,0.4,1.3c0.5,0.6,1.4,0.6,2.1,0.9c1.7,0.7,2.4,2.8,1.9,4.5c-0.5,1.7-2,3-3.7,3.7
			c-3.6,1.6-8,1-11.2-1.2c-7.4-5.1-7.3-14.5-5-22.3c0.8-2.7,1.9-5.3,3-7.8c1-2.3,1.8-4.3,3.3-6.3c-2.3-0.8-4.6-1.1-6.6-2.8
			c-3.7-3.1-4.1-8.3-3.3-12.8c0.6-3.2,3.5-7.8,7-6.5c2.9,1,4.3,5.4,1.8,7.7c-0.2,0.1-0.3,0.3-0.4,0.5C37.6,44.7,37.5,44.9,37.5,45z"
			/>
		<path fill="#FFFFFF" d="M42.8,101.8c-3.9,0-7.7-1.1-10.6-3c-4.6-3.1-7.9-8-9.1-13.7c-1.4-6.5,0.4-12.2,2.6-17.3
			c0-0.1,0.1-0.2,0.1-0.3c1.2-3,2.1-4.7,2.9-5.4c-1.9-1.1-3.6-2.7-4.8-4.9c-1.3-2.2-2-4.8-2.1-7.3c-0.2-4.4,1.6-9,4.7-12.2
			c2.7-2.8,6.3-4.4,10-4.4c0.6,0,1.2,0,1.8,0.1c2.8,0.4,5.4,1.7,7.2,3.8c1.9,2.1,2.8,4.9,2.7,7.7c-0.1,1.6-0.6,5.5-3.7,6.2
			c-0.2,0-0.3,0.1-0.5,0.1c0,0,0,0,0,0c-1.5,0-3.8-1.3-5.3-3c-0.7-0.8-1.5-2-1.4-3.1c0-0.2,0.1-0.4,0.2-0.7c0.1-0.3,0.3-0.5,0.5-0.6
			c1-0.9,1.4-2.2,1-3.7c-0.3-1.6-1.4-3-2.8-3.4c-0.4-0.1-0.7-0.2-1.1-0.2c-0.9,0-2.2,0.4-3.6,2.2c-0.9,1.2-1.7,2.8-1.9,4.3
			c-0.4,2.5-0.5,4.8,0,6.8c0.5,2.4,1.6,4.3,3.2,5.7c1.4,1.2,3,1.7,4.7,2.1c0.6,0.2,1.2,0.3,1.8,0.6l0.4,0.2l-0.3,0.4
			c-1.3,1.7-2,3.4-2.8,5.3c-0.1,0.3-0.3,0.7-0.5,1c-1.1,2.4-2.2,5.1-3,7.8c-1.3,4.3-1.6,8.5-1.1,12c0.7,4.3,2.7,7.6,6,9.9
			c1.9,1.3,4.3,2.1,6.6,2.1c1.5,0,2.9-0.3,4.3-0.9c1.8-0.8,3-2.1,3.5-3.5c0.6-1.8-0.4-3.6-1.7-4.1c-0.2-0.1-0.4-0.1-0.6-0.2
			c-0.6-0.2-1.1-0.3-1.6-0.8c-0.4-0.4-0.4-1-0.5-1.5c-0.3-3,0.6-6,2.5-8.3c0.3-0.4,0.7-0.8,1.3-1c0.2-0.1,0.5-0.1,0.7-0.1
			c0.4,0,0.9,0.1,1.5,0.3c3.7,1.5,6,4.6,6.4,8.6c0.5,5-1.9,10.4-6,13.1C51.2,100.6,47,101.8,42.8,101.8z M36.4,33.9
			c-3.5,0-6.9,1.5-9.5,4.2c-3,3.1-4.6,7.5-4.5,11.7c0.1,2.4,0.8,4.9,2,7c1.3,2.3,3.1,4,5.2,4.9l-0.3,0.6c0,0-0.4,0-1.5,2.1
			c-0.6,1.2-1.2,2.6-1.4,3.2c-0.1,0.1-0.1,0.3-0.1,0.3c-2.2,5.1-4,10.6-2.6,16.9c1.2,5.5,4.4,10.3,8.8,13.2
			c2.8,1.9,6.4,2.9,10.2,2.9c4.1,0,8.1-1.2,11.2-3.3c3.8-2.6,6.2-7.8,5.7-12.5c-0.4-3.8-2.5-6.6-6-8.1c-0.5-0.2-0.9-0.3-1.2-0.3
			c-0.2,0-0.3,0-0.5,0.1c-0.4,0.1-0.7,0.5-1,0.8c-1.8,2.1-2.7,5.1-2.4,7.8c0,0.4,0.1,0.8,0.3,1.1c0.3,0.3,0.7,0.5,1.2,0.6
			c0.2,0.1,0.5,0.1,0.7,0.2c0.9,0.4,1.6,1.1,1.9,2.1c0.4,0.9,0.4,2,0.1,2.9c-0.5,1.6-1.9,3.1-3.8,3.9c-1.4,0.6-2.9,1-4.5,1
			c-2.5,0-5-0.8-7-2.2c-3.5-2.4-5.6-5.9-6.3-10.4c-0.6-3.6-0.2-7.9,1.1-12.3c0.8-2.8,1.9-5.4,3-7.9c0.2-0.3,0.3-0.7,0.5-1
			c0.8-1.7,1.5-3.4,2.6-5c-0.5-0.1-0.9-0.3-1.4-0.4c-1.7-0.5-3.4-1-4.9-2.3c-1.8-1.5-3-3.5-3.5-6.1c-0.4-2.1-0.4-4.5,0-7
			c0.5-2.9,3-7,6.2-7c0.4,0,0.9,0.1,1.3,0.2c1.6,0.5,2.8,2.1,3.2,3.9c0.4,1.7-0.1,3.3-1.3,4.3c-0.2,0.1-0.2,0.3-0.3,0.4
			c-0.1,0.1-0.1,0.3-0.1,0.4c-0.1,0.7,0.4,1.7,1.2,2.6c1.4,1.5,3.5,2.8,4.8,2.8h0c0.1,0,0.2,0,0.3,0c0.9-0.2,2.9-1.1,3.1-5.6
			c0.1-2.6-0.8-5.2-2.5-7.2c-1.7-2-4.1-3.2-6.8-3.6C37.5,34,37,33.9,36.4,33.9z"/>
	</g>
	<g>
		<path fill="#FFFFFF" d="M78.6,55.8c-0.8-1.5-1.8-2.7-2.9-4c-2.3-2.6-2.8-6.3-0.8-9.4c-3.5-0.1-7.3,4.6-6.7,7.9
			c0.2,1.2,1,1.9,1.9,2.6c2,1.6,3.7,3.8,4.5,6.2c0.6,1.8,1.5,7.9-1.6,8c-2,0.1-4.1-3-4.4-4.7c-0.6-3.1,0.7-6.4,1.3-9.3
			c0,0.1-0.8,0.4-0.9,0.5c-1.9,1.1-4.4,2.6-5.1,4.8c-0.5,1.5,0,3.3,0.9,4.6c0.8,1.2-0.2,4.6-1.5,4.9c-2.2,0.6-4.1-10.6-4-12.3
			c0-0.6-0.6-5.1-0.2-5.2L56,51.4c0,0-0.5,2.7-0.5,2.7c0.1-0.4-2.5-1.5-2.8-1.7c-0.8-0.3-1.7-0.6-2.6-0.6c-4.4-0.2-6.6,4.2-7.3,7.9
			c-0.8,4.1-0.3,9.4,2.7,12.6c1.5,1.6,3.6,2.4,5.7,2.2c2.7-0.3,6.7-2.1,5.9-5.5c0.6,2.3,2.8,3.1,5,2.9c2-0.2,4.3-2.2,4.2-4.3
			c0.1,1.5,2.1,2,3.3,2.2c1.5,0.4,3.2,0.4,4.7,0c2.5-0.6,5-2.3,5.9-4.9C81.1,62.1,80,58.4,78.6,55.8z M54.4,63.1
			c0,1.5,0.1,3.1-0.4,4.6c-1.1,3.1-4.6,1.7-5.7-0.6c-1.1-2.2-1.1-5-0.5-7.3c0.3-1.2,1.1-3.7,2.6-3.9c2-0.3,3,1.2,3.5,2.8
			c0.1,0.4,0.2,0.8,0.3,1.1C54.4,60.9,54.4,62,54.4,63.1z"/>
	</g>
	<g>
		<g>
			<path fill="#FFFFFF" d="M56.8,42.9c5.4-0.6,10.8-1.8,16-3.2C77.6,38.4,82.3,37,87,36c0.1,0,0.2,0,0.3-0.1c0.5-0.1,0.2,0-0.8,0.2
				c0.1,0,0.2,0,0.3-0.1c0.3-0.1,0.6-0.1,1-0.2c0.6-0.1,1.3-0.3,1.9-0.4c1.3-0.2,2.6-0.5,3.8-0.7c1.2-0.2,2.5-0.6,3.6-1.2
				c0.5-0.3,1.7-1,1.9-1.7c0.4-1.9-3-1.6-3.9-1.4c-5.1,0.8-10.1,1.9-15.1,3.1c-4.8,1.2-9.6,2.7-14.4,3.8c-0.1,0-0.2,0-0.3,0.1
				c-0.1,0-0.2,0-0.3,0.1c1-0.2,1.2-0.3,0.8-0.2c-0.3,0.1-0.7,0.1-1,0.2c-0.7,0.1-1.4,0.3-2.1,0.4c-1.4,0.2-2.9,0.5-4.3,0.6
				c-1.2,0.1-2.6,0.6-3.6,1.2c-0.5,0.3-1.7,1-1.9,1.7C52.5,43.4,55.9,43,56.8,42.9L56.8,42.9z"/>
		</g>
	</g>
	<g>
		<g>
			<path fill="#FFFFFF" d="M76.2,24.7c1,6.1,2,12.2,2.4,18.3c0-0.2,0-0.4,0-0.6c0.2,2,0.2,4.1,0.3,6.1c0,2,0,4.1,0.2,6.1
				c0.3,3.3,1.3,6.6,3.5,9.2c1.1,1.3,2.5,2.4,4,3.1c1.7,0.8,3.7,0.9,5.5,0.5c3.5-0.9,6-4,6.4-7.5c0.3-3.1-0.6-6.6-2.6-9.1
				c-0.9-1.1-2.6-1.1-3.8-0.5c-0.9,0.5-2.2,1.8-1.3,3c0.5,0.6,0.9,1.2,1.2,1.9c-0.1-0.2-0.2-0.3-0.2-0.5c0.6,1.3,1,2.8,1.2,4.2
				c0-0.2,0-0.4,0-0.6c0.1,1.1,0,2.1-0.3,3.2c0.1-0.2,0.1-0.4,0.2-0.6c-0.1,0.4-0.3,0.9-0.5,1.3c-0.1,0.1-0.1,0.2-0.2,0.3
				c-0.2,0.3,0.3-0.5,0.1-0.2c-0.1,0.2-0.3,0.3-0.4,0.5c-0.1,0.1-0.2,0.2-0.2,0.2c0.5-0.6,0.3-0.3,0.2-0.2c-0.2,0.2-0.4,0.3-0.6,0.5
				c0.8-0.5,0.1-0.1-0.2,0c-0.4,0.2,0.7-0.2,0.3-0.1c-0.1,0-0.3,0.1-0.4,0.1c-0.3,0.1,0.9-0.1,0.3-0.1c-0.1,0-0.2,0-0.3,0
				c-0.5,0,0.6,0.1,0.3,0c-0.1,0-0.3,0-0.4,0c0,0-0.3-0.1-0.3-0.1c0,0,0.8,0.2,0.2,0c-0.2-0.1-0.4-0.1-0.6-0.2
				c-0.1,0-0.2-0.1-0.3-0.1c0.6,0.2,0.3,0.2,0.1,0.1c-0.2-0.1-0.4-0.3-0.6-0.4c-0.4-0.3-0.8-0.7-1.2-1c0.1,0.1,0.3,0.3,0.4,0.4
				c-1.1-1-2-2.3-2.6-3.6c0.1,0.2,0.2,0.3,0.2,0.5c-0.9-2-1.3-4.2-1.5-6.3c0,0.2,0,0.4,0,0.6c-0.1-1.8-0.1-3.6-0.2-5.5
				c0-2.1-0.1-4.2-0.3-6.2c-0.3-3.9-0.8-7.9-1.4-11.8c-0.3-2.2-0.7-4.4-1-6.6c-0.1-0.6-0.7-1-1.2-1.2c-0.6-0.2-1.5-0.2-2.1-0.1
				C77.3,22.4,76,23.3,76.2,24.7L76.2,24.7z"/>
		</g>
	</g>
	<g>
		<g>
			<path fill="#FFFFFF" d="M59.2,68.2c1.9-4.7-0.1-9.8-0.2-14.6c0-1.4,0.1-2.7,0.5-4c-1.6,0.3-3.1,0.7-4.7,1c0,3.3,0.1,6.6,0.4,9.9
				c0.1,1.6,0.3,3.2,0.6,4.8c0.2,1.4,0.5,2.9,1.3,4.2c0.3,0.6,0.7,1.2,1.1,1.7c0.5,0.6,1.3,0.8,2.1,0.8c1.1,0,2.4-0.2,3.3-0.9
				c0.2-0.2,0.6-0.5,0.5-0.8c-0.1-0.3-0.6-0.4-0.9-0.4c-0.1,0-0.1,0-0.2,0c-0.2,0,0.1,0,0.1,0c0,0-0.2-0.1-0.2-0.1
				c0,0,0.2,0.1,0.1,0c-0.2-0.1-0.4-0.3-0.5-0.5c-0.3-0.4-0.6-0.9-0.8-1.3c-0.7-1.2-1-2.7-1.2-4.1c-0.5-3.1-0.8-6.2-0.9-9.4
				c-0.1-1.8-0.1-3.6-0.1-5.3c0-0.3-0.7-0.4-0.9-0.4c-0.5,0-1,0-1.4,0.1c-0.5,0.1-1,0.3-1.5,0.5c-0.3,0.2-0.8,0.4-0.9,0.8
				c-1.5,4.9,0.5,9.8,0.4,14.7c0,1.3-0.3,2.7-0.8,3.9c-0.3,0.9,1.6,0.7,1.9,0.6c0.6-0.1,1.2-0.3,1.8-0.6
				C58.6,68.8,59.1,68.6,59.2,68.2L59.2,68.2z"/>
		</g>
	</g>
	<g>
		<path fill="#FFFFFF" d="M64.3,80.3c0.3,1.6-1.8,2.3-2.7,1.2c-1.2-1.4,0-3.4,1.1-4.4c1.5-1.4,3.5-1.9,5.5-1.6c3,0.5,5.3,3.1,5,6.7
			c-0.1,0.9-0.5,1.5-1.3,1.9c1-0.4,2.8,1.4,3.3,2.1c1.7,2.6,2.1,6.2,0.7,8.9c-1.2,2.4-3.7,3.7-6.3,3.9c-3.7,0.2-6.7-2.2-6-6.2
			c0.1-0.7,0.4-1.4,1-1.4c0.4,0,0.7,0.3,1,0.6c0.4,0.3,0.7,0.7,0.9,1.2c0.2,0.5,0.3,1,0,1.4c-0.2,0.3-0.6,0.5-0.7,0.9
			c-0.1,0.4,0.2,0.8,0.5,1.1c2.6,2.5,6.2,0.2,7.4-2.4c1.4-3.1-0.4-6.6-3.2-8.6c-0.9-0.6-1.5-0.9-2.6-0.7c2-0.3,3.6-2.7,3-4.8
			c-0.4-1.4-1.4-2.5-2.8-2.9c-1-0.3-2.3-0.2-3.2,0.3C63.5,78.1,64.1,78.9,64.3,80.3z"/>
		<path fill="#FFFFFF" d="M69,99.1c-1.9,0-3.6-0.7-4.6-1.9c-1-1.2-1.4-2.7-1.1-4.5c0.2-1.4,1-1.6,1.2-1.6h0c0.4,0,0.8,0.3,1.1,0.6
			c0.3,0.3,0.7,0.7,1,1.2c0.3,0.6,0.3,1.2,0,1.6c-0.1,0.1-0.2,0.2-0.3,0.4c-0.2,0.2-0.3,0.3-0.3,0.5c-0.1,0.4,0.3,0.8,0.4,1
			c0.7,0.7,1.5,1,2.4,1c1.5,0,3.7-1.2,4.7-3.4c1.1-2.3,0.3-6-3.1-8.4c-0.6-0.5-1.2-0.7-2-0.7c-0.2,0-0.3,0-0.5,0c0,0,0,0,0,0l0,0
			l0-0.3c0.9-0.1,1.7-0.7,2.3-1.6c0.6-0.9,0.9-2.1,0.6-3c-0.4-1.4-1.3-2.5-2.7-2.8c-0.4-0.1-0.8-0.1-1.2-0.1c-0.7,0-1.4,0.1-2,0.4
			c-1.1,0.5-0.9,1.1-0.7,2c0.1,0.2,0.1,0.4,0.2,0.7c0.1,0.5,0,0.9-0.3,1.3c-0.3,0.4-0.9,0.6-1.4,0.6c-0.5,0-1-0.2-1.3-0.6
			c-1.2-1.5,0-3.5,1.1-4.6c1.2-1.1,2.7-1.7,4.4-1.7c0.4,0,0.8,0,1.2,0.1c1.5,0.3,2.9,1,3.8,2.2c1,1.3,1.5,2.9,1.3,4.6
			c-0.1,0.7-0.4,1.3-0.8,1.7c1.1,0.2,2.4,1.6,2.8,2.2c1.8,2.7,2.1,6.4,0.7,9.1c-1.2,2.3-3.6,3.8-6.5,3.9
			C69.4,99.1,69.2,99.1,69,99.1z M64.6,91.5c-0.5,0-0.8,0.7-0.9,1.3c-0.3,1.7,0.1,3.1,1,4.2c1,1.2,2.6,1.8,4.4,1.8
			c0.2,0,0.3,0,0.5,0c2.7-0.2,5.1-1.6,6.2-3.8c1.4-2.6,1.1-6.1-0.6-8.8c-0.4-0.6-1.9-2.1-2.9-2.1c-0.1,0-0.2,0-0.3,0l0,0l-0.1-0.3
			c0,0,0,0,0,0c0.7-0.3,1.1-0.9,1.2-1.7c0.1-1.7-0.3-3.2-1.2-4.4c-0.9-1.1-2.2-1.9-3.7-2.1c-0.4-0.1-0.8-0.1-1.1-0.1
			c-1.6,0-3.1,0.6-4.2,1.6c-1,1-2.1,2.9-1,4.2c0.2,0.3,0.6,0.5,1,0.5c0.5,0,0.9-0.2,1.2-0.5c0.2-0.3,0.3-0.6,0.2-1
			c-0.1-0.2-0.1-0.4-0.2-0.7c-0.3-1-0.5-1.7,0.8-2.4c0.6-0.3,1.3-0.4,2.1-0.4c0.4,0,0.8,0,1.2,0.1c1.4,0.3,2.5,1.5,2.9,3
			c0.3,1,0,2.3-0.7,3.3c-0.4,0.6-0.9,1.1-1.5,1.4c0.6,0.1,1.2,0.4,1.7,0.8c1.4,1,2.6,2.4,3.2,3.9c0.7,1.7,0.7,3.4,0,4.8
			c-0.8,1.7-2.8,3.6-5,3.6c-1,0-1.9-0.4-2.6-1.1c-0.4-0.4-0.6-0.9-0.5-1.2c0.1-0.3,0.3-0.4,0.4-0.6c0.1-0.1,0.2-0.2,0.3-0.3
			c0.2-0.3,0.2-0.8,0-1.3c-0.2-0.4-0.6-0.8-0.9-1.1C65.2,91.7,64.9,91.5,64.6,91.5z"/>
	</g>
	<g>
		<g>
			<path fill="#FFFFFF" d="M70.9,82.2c-0.6,1.1-1.7,1.7-2.8,2.2c-0.1,0-1,0.5-0.5,0.6c1,0.2,2,0.4,2.9,0.8c0.9,0.4,1.7,1.1,2.2,1.9
				c0.4,0.5,2.2-0.3,2-0.5c-0.6-0.9-1.4-1.6-2.4-2c-1-0.4-2.1-0.6-3.1-0.9c-0.2,0.2-0.3,0.4-0.5,0.6c1.6-0.6,3.2-1.5,4.1-3
				c0.2-0.3-0.7-0.2-0.8-0.2C71.7,81.7,71.1,81.9,70.9,82.2L70.9,82.2z"/>
		</g>
	</g>
	<g>
		<g>
			<path fill="#FFFFFF" d="M65.6,79.9c-0.1,2.6,0.3,5.1,0.8,7.6c0.5,2.5,1.2,5,1.3,7.6c0,0.5,0.5,0.6,1,0.6c0.4,0,1.2-0.3,1.2-0.8
				c-0.1-2.6-0.7-5.1-1.2-7.7c-0.5-2.5-1-5-0.9-7.6C67.9,78.7,65.7,79.1,65.6,79.9L65.6,79.9z"/>
		</g>
	</g>
	<g>
		<path fill="#FFFFFF" d="M80.4,76c0,0-0.2,1.2-0.2,1.2c-0.1-2.2-3.8-0.6-4.7,0.3c-1.7,1.7-1.4,4.4-0.6,6.4c1,2.2,4.2,3,5.8,0.7
			c0.3-0.4,0.8-0.3,0.8-0.3C84.6,85.5,80.4,76,80.4,76z M78.3,83.9c-1.8-0.6-2.3-5.4-0.2-5.8c0.8-0.1,1.2,0.4,1.5,1.2
			C79.9,80.3,80.5,84.6,78.3,83.9z"/>
		<path fill="#FFFFFF" d="M78.1,86c-1.4,0-2.7-0.9-3.3-2.1c-0.9-2-1.2-4.7,0.6-6.4c0.6-0.6,2.2-1.4,3.4-1.4c0.7,0,1.1,0.3,1.3,0.9
			c0-0.3,0.1-0.6,0.2-0.9l0-0.1l0.1,0.1c0.1,0.3,3,6.7,2.1,8.1c-0.1,0.2-0.3,0.3-0.5,0.3c0,0,0,0,0,0c-0.1,0-0.3,0-0.5-0.1
			c-0.1,0-0.5,0-0.7,0.3C80.1,85.5,79.2,86,78.1,86z M78.9,76.1c-1.2,0-2.8,0.8-3.4,1.4c-1.7,1.7-1.4,4.4-0.6,6.3
			c0.5,1.2,1.8,2.1,3.2,2.1c1,0,1.9-0.5,2.6-1.3c0.2-0.3,0.6-0.4,0.7-0.4c0,0,0.1,0,0.1,0l0,0c0.2,0.1,0.3,0.1,0.5,0.1c0,0,0,0,0,0
			c0.2,0,0.3-0.1,0.5-0.2c0.8-1.3-1.6-7-2-7.9c-0.1,0.3-0.2,1-0.2,1l-0.1,0.4l0-0.4C80.1,76.5,79.7,76.1,78.9,76.1z M78.7,84
			c-0.1,0-0.3,0-0.5-0.1c-1.1-0.4-1.7-2.2-1.6-3.7c0.1-1.2,0.6-2,1.4-2.2c0.7-0.1,1.2,0.3,1.5,1.2c0.3,0.8,0.6,3.3-0.1,4.3
			C79.3,83.9,79.1,84,78.7,84z M78.3,78.2c-0.1,0-0.2,0-0.2,0c-0.8,0.1-1.2,0.9-1.3,2.1c-0.1,1.5,0.5,3.2,1.5,3.6
			c0.5,0.2,0.9,0.1,1.2-0.3c0.4-0.5,0.4-1.5,0.4-2.2c0-0.8-0.2-1.6-0.3-2C79.3,78.6,78.9,78.2,78.3,78.2z"/>
	</g>
	<g>
		<g>
			<path fill="#FFFFFF" d="M82.2,83.4c1-2.8-0.8-5.6-0.1-8.4c-0.8,0.2-1.6,0.4-2.3,0.5c0.1,2.1,0.2,4.2,0.6,6.3
				c0.2,0.9,0.3,1.8,0.9,2.5c0.4,0.4,0.8,0.8,1.3,1c0.7,0.3,1.5,0.2,2.2,0c0.6-0.2,1.4-0.5,1.8-1.1c0.3-0.6,0.2-1.4,0.1-2
				c-0.1-1-0.1-2-0.2-3c-0.2-2-0.5-4-0.6-6c-0.8,0.2-1.6,0.4-2.4,0.6c0.2,1.8,2.4,1.7,3.7,1.9c0.3,0.1,0.6,0.1,0.8,0.3
				c0.3,0.2,0.3,0.5,0.3,0.8c0.1,1.2,0,2.5,0.1,3.7c0.1,1.1,0.5,2.4,1.4,3.2c0.8,0.6,2,0.3,2.9-0.1c1.5-0.7,2-2.4,2.5-3.8
				c0.5-1.5,0.9-3,1.1-4.6c0-0.3-1.2,0-1.3,0c-0.3,0.1-1,0.2-1.1,0.6c-0.2,1.2-0.5,2.3-0.8,3.5c-0.2,0.8-0.5,1.5-0.8,2.3
				c-0.2,0.6-0.6,1.3-1,1.6c0,0-0.1,0.1-0.1,0.1c-0.1,0.1-0.1,0,0,0c-0.1,0.1,0.1,0,0.1,0c-0.1,0-0.2,0.1,0.2-0.1
				c0.3-0.1,0.6-0.1,1-0.2c-0.1,0-0.1,0-0.2-0.1c-0.2-0.1-0.4-0.3-0.5-0.4c-0.7-0.8-1-2-1.1-3.1c-0.1-1.1,0-2.3-0.1-3.4
				c-0.1-0.7-0.4-1.1-1.1-1.3c-1.3-0.4-3.6,0-3.8-1.8c0-0.4-2.4,0-2.4,0.6c0.1,1.5,0.3,3.1,0.5,4.6c0.2,1.7,0.3,3.3,0.4,5
				c0,0.5,0,1-0.3,1.4c-0.2,0.2-0.2-0.1,0.8-0.2c0.1,0,0.1,0,0.2,0c0,0,0.1,0,0.1,0c-0.1-0.1-0.4-0.1-0.5-0.2
				c-1.3-0.7-1.6-2-1.9-3.3c-0.4-2.1-0.5-4.2-0.6-6.2c0-0.4-2.2,0.1-2.3,0.5c-0.7,2.8,1,5.7,0.1,8.4c-0.1,0.4,0.8,0.2,0.9,0.2
				c0.3-0.1,0.6-0.1,0.9-0.3C81.9,83.7,82.2,83.6,82.2,83.4L82.2,83.4z"/>
		</g>
	</g>
</g>
</svg>
