<?xml version="1.0" encoding="utf-8"?>
<!-- Generator: Adobe Illustrator 18.1.0, SVG Export Plug-In . SVG Version: 6.00 Build 0)  -->
<!DOCTYPE svg PUBLIC "-//W3C//DTD SVG 1.1//EN" "http://www.w3.org/Graphics/SVG/1.1/DTD/svg11.dtd">
<svg version="1.1" id="Layer_1" xmlns="http://www.w3.org/2000/svg" xmlns:xlink="http://www.w3.org/1999/xlink" x="0px" y="0px"
	 viewBox="0 0 355 261" enable-background="new 0 0 355 261" xml:space="preserve">
<g>
	<g>
		<polygon fill="#F79131" points="320.5,110.1 224.9,57.3 253.2,194.1 		"/>
	</g>
	<g>
		<polygon fill="#F79131" stroke="#F79131" stroke-width="1.0008" stroke-linecap="round" stroke-miterlimit="10" points="
			181.4,175.8 57.2,210.1 40.5,101.2 169.1,96.8 		"/>
	</g>
	<g>
		<circle fill="#434345" cx="168.6" cy="140.4" r="98"/>
		<path fill="#FFFFFF" d="M168.6,240.3c-13.3,0-26.3-2.6-38.5-7.7c-11.8-4.9-22.4-12-31.6-21c-18.8-18.5-29.4-43.2-29.8-69.7
			c-0.2-13.5,2.2-26.6,7.2-39c4.8-12,11.9-22.8,20.9-32.1s19.6-16.7,31.4-21.9c12.2-5.4,25.3-8.3,38.8-8.5
			c13.9-0.2,27.4,2.4,40.1,7.7c11.8,4.9,22.4,12,31.6,21c18.8,18.5,29.4,43.2,29.8,69.7c0.2,13.5-2.2,26.6-7.2,39
			c-4.8,12-11.9,22.8-20.9,32.1c-9,9.3-19.6,16.7-31.4,21.9c-12.2,5.4-25.3,8.3-38.8,8.5C169.7,240.3,169.1,240.3,168.6,240.3z
			 M168.6,44.3c-0.5,0-1,0-1.6,0c-13,0.2-25.5,2.9-37.3,8.1c-11.4,5-21.5,12.1-30.2,21.1s-15.4,19.3-20.1,30.9
			c-4.8,11.9-7.2,24.5-7,37.5c0.4,25.4,10.6,49.2,28.7,67c18.1,17.8,42,27.6,67.3,27.6c0.5,0,1,0,1.6,0c13-0.2,25.5-2.9,37.3-8.1
			c11.4-5,21.5-12.1,30.2-21.1c8.7-9,15.4-19.3,20.1-30.9c4.8-11.9,7.2-24.5,7-37.5c-0.4-25.4-10.6-49.2-28.7-67
			C217.9,54.1,194,44.3,168.6,44.3z"/>
	</g>
	<g>
		<path fill="#434345" stroke="#FFFFFF" stroke-width="18" stroke-miterlimit="10" d="M85.1,168.2"/>
	</g>
	<g>
		<path fill="#434345" d="M85.8,110.8c12-33.5,43.8-57.7,81.4-58.3c48.6-0.8,88.6,38,89.3,86.6c0.8,48.6-38,88.6-86.6,89.3
			c-12.6,0.2-24.6-2.3-35.6-6.9"/>
		<path fill="#FFFFFF" d="M168.6,231.3c-12.2,0-24.1-2.4-35.2-7.1l2.3-5.4c10.9,4.6,22.5,6.8,34.4,6.6c11.5-0.2,22.6-2.6,33-7.2
			c10.1-4.4,19.1-10.7,26.7-18.7c7.7-7.9,13.7-17.1,17.8-27.3c4.3-10.6,6.3-21.7,6.2-33.2c-0.2-11.5-2.6-22.6-7.2-33
			C242,96,235.7,87,227.8,79.3c-7.9-7.7-17.1-13.7-27.3-17.8c-10.6-4.3-21.7-6.3-33.2-6.2c-17.6,0.3-34.5,5.9-48.7,16.3
			c-13.9,10.1-24.3,24-30.1,40.1l-5.5-2c6.2-17.2,17.3-32,32.1-42.9c15.2-11.1,33.2-17.1,52-17.4c12.3-0.2,24.2,2,35.5,6.6
			c10.9,4.4,20.7,10.8,29.2,19c8.5,8.2,15.2,17.8,19.9,28.6c4.9,11.1,7.5,23,7.7,35.3c0.2,12.3-2,24.2-6.6,35.5
			c-4.4,10.9-10.8,20.7-19,29.2c-8.2,8.5-17.8,15.2-28.6,19.9c-11.1,4.9-23,7.5-35.3,7.7C169.5,231.3,169.1,231.3,168.6,231.3z"/>
	</g>
	<g>
		<path fill="#F79131" d="M108.3,84.9c-0.6,6.5,11.9,15.7,17.4,14.5c6.4-1.4,8.4-9.3,8.7-15c0.8-14.6-10.2-26.5-24.5-28.4
			C86.4,53,68.2,74.8,69,97.2c0.5,12.4,7.2,25.9,18.9,31.2c-2.8-1.3-8.3,13.2-9,14.8c-6.1,14.3-10.1,28-6.7,43.6
			c3,13.8,11.1,26.4,22.9,34.3c16,10.7,39.9,9.7,55.6-1c17.9-12.3,22.4-44.3-1-53.9c-1.5-0.6-3.3-1.1-4.9-0.6
			c-1.2,0.4-2.1,1.4-2.9,2.3c-4.7,5.7-7,13.3-6.2,20.6c0.1,1.2,0.3,2.4,1.1,3.2c1.2,1.5,3.4,1.6,5.2,2.4c4.2,1.7,6.1,7.2,4.7,11.6
			s-5.2,7.6-9.3,9.5c-9.1,4.2-20.3,2.7-28.5-3.1c-18.7-13.1-18.5-37-12.7-56.8c2-6.9,4.8-13.5,7.7-20c2.6-5.7,4.6-11,8.5-16.2
			c-5.9-2.1-11.7-2.7-16.9-7c-9.5-8-10.5-21.1-8.4-32.6c1.4-8.2,8.8-19.7,17.9-16.6c7.3,2.5,10.9,13.9,4.7,19.6
			c-0.4,0.4-0.8,0.7-1,1.2C108.5,84,108.4,84.4,108.3,84.9z"/>
		<path fill="#F79131" d="M121.7,230.6c-10.2,0-20-2.8-27.7-7.9c-11.9-8-20.5-20.9-23.8-35.5c-3.7-16.8,1.1-31.5,6.8-44.8
			c0.1-0.1,0.2-0.4,0.3-0.8c2.8-7,4.9-10.9,6.5-13c-4.5-2.8-8.5-6.9-11.4-12.1c-3.3-5.8-5.3-12.6-5.5-19.2
			c-0.4-11.6,4.1-23.6,12.2-32c7.2-7.5,16.5-11.6,26.3-11.6c1.6,0,3.1,0.1,4.7,0.3c7.5,1,14.3,4.6,19.1,10.1
			c5,5.7,7.5,12.9,7.1,20.5c-0.2,4.5-1.7,15-10.3,16.9c-0.5,0.1-1,0.2-1.5,0.2h0c-4.7,0-11-4.1-14.5-8c-2-2.2-4.2-5.5-3.9-8.9
			c0.1-0.7,0.3-1.4,0.5-2c0.4-0.9,1-1.5,1.5-1.9c2.1-1.9,3-5,2.3-8.3c-0.8-3.7-3.3-6.8-6.2-7.8c-0.8-0.3-1.6-0.4-2.4-0.4
			c-6.5,0-11.7,9.1-12.8,15.4C88.1,86,88,91.7,89,96.6c1.2,5.8,3.8,10.4,7.9,13.8c3.5,2.9,7.4,4,11.5,5.2c1.5,0.4,3.1,0.9,4.8,1.5
			l2.7,0.9l-1.7,2.3c-3.1,4.1-5,8.5-7.1,13.1c-0.4,0.9-0.8,1.7-1.2,2.6c-2.8,6.1-5.6,12.8-7.6,19.7c-3.2,10.9-4.1,21.3-2.8,30.1
			c1.6,10.6,6.6,18.8,14.7,24.5c4.7,3.3,10.4,5.1,16.1,5.1c3.7,0,7.2-0.7,10.3-2.2c4.2-1.9,7.2-4.9,8.2-8.2c1-3.2-0.2-7.7-3.5-9
			c-0.4-0.2-1-0.3-1.5-0.5c-1.5-0.4-3.3-0.9-4.6-2.5c-1.1-1.3-1.4-2.9-1.5-4.4c-0.8-7.9,1.6-16,6.7-22.1c0.9-1.1,2.1-2.4,3.8-2.9
			c0.7-0.2,1.4-0.4,2.2-0.4c1.2,0,2.6,0.3,4.2,1c9.9,4.1,16,12.2,17.1,23c1.4,13.1-5.1,27.3-15.7,34.6
			C143.6,227.4,132.8,230.6,121.7,230.6z M88,130.3c-0.5,0.3-2.3,1.9-6.7,12.9c-0.2,0.4-0.3,0.7-0.3,0.8c-5.4,12.7-10,26.6-6.5,42.3
			c3,13.6,11,25.6,22,33c6.9,4.6,15.9,7.2,25.3,7.2c10.3,0,20.2-2.9,27.9-8.2c9.4-6.5,15.2-19.1,14-30.7c-1-9.1-6.1-16.1-14.6-19.6
			c-1.5-0.6-2.6-0.8-3.4-0.5c-0.7,0.3-1.4,1-2,1.7c-4.3,5.2-6.5,12.3-5.8,19c0.1,0.8,0.2,1.7,0.6,2.1c0.4,0.5,1.4,0.8,2.5,1.1
			c0.6,0.2,1.3,0.4,1.9,0.6c2.5,1,4.5,3.2,5.6,6c1,2.6,1.1,5.6,0.3,8.1c-0.8,2.6-3.2,7.5-10.4,10.8c-3.7,1.7-7.8,2.6-12.1,2.6
			c-6.6,0-13.1-2.1-18.5-5.8c-9.1-6.3-14.6-15.5-16.4-27.2c-1.5-9.4-0.5-20.4,2.9-31.9c2.1-7.2,5-14,7.8-20.2
			c0.4-0.9,0.8-1.7,1.2-2.6c1.8-4,3.4-7.8,5.9-11.6c-0.6-0.2-1.3-0.4-1.9-0.5c-4.4-1.2-8.9-2.5-13-6c-4.8-4-7.9-9.4-9.3-16.2
			C83.8,92,83.9,85.8,85.1,79c1.3-7.6,7.7-18.9,16.9-18.9c1.2,0,2.5,0.2,3.7,0.6c4.4,1.5,7.9,5.8,9,10.9c1,4.8-0.3,9.2-3.6,12.2
			c-0.3,0.2-0.4,0.4-0.5,0.5c-0.1,0.2-0.2,0.5-0.2,0.7c-0.1,1.5,0.9,3.6,2.8,5.7c3.3,3.6,8.4,6.6,11.4,6.6c0,0,0,0,0,0
			c0.2,0,0.4,0,0.6-0.1c2.3-0.5,4-2,5.2-4.7c1-2.2,1.7-5.2,1.8-8.3c0.3-6.4-1.8-12.6-6.1-17.5c-4.2-4.8-10.1-7.9-16.6-8.7
			c-1.4-0.2-2.8-0.3-4.2-0.3c-8.6,0-16.9,3.7-23.3,10.3c-7.3,7.6-11.5,18.4-11.1,28.9c0.2,6,2,12.1,5,17.3
			c3.2,5.6,7.6,9.8,12.7,12.1l-1.7,3.8c0.2,0.1,0.3,0.1,0.5,0.1C87.8,130.4,88,130.3,88,130.3L88,130.3z"/>
	</g>
	<g>
		<path fill="#F79131" d="M214,112.2c-1.9-3.7-4.7-7-7.4-10.1c-5.8-6.5-7.1-16.1-2-23.8c-8.9-0.3-18.5,11.7-17.1,20.1
			c0.6,3.1,2.5,4.8,4.8,6.7c5.1,4.1,9.3,9.6,11.4,15.8c1.5,4.5,3.8,20.1-4.1,20.4c-5.2,0.2-10.4-7.7-11.3-12.1
			c-1.6-7.8,1.8-16.3,3.3-23.7c-0.1,0.3-2,1.1-2.3,1.2c-4.8,2.8-11.1,6.7-13,12.1c-1.3,3.9-0.1,8.4,2.3,11.8
			c2.1,3.1-0.5,11.7-3.7,12.5c-7,1.8-13.3-43.8-10.6-44.5c0,0-7.9,2.1-7.9,2.1s-1.3,6.8-1.3,6.8c0.2-0.9-6.3-3.9-7.2-4.2
			c-2.1-0.9-4.3-1.5-6.5-1.6c-11.1-0.6-16.9,10.8-18.6,20.1c-2,10.5-0.8,23.9,6.8,32.1c3.8,4,9.1,6,14.6,5.5
			c6.9-0.7,17-5.4,14.9-13.9c1.5,5.9,7.2,8,12.8,7.4c5-0.6,10.9-5.7,10.6-11.1c0.2,3.7,5.4,5,8.3,5.7c3.9,1,8.1,1,12.1,0
			c6.5-1.6,12.7-6,15-12.4C220.3,128,217.3,118.7,214,112.2z M152.4,130.6c0.1,3.8,0.3,8-1,11.6c-2.7,7.9-11.6,4.3-14.6-1.5
			c-2.8-5.6-2.8-12.8-1.2-18.6c0.8-3,2.7-9.3,6.6-9.8c5.2-0.7,7.7,3.1,8.9,7.2c0.3,0.9,0.5,1.9,0.6,2.8
			C152.2,125.2,152.3,127.9,152.4,130.6z"/>
		<path fill="#F79131" d="M142.4,159.7c-5,0-9.5-2-12.9-5.6c-7.9-8.5-8.7-22.2-6.8-32.2c1-5.2,3-10,5.6-13.5
			c3.3-4.5,7.4-6.7,12.3-6.7c0.3,0,0.6,0,0.9,0c2.1,0.1,4.3,0.7,6.5,1.6c0.1,0,6,2.7,7.1,4c0.1-0.6,0.4-2.2,1.3-6.4l0-0.1l0.1,0
			c0.8-0.2,7.9-2.1,7.9-2.1l0.1,0.2c-0.7,0.2-0.8,5.1,0.4,14.2c2,15,6,30.2,9.9,30.2c0,0,0,0,0,0c0.1,0,0.2,0,0.4,0
			c1.3-0.3,2.6-1.9,3.5-4.3c1.4-3.7,1.1-6.8,0.2-8c-2.6-3.9-3.5-8.3-2.3-11.9c2-5.9,9.2-10,13-12.2c0.1,0,0.2-0.1,0.5-0.2
			c0.5-0.2,1.7-0.8,1.7-0.9l0.2,0.1v0l0,0c-0.4,1.8-0.9,3.7-1.4,5.7c-1.6,5.9-3.2,12.1-2,18c0.9,4.1,5.8,12,10.9,12h0
			c0.1,0,0.2,0,0.2,0c1.6-0.1,2.9-0.8,3.8-2.1c3-4.4,1.4-14.7,0.3-18.2c-2-5.9-6-11.5-11.4-15.8c-2.4-1.9-4.3-3.6-4.8-6.8
			c-0.7-4,1.1-9.1,4.7-13.5c3.5-4.2,8.1-6.8,12.1-6.8c0.1,0,0.2,0,0.4,0l0.2,0l-0.1,0.2c-4.9,7.3-4.1,16.9,2,23.7
			c2.7,3,5.5,6.3,7.5,10.1c1.4,2.6,3.2,6.7,4.1,11.3c1,4.6,0.9,8.5-0.3,11.8c-2.1,5.9-7.9,10.7-15.1,12.5c-2,0.5-4,0.8-6.1,0.8h0
			c-2,0-4.1-0.2-6.1-0.7l-0.2,0c-2.7-0.7-7.1-1.8-8.1-4.7c-0.2,2.2-1.4,4.4-3.4,6.3c-2.1,2.1-4.9,3.5-7.4,3.8
			c-0.7,0.1-1.3,0.1-1.9,0.1c-5.1,0-8.9-2.2-10.5-6.1c0.2,2.1-0.4,4-1.6,5.8c-2.9,4.1-8.9,6.3-13.7,6.8
			C143.5,159.6,142.9,159.7,142.4,159.7z M140.4,101.8c-4.8,0-8.8,2.2-12.1,6.6c-2.6,3.5-4.6,8.3-5.5,13.4c-1.9,9.9-1.1,23.6,6.8,32
			c3.3,3.6,7.9,5.6,12.8,5.6c0.6,0,1.1,0,1.7-0.1c4.7-0.4,10.6-2.7,13.5-6.7c1.5-2.1,2-4.5,1.3-7.1l0.2-0.1
			c1.1,4.6,5.1,7.4,10.7,7.4c0.6,0,1.3,0,1.9-0.1c5-0.6,10.8-5.7,10.5-11l0,0l0,0l0.2,0c0.2,3.6,5.1,4.8,8.1,5.6l0.2,0
			c3.9,1,8.1,1,12,0c7.2-1.8,12.9-6.5,14.9-12.3c1-2.7,2.5-10.4-3.9-22.9c-1.9-3.8-4.7-7-7.4-10c-6.1-6.9-6.9-16.4-2.1-23.8
			c-4-0.1-8.5,2.4-12.1,6.7c-3.6,4.3-5.4,9.4-4.7,13.3c0.5,3,2.4,4.7,4.7,6.6c5.4,4.3,9.5,10,11.4,15.9c1.2,3.5,2.8,13.8-0.3,18.4
			c-1,1.4-2.3,2.1-4,2.2c-0.1,0-0.2,0-0.2,0h0c-2.3,0-4.9-1.6-7.2-4.4c-1.9-2.4-3.5-5.4-4-7.7c-1.2-5.9,0.4-12.1,2-18.1
			c0.5-1.8,0.9-3.6,1.3-5.3c-0.3,0.2-0.8,0.5-1.6,0.8c-0.2,0.1-0.4,0.2-0.5,0.2c-3.8,2.2-11,6.3-12.9,12.1
			c-1.2,3.5-0.4,7.9,2.3,11.7c1.3,1.9,0.8,5.6-0.2,8.2c-0.9,2.5-2.3,4.1-3.6,4.5c-0.1,0-0.3,0.1-0.4,0.1c0,0,0,0,0,0
			c-2,0-4.1-3.5-6.1-10.3c-1.6-5.4-3.1-12.8-4-20.1c-0.8-5.8-1.3-12.5-0.5-14.1c-1.5,0.4-6.8,1.8-7.5,2c-0.1,0.7-1.3,6.6-1.3,6.7
			c0,0,0,0,0,0l-0.2,0c0,0,0,0,0,0h0c0.1-0.7-5.2-3.3-7.1-4.1c-2.3-1-4.4-1.5-6.5-1.6C141,101.9,140.7,101.8,140.4,101.8z
			 M145.7,147c-3.4,0-7.2-2.6-9-6.1c-2.5-5.1-3-12.1-1.2-18.7c1.7-6.2,3.9-9.5,6.7-9.9c0.4-0.1,0.8-0.1,1.2-0.1
			c3.7,0,6.4,2.6,7.8,7.4c0.3,0.9,0.5,1.8,0.6,2.8c0.5,2.7,0.5,5.5,0.6,8.2l0,0.3c0.1,3.9,0.2,7.9-1,11.5
			C150.4,145.3,148.4,147,145.7,147z M143.4,112.4c-0.4,0-0.8,0-1.2,0.1c-2.7,0.4-4.9,3.6-6.5,9.7c-1.4,5.1-1.7,12.6,1.2,18.5
			c1.7,3.4,5.5,6,8.8,6c2.6,0,4.6-1.6,5.6-4.5c1.2-3.6,1.1-7.6,1-11.4l0-0.3c-0.1-2.7-0.2-5.4-0.6-8.1c-0.2-1-0.4-1.9-0.6-2.8
			C149.6,114.8,147,112.4,143.4,112.4z"/>
	</g>
	<g>
		<g>
			<path fill="#F79131" d="M159.2,78.7c13.7-1.5,27.2-4.6,40.5-8.2c11.7-3.2,23.3-6.8,35.2-9.4c0.8-0.2,1.6-0.4,2.4-0.5
				c1.9-0.4-3.6,0.7-1.6,0.3c0.4-0.1,0.8-0.2,1.2-0.3c1.7-0.3,3.3-0.7,5-1c3.6-0.6,7.2-1.2,10.8-1.6c3-0.4,6.5-1.5,9.1-3
				c1.3-0.7,4.4-2.5,4.8-4.3c1-4.8-7.6-3.9-10-3.6c-13.1,1.6-26,4.5-38.8,8c-12.1,3.3-24.1,7-36.3,9.7c-0.4,0.1-0.7,0.2-1.1,0.2
				c-2.4,0.5,3.3-0.7,1.3-0.3c-0.9,0.2-1.7,0.4-2.6,0.5c-1.7,0.3-3.5,0.7-5.2,1c-3.6,0.6-7.3,1.1-11,1.6c-3,0.3-6.5,1.5-9.1,3
				c-1.3,0.7-4.4,2.5-4.8,4.3C148.2,79.9,156.7,79,159.2,78.7L159.2,78.7z"/>
		</g>
	</g>
	<g>
		<g>
			<path fill="#F79131" d="M209.2,32.5c2.5,15.5,5,31,6.2,46.6c0-0.5-0.1-0.9-0.1-1.4c0.4,5.2,0.6,10.3,0.7,15.5
				c0.1,5.2,0.1,10.3,0.6,15.5c0.8,8.5,3.4,16.8,9,23.3c2.9,3.4,6.2,6.1,10.3,8c4.3,2.1,9.4,2.4,14,1.3c9.1-2.3,15.3-10.2,16.7-19.2
				c1.2-7.8-0.8-16.9-5.9-23.1c-2.2-2.7-6.7-2.8-9.7-1.2c-2.4,1.3-5.6,4.7-3.3,7.6c1.1,1.3,2,2.8,2.7,4.3c-0.2-0.4-0.4-0.9-0.6-1.3
				c1.5,3.2,2.4,6.6,2.6,10.1c0-0.5-0.1-0.9-0.1-1.4c0.2,2.8,0,5.7-0.7,8.4c0.1-0.5,0.3-0.9,0.4-1.4c-0.3,1.2-0.7,2.3-1.3,3.4
				c-0.2,0.5-0.5,1-0.8,1.5c1-1.9,0-0.1-0.4,0.4c-0.2,0.3-0.4,0.5-0.6,0.7c-0.4,0.4-1.2,0.9,0.4-0.4c-0.5,0.4-0.9,0.8-1.4,1.1
				c-0.2,0.1-0.4,0.3-0.6,0.4c1.1-0.6,1.3-0.8,0.9-0.5c-0.3,0.1-0.6,0.3-0.8,0.4c-0.7,0.3-1.7,0.3,0.6-0.2c-0.3,0.1-0.6,0.2-0.8,0.2
				c-0.7,0.2-1.5,0,0.8-0.1c-0.3,0-0.6,0.1-0.8,0.1c-0.3,0-0.6,0-0.8,0c2.3-0.1,1.2,0,0.6,0c-0.3,0-0.7-0.1-1-0.2
				c-1.1-0.2,1.6,0.5,0.5,0.1c-0.6-0.2-1.1-0.4-1.6-0.6c-0.3-0.1-0.5-0.2-0.8-0.4c-1-0.4,1.4,0.8,0.2,0.1c-0.6-0.3-1.1-0.7-1.7-1.1
				c-1.1-0.8-2.1-1.7-3.1-2.6c0.3,0.3,0.7,0.7,1,1c-2.7-2.7-5-5.8-6.7-9.2c0.2,0.4,0.4,0.9,0.6,1.3c-2.4-5-3.3-10.6-3.7-16
				c0,0.5,0.1,0.9,0.1,1.4c-0.3-4.6-0.3-9.3-0.4-13.9c-0.1-5.3-0.4-10.6-0.8-15.9c-0.8-10-2.1-20-3.5-29.9
				c-0.8-5.6-1.7-11.1-2.6-16.7c-0.2-1.4-1.8-2.6-3-3c-1.6-0.6-3.8-0.6-5.4-0.1C211.8,26.5,208.6,28.8,209.2,32.5L209.2,32.5z"/>
		</g>
	</g>
	<g>
		<g>
			<path fill="#F79131" d="M159,144.6c6-14.8-3.9-32.2,0.8-47.5c0.1,13.1,0.5,26.3,2.9,39.2c0.6,3.2,1.3,6.4,3,9.1
				c1.7,2.7,2.7,5.2,5.9,5.2"/>
		</g>
		<g>
			<g>
				<path fill="#F79131" d="M165,143.6c4.7-12-0.1-24.9-0.5-37.3c-0.1-3.5,0.2-6.9,1.2-10.2c-4,0.9-8,1.7-12,2.6
					c0.1,8.4,0.3,16.7,1,25.1c0.4,4.1,0.9,8.2,1.6,12.3c0.6,3.7,1.3,7.5,3.3,10.7c0.9,1.5,1.7,3,2.9,4.3c1.3,1.5,3.4,2.1,5.3,2.2
					c2.8,0.1,6.2-0.5,8.5-2.3c0.6-0.4,1.6-1.2,1.3-2c-0.2-0.8-1.5-1.1-2.2-1.1c-0.2,0-0.3,0-0.5,0c-0.5,0,0.4,0,0.3,0.1
					c0,0-0.5-0.2-0.5-0.2c0,0,0.4,0.3,0.1,0.1c-0.5-0.3-0.9-0.7-1.3-1.2c-0.7-0.9-1.5-2.2-2.2-3.4c-1.8-3.1-2.4-6.8-3-10.4
					c-1.3-7.9-2-15.8-2.3-23.8c-0.2-4.5-0.3-9-0.3-13.6c0-0.8-1.8-1.1-2.2-1.1c-1.2-0.1-2.4,0.1-3.6,0.3c-1.3,0.3-2.6,0.7-3.8,1.3
					c-0.8,0.5-2.1,1.1-2.4,2.1c-3.7,12.4,1.3,25,1.1,37.5c-0.1,3.4-0.7,6.8-1.9,10c-0.9,2.2,4,1.8,4.9,1.6c1.6-0.3,3.2-0.7,4.6-1.5
					C163.5,145.2,164.6,144.6,165,143.6L165,143.6z"/>
			</g>
		</g>
	</g>
	<g>
		<path fill="#FFFFFF" d="M108,79.7c-0.6,6.5,11.9,15.7,17.4,14.5c6.4-1.4,8.4-9.3,8.7-15c0.8-14.6-10.2-26.5-24.5-28.4
			c-23.5-3.1-41.7,18.7-40.9,41.1c0.5,12.4,7.2,25.9,18.9,31.2c-2.8-1.3-8.3,13.2-9,14.8c-6.1,14.3-10.1,28-6.7,43.6
			c3,13.8,11.1,26.4,22.9,34.3c16,10.7,39.9,9.7,55.6-1c17.9-12.3,22.4-44.3-1-53.9c-1.5-0.6-3.3-1.1-4.9-0.6
			c-1.2,0.4-2.1,1.4-2.9,2.3c-4.7,5.7-7,13.3-6.2,20.6c0.1,1.2,0.3,2.4,1.1,3.2c1.2,1.5,3.4,1.6,5.2,2.4c4.2,1.7,6.1,7.2,4.7,11.6
			s-5.2,7.6-9.3,9.5c-9.1,4.2-20.3,2.7-28.5-3.1c-18.7-13.1-18.5-37-12.7-56.8c2-6.9,4.8-13.5,7.7-20c2.6-5.7,4.6-11,8.5-16.2
			c-5.9-2.1-11.7-2.7-16.9-7c-9.5-8-10.5-21.1-8.4-32.6c1.4-8.2,8.8-19.7,17.9-16.6c7.3,2.5,10.9,13.9,4.7,19.6
			c-0.4,0.4-0.8,0.7-1,1.2C108.2,78.8,108,79.2,108,79.7z"/>
		<path fill="#FFFFFF" d="M121.4,224.2c-10,0-19.6-2.7-27-7.7c-11.6-7.8-20.1-20.5-23.3-34.8c-3.6-16.5,1.1-30.9,6.7-44.1
			c0.1-0.2,0.2-0.4,0.3-0.8c3.1-7.7,5.4-12.1,7.3-13.8c-4.9-2.7-9.1-7-12.3-12.4C70,105,68.1,98.4,67.8,92
			c-0.4-11.3,4-22.9,11.9-31.1c7-7.2,16-11.2,25.4-11.2c1.5,0,3,0.1,4.5,0.3c7.2,0.9,13.7,4.4,18.4,9.7c4.8,5.4,7.2,12.4,6.8,19.6
			c-0.2,4.2-1.6,14.1-9.3,15.8c-0.4,0.1-0.8,0.1-1.2,0.1c0,0,0,0,0,0c-3.8,0-9.7-3.3-13.6-7.6c-1.8-2-3.9-5-3.6-8
			c0.1-0.6,0.2-1.1,0.4-1.7c0.3-0.7,0.8-1.2,1.2-1.5c2.5-2.2,3.4-5.7,2.7-9.4c-0.9-4.1-3.6-7.5-7-8.7c-0.9-0.3-1.8-0.5-2.7-0.5
			c-2.2,0-5.6,1-9.1,5.5c-2.4,3.1-4.2,7.2-4.9,10.9c-1.1,6.4-1.2,12.2-0.1,17.3c1.2,6.1,4,10.9,8.3,14.5c3.7,3.1,7.7,4.2,11.9,5.4
			c1.5,0.4,3.1,0.9,4.7,1.4l1.1,0.4l-0.7,1c-3.2,4.3-5.2,8.7-7.2,13.4c-0.4,0.9-0.8,1.7-1.2,2.6c-2.8,6.2-5.6,12.9-7.7,19.9
			c-3.2,11.1-4.2,21.6-2.8,30.6c1.7,10.9,6.8,19.4,15.2,25.3c4.9,3.4,10.8,5.3,16.8,5.3c3.9,0,7.5-0.8,10.8-2.3
			c4.5-2.1,7.7-5.3,8.9-9c1.4-4.7-1-9.2-4.2-10.5c-0.5-0.2-1.1-0.4-1.6-0.5c-1.4-0.4-2.9-0.8-4-2.1c-0.9-1.1-1.1-2.5-1.3-3.7
			c-0.8-7.6,1.6-15.3,6.4-21.2c0.8-1,1.9-2.1,3.3-2.6c0.6-0.2,1.2-0.3,1.8-0.3c1.1,0,2.3,0.3,3.7,0.9c9.5,3.9,15.3,11.7,16.4,22
			c1.3,12.6-4.9,26.4-15.2,33.5C142.7,221.1,132.2,224.2,121.4,224.2z M105.2,51.4c-9,0-17.5,3.8-24.2,10.7
			c-7.6,7.8-11.8,19-11.4,29.8c0.2,6.2,2.1,12.5,5.1,17.9c3.3,5.8,7.9,10.2,13.3,12.6l-0.7,1.6c0,0-1.1,0.1-3.8,5.3
			c-1.6,3.1-3,6.5-3.6,8.2c-0.2,0.4-0.3,0.7-0.3,0.8c-5.5,12.9-10.1,27-6.6,43c3.1,13.9,11.3,26.2,22.5,33.7
			c7.1,4.8,16.4,7.4,26,7.4c10.5,0,20.7-3,28.6-8.4c9.8-6.7,15.7-19.8,14.5-31.8c-1-9.6-6.4-16.9-15.3-20.6c-1.2-0.5-2.2-0.7-3-0.7
			c-0.4,0-0.8,0.1-1.2,0.2c-1,0.4-1.8,1.2-2.5,2c-4.5,5.4-6.8,12.9-6.1,19.9c0.1,1,0.3,2.1,0.9,2.8c0.7,0.8,1.9,1.2,3.1,1.5
			c0.6,0.2,1.2,0.3,1.8,0.6c2.2,0.9,4,2.8,4.9,5.3c0.9,2.3,1,5,0.3,7.4c-1.3,4.1-4.8,7.8-9.8,10.1c-3.6,1.6-7.4,2.4-11.6,2.4
			c-6.3,0-12.6-2-17.8-5.6c-8.8-6.1-14.1-15-15.9-26.4c-1.4-9.2-0.4-20,2.8-31.3c2.1-7.1,4.9-13.8,7.7-20.1c0.4-0.9,0.8-1.8,1.2-2.6
			c1.9-4.4,3.8-8.6,6.7-12.7c-1.2-0.4-2.3-0.7-3.5-1c-4.4-1.3-8.6-2.5-12.6-5.8c-4.5-3.8-7.5-9-8.9-15.5c-1.1-5.3-1.1-11.4,0.1-17.9
			c1.3-7.5,7.5-17.9,15.7-17.9c1.1,0,2.2,0.2,3.3,0.6c4,1.3,7.2,5.3,8.2,10c0.9,4.4-0.3,8.4-3.2,11c-0.4,0.4-0.6,0.6-0.8,0.9
			c-0.2,0.3-0.3,0.7-0.3,1.1c-0.2,1.8,0.9,4.2,3.2,6.6c3.6,3.9,9,7,12.3,7h0c0.3,0,0.6,0,0.9-0.1c2.2-0.5,7.4-2.8,8-14.2
			c0.4-6.7-1.9-13.3-6.4-18.4c-4.4-5-10.5-8.3-17.3-9.1C108,51.5,106.6,51.4,105.2,51.4z"/>
	</g>
	<g>
		<path fill="#FFFFFF" d="M212.7,107.2c-1.9-3.7-4.7-7-7.4-10.1c-5.8-6.5-7.1-16.1-2-23.8c-8.9-0.3-18.5,11.7-17.1,20.1
			c0.6,3.1,2.5,4.8,4.8,6.7c5.1,4.1,9.3,9.6,11.4,15.8c1.5,4.5,3.8,20.1-4.1,20.4c-5.2,0.2-10.4-7.7-11.3-12.1
			c-1.6-7.8,1.8-16.3,3.3-23.7c-0.1,0.3-2,1.1-2.3,1.2c-4.8,2.8-11.1,6.7-13,12.1c-1.3,3.9-0.1,8.4,2.3,11.8
			c2.1,3.1-0.5,11.7-3.7,12.5c-5.7,1.4-10.4-26.9-10.1-31.4c0.1-1.6-1.5-12.9-0.5-13.2l-7.9,2.1c0,0-1.3,6.8-1.3,6.8
			c0.2-0.9-6.3-3.9-7.2-4.2c-2.1-0.9-4.3-1.5-6.5-1.6c-11.1-0.6-16.9,10.8-18.6,20.1c-2,10.5-0.8,23.9,6.8,32.1
			c3.8,4,9.1,6,14.6,5.5c6.9-0.7,17-5.4,14.9-13.9c1.5,5.9,7.2,8,12.8,7.4c5-0.6,10.9-5.7,10.6-11.1c0.2,3.7,5.4,5,8.3,5.7
			c3.9,1,8.1,1,12.1,0c6.5-1.6,12.7-6,15-12.4C219.1,123.1,216,113.7,212.7,107.2z M151.1,125.7c0.1,3.8,0.3,8-1,11.6
			c-2.7,7.9-11.6,4.3-14.6-1.5c-2.8-5.6-2.8-12.8-1.2-18.6c0.8-3,2.7-9.3,6.6-9.8c5.2-0.7,7.7,3.1,8.9,7.2c0.3,0.9,0.5,1.9,0.6,2.8
			C150.9,120.2,151,122.9,151.1,125.7z"/>
	</g>
	<g>
		<g>
			<path fill="#FFFFFF" d="M157.2,74.2c13.8-1.6,27.4-4.7,40.8-8.3c12-3.2,23.9-6.7,36.1-9.3c0.3-0.1,0.6-0.1,0.8-0.2
				c1.2-0.3,0.6-0.1-2,0.4c0.3-0.1,0.5-0.1,0.8-0.2c0.8-0.2,1.6-0.3,2.5-0.5c1.6-0.3,3.2-0.6,4.9-0.9c3.2-0.6,6.5-1.2,9.8-1.7
				c3.1-0.5,6.4-1.5,9.1-3c1.3-0.7,4.4-2.5,4.8-4.3c1-4.8-7.5-4-10-3.6c-12.9,2-25.7,4.8-38.3,8c-12.3,3.1-24.3,6.9-36.7,9.7
				c-0.3,0.1-0.6,0.1-0.9,0.2c-0.3,0.1-0.6,0.1-0.9,0.2c2.5-0.5,3.2-0.7,1.9-0.4c-0.9,0.2-1.7,0.4-2.6,0.5c-1.7,0.3-3.5,0.7-5.2,1
				c-3.6,0.6-7.3,1.1-11,1.6c-3,0.3-6.5,1.5-9.1,3c-1.3,0.7-4.4,2.5-4.8,4.3C146.2,75.5,154.8,74.5,157.2,74.2L157.2,74.2z"/>
		</g>
	</g>
	<g>
		<g>
			<path fill="#FFFFFF" d="M206.5,28c2.5,15.5,5,31,6.2,46.6c0-0.5-0.1-0.9-0.1-1.4c0.4,5.2,0.6,10.3,0.7,15.5
				c0.1,5.2,0.1,10.3,0.6,15.5c0.8,8.5,3.4,16.8,9,23.3c2.9,3.4,6.2,6.1,10.3,8c4.3,2.1,9.4,2.4,14,1.3c9-2.2,15.3-10.1,16.4-19.2
				c0.9-7.9-1.6-16.9-6.7-23.1c-2.2-2.7-6.7-2.8-9.7-1.2c-2.4,1.3-5.6,4.7-3.3,7.6c1.2,1.5,2.2,3.1,3.1,4.8
				c-0.2-0.4-0.4-0.9-0.6-1.3c1.6,3.4,2.6,7,2.9,10.8c0-0.5-0.1-0.9-0.1-1.4c0.2,2.7,0,5.4-0.7,8c0.1-0.5,0.3-0.9,0.4-1.4
				c-0.3,1.1-0.7,2.2-1.2,3.2c-0.1,0.3-0.3,0.6-0.5,0.8c-0.5,0.9,0.9-1.3,0.2-0.4c-0.3,0.4-0.6,0.9-1,1.3c-0.2,0.2-0.4,0.4-0.6,0.6
				c1.3-1.5,0.9-0.8,0.4-0.4c-0.5,0.4-1,0.8-1.5,1.2c1.9-1.4,0.3-0.2-0.4,0.1c-1.1,0.5,1.9-0.6,0.7-0.3c-0.3,0.1-0.7,0.2-1,0.3
				c-0.8,0.2,2.2-0.2,0.8-0.2c-0.3,0-0.6,0-0.8,0.1c-1.4,0.1,1.4,0.1,0.7,0c-0.3-0.1-0.7-0.1-1-0.1c-0.1,0-0.8-0.1-0.8-0.2
				c0,0,1.9,0.5,0.5,0.1c-0.6-0.2-1.1-0.4-1.6-0.6c-0.3-0.1-0.5-0.3-0.8-0.4c1.6,0.6,0.8,0.4,0.3,0.2c-0.5-0.3-1-0.6-1.5-1
				c-1.1-0.8-2.1-1.7-3.1-2.6c0.3,0.3,0.7,0.7,1,1c-2.7-2.7-5-5.8-6.7-9.2c0.2,0.4,0.4,0.9,0.6,1.3c-2.4-5-3.3-10.6-3.7-16
				c0,0.5,0.1,0.9,0.1,1.4c-0.3-4.6-0.3-9.3-0.4-13.9c-0.1-5.3-0.4-10.6-0.8-15.9c-0.8-10-2.1-20-3.5-29.9
				c-0.8-5.6-1.7-11.1-2.6-16.7c-0.2-1.4-1.8-2.6-3-3c-1.6-0.6-3.8-0.6-5.4-0.1C209.1,22,205.9,24.3,206.5,28L206.5,28z"/>
		</g>
	</g>
	<g>
		<g>
			<path fill="#FFFFFF" d="M163.3,138.7c4.7-12-0.1-24.9-0.5-37.3c-0.1-3.5,0.2-6.9,1.2-10.2c-4,0.9-8,1.7-12,2.6
				c0.1,8.4,0.3,16.7,1,25.1c0.4,4.1,0.9,8.2,1.6,12.3c0.6,3.7,1.3,7.5,3.3,10.7c0.9,1.5,1.7,3,2.9,4.3c1.3,1.5,3.4,2.1,5.3,2.2
				c2.8,0.1,6.2-0.5,8.5-2.3c0.6-0.4,1.6-1.2,1.3-2c-0.2-0.8-1.5-1.1-2.2-1.1c-0.2,0-0.3,0-0.5,0c-0.5,0,0.4,0,0.3,0.1
				c0,0-0.5-0.2-0.5-0.2c0,0,0.4,0.3,0.1,0.1c-0.5-0.3-0.9-0.7-1.3-1.2c-0.7-0.9-1.5-2.2-2.2-3.4c-1.8-3.1-2.4-6.8-3-10.4
				c-1.3-7.9-2-15.8-2.3-23.8c-0.2-4.5-0.3-9-0.3-13.6c0-0.8-1.8-1.1-2.2-1.1c-1.2-0.1-2.4,0.1-3.6,0.3c-1.3,0.3-2.6,0.7-3.8,1.3
				c-0.8,0.5-2.1,1.1-2.4,2.1c-3.7,12.4,1.3,25,1.1,37.5c-0.1,3.4-0.7,6.8-1.9,10c-0.9,2.2,4,1.8,4.9,1.6c1.6-0.3,3.2-0.7,4.6-1.5
				C161.7,140.3,162.9,139.7,163.3,138.7L163.3,138.7z"/>
		</g>
	</g>
	<g>
		<path fill="#FFFFFF" d="M176.3,169.3c0.9,4-4.6,5.9-6.9,3.1c-2.9-3.6,0.1-8.7,2.7-11.1c3.8-3.6,8.9-4.9,14-4
			c7.6,1.3,13.6,7.8,12.8,17c-0.2,2.2-1.3,3.9-3.3,4.7c2.5-1,7.2,3.6,8.4,5.4c4.4,6.6,5.3,15.7,1.7,22.7c-3.2,6.1-9.5,9.4-16.1,9.8
			c-9.5,0.6-17-5.6-15.3-15.8c0.3-1.7,1.1-3.6,2.7-3.7c1,0,1.8,0.7,2.5,1.5c0.9,0.9,1.8,1.8,2.4,2.9c0.6,1.2,0.7,2.7,0,3.7
			c-0.5,0.8-1.5,1.3-1.7,2.2c-0.3,1,0.4,2.1,1.2,2.8c6.5,6.3,15.8,0.5,18.8-6.2c3.6-7.8-1-16.9-8.1-21.8c-2.2-1.5-3.9-2.2-6.6-1.8
			c5-0.7,9.1-6.9,7.7-12.1c-0.9-3.6-3.5-6.5-7.1-7.3c-2.7-0.6-5.8-0.4-8.2,0.8C174.1,163.9,175.6,166,176.3,169.3z"/>
		<path fill="#FFFFFF" d="M188.2,217.4c-4.8,0-9-1.8-11.7-4.9c-2.5-3-3.5-6.9-2.8-11.3c0.6-3.7,2.5-4,3-4h0c1.1,0,2,0.8,2.8,1.6
			c0.9,0.8,1.9,1.8,2.5,3.1c0.7,1.4,0.7,3,0,4.1c-0.2,0.3-0.5,0.6-0.8,0.9c-0.4,0.4-0.8,0.7-0.9,1.2c-0.3,1,0.7,2,1.1,2.4
			c1.8,1.7,3.8,2.6,6.1,2.6c3.9,0,9.5-3,12.1-8.7c2.7-5.9,0.9-15.2-7.9-21.4c-1.6-1.2-3.1-1.9-5-1.9c-0.4,0-0.9,0-1.3,0.1
			c0,0,0,0,0,0l0,0l-0.1-0.7c2.2-0.3,4.3-1.7,5.8-4c1.6-2.4,2.2-5.3,1.6-7.7c-1-3.7-3.4-6.2-6.8-7.1c-0.9-0.2-1.9-0.3-3-0.3
			c-1.8,0-3.5,0.4-5,1.1c-2.8,1.3-2.4,2.8-1.7,5.1c0.1,0.5,0.3,1.1,0.4,1.7c0.3,1.2,0,2.3-0.7,3.2c-0.8,1-2.2,1.6-3.6,1.6
			c-1.3,0-2.4-0.5-3.2-1.4c-3.1-3.8,0-9,2.7-11.7c3-2.8,7-4.4,11.2-4.4c1,0,2,0.1,3,0.3c3.9,0.7,7.4,2.7,9.8,5.7
			c2.6,3.2,3.7,7.3,3.3,11.7c-0.2,1.8-0.9,3.3-2.2,4.2c2.8,0.6,6.2,4.2,7.2,5.6c4.6,6.9,5.3,16.2,1.7,23.1c-3,5.8-9.2,9.6-16.4,10
			C189.1,217.3,188.7,217.4,188.2,217.4z M176.9,197.9c-1.3,0-2.1,1.7-2.3,3.3c-0.7,4.2,0.2,7.9,2.6,10.7c2.5,2.9,6.6,4.6,11.1,4.6
			c0.4,0,0.8,0,1.2,0c7-0.4,12.9-4,15.8-9.6c3.5-6.6,2.8-15.6-1.6-22.3c-1-1.6-4.9-5.4-7.3-5.4c-0.2,0-0.5,0-0.7,0.1l0,0l-0.3-0.7
			c0,0,0,0,0,0c1.9-0.8,2.9-2.2,3.1-4.4c0.4-4.3-0.7-8.1-3.2-11.2c-2.3-2.9-5.6-4.8-9.3-5.4c-1-0.2-1.9-0.2-2.9-0.2
			c-4.1,0-7.9,1.5-10.7,4.2c-2.6,2.4-5.4,7.3-2.7,10.6c0.6,0.8,1.5,1.2,2.6,1.2c1.2,0,2.3-0.5,3-1.4c0.6-0.7,0.8-1.6,0.6-2.6
			c-0.1-0.6-0.3-1.1-0.4-1.7c-0.7-2.5-1.2-4.4,2.1-6c1.6-0.7,3.4-1.1,5.3-1.1c1.1,0,2.1,0.1,3.1,0.4c3.6,0.9,6.3,3.7,7.4,7.6
			c0.7,2.6,0.1,5.8-1.7,8.3c-1.1,1.6-2.4,2.8-3.9,3.5c1.6,0.2,2.9,0.9,4.3,1.9c3.7,2.6,6.6,6.1,8.1,10c1.8,4.3,1.8,8.5,0,12.3
			c-2,4.4-7.2,9.1-12.8,9.1c-2.5,0-4.7-0.9-6.7-2.8c-1.1-1-1.5-2.2-1.3-3.2c0.2-0.7,0.6-1.1,1.1-1.6c0.3-0.3,0.5-0.5,0.7-0.8
			c0.5-0.8,0.5-2.1,0-3.3c-0.5-1.1-1.5-2-2.3-2.8C178.4,198.6,177.7,197.9,176.9,197.9z"/>
	</g>
	<g>
		<g>
			<path fill="#FFFFFF" d="M192.9,174.3c-1.5,2.7-4.2,4.4-7.1,5.5c-0.3,0.1-2.6,1.3-1.2,1.6c2.5,0.5,5,1,7.4,2
				c2.4,1,4.2,2.7,5.7,4.8c0.9,1.3,5.5-0.8,5.1-1.4c-1.6-2.2-3.5-4.1-6-5.2c-2.5-1.1-5.3-1.6-8-2.2c-0.4,0.5-0.8,1.1-1.2,1.6
				c4-1.5,8.2-3.7,10.3-7.6c0.5-0.8-1.8-0.6-2-0.5C195,173.1,193.4,173.4,192.9,174.3L192.9,174.3z"/>
		</g>
	</g>
	<g>
		<g>
			<path fill="#FFFFFF" d="M179.6,168.5c-0.3,6.5,0.6,13,2,19.4c1.4,6.4,3.2,12.8,3.3,19.4c0,1.3,1.3,1.6,2.5,1.5
				c0.9-0.1,3.1-0.8,3.1-2.1c-0.1-6.6-1.7-13-3.2-19.5c-1.4-6.3-2.5-12.8-2.2-19.3C185.2,165.4,179.7,166.3,179.6,168.5L179.6,168.5
				z"/>
		</g>
	</g>
	<g>
		<path fill="#FFFFFF" d="M217,158.6c0,0-0.6,3-0.6,3c-0.2-5.6-9.6-1.5-11.9,0.7c-4.4,4.3-3.7,11.2-1.5,16.2
			c2.4,5.6,10.6,7.6,14.8,1.9c0.7-1,1.9-0.9,1.9-0.9C227.8,182.7,217,158.6,217,158.6z M211.7,178.6c-4.5-1.5-5.8-13.7-0.4-14.7
			c2-0.4,3.2,1,3.8,3C215.9,169.5,217.4,180.5,211.7,178.6z"/>
		<path fill="#FFFFFF" d="M211.3,183.9c-3.6,0-6.9-2.2-8.3-5.4c-2.2-5.1-3-12,1.5-16.4c1.5-1.4,5.7-3.6,8.8-3.6
			c1.8,0,2.9,0.8,3.2,2.2c0.1-0.7,0.3-1.7,0.4-2.3l0.1-0.4l0.2,0.3c0.3,0.7,7.6,17.1,5.3,20.7c-0.3,0.5-0.8,0.7-1.3,0.7c0,0,0,0,0,0
			c-0.4,0-0.8-0.1-1.3-0.3c-0.1,0-1.2-0.1-1.8,0.8C216.4,182.7,214,183.9,211.3,183.9z M213.3,158.8c-3,0-7.2,2.1-8.6,3.5
			c-4.4,4.2-3.6,11.1-1.5,16.1c1.4,3.1,4.6,5.2,8.1,5.2c2.6,0,4.9-1.2,6.5-3.4c0.6-0.8,1.5-0.9,1.9-0.9c0.1,0,0.2,0,0.2,0l0,0
			c0.5,0.2,0.9,0.3,1.2,0.3c0,0,0,0,0,0c0.5,0,0.9-0.2,1.1-0.6c2.1-3.2-4.1-17.7-5.2-20.1c-0.2,0.8-0.5,2.6-0.5,2.7l-0.2,0.9l0-0.9
			C216.3,159.8,215.3,158.8,213.3,158.8z M212.9,178.9c-0.4,0-0.8-0.1-1.2-0.2c-2.7-0.9-4.2-5.6-4-9.4c0.2-3.1,1.5-5.1,3.6-5.5
			c1.8-0.3,3.2,0.7,3.9,3c0.7,2,1.6,8.5-0.3,11C214.4,178.6,213.7,178.9,212.9,178.9z M211.9,164c-0.2,0-0.4,0-0.6,0.1
			c-1.9,0.4-3.2,2.3-3.4,5.3c-0.3,3.7,1.2,8.3,3.8,9.1c1.3,0.4,2.3,0.2,3-0.7c1-1.3,1.1-3.8,1-5.6c-0.1-2.1-0.5-4.2-0.8-5.2
			C214.3,165,213.3,164,211.9,164z"/>
	</g>
	<g>
		<g>
			<path fill="#FFFFFF" d="M221.8,177.4c2.5-7.1-2.1-14.3-0.2-21.4c-2,0.5-4,0.9-6,1.4c0.2,5.4,0.5,10.8,1.5,16.1
				c0.4,2.2,0.8,4.5,2.3,6.3c0.9,1.1,2,2.1,3.3,2.6c1.8,0.7,3.7,0.6,5.6,0.1c1.6-0.4,3.6-1.2,4.5-2.8c0.8-1.6,0.5-3.5,0.3-5.2
				c-0.2-2.6-0.3-5.2-0.6-7.7c-0.4-5.1-1.2-10.1-1.6-15.2c-2,0.5-4,1.1-6,1.6c0.5,4.6,6.1,4.2,9.5,4.8c0.8,0.1,1.4,0.3,2.1,0.7
				c0.7,0.5,0.8,1.3,0.9,2.1c0.3,3.1,0,6.2,0.4,9.3c0.4,2.9,1.3,6.2,3.6,8.1c2,1.6,5.2,0.8,7.3-0.2c3.7-1.7,5.2-6,6.4-9.7
				c1.2-3.8,2.2-7.7,2.8-11.6c0.1-0.7-3-0.1-3.2,0c-0.8,0.2-2.6,0.6-2.8,1.6c-0.5,3-1.2,6-2,8.9c-0.6,1.9-1.2,3.9-2,5.7
				c-0.6,1.4-1.5,3.2-2.4,4.2c-0.1,0.1-0.2,0.2-0.3,0.3c-0.2,0.2-0.3,0.1,0,0c-0.4,0.1,0.2-0.1,0.2-0.1c-0.2,0.1-0.5,0.2,0.5-0.2
				c0.8-0.3,1.6-0.4,2.5-0.4c-0.4,0-0.3,0-0.5-0.2c-0.5-0.3-0.9-0.6-1.3-1.1c-1.8-2-2.5-5.2-2.7-7.8c-0.3-2.9,0-5.8-0.3-8.6
				c-0.2-1.8-1.1-2.7-2.8-3.2c-3.2-0.9-9.1,0.1-9.6-4.5c-0.1-1-6.1,0.1-6,1.6c0.3,3.9,0.8,7.8,1.2,11.8c0.5,4.2,0.7,8.5,1.1,12.8
				c0.1,1.2,0,2.5-0.7,3.5c-0.4,0.6-0.4-0.2,2-0.6c0.2,0,0.4,0,0.5-0.1c0.1,0,0.4,0.1,0.2,0c-0.4-0.2-1-0.2-1.4-0.5
				c-3.3-1.7-4.2-5.1-4.8-8.5c-0.9-5.2-1.2-10.6-1.4-15.9c0-1-5.7,0.2-6,1.4c-1.9,7.1,2.7,14.4,0.2,21.4c-0.3,1,2,0.5,2.4,0.5
				c0.8-0.1,1.6-0.4,2.3-0.7C221,178.1,221.7,177.8,221.8,177.4L221.8,177.4z"/>
		</g>
	</g>
</g>
</svg>
