<?xml version="1.0" encoding="utf-8"?>
<!-- Generator: Adobe Illustrator 18.1.0, SVG Export Plug-In . SVG Version: 6.00 Build 0)  -->
<!DOCTYPE svg PUBLIC "-//W3C//DTD SVG 1.1//EN" "http://www.w3.org/Graphics/SVG/1.1/DTD/svg11.dtd">
<svg version="1.1" id="Layer_1" xmlns="http://www.w3.org/2000/svg" xmlns:xlink="http://www.w3.org/1999/xlink" x="0px" y="0px"
	 viewBox="0 0 716 378" enable-background="new 0 0 716 378" xml:space="preserve">
<g>
	<g>
		<polygon fill="#F79131" points="577,157.5 429.5,76.1 473.1,287.2 		"/>
	</g>
	<g>
		<polygon fill="#F79131" stroke="#F79131" stroke-width="1.0008" stroke-linecap="round" stroke-miterlimit="10" points="
			362.4,258.9 170.7,311.8 145,143.8 343.4,137 		"/>
	</g>
	<g>
		<circle fill="#434345" cx="342.6" cy="204.3" r="151.2"/>
		<path fill="#FFFFFF" d="M342.6,358.4c-20.5,0-40.5-4-59.3-11.9c-18.2-7.6-34.6-18.5-48.7-32.4c-29-28.6-45.4-66.7-46-107.5
			c-0.3-20.8,3.4-41.1,11.2-60.2c7.5-18.5,18.3-35.1,32.3-49.5s30.2-25.8,48.5-33.8c18.9-8.3,39-12.7,59.8-13.1
			c21.4-0.3,42.2,3.7,61.8,11.8c18.2,7.6,34.6,18.5,48.7,32.4c29,28.6,45.4,66.7,46,107.5c0.3,20.8-3.4,41.1-11.2,60.2
			c-7.5,18.5-18.3,35.1-32.3,49.5c-13.9,14.4-30.2,25.8-48.5,33.8c-18.9,8.3-39,12.7-59.8,13.1C344.3,358.4,343.4,358.4,342.6,358.4
			z M342.7,56c-0.8,0-1.6,0-2.4,0c-20,0.3-39.4,4.5-57.5,12.6c-17.5,7.7-33.2,18.7-46.6,32.5s-23.8,29.9-31,47.6
			c-7.4,18.4-11,37.9-10.7,57.9c0.6,39.2,16.3,75.9,44.3,103.4c27.9,27.4,64.8,42.5,103.9,42.5c0.8,0,1.6,0,2.4,0
			c20-0.3,39.4-4.5,57.5-12.6c17.5-7.7,33.2-18.7,46.6-32.5c13.4-13.8,23.8-29.9,31-47.6c7.4-18.4,11-37.9,10.7-57.9
			c-0.6-39.2-16.3-75.9-44.3-103.4C418.7,71.2,381.8,56,342.7,56z"/>
	</g>
	<g>
		<path fill="#434345" stroke="#FFFFFF" stroke-width="18" stroke-miterlimit="10" d="M213.9,247.2"/>
	</g>
	<g>
		<path fill="#434345" d="M214.8,158.6c18.5-51.7,67.5-89,125.7-90c74.9-1.2,136.7,58.6,137.8,133.5S419.7,338.8,344.8,340
			c-19.5,0.3-38-3.5-54.9-10.6"/>
		<path fill="#FFFFFF" d="M342.6,344.5c-18.8,0-37.1-3.7-54.4-11l3.5-8.3c16.8,7.1,34.7,10.5,53,10.2c17.7-0.3,34.8-4,50.9-11.1
			c15.5-6.9,29.4-16.5,41.3-28.8c11.9-12.2,21.1-26.4,27.5-42.2c6.6-16.3,9.8-33.5,9.5-51.2c-0.3-17.7-4-34.8-11.1-50.9
			c-6.9-15.5-16.5-29.4-28.8-41.3c-12.2-11.9-26.4-21.1-42.2-27.5c-16.3-6.6-33.5-9.8-51.2-9.5c-27.2,0.4-53.2,9.1-75.1,25.1
			c-21.4,15.6-37.5,37-46.4,61.9l-8.4-3c9.5-26.6,26.6-49.4,49.5-66.1c23.4-17.1,51.2-26.3,80.3-26.8c18.9-0.3,37.3,3.1,54.7,10.2
			c16.8,6.8,32,16.7,45,29.3c13.1,12.7,23.4,27.5,30.7,44.1c7.6,17.2,11.6,35.5,11.9,54.4c0.3,18.9-3.1,37.3-10.2,54.7
			c-6.8,16.8-16.7,32-29.3,45c-12.7,13.1-27.5,23.4-44.1,30.7c-17.2,7.6-35.5,11.6-54.4,11.9C344.1,344.5,343.3,344.5,342.6,344.5z"
			/>
	</g>
	<g>
		<path fill="#F79131" d="M249.7,118.7c-1,10,18.3,24.2,26.8,22.4c9.9-2.2,12.9-14.3,13.4-23.1c1.2-22.5-15.8-41-37.7-43.8
			c-36.2-4.7-64.4,28.9-63.1,63.4c0.7,19.2,11.2,39.9,29.2,48.2c-4.3-1.9-12.7,20.3-13.8,22.8c-9.4,22-15.5,43.3-10.3,67.2
			c4.7,21.3,17.1,40.7,35.3,52.9c24.6,16.5,61.5,15,85.7-1.6c27.6-18.9,34.6-68.3-1.5-83.2c-2.4-1-5.1-1.7-7.5-0.9
			c-1.8,0.6-3.2,2.1-4.4,3.6c-7.3,8.7-10.8,20.4-9.6,31.7c0.2,1.8,0.5,3.6,1.7,5c1.9,2.3,5.3,2.5,8.1,3.6c6.5,2.7,9.4,11.1,7.3,17.9
			c-2.1,6.7-8,11.7-14.4,14.7c-14,6.4-31.3,4.1-44-4.7c-28.9-20.2-28.5-57-19.6-87.7c3.1-10.6,7.4-20.8,11.9-30.8
			c4-8.9,7.1-17,13.1-24.9c-9.2-3.2-18.1-4.1-26.1-10.9c-14.7-12.4-16.2-32.6-13-50.3c2.2-12.6,13.6-30.4,27.6-25.7
			c11.2,3.8,16.9,21.4,7.2,30.2c-0.6,0.5-1.2,1.1-1.5,1.9C249.9,117.2,249.8,117.9,249.7,118.7z"/>
		<path fill="#F79131" d="M270.3,343.5c-15.8,0-30.9-4.3-42.7-12.2c-18.3-12.3-31.7-32.2-36.7-54.8c-5.7-25.9,1.7-48.6,10.5-69.2
			c0.1-0.2,0.3-0.6,0.5-1.2c4.3-10.7,7.5-16.8,10.1-20.1c-7-4.3-13-10.7-17.6-18.7c-5.1-8.9-8.2-19.4-8.5-29.7
			c-0.7-17.9,6.4-36.4,18.9-49.3c11.1-11.5,25.5-17.9,40.6-17.9c2.4,0,4.8,0.2,7.2,0.5c11.5,1.5,22,7.1,29.5,15.6
			c7.7,8.8,11.6,20,11,31.6c-0.4,6.9-2.6,23.2-15.9,26.1c-0.7,0.2-1.5,0.2-2.3,0.2h0c-7.3,0-16.9-6.3-22.3-12.3
			c-3-3.3-6.5-8.4-6-13.8c0.1-1.1,0.4-2.2,0.8-3.1c0.6-1.4,1.6-2.3,2.3-2.9c3.3-3,4.6-7.6,3.5-12.7c-1.2-5.6-5-10.5-9.6-12
			c-1.2-0.4-2.4-0.6-3.6-0.6c-10,0-18.1,14.1-19.8,23.8c-1.7,9.6-1.8,18.3-0.2,26c1.8,8.9,5.9,16.1,12.1,21.3
			c5.4,4.5,11.4,6.2,17.7,8c2.4,0.7,4.8,1.4,7.3,2.2l4.2,1.4l-2.6,3.5c-4.8,6.4-7.8,13.1-10.9,20.2c-0.6,1.3-1.2,2.7-1.8,4.1
			c-4.3,9.5-8.6,19.7-11.7,30.4c-4.9,16.8-6.4,32.8-4.3,46.4c2.5,16.3,10.2,29,22.7,37.8c7.2,5,16,7.8,24.9,7.8
			c5.7,0,11.1-1.1,15.9-3.4c6.5-3,11.1-7.6,12.7-12.7c1.5-4.9-0.3-11.9-5.4-13.9c-0.7-0.3-1.5-0.5-2.3-0.7c-2.3-0.6-5.1-1.4-7-3.8
			c-1.7-2-2.1-4.5-2.4-6.7c-1.3-12.2,2.5-24.7,10.4-34.1c1.4-1.7,3.3-3.6,5.8-4.5c1.1-0.4,2.2-0.6,3.4-0.6c1.9,0,4,0.5,6.4,1.5
			c15.3,6.3,24.6,18.9,26.4,35.4c2.1,20.1-7.9,42.1-24.3,53.4C304,338.6,287.4,343.5,270.3,343.5z M218.2,188.7
			c-0.7,0.4-3.5,3-10.4,19.8c-0.2,0.6-0.4,1-0.5,1.3c-8.4,19.6-15.4,41.1-10.1,65.3c4.6,21,17,39.5,34,50.9
			c10.7,7.2,24.6,11.1,39.1,11.1c15.8,0,31.1-4.5,43-12.7c14.6-10,23.4-29.5,21.5-47.4c-1.5-14.1-9.5-24.8-22.5-30.2
			c-2.4-1-4-1.2-5.2-0.8c-1.1,0.4-2.2,1.5-3.1,2.6c-6.7,8-10,19-8.9,29.4c0.1,1.2,0.3,2.6,0.9,3.3c0.7,0.8,2.2,1.3,3.8,1.7
			c1,0.3,2,0.6,3,1c3.9,1.6,7,4.9,8.7,9.2c1.5,4,1.7,8.6,0.5,12.6c-1.2,4-5,11.6-16.1,16.7c-5.7,2.6-12,3.9-18.6,3.9
			c-10.1,0-20.3-3.2-28.5-9c-14-9.8-22.5-23.9-25.3-42c-2.2-14.5-0.7-31.4,4.4-49.1c3.2-11,7.7-21.5,12-31.2c0.6-1.4,1.2-2.7,1.8-4
			c2.7-6.2,5.3-12.1,9.1-17.9c-1-0.3-2-0.6-2.9-0.8c-6.7-1.9-13.7-3.9-20.1-9.3c-7.3-6.2-12.1-14.6-14.3-24.9
			c-1.7-8.4-1.7-18,0.2-28.4c2.1-11.7,11.8-29.1,26.1-29.1c1.9,0,3.8,0.3,5.7,1c6.8,2.3,12.2,8.9,13.8,16.8
			c1.5,7.4-0.5,14.2-5.5,18.8c-0.4,0.4-0.6,0.6-0.7,0.8c-0.2,0.4-0.3,0.7-0.3,1.1c-0.2,2.3,1.4,5.5,4.4,8.8
			c5.1,5.6,13,10.2,17.6,10.2c0,0,0,0,0,0c0.4,0,0.7,0,0.9-0.1c3.5-0.8,6.1-3.2,8-7.3c1.6-3.4,2.6-8,2.8-12.9
			c0.5-9.9-2.8-19.5-9.4-27c-6.5-7.4-15.6-12.2-25.5-13.5c-2.1-0.3-4.3-0.4-6.4-0.4c-13.3,0-26.1,5.7-36,15.9
			c-11.3,11.7-17.7,28.4-17.1,44.7c0.3,9.2,3.1,18.7,7.7,26.7c4.9,8.6,11.7,15.1,19.6,18.7l-2.7,5.8c0.2,0.1,0.5,0.2,0.8,0.2
			C218,188.8,218.2,188.7,218.2,188.7L218.2,188.7z"/>
	</g>
	<g>
		<path fill="#F79131" d="M412.6,160.7c-3-5.7-7.2-10.7-11.5-15.5c-9-10.1-11-24.9-3.1-36.8c-13.7-0.5-28.6,18.1-26.3,31
			c0.9,4.8,3.8,7.5,7.4,10.3c7.9,6.3,14.4,14.8,17.6,24.4c2.3,6.9,5.8,30.9-6.4,31.5c-8,0.4-16-11.8-17.4-18.6
			c-2.5-12.1,2.8-25.1,5.2-36.5c-0.1,0.5-3.1,1.7-3.5,1.9c-7.4,4.3-17.1,10.3-20,18.7c-2.1,6.1-0.1,12.9,3.5,18.2
			c3.2,4.7-0.7,18-5.8,19.3c-10.8,2.7-20.5-67.6-16.4-68.7c0,0-12.2,3.3-12.2,3.3s-2.1,10.4-2.1,10.4c0.3-1.4-9.7-6-11.1-6.5
			c-3.2-1.3-6.6-2.3-10-2.5c-17.2-1-26,16.6-28.7,31.1c-3.1,16.2-1.3,36.9,10.5,49.5c5.8,6.2,14,9.3,22.5,8.5
			c10.7-1,26.3-8.3,23-21.5c2.3,9.2,11,12.3,19.7,11.4c7.7-0.9,16.9-8.7,16.4-17.1c0.3,5.8,8.4,7.7,12.9,8.8
			c6.1,1.5,12.5,1.5,18.6,0c10-2.5,19.6-9.2,23.2-19.2C422.5,185.2,417.8,170.7,412.6,160.7z M317.6,189.2c0.2,5.9,0.4,12.3-1.5,18
			c-4.2,12.2-17.9,6.7-22.5-2.3c-4.3-8.6-4.3-19.7-1.9-28.7c1.3-4.7,4.2-14.3,10.2-15.2c8-1.1,11.9,4.8,13.8,11.2
			c0.4,1.5,0.7,2.9,1,4.4C317.3,180.7,317.5,185,317.6,189.2z"/>
		<path fill="#F79131" d="M302.2,234c-7.6,0-14.7-3.1-20-8.7c-12.2-13.1-13.5-34.2-10.6-49.6c1.5-8.1,4.6-15.5,8.6-20.9
			c5.1-6.9,11.5-10.3,18.9-10.3c0.4,0,0.9,0,1.4,0c3.2,0.2,6.6,1,10.1,2.5c0.1,0,9.3,4.1,10.9,6.1c0.2-0.9,0.7-3.4,2-9.9l0-0.1
			l0.1,0c1.2-0.3,12.2-3.2,12.2-3.3l0.1,0.3c-1.1,0.3-1.3,7.9,0.5,21.9c3,23.1,9.2,46.6,15.2,46.6c0,0,0,0,0,0c0.2,0,0.4,0,0.6-0.1
			c1.9-0.5,3.9-3,5.3-6.7c2.2-5.7,1.7-10.4,0.3-12.4c-4.1-6-5.4-12.8-3.5-18.3c3.1-9,14.1-15.4,20.1-18.8c0.1-0.1,0.4-0.2,0.8-0.4
			c0.7-0.3,2.6-1.2,2.7-1.5l0.3,0.1v0l0,0c-0.6,2.8-1.3,5.7-2.1,8.7c-2.4,9.2-4.9,18.6-3,27.7c1.3,6.3,8.9,18.5,16.9,18.5h0
			c0.1,0,0.2,0,0.4,0c2.5-0.1,4.4-1.2,5.8-3.3c4.7-6.9,2.2-22.6,0.4-28c-3-9-9.3-17.7-17.5-24.4c-3.7-3-6.6-5.6-7.4-10.4
			c-1.1-6.1,1.7-14.1,7.3-20.8c5.5-6.5,12.4-10.4,18.6-10.4c0.2,0,0.4,0,0.6,0l0.3,0l-0.2,0.3c-7.6,11.3-6.3,26,3.1,36.5
			c4.2,4.7,8.5,9.7,11.5,15.6c2.1,4.1,4.9,10.4,6.4,17.4c1.5,7,1.4,13.1-0.4,18.1c-3.2,9.1-12.1,16.4-23.3,19.3
			c-3,0.8-6.2,1.2-9.4,1.2h0c-3.2,0-6.3-0.4-9.3-1.1l-0.2-0.1c-4.2-1-10.9-2.7-12.4-7.2c-0.3,3.4-2.1,6.8-5.2,9.8
			c-3.3,3.2-7.5,5.4-11.4,5.8c-1,0.1-2,0.2-3,0.2c-7.8,0-13.7-3.5-16.1-9.4c0.3,3.2-0.6,6.2-2.5,8.9c-4.5,6.3-13.8,9.8-21.1,10.5
			C303.9,234,303,234,302.2,234z M299.2,144.8c-7.3,0-13.6,3.4-18.7,10.2c-4,5.4-7,12.7-8.6,20.7c-2.9,15.3-1.7,36.3,10.5,49.3
			c5.2,5.5,12.2,8.6,19.7,8.6c0.9,0,1.8,0,2.6-0.1c7.2-0.7,16.4-4.1,20.8-10.3c2.3-3.3,3-7,2-11l0.3-0.1c1.8,7.1,7.9,11.4,16.5,11.4
			c1,0,2-0.1,3-0.2c7.7-0.9,16.7-8.8,16.3-16.9l0,0l0,0l0.4,0c0.3,5.5,7.9,7.4,12.5,8.6l0.2,0.1c6.1,1.5,12.5,1.5,18.5,0
			c11-2.8,19.9-10.1,23-19.1c1.5-4.2,3.9-16.1-6-35.3c-3-5.8-7.3-10.8-11.5-15.5c-9.4-10.6-10.7-25.3-3.3-36.7
			c-6.2-0.1-13.1,3.8-18.6,10.3c-5.5,6.6-8.3,14.4-7.2,20.5c0.8,4.7,3.7,7.3,7.3,10.2c8.3,6.7,14.6,15.4,17.7,24.5
			c1.8,5.5,4.3,21.4-0.4,28.3c-1.5,2.2-3.5,3.3-6.1,3.4c-0.1,0-0.3,0-0.4,0h0c-3.6,0-7.5-2.4-11.1-6.9c-3-3.7-5.4-8.3-6.1-11.9
			c-1.9-9.1,0.6-18.7,3-27.9c0.7-2.8,1.5-5.5,2-8.2c-0.5,0.3-1.3,0.7-2.4,1.2c-0.3,0.2-0.6,0.3-0.7,0.3c-5.9,3.4-16.9,9.7-19.9,18.6
			c-1.8,5.4-0.5,12.2,3.5,18c2,2.9,1.2,8.6-0.3,12.7c-1.4,3.8-3.5,6.4-5.6,6.9c-0.2,0.1-0.4,0.1-0.7,0.1c0,0,0,0,0,0
			c-3.1,0-6.3-5.4-9.4-15.9c-2.5-8.4-4.7-19.7-6.2-30.9c-1.2-8.9-2-19.3-0.8-21.8c-2.3,0.6-10.5,2.8-11.5,3.1
			c-0.2,1.1-2,10.2-2,10.3c0,0,0,0,0,0l-0.4-0.1c0,0,0,0,0,0h0c0.2-1-8.1-5.1-11-6.3c-3.5-1.5-6.8-2.3-10-2.5
			C300.1,144.8,299.6,144.8,299.2,144.8z M307.3,214.4c-5.2,0-11.1-4.1-13.8-9.5c-3.9-7.8-4.6-18.6-1.9-28.8
			c2.6-9.6,6-14.7,10.4-15.3c0.6-0.1,1.3-0.1,1.9-0.1c5.7,0,9.9,3.9,12.1,11.4c0.4,1.4,0.7,2.8,1,4.4c0.7,4.2,0.8,8.4,1,12.6l0,0.4
			c0.2,6,0.4,12.1-1.6,17.7C314.6,211.9,311.4,214.4,307.3,214.4z M303.7,161.1c-0.6,0-1.2,0-1.8,0.1c-4.2,0.6-7.5,5.6-10.1,15
			c-2.1,7.8-2.7,19.4,1.9,28.5c2.7,5.3,8.5,9.3,13.5,9.3c4,0,7.1-2.5,8.6-6.9c1.9-5.5,1.7-11.7,1.5-17.6l0-0.4
			c-0.1-4.1-0.3-8.4-1-12.5c-0.3-1.5-0.6-3-1-4.3C313.3,164.8,309.4,161.1,303.7,161.1z"/>
	</g>
	<g>
		<g>
			<path fill="#F79131" d="M328.1,109.1c21.2-2.4,42-7.1,62.6-12.7c18.1-4.9,36-10.4,54.3-14.6c1.3-0.3,2.5-0.6,3.8-0.8
				c3-0.6-5.5,1.1-2.5,0.5c0.6-0.1,1.3-0.3,1.9-0.4c2.6-0.5,5.2-1,7.7-1.5c5.5-1,11.1-1.8,16.7-2.5c4.7-0.6,10-2.3,14.1-4.6
				c2.1-1.1,6.8-3.9,7.4-6.7c1.5-7.5-11.7-6.1-15.4-5.6c-20.2,2.5-40.2,7-59.8,12.3c-18.7,5.1-37.1,10.7-56,14.9
				c-0.6,0.1-1.1,0.2-1.7,0.4c-3.6,0.8,5.1-1.1,2-0.4c-1.3,0.3-2.7,0.5-4,0.8c-2.7,0.5-5.4,1-8.1,1.5c-5.6,1-11.3,1.8-16.9,2.4
				c-4.6,0.5-10,2.4-14.1,4.6c-2.1,1.1-6.8,3.9-7.4,6.7C311.1,111,324.3,109.5,328.1,109.1L328.1,109.1z"/>
		</g>
	</g>
	<g>
		<g>
			<path fill="#F79131" d="M405.3,37.8c3.9,23.9,7.7,47.8,9.6,71.9c-0.1-0.7-0.1-1.5-0.2-2.2c0.6,8,0.9,15.9,1,23.9
				c0.1,8,0.2,16,0.9,23.9c1.2,13.1,5.2,25.9,13.9,36c4.5,5.2,9.6,9.4,15.8,12.3c6.7,3.2,14.5,3.7,21.7,2
				c14-3.5,23.6-15.7,25.8-29.6c1.9-12.1-1.3-26.1-9.1-35.7c-3.5-4.2-10.4-4.3-14.9-1.8c-3.7,2-8.7,7.2-5.1,11.7
				c1.7,2.1,3.1,4.3,4.2,6.7c-0.3-0.7-0.6-1.3-0.9-2c2.3,4.9,3.7,10.2,4.1,15.6c-0.1-0.7-0.1-1.5-0.2-2.2c0.3,4.4,0,8.7-1.2,12.9
				c0.2-0.7,0.4-1.4,0.6-2.2c-0.5,1.8-1.2,3.6-2,5.3c-0.4,0.8-0.8,1.5-1.2,2.3c1.6-2.9,0-0.1-0.6,0.6c-0.3,0.4-0.6,0.8-1,1.1
				c-0.6,0.6-1.8,1.4,0.7-0.6c-0.7,0.6-1.4,1.2-2.2,1.8c-0.3,0.2-0.6,0.4-0.9,0.6c1.6-1,2.1-1.3,1.3-0.8c-0.4,0.2-0.9,0.5-1.3,0.7
				c-1.1,0.5-2.6,0.5,0.9-0.3c-0.4,0.1-0.9,0.3-1.3,0.4c-1.1,0.3-2.2,0.1,1.2-0.2c-0.4,0-0.9,0.1-1.3,0.1c-0.4,0-0.9,0-1.3,0
				c3.5-0.2,1.9,0.1,0.9,0c-0.5-0.1-1-0.2-1.5-0.2c-1.6-0.3,2.5,0.8,0.8,0.2c-0.9-0.3-1.7-0.5-2.5-0.9c-0.4-0.2-0.8-0.4-1.2-0.6
				c-1.6-0.7,2.1,1.3,0.3,0.2c-0.9-0.5-1.7-1.1-2.6-1.6c-1.7-1.2-3.3-2.6-4.8-4c0.5,0.5,1.1,1,1.6,1.6c-4.2-4.1-7.7-9-10.3-14.3
				c0.3,0.7,0.6,1.3,0.9,2c-3.6-7.7-5.1-16.3-5.7-24.7c0.1,0.7,0.1,1.5,0.2,2.2c-0.5-7.1-0.5-14.3-0.6-21.4
				c-0.1-8.2-0.6-16.3-1.2-24.5c-1.2-15.5-3.2-30.8-5.5-46.2c-1.3-8.6-2.7-17.2-4.1-25.8c-0.4-2.2-2.8-3.9-4.7-4.7
				c-2.5-1-5.8-1-8.4-0.2C409.3,28.5,404.4,32.1,405.3,37.8L405.3,37.8z"/>
		</g>
	</g>
	<g>
		<g>
			<path fill="#F79131" d="M327.9,210.8c9.2-22.9-6-49.6,1.2-73.2c0.2,20.2,0.8,40.5,4.5,60.4c0.9,4.9,2,9.8,4.7,14
				c2.7,4.2,4.2,8,9.1,8"/>
		</g>
		<g>
			<g>
				<path fill="#F79131" d="M337.1,209.3c7.3-18.6-0.2-38.5-0.7-57.5c-0.1-5.4,0.4-10.6,1.9-15.8c-6.2,1.3-12.3,2.7-18.5,4
					c0.1,12.9,0.4,25.8,1.6,38.7c0.6,6.4,1.4,12.7,2.4,19c1,5.7,2,11.5,5,16.5c1.4,2.3,2.7,4.7,4.4,6.7c2.1,2.3,5.2,3.2,8.2,3.3
					c4.4,0.1,9.6-0.8,13.1-3.5c0.9-0.7,2.4-1.8,2.1-3.1c-0.3-1.3-2.4-1.6-3.4-1.7c-0.2,0-0.5-0.1-0.8,0c-0.8,0,0.6,0,0.5,0.1
					c-0.1,0-0.8-0.3-0.8-0.3c0.1,0,0.7,0.4,0.2,0.1c-0.8-0.5-1.4-1.1-2-1.8c-1.2-1.4-2.3-3.5-3.3-5.2c-2.8-4.9-3.8-10.5-4.7-16
					c-2.1-12.1-3.1-24.5-3.5-36.8c-0.3-7-0.4-14-0.5-20.9c0-1.2-2.8-1.6-3.4-1.7c-1.9-0.1-3.7,0.1-5.6,0.5c-2,0.4-4,1-5.8,2
					c-1.3,0.7-3.3,1.7-3.7,3.2c-5.7,19.1,2.1,38.5,1.7,57.9c-0.1,5.3-1,10.5-2.9,15.4c-1.3,3.4,6.2,2.7,7.6,2.5
					c2.4-0.4,4.9-1.1,7.1-2.3C334.7,211.7,336.5,210.8,337.1,209.3L337.1,209.3z"/>
			</g>
		</g>
	</g>
	<g>
		<path fill="#FFFFFF" d="M249.1,110.6c-1,10,18.3,24.2,26.8,22.4c9.9-2.2,12.9-14.3,13.4-23.1c1.2-22.5-15.8-41-37.7-43.8
			c-36.2-4.7-64.4,28.9-63.1,63.4c0.7,19.2,11.2,39.9,29.2,48.2c-4.3-1.9-12.7,20.3-13.8,22.8c-9.4,22-15.5,43.3-10.3,67.2
			c4.7,21.3,17.1,40.7,35.3,52.9c24.6,16.5,61.5,15,85.7-1.6c27.6-18.9,34.6-68.3-1.5-83.2c-2.4-1-5.1-1.7-7.5-0.9
			c-1.8,0.6-3.2,2.1-4.4,3.6c-7.3,8.7-10.8,20.4-9.6,31.7c0.2,1.8,0.5,3.6,1.7,5c1.9,2.3,5.3,2.5,8.1,3.6c6.5,2.7,9.4,11.1,7.3,17.9
			c-2.1,6.7-8,11.7-14.4,14.7c-14,6.4-31.3,4.1-44-4.7c-28.9-20.2-28.5-57-19.6-87.7c3.1-10.6,7.4-20.8,11.9-30.8
			c4-8.9,7.1-17,13.1-24.9c-9.2-3.2-18.1-4.1-26.1-10.9c-14.7-12.4-16.2-32.6-13-50.3c2.2-12.6,13.6-30.4,27.6-25.7
			c11.2,3.8,16.9,21.4,7.2,30.2c-0.6,0.5-1.2,1.1-1.5,1.9C249.4,109.2,249.2,109.9,249.1,110.6z"/>
		<path fill="#FFFFFF" d="M269.8,333.6c-15.4,0-30.2-4.2-41.6-11.9c-17.9-12-31-31.6-35.9-53.7c-5.6-25.4,1.7-47.7,10.4-68
			c0.1-0.2,0.3-0.7,0.5-1.2c4.8-11.8,8.3-18.6,11.3-21.3c-7.6-4.2-14.1-10.7-18.9-19.2c-5-8.6-7.9-18.9-8.3-28.8
			c-0.7-17.4,6.2-35.4,18.4-48c10.7-11.2,24.7-17.3,39.2-17.3c2.3,0,4.7,0.2,7,0.5c11.1,1.5,21.1,6.8,28.4,15
			c7.4,8.4,11.1,19.1,10.5,30.2c-0.3,6.4-2.4,21.7-14.4,24.4c-0.6,0.1-1.2,0.2-1.9,0.2c0,0,0,0,0,0c-5.9,0-14.9-5-21-11.7
			c-2.8-3.1-6-7.7-5.5-12.3c0.1-0.9,0.3-1.8,0.7-2.6c0.5-1,1.2-1.8,1.8-2.3c3.8-3.5,5.3-8.7,4.1-14.5c-1.3-6.4-5.6-11.6-10.8-13.4
			c-1.4-0.5-2.8-0.7-4.2-0.7c-3.5,0-8.7,1.5-14.1,8.5c-3.7,4.8-6.5,11.1-7.5,16.9c-1.7,9.8-1.8,18.8-0.2,26.7
			c1.9,9.3,6.2,16.9,12.8,22.4c5.7,4.8,11.9,6.5,18.4,8.4c2.4,0.7,4.8,1.4,7.2,2.2l1.7,0.6l-1.1,1.5c-5,6.6-8,13.4-11.1,20.6
			c-0.6,1.3-1.2,2.7-1.8,4.1c-4.3,9.5-8.7,19.9-11.8,30.6c-5,17.1-6.5,33.4-4.3,47.2c2.6,16.9,10.5,30,23.4,39
			c7.5,5.2,16.7,8.1,25.9,8.1c6,0,11.6-1.2,16.7-3.5c6.9-3.2,11.9-8.2,13.7-13.9c2.2-7.2-1.6-14.2-6.5-16.2
			c-0.8-0.3-1.6-0.6-2.5-0.8c-2.2-0.6-4.5-1.3-6.1-3.2c-1.4-1.7-1.8-3.8-2-5.7c-1.2-11.7,2.4-23.7,9.9-32.7c1.3-1.5,2.9-3.2,5-4
			c0.9-0.3,1.8-0.5,2.8-0.5c1.7,0,3.5,0.4,5.7,1.3c14.6,6,23.6,18.1,25.2,33.9c2.1,19.5-7.6,40.7-23.5,51.6
			C302.7,328.8,286.5,333.6,269.8,333.6z M244.7,67c-13.8,0-27.1,5.9-37.3,16.5c-11.7,12.1-18.2,29.3-17.6,46
			c0.4,9.5,3.2,19.3,7.9,27.6c5.1,8.9,12.2,15.7,20.5,19.4l-1.1,2.4c-0.1,0-1.8,0.1-5.9,8.2c-2.4,4.7-4.6,10.1-5.6,12.7
			c-0.2,0.6-0.4,1-0.5,1.3c-8.5,19.9-15.6,41.7-10.2,66.4c4.7,21.4,17.4,40.4,34.7,52c11,7.4,25.2,11.4,40.1,11.4
			c16.2,0,31.9-4.6,44.1-13c15.1-10.4,24.3-30.6,22.3-49.1c-1.6-14.8-9.9-26.1-23.6-31.7c-1.9-0.8-3.4-1.1-4.7-1.1
			c-0.7,0-1.3,0.1-1.9,0.3c-1.5,0.5-2.8,1.9-3.9,3.2c-7,8.4-10.5,19.9-9.3,30.7c0.2,1.6,0.4,3.2,1.4,4.3c1.1,1.3,2.9,1.8,4.8,2.3
			c0.9,0.3,1.9,0.5,2.8,0.9c3.4,1.4,6.1,4.3,7.6,8.2c1.4,3.6,1.5,7.7,0.4,11.3c-2,6.4-7.5,12-15.1,15.5c-5.5,2.5-11.5,3.8-17.8,3.8
			c-9.7,0-19.5-3.1-27.5-8.6c-13.6-9.5-21.8-23.2-24.5-40.8c-2.2-14.2-0.7-30.9,4.4-48.3c3.2-10.9,7.6-21.4,11.9-31
			c0.6-1.4,1.2-2.7,1.8-4c3-6.8,5.9-13.3,10.3-19.7c-1.8-0.6-3.6-1.1-5.4-1.6c-6.8-2-13.3-3.8-19.4-8.9c-7-5.9-11.6-13.9-13.7-23.9
			c-1.7-8.2-1.6-17.5,0.2-27.7c2-11.6,11.6-27.6,24.3-27.6c1.7,0,3.4,0.3,5.1,0.9c6.1,2.1,11.1,8.1,12.6,15.4
			c1.4,6.7-0.4,12.9-4.9,17c-0.6,0.6-1,1-1.2,1.4c-0.2,0.5-0.4,1.1-0.5,1.7c-0.3,2.8,1.4,6.5,4.9,10.3c5.5,6.1,13.8,10.8,19,10.8h0
			c0.5,0,0.9,0,1.3-0.1c3.4-0.7,11.4-4.4,12.3-21.9c0.6-10.4-3-20.5-9.9-28.3c-6.8-7.7-16.3-12.7-26.7-14.1
			C249.2,67.1,246.9,67,244.7,67z"/>
	</g>
	<g>
		<path fill="#FFFFFF" d="M410.6,153c-3-5.7-7.2-10.7-11.5-15.5c-9-10.1-11-24.9-3.1-36.8c-13.7-0.5-28.6,18.1-26.3,31
			c0.9,4.8,3.8,7.5,7.4,10.3c7.9,6.3,14.4,14.8,17.6,24.4c2.3,6.9,5.8,30.9-6.4,31.5c-8,0.4-16-11.8-17.4-18.6
			c-2.5-12.1,2.8-25.1,5.2-36.5c-0.1,0.5-3.1,1.7-3.5,1.9c-7.4,4.3-17.1,10.3-20,18.7c-2.1,6.1-0.1,12.9,3.5,18.2
			c3.2,4.7-0.7,18-5.8,19.3c-8.8,2.2-16-41.5-15.6-48.4c0.1-2.5-2.4-19.9-0.8-20.3l-12.2,3.3c0,0-2.1,10.4-2.1,10.4
			c0.3-1.4-9.7-6-11.1-6.5c-3.2-1.3-6.6-2.3-10-2.5c-17.2-1-26,16.6-28.7,31.1c-3.1,16.2-1.3,36.9,10.5,49.5
			c5.8,6.2,14,9.3,22.5,8.5c10.7-1,26.3-8.3,23-21.5c2.3,9.2,11,12.3,19.7,11.4c7.7-0.9,16.9-8.7,16.4-17.1
			c0.3,5.8,8.4,7.7,12.9,8.8c6.1,1.5,12.5,1.5,18.6,0c10-2.5,19.6-9.2,23.2-19.2C420.5,177.5,415.8,163.1,410.6,153z M315.6,181.5
			c0.2,5.9,0.4,12.3-1.5,18c-4.2,12.2-17.9,6.7-22.5-2.3c-4.3-8.6-4.3-19.7-1.9-28.7c1.3-4.7,4.2-14.3,10.2-15.2
			c8-1.1,11.9,4.8,13.8,11.2c0.4,1.5,0.7,2.9,1,4.4C315.3,173.1,315.5,177.3,315.6,181.5z"/>
	</g>
	<g>
		<g>
			<path fill="#FFFFFF" d="M325,102.2c21.3-2.4,42.3-7.2,62.9-12.8c18.6-5,36.9-10.3,55.7-14.4c0.4-0.1,0.9-0.2,1.3-0.3
				c1.9-0.4,0.9-0.2-3.1,0.7c0.4-0.1,0.8-0.2,1.3-0.3c1.3-0.3,2.5-0.5,3.8-0.8c2.5-0.5,5-1,7.5-1.5c5-0.9,10-1.8,15.1-2.6
				c4.8-0.8,9.8-2.3,14.1-4.6c2.1-1.1,6.8-3.9,7.4-6.7c1.5-7.4-11.6-6.2-15.4-5.6c-19.9,3.1-39.7,7.4-59.2,12.3
				c-18.9,4.8-37.6,10.7-56.6,14.9c-0.4,0.1-0.9,0.2-1.3,0.3c-0.4,0.1-0.9,0.2-1.3,0.3c3.9-0.8,4.9-1,3-0.6c-1.3,0.3-2.7,0.5-4,0.8
				c-2.7,0.5-5.4,1-8.1,1.5c-5.6,1-11.3,1.8-16.9,2.4c-4.6,0.5-10,2.4-14.1,4.6c-2.1,1.1-6.8,3.9-7.4,6.7
				C308.1,104.1,321.3,102.6,325,102.2L325,102.2z"/>
		</g>
	</g>
	<g>
		<g>
			<path fill="#FFFFFF" d="M401.2,30.8c3.9,23.9,7.7,47.8,9.6,71.9c-0.1-0.7-0.1-1.5-0.2-2.2c0.6,8,0.9,15.9,1,23.9
				c0.1,8,0.2,16,0.9,23.9c1.2,13.1,5.2,25.9,13.9,36c4.5,5.2,9.6,9.4,15.8,12.3c6.7,3.2,14.5,3.7,21.7,2
				c13.9-3.5,23.7-15.6,25.2-29.6c1.4-12.3-2.5-26.1-10.3-35.7c-3.5-4.2-10.4-4.3-14.9-1.8c-3.7,2-8.7,7.2-5.1,11.7
				c1.9,2.3,3.4,4.8,4.7,7.5c-0.3-0.7-0.6-1.3-0.9-2c2.5,5.2,4,10.8,4.5,16.6c-0.1-0.7-0.1-1.5-0.2-2.2c0.3,4.2,0.1,8.3-1,12.4
				c0.2-0.7,0.4-1.4,0.6-2.2c-0.5,1.7-1.1,3.4-1.9,5c-0.2,0.4-0.5,0.9-0.7,1.3c-0.8,1.4,1.4-1.9,0.4-0.6c-0.5,0.7-1,1.4-1.6,2
				c-0.3,0.3-0.6,0.6-0.9,0.9c2-2.3,1.3-1.2,0.6-0.6c-0.8,0.6-1.6,1.2-2.4,1.8c3-2.2,0.4-0.4-0.6,0.1c-1.8,0.8,2.9-0.9,1.1-0.4
				c-0.5,0.1-1,0.2-1.5,0.4c-1.2,0.3,3.4-0.3,1.2-0.2c-0.4,0-0.9,0.1-1.3,0.1c-2.1,0.1,2.2,0.2,1.1,0c-0.5-0.1-1-0.1-1.5-0.2
				c-0.2,0-1.3-0.2-1.3-0.2c0,0,3,0.8,0.8,0.2c-0.9-0.3-1.7-0.6-2.5-0.9c-0.4-0.2-0.8-0.4-1.2-0.6c2.5,1,1.2,0.7,0.5,0.2
				c-0.8-0.5-1.6-1-2.4-1.5c-1.7-1.2-3.3-2.6-4.8-4c0.5,0.5,1.1,1,1.6,1.6c-4.2-4.1-7.7-9-10.3-14.3c0.3,0.7,0.6,1.3,0.9,2
				c-3.6-7.7-5.1-16.3-5.7-24.7c0.1,0.7,0.1,1.5,0.2,2.2c-0.5-7.1-0.5-14.3-0.6-21.4c-0.1-8.2-0.6-16.3-1.2-24.5
				c-1.2-15.5-3.2-30.8-5.5-46.2c-1.3-8.6-2.7-17.2-4.1-25.8c-0.4-2.2-2.8-3.9-4.7-4.7c-2.5-1-5.8-1-8.4-0.2
				C405.2,21.6,400.3,25.2,401.2,30.8L401.2,30.8z"/>
		</g>
	</g>
	<g>
		<g>
			<path fill="#FFFFFF" d="M334.4,201.7c7.3-18.6-0.2-38.5-0.7-57.5c-0.1-5.4,0.4-10.6,1.9-15.8c-6.2,1.3-12.3,2.7-18.5,4
				c0.1,12.9,0.4,25.8,1.6,38.7c0.6,6.4,1.4,12.7,2.4,19c1,5.7,2,11.5,5,16.5c1.4,2.3,2.7,4.7,4.4,6.7c2.1,2.3,5.2,3.2,8.2,3.3
				c4.4,0.1,9.6-0.8,13.1-3.5c0.9-0.7,2.4-1.8,2.1-3.1c-0.3-1.3-2.4-1.6-3.4-1.7c-0.2,0-0.5-0.1-0.8,0c-0.8,0,0.6,0,0.5,0.1
				c-0.1,0-0.8-0.3-0.8-0.3c0.1,0,0.7,0.4,0.2,0.1c-0.8-0.5-1.4-1.1-2-1.8c-1.2-1.4-2.3-3.5-3.3-5.2c-2.8-4.9-3.8-10.5-4.7-16
				c-2.1-12.1-3.1-24.5-3.5-36.8c-0.3-7-0.4-14-0.5-20.9c0-1.2-2.8-1.6-3.4-1.7c-1.9-0.1-3.7,0.1-5.6,0.5c-2,0.4-4,1-5.8,2
				c-1.3,0.7-3.3,1.7-3.7,3.2c-5.7,19.1,2.1,38.5,1.7,57.9c-0.1,5.3-1,10.5-2.9,15.4c-1.3,3.4,6.2,2.7,7.6,2.5
				c2.4-0.4,4.9-1.1,7.1-2.3C332,204.1,333.8,203.2,334.4,201.7L334.4,201.7z"/>
		</g>
	</g>
	<g>
		<path fill="#FFFFFF" d="M354.5,248.9c1.3,6.1-7.1,9-10.6,4.8c-4.5-5.6,0.2-13.4,4.2-17.2c5.8-5.5,13.8-7.5,21.5-6.2
			c11.7,2,20.9,12.1,19.7,26.2c-0.3,3.4-2,6-5.1,7.3c3.9-1.6,11.1,5.5,13,8.3c6.8,10.2,8.2,24.2,2.6,35
			c-4.9,9.4-14.6,14.5-24.9,15.2c-14.6,0.9-26.2-8.7-23.6-24.3c0.4-2.6,1.7-5.6,4.1-5.6c1.5,0,2.8,1.1,3.9,2.2
			c1.4,1.4,2.8,2.8,3.7,4.5c0.9,1.8,1.1,4.1,0,5.7c-0.8,1.2-2.3,2-2.7,3.5c-0.4,1.6,0.7,3.2,1.8,4.3c10,9.7,24.3,0.7,29-9.5
			c5.5-12-1.6-26.1-12.4-33.7c-3.4-2.4-6-3.4-10.2-2.8c7.7-1,14-10.7,11.9-18.7c-1.5-5.6-5.3-10-10.9-11.3c-4.1-1-8.9-0.7-12.7,1.2
			C351.1,240.5,353.4,243.7,354.5,248.9z"/>
		<path fill="#FFFFFF" d="M373,323c-7.4,0-14-2.7-18-7.5c-3.9-4.6-5.4-10.6-4.3-17.5c0.9-5.7,3.8-6.1,4.7-6.1h0c1.7,0,3,1.2,4.3,2.4
			c1.3,1.3,2.9,2.8,3.8,4.7c1.1,2.2,1.1,4.6,0,6.3c-0.4,0.5-0.8,1-1.2,1.4c-0.6,0.6-1.2,1.1-1.4,1.9c-0.4,1.6,1,3.2,1.7,3.8
			c2.7,2.6,5.9,4,9.5,4c6,0,14.6-4.7,18.6-13.4c4.2-9.2,1.4-23.4-12.2-33c-2.5-1.8-4.7-2.9-7.8-2.9c-0.6,0-1.3,0-2,0.1c0,0,0,0,0,0
			l0,0l-0.1-1.1c3.4-0.4,6.7-2.7,9-6.1c2.5-3.7,3.4-8.2,2.4-11.9c-1.5-5.7-5.3-9.6-10.5-10.9c-1.5-0.4-3-0.5-4.6-0.5
			c-2.8,0-5.5,0.6-7.7,1.7c-4.3,2.1-3.6,4.3-2.6,7.9c0.2,0.8,0.5,1.7,0.7,2.6c0.4,1.8,0,3.6-1.1,4.9c-1.3,1.6-3.4,2.5-5.6,2.5
			c-2,0-3.7-0.8-4.9-2.2c-4.7-5.8-0.1-13.9,4.2-18c4.6-4.4,10.8-6.7,17.4-6.7c1.6,0,3.1,0.1,4.7,0.4c6,1,11.4,4.1,15.1,8.8
			c3.9,5,5.7,11.2,5.1,18.1c-0.2,2.8-1.4,5-3.3,6.5c4.3,0.9,9.6,6.5,11.1,8.7c7.1,10.7,8.1,25,2.6,35.6c-4.7,9-14.2,14.8-25.4,15.5
			C374.3,323,373.6,323,373,323z M355.4,293c-2,0-3.2,2.7-3.6,5.2c-1.1,6.5,0.3,12.2,4,16.6c3.9,4.5,10.1,7.1,17.2,7.1
			c0.6,0,1.3,0,1.9-0.1c10.8-0.7,19.9-6.2,24.4-14.9c5.4-10.3,4.3-24.1-2.5-34.5c-1.6-2.4-7.5-8.3-11.2-8.3c-0.4,0-0.7,0.1-1,0.2
			l0,0l-0.4-1.1c0,0,0,0,0,0c2.9-1.2,4.5-3.5,4.7-6.8c0.6-6.6-1.1-12.6-4.9-17.3c-3.5-4.4-8.6-7.4-14.4-8.3c-1.5-0.3-3-0.4-4.5-0.4
			c-6.3,0-12.2,2.3-16.6,6.4c-4,3.8-8.3,11.2-4.1,16.4c0.9,1.2,2.4,1.8,4,1.8c1.8,0,3.6-0.8,4.7-2.1c0.9-1.1,1.2-2.5,0.9-4
			c-0.2-0.9-0.4-1.8-0.7-2.6c-1.1-3.8-1.9-6.8,3.2-9.3c2.4-1.2,5.2-1.8,8.2-1.8c1.7,0,3.3,0.2,4.8,0.6c5.5,1.3,9.8,5.7,11.3,11.7
			c1.1,4.1,0.1,8.9-2.6,12.9c-1.6,2.4-3.7,4.3-6,5.4c2.5,0.4,4.5,1.5,6.7,3c5.6,4,10.1,9.4,12.6,15.4c2.7,6.6,2.7,13.2,0.1,19
			c-3.1,6.8-11.1,14-19.7,14c-3.9,0-7.3-1.5-10.3-4.3c-1.6-1.6-2.4-3.4-2-4.9c0.3-1.1,1-1.8,1.7-2.4c0.4-0.4,0.8-0.8,1.1-1.2
			c0.8-1.3,0.8-3.3-0.1-5.1c-0.8-1.7-2.3-3.1-3.6-4.4C357.8,294,356.6,293,355.4,293z"/>
	</g>
	<g>
		<g>
			<path fill="#FFFFFF" d="M380.2,256.6c-2.3,4.2-6.5,6.9-10.9,8.5c-0.4,0.2-4.1,2-1.8,2.5c3.8,0.8,7.8,1.5,11.3,3
				c3.6,1.6,6.5,4.2,8.8,7.4c1.4,1.9,8.5-1.2,7.8-2.1c-2.5-3.4-5.4-6.3-9.3-8c-3.9-1.7-8.1-2.5-12.3-3.4c-0.6,0.8-1.2,1.6-1.8,2.5
				c6.2-2.3,12.6-5.8,15.9-11.7c0.7-1.3-2.8-0.9-3.1-0.8C383.4,254.7,381,255.2,380.2,256.6L380.2,256.6z"/>
		</g>
	</g>
	<g>
		<g>
			<path fill="#FFFFFF" d="M359.6,247.7c-0.5,10.1,1,20.1,3.1,29.9c2.1,9.9,4.9,19.8,5.1,29.9c0,2,2.1,2.5,3.8,2.4
				c1.4-0.1,4.8-1.2,4.7-3.2c-0.2-10.2-2.7-20.1-4.9-30c-2.2-9.8-3.8-19.7-3.3-29.8C368.3,242.8,359.8,244.3,359.6,247.7
				L359.6,247.7z"/>
		</g>
	</g>
	<g>
		<path fill="#FFFFFF" d="M417.4,232.3c0,0-0.9,4.6-0.9,4.7c-0.3-8.7-14.8-2.4-18.3,1.1c-6.9,6.6-5.7,17.3-2.3,25
			c3.8,8.7,16.4,11.7,22.8,2.9c1.1-1.6,3-1.3,3-1.3C434,269.5,417.4,232.3,417.4,232.3z M409.1,263.2c-6.9-2.3-8.9-21.1-0.7-22.6
			c3.1-0.6,4.9,1.5,5.9,4.6C415.6,249.2,417.9,266.1,409.1,263.2z"/>
		<path fill="#FFFFFF" d="M408.5,271.4c-5.5,0-10.6-3.3-12.8-8.3c-3.4-7.8-4.6-18.6,2.3-25.2c2.3-2.2,8.8-5.5,13.5-5.5
			c2.8,0,4.5,1.2,5,3.4c0.2-1,0.5-2.5,0.7-3.5l0.1-0.6l0.2,0.5c0.5,1.1,11.7,26.4,8.2,31.9c-0.5,0.7-1.2,1.1-2.1,1.1c0,0,0,0,0,0
			c-0.6,0-1.3-0.2-2-0.4c-0.2,0-1.8-0.1-2.8,1.3C416.3,269.5,412.6,271.4,408.5,271.4z M411.6,232.7c-4.6,0-11,3.3-13.3,5.4
			c-6.8,6.6-5.6,17.1-2.3,24.8c2.1,4.8,7.1,8.1,12.5,8.1c4,0,7.6-1.9,10.1-5.2c0.9-1.3,2.3-1.4,2.9-1.4c0.2,0,0.3,0,0.3,0l0,0
			c0.7,0.3,1.4,0.4,1.9,0.4c0,0,0,0,0,0c0.8,0,1.4-0.3,1.8-0.9c3.2-4.9-6.3-27.3-8-31.1c-0.2,1.3-0.8,4.1-0.8,4.1l-0.3,1.4l-0.1-1.5
			C416.2,234.1,414.6,232.7,411.6,232.7z M411,263.7c-0.6,0-1.2-0.1-1.9-0.3c-4.2-1.4-6.6-8.6-6.1-14.5c0.3-4.8,2.3-7.9,5.5-8.5
			c2.8-0.5,4.9,1.1,6.1,4.7c1,3.1,2.4,13.1-0.4,17C413.3,263.2,412.3,263.7,411,263.7z M409.4,240.7c-0.3,0-0.6,0-0.9,0.1
			c-3,0.5-4.9,3.5-5.2,8.2c-0.4,5.7,1.9,12.8,5.9,14.1c2,0.7,3.6,0.3,4.6-1.2c1.5-2.1,1.7-5.8,1.6-8.6c-0.1-3.2-0.7-6.5-1.2-8
			C413.2,242.2,411.6,240.7,409.4,240.7z"/>
	</g>
	<g>
		<g>
			<path fill="#FFFFFF" d="M424.8,261.4c3.9-10.9-3.2-22.1-0.3-33c-3.1,0.7-6.1,1.4-9.2,2.1c0.3,8.3,0.7,16.6,2.3,24.8
				c0.6,3.5,1.3,7,3.6,9.8c1.4,1.7,3.1,3.2,5.1,4c2.8,1.1,5.7,0.9,8.6,0.1c2.5-0.7,5.6-1.8,6.9-4.3c1.3-2.4,0.8-5.4,0.5-8
				c-0.4-4-0.5-8-0.9-11.9c-0.7-7.8-1.8-15.6-2.4-23.4c-3.1,0.8-6.2,1.7-9.3,2.5c0.7,7,9.4,6.5,14.6,7.4c1.2,0.2,2.2,0.4,3.2,1.1
				c1.1,0.8,1.2,2,1.3,3.2c0.5,4.8-0.1,9.6,0.6,14.4c0.6,4.4,2,9.6,5.6,12.5c3.1,2.5,8,1.3,11.3-0.2c5.7-2.6,8-9.3,9.8-14.9
				c1.9-5.8,3.4-11.9,4.3-17.9c0.2-1.1-4.6-0.2-5,0c-1.2,0.3-4.1,1-4.3,2.5c-0.7,4.6-1.8,9.2-3.1,13.7c-0.9,3-1.8,6-3.1,8.9
				c-0.9,2.2-2.3,4.9-3.8,6.4c-0.2,0.2-0.3,0.3-0.5,0.5c-0.3,0.3-0.4,0.2,0,0c-0.6,0.2,0.3-0.2,0.4-0.2c-0.3,0.1-0.8,0.3,0.7-0.2
				c1.3-0.5,2.5-0.6,3.8-0.7c-0.6,0-0.4,0-0.8-0.3c-0.8-0.4-1.4-1-2-1.7c-2.7-3.2-3.8-8-4.2-12c-0.4-4.4,0-8.9-0.5-13.3
				c-0.3-2.8-1.7-4.1-4.4-4.9c-4.9-1.4-14.1,0.2-14.8-6.9c-0.2-1.5-9.5,0.2-9.3,2.5c0.5,6.1,1.3,12.1,1.9,18.2
				c0.7,6.5,1.1,13.1,1.6,19.7c0.1,1.9,0,3.9-1.1,5.4c-0.7,0.9-0.7-0.3,3-0.9c0.3,0,0.6-0.1,0.8-0.1c0.2,0,0.6,0.1,0.3,0
				c-0.6-0.3-1.5-0.4-2.1-0.7c-5.1-2.6-6.4-7.9-7.4-13.1c-1.5-8.1-1.9-16.3-2.2-24.5c-0.1-1.5-8.8,0.4-9.2,2.1
				c-2.9,11,4.1,22.2,0.3,33c-0.5,1.5,3.1,0.8,3.7,0.7c1.2-0.2,2.4-0.6,3.5-1.1C423.4,262.5,424.6,262,424.8,261.4L424.8,261.4z"/>
		</g>
	</g>
</g>
</svg>
