<?xml version="1.0" encoding="utf-8"?>
<!-- Generator: Adobe Illustrator 18.1.0, SVG Export Plug-In . SVG Version: 6.00 Build 0)  -->
<!DOCTYPE svg PUBLIC "-//W3C//DTD SVG 1.1//EN" "http://www.w3.org/Graphics/SVG/1.1/DTD/svg11.dtd">
<svg version="1.1" id="Layer_1" xmlns="http://www.w3.org/2000/svg" xmlns:xlink="http://www.w3.org/1999/xlink" x="0px" y="0px"
	 viewBox="0 0 343 253" enable-background="new 0 0 343 253" xml:space="preserve">
<g>
	<polygon fill="#F79131" points="225.9,118.7 189,98.4 199.9,151.1 	"/>
</g>
<g>
	<polygon fill="#F79131" points="172.2,144.1 124.3,157.3 117.9,115.3 167.5,113.6 	"/>
</g>
<g>
	<circle fill="#434345" cx="167.3" cy="130.4" r="37.8"/>
	<path fill="#FFFFFF" d="M167.3,168.9c-5.1,0-10.1-1-14.8-3c-4.5-1.9-8.6-4.6-12.2-8.1c-7.3-7.1-11.3-16.7-11.5-26.9
		c-0.1-5.2,0.9-10.3,2.8-15c1.9-4.6,4.6-8.8,8.1-12.4s7.6-6.4,12.1-8.5c4.7-2.1,9.7-3.2,15-3.3c5.4-0.1,10.6,0.9,15.5,3
		c4.5,1.9,8.6,4.6,12.2,8.1c7.3,7.1,11.3,16.7,11.5,26.9c0.1,5.2-0.9,10.3-2.8,15c-1.9,4.6-4.6,8.8-8.1,12.4
		c-3.5,3.6-7.6,6.4-12.1,8.5c-4.7,2.1-9.7,3.2-15,3.3C167.7,168.9,167.5,168.9,167.3,168.9z M167.3,93.3c-0.2,0-0.4,0-0.6,0
		c-5,0.1-9.8,1.1-14.4,3.1c-4.4,1.9-8.3,4.7-11.7,8.1c-3.3,3.5-6,7.5-7.8,11.9c-1.9,4.6-2.8,9.5-2.7,14.5c0.2,9.8,4.1,19,11.1,25.8
		c7,6.9,16.2,10.6,26,10.6c0.2,0,0.4,0,0.6,0c5-0.1,9.8-1.1,14.4-3.1c4.4-1.9,8.3-4.7,11.7-8.1c3.3-3.5,6-7.5,7.8-11.9
		c1.9-4.6,2.8-9.5,2.7-14.5c-0.2-9.8-4.1-19-11.1-25.8C186.3,97.1,177.1,93.3,167.3,93.3z"/>
</g>
<g>
	<path fill="#434345" stroke="#FFFFFF" stroke-width="18" stroke-miterlimit="10" d="M135.1,141.1"/>
</g>
<g>
	<path fill="#434345" d="M135.3,119c4.6-12.9,16.9-22.3,31.4-22.5c18.7-0.3,34.2,14.6,34.5,33.4c0.3,18.7-14.6,34.2-33.4,34.5
		c-4.9,0.1-9.5-0.9-13.7-2.7"/>
	<path fill="#FFFFFF" d="M167.3,165.4c-4.7,0-9.3-0.9-13.6-2.7l0.9-2.1c4.2,1.8,8.7,2.6,13.3,2.6c4.4-0.1,8.7-1,12.7-2.8
		c3.9-1.7,7.3-4.1,10.3-7.2c3-3.1,5.3-6.6,6.9-10.5c1.6-4.1,2.4-8.4,2.4-12.8c-0.1-4.4-1-8.7-2.8-12.7c-1.7-3.9-4.1-7.3-7.2-10.3
		c-3.1-3-6.6-5.3-10.5-6.9c-4.1-1.6-8.4-2.4-12.8-2.4c-6.8,0.1-13.3,2.3-18.8,6.3c-5.4,3.9-9.4,9.3-11.6,15.5l-2.1-0.8
		c2.4-6.6,6.7-12.4,12.4-16.5c5.9-4.3,12.8-6.6,20.1-6.7c4.7-0.1,9.3,0.8,13.7,2.5c4.2,1.7,8,4.2,11.3,7.3c3.3,3.2,5.9,6.9,7.7,11
		c1.9,4.3,2.9,8.9,3,13.6c0.1,4.7-0.8,9.3-2.5,13.7c-1.7,4.2-4.2,8-7.3,11.3c-3.2,3.3-6.9,5.9-11,7.7c-4.3,1.9-8.9,2.9-13.6,3
		C167.7,165.4,167.5,165.4,167.3,165.4z"/>
</g>
<g>
	<path fill="#F79131" d="M144,109c-0.2,2.5,4.6,6.1,6.7,5.6c2.5-0.5,3.2-3.6,3.3-5.8c0.3-5.6-4-10.2-9.4-11
		c-9.1-1.2-16.1,7.2-15.8,15.9c0.2,4.8,2.8,10,7.3,12c-1.1-0.5-3.2,5.1-3.5,5.7c-2.4,5.5-3.9,10.8-2.6,16.8
		c1.2,5.3,4.3,10.2,8.8,13.2c6.2,4.1,15.4,3.7,21.4-0.4c6.9-4.7,8.7-17.1-0.4-20.8c-0.6-0.2-1.3-0.4-1.9-0.2
		c-0.5,0.2-0.8,0.5-1.1,0.9c-1.8,2.2-2.7,5.1-2.4,7.9c0,0.4,0.1,0.9,0.4,1.3c0.5,0.6,1.3,0.6,2,0.9c1.6,0.7,2.3,2.8,1.8,4.5
		s-2,2.9-3.6,3.7c-3.5,1.6-7.8,1-11-1.2c-7.2-5-7.1-14.3-4.9-21.9c0.8-2.6,1.8-5.2,3-7.7c1-2.2,1.8-4.3,3.3-6.2
		c-2.3-0.8-4.5-1-6.5-2.7c-3.7-3.1-4-8.1-3.3-12.6c0.6-3.2,3.4-7.6,6.9-6.4c2.8,0.9,4.2,5.3,1.8,7.5c-0.1,0.1-0.3,0.3-0.4,0.5
		C144.1,108.6,144.1,108.8,144,109z"/>
	<path fill="#F79131" d="M149.2,165.2c-3.9,0-7.7-1.1-10.7-3c-4.6-3.1-7.9-8.1-9.2-13.7c-1.4-6.5,0.4-12.1,2.6-17.3
		c0-0.1,0.1-0.2,0.1-0.3c1.1-2.7,1.9-4.2,2.5-5c-1.8-1.1-3.3-2.7-4.4-4.7c-1.3-2.2-2-4.9-2.1-7.4c-0.2-4.5,1.6-9.1,4.7-12.3
		c2.8-2.9,6.4-4.5,10.1-4.5c0.6,0,1.2,0,1.8,0.1c2.9,0.4,5.5,1.8,7.4,3.9c1.9,2.2,2.9,5,2.7,7.9c-0.1,1.7-0.7,5.8-4,6.5
		c-0.2,0-0.4,0.1-0.6,0.1h0c-1.8,0-4.2-1.6-5.6-3.1c-0.8-0.8-1.6-2.1-1.5-3.4c0-0.3,0.1-0.5,0.2-0.8c0.2-0.3,0.4-0.6,0.6-0.7
		c0.8-0.7,1.1-1.9,0.9-3.2c-0.3-1.4-1.3-2.6-2.4-3c-0.3-0.1-0.6-0.2-0.9-0.2c-2.5,0-4.5,3.5-5,6c-0.4,2.4-0.4,4.6,0,6.5
		c0.5,2.2,1.5,4,3,5.3c1.3,1.1,2.8,1.6,4.4,2c0.6,0.2,1.2,0.3,1.8,0.6l1,0.4l-0.7,0.9c-1.2,1.6-1.9,3.3-2.7,5.1
		c-0.1,0.3-0.3,0.7-0.5,1c-1.1,2.4-2.2,4.9-2.9,7.6c-1.2,4.2-1.6,8.2-1.1,11.6c0.6,4.1,2.5,7.3,5.7,9.4c1.8,1.3,4,2,6.2,2
		c1.4,0,2.8-0.3,4-0.8c1.6-0.7,2.8-1.9,3.2-3.2c0.4-1.2-0.1-3-1.4-3.5c-0.2-0.1-0.4-0.1-0.6-0.2c-0.6-0.2-1.3-0.4-1.8-1
		c-0.4-0.5-0.5-1.1-0.6-1.7c-0.3-3.1,0.6-6.2,2.6-8.5c0.4-0.4,0.8-0.9,1.5-1.1c0.3-0.1,0.5-0.1,0.8-0.1c0.5,0,1,0.1,1.6,0.4
		c3.8,1.6,6.2,4.7,6.6,8.9c0.5,5-2,10.5-6.1,13.3C157.6,164,153.5,165.2,149.2,165.2z M136.2,126.5c-0.2,0.1-0.9,0.7-2.6,5
		c-0.1,0.1-0.1,0.3-0.1,0.3c-2.1,4.9-3.9,10.3-2.5,16.3c1.2,5.2,4.2,9.9,8.5,12.7c2.7,1.8,6.1,2.8,9.8,2.8c4,0,7.8-1.1,10.8-3.2
		c3.6-2.5,5.9-7.4,5.4-11.9c-0.4-3.5-2.4-6.2-5.6-7.5c-0.6-0.2-1-0.3-1.3-0.2c-0.3,0.1-0.5,0.4-0.8,0.6c-1.7,2-2.5,4.7-2.2,7.3
		c0,0.3,0.1,0.6,0.2,0.8c0.2,0.2,0.5,0.3,1,0.4c0.2,0.1,0.5,0.1,0.7,0.2c1,0.4,1.7,1.2,2.2,2.3c0.4,1,0.4,2.1,0.1,3.1
		c-0.3,1-1.3,2.9-4,4.2c-1.4,0.7-3,1-4.7,1c-2.5,0-5.1-0.8-7.1-2.2c-3.5-2.4-5.6-6-6.3-10.5c-0.6-3.6-0.2-7.9,1.1-12.3
		c0.8-2.8,1.9-5.4,3-7.8c0.2-0.3,0.3-0.7,0.4-1c0.7-1.5,1.3-3,2.3-4.5c-0.2-0.1-0.5-0.1-0.7-0.2c-1.7-0.5-3.4-1-5-2.3
		c-1.8-1.5-3-3.6-3.6-6.2c-0.4-2.1-0.4-4.5,0-7.1c0.5-2.9,3-7.3,6.5-7.3c0.5,0,1,0.1,1.4,0.2c1.7,0.6,3,2.2,3.5,4.2
		c0.4,1.8-0.1,3.6-1.4,4.7c-0.1,0.1-0.2,0.2-0.2,0.2c0,0.1-0.1,0.2-0.1,0.3c-0.1,0.6,0.3,1.4,1.1,2.2c1.3,1.4,3.2,2.6,4.4,2.6h0
		c0.1,0,0.2,0,0.2,0c0.9-0.2,1.5-0.8,2-1.8c0.4-0.8,0.6-2,0.7-3.2c0.1-2.5-0.7-4.9-2.4-6.7c-1.6-1.8-3.9-3-6.4-3.4
		c-0.5-0.1-1.1-0.1-1.6-0.1c-3.3,0-6.5,1.4-9,4c-2.8,2.9-4.4,7.1-4.3,11.2c0.1,2.3,0.8,4.7,1.9,6.7c1.2,2.2,2.9,3.8,4.9,4.7
		l-0.7,1.5c0.1,0,0.1,0,0.2,0C136.1,126.5,136.2,126.5,136.2,126.5L136.2,126.5z"/>
</g>
<g>
	<path fill="#F79131" d="M184.8,119.5c-0.7-1.4-1.8-2.7-2.9-3.9c-2.2-2.5-2.8-6.2-0.8-9.2c-3.4-0.1-7.1,4.5-6.6,7.7
		c0.2,1.2,1,1.9,1.8,2.6c2,1.6,3.6,3.7,4.4,6.1c0.6,1.7,1.5,7.7-1.6,7.9c-2,0.1-4-3-4.4-4.6c-0.6-3,0.7-6.3,1.3-9.1
		c0,0.1-0.8,0.4-0.9,0.5c-1.8,1.1-4.3,2.6-5,4.7c-0.5,1.5,0,3.2,0.9,4.5c0.8,1.2-0.2,4.5-1.4,4.8c-2.7,0.7-5.1-16.9-4.1-17.2
		c0,0-3.1,0.8-3.1,0.8s-0.5,2.6-0.5,2.6c0.1-0.3-2.4-1.5-2.8-1.6c-0.8-0.3-1.6-0.6-2.5-0.6c-4.3-0.2-6.5,4.2-7.2,7.8
		c-0.8,4.1-0.3,9.2,2.6,12.4c1.5,1.6,3.5,2.3,5.6,2.1c2.7-0.3,6.6-2.1,5.8-5.4c0.6,2.3,2.8,3.1,4.9,2.8c1.9-0.2,4.2-2.2,4.1-4.3
		c0.1,1.4,2.1,1.9,3.2,2.2c1.5,0.4,3.1,0.4,4.7,0c2.5-0.6,4.9-2.3,5.8-4.8C187.2,125.6,186.1,122,184.8,119.5z M161,126.6
		c0,1.5,0.1,3.1-0.4,4.5c-1.1,3-4.5,1.7-5.6-0.6c-1.1-2.1-1.1-4.9-0.5-7.2c0.3-1.2,1.1-3.6,2.6-3.8c2-0.3,3,1.2,3.4,2.8
		c0.1,0.4,0.2,0.7,0.2,1.1C161,124.5,161,125.6,161,126.6z"/>
	<path fill="#F79131" d="M157.2,137.8c-1.9,0-3.7-0.8-5-2.2c-3.1-3.3-3.4-8.6-2.6-12.4c0.4-2,1.1-3.9,2.2-5.2
		c1.3-1.7,2.9-2.6,4.7-2.6c0.1,0,0.2,0,0.3,0c0.8,0,1.6,0.3,2.5,0.6c0,0,2.3,1,2.7,1.5c0-0.2,0.2-0.8,0.5-2.5l0,0l0,0
		c0.3-0.1,3-0.8,3.1-0.8l0,0.1c-0.3,0.1-0.3,2,0.1,5.5c0.8,5.8,2.3,11.6,3.8,11.6c0,0,0,0,0,0c0,0,0.1,0,0.1,0
		c0.5-0.1,1-0.7,1.3-1.7c0.5-1.4,0.4-2.6,0.1-3.1c-1-1.5-1.4-3.2-0.9-4.6c0.8-2.3,3.5-3.9,5-4.7c0,0,0.1,0,0.2-0.1
		c0.2-0.1,0.6-0.3,0.7-0.4l0.1,0v0l0,0c-0.1,0.7-0.3,1.4-0.5,2.2c-0.6,2.3-1.2,4.7-0.8,6.9c0.3,1.6,2.2,4.6,4.2,4.6h0
		c0,0,0.1,0,0.1,0c0.6,0,1.1-0.3,1.5-0.8c1.2-1.7,0.6-5.7,0.1-7c-0.8-2.3-2.3-4.4-4.4-6.1c-0.9-0.7-1.6-1.4-1.9-2.6
		c-0.3-1.5,0.4-3.5,1.8-5.2c1.4-1.6,3.1-2.6,4.7-2.6c0,0,0.1,0,0.1,0l0.1,0l0,0.1c-1.9,2.8-1.6,6.5,0.8,9.1c1,1.2,2.1,2.4,2.9,3.9
		c0.5,1,1.2,2.6,1.6,4.4c0.4,1.8,0.3,3.3-0.1,4.5c-0.8,2.3-3,4.1-5.8,4.8c-0.8,0.2-1.5,0.3-2.3,0.3h0c-0.8,0-1.6-0.1-2.3-0.3l-0.1,0
		c-1-0.3-2.7-0.7-3.1-1.8c-0.1,0.8-0.5,1.7-1.3,2.4c-0.8,0.8-1.9,1.3-2.8,1.4c-0.3,0-0.5,0-0.7,0c-2,0-3.4-0.9-4-2.4
		c0.1,0.8-0.1,1.5-0.6,2.2c-1.1,1.6-3.4,2.4-5.3,2.6C157.6,137.8,157.4,137.8,157.2,137.8z M156.4,115.5c-1.8,0-3.4,0.9-4.7,2.6
		c-1,1.3-1.8,3.2-2.1,5.2c-0.7,3.8-0.4,9.1,2.6,12.3c1.3,1.4,3,2.1,4.9,2.1c0.2,0,0.4,0,0.7,0c1.8-0.2,4.1-1,5.2-2.6
		c0.6-0.8,0.8-1.7,0.5-2.7l0.1,0c0.4,1.8,2,2.8,4.1,2.8c0.2,0,0.5,0,0.7,0c1.9-0.2,4.2-2.2,4.1-4.2l0,0l0,0l0.1,0
		c0.1,1.4,2,1.9,3.1,2.1l0.1,0c1.5,0.4,3.1,0.4,4.6,0c2.8-0.7,5-2.5,5.8-4.8c0.4-1.1,1-4-1.5-8.8c-0.7-1.4-1.8-2.7-2.9-3.9
		c-2.4-2.6-2.7-6.3-0.8-9.2c-1.5,0-3.3,0.9-4.6,2.6c-1.4,1.6-2.1,3.6-1.8,5.1c0.2,1.2,0.9,1.8,1.8,2.6c2.1,1.7,3.6,3.9,4.4,6.1
		c0.5,1.4,1.1,5.3-0.1,7.1c-0.4,0.5-0.9,0.8-1.5,0.9c0,0-0.1,0-0.1,0h0c-0.9,0-1.9-0.6-2.8-1.7c-0.7-0.9-1.3-2.1-1.5-3
		c-0.5-2.3,0.1-4.7,0.8-7c0.2-0.7,0.4-1.4,0.5-2c-0.1,0.1-0.3,0.2-0.6,0.3c-0.1,0-0.2,0.1-0.2,0.1c-1.5,0.9-4.2,2.4-5,4.7
		c-0.5,1.4-0.1,3,0.9,4.5c0.5,0.7,0.3,2.2-0.1,3.2c-0.4,0.9-0.9,1.6-1.4,1.7c-0.1,0-0.1,0-0.2,0c0,0,0,0,0,0c-0.8,0-1.6-1.3-2.3-4
		c-0.6-2.1-1.2-4.9-1.6-7.7c-0.3-2.2-0.5-4.8-0.2-5.4c-0.6,0.2-2.6,0.7-2.9,0.8c-0.1,0.3-0.5,2.6-0.5,2.6l0,0l-0.1,0c0,0,0,0,0,0h0
		c0.1-0.3-2-1.3-2.7-1.6c-0.9-0.4-1.7-0.6-2.5-0.6C156.6,115.5,156.5,115.5,156.4,115.5z M158.4,132.9c-1.3,0-2.8-1-3.5-2.4
		c-1-2-1.2-4.6-0.5-7.2c0.6-2.4,1.5-3.7,2.6-3.8c0.2,0,0.3,0,0.5,0c1.4,0,2.5,1,3,2.9c0.1,0.3,0.2,0.7,0.2,1.1
		c0.2,1,0.2,2.1,0.2,3.1l0,0.1c0,1.5,0.1,3-0.4,4.4C160.3,132.3,159.5,132.9,158.4,132.9z M157.6,119.6c-0.1,0-0.3,0-0.5,0
		c-1,0.1-1.9,1.4-2.5,3.8c-0.5,2-0.7,4.9,0.5,7.1c0.7,1.3,2.1,2.3,3.4,2.3c1,0,1.8-0.6,2.2-1.7c0.5-1.4,0.4-2.9,0.4-4.4l0-0.1
		c0-1-0.1-2.1-0.2-3.1c-0.1-0.4-0.1-0.8-0.2-1.1C160,120.5,159,119.6,157.6,119.6z"/>
</g>
<g>
	<g>
		<path fill="#F79131" d="M163.6,106.6c5.3-0.6,10.5-1.8,15.6-3.2c4.5-1.2,9-2.6,13.6-3.6c0.3-0.1,0.6-0.1,0.9-0.2
			c0.7-0.2-1.4,0.3-0.6,0.1c0.2,0,0.3-0.1,0.5-0.1c0.6-0.1,1.3-0.3,1.9-0.4c1.4-0.2,2.8-0.5,4.2-0.6c1.2-0.1,2.5-0.6,3.5-1.1
			c0.5-0.3,1.7-1,1.8-1.7c0.4-1.9-2.9-1.5-3.9-1.4c-5.1,0.6-10,1.7-14.9,3.1c-4.7,1.3-9.3,2.7-14,3.7c-0.1,0-0.3,0.1-0.4,0.1
			c-0.9,0.2,1.3-0.3,0.5-0.1c-0.3,0.1-0.7,0.1-1,0.2c-0.7,0.1-1.3,0.3-2,0.4c-1.4,0.2-2.8,0.4-4.2,0.6c-1.2,0.1-2.5,0.6-3.5,1.1
			c-0.5,0.3-1.7,1-1.8,1.7C159.4,107.1,162.7,106.7,163.6,106.6L163.6,106.6z"/>
	</g>
</g>
<g>
	<g>
		<path fill="#F79131" d="M183,88.8c1,6,1.9,11.9,2.4,18c0-0.2,0-0.4,0-0.5c0.1,2,0.2,4,0.3,6c0,2,0,4,0.2,6c0.3,3.3,1.3,6.5,3.5,9
			c1.1,1.3,2.4,2.3,4,3.1c1.7,0.8,3.6,0.9,5.4,0.5c3.5-0.9,5.9-3.9,6.5-7.4c0.5-3-0.3-6.5-2.3-8.9c-0.9-1.1-2.6-1.1-3.7-0.5
			c-0.9,0.5-2.2,1.8-1.3,2.9c0.4,0.5,0.8,1.1,1.1,1.7c-0.1-0.2-0.2-0.3-0.2-0.5c0.6,1.2,0.9,2.5,1,3.9c0-0.2,0-0.4,0-0.5
			c0.1,1.1,0,2.2-0.3,3.2c0.1-0.2,0.1-0.4,0.2-0.5c-0.1,0.5-0.3,0.9-0.5,1.3c-0.1,0.2-0.2,0.4-0.3,0.6c0.4-0.7,0,0-0.1,0.1
			c-0.1,0.1-0.2,0.2-0.2,0.3c-0.1,0.2-0.5,0.3,0.2-0.1c-0.2,0.1-0.4,0.3-0.5,0.4c-0.1,0.1-0.1,0.1-0.2,0.1c0.4-0.2,0.5-0.3,0.3-0.2
			c-0.1,0.1-0.2,0.1-0.3,0.2c-0.3,0.1-0.6,0.1,0.2-0.1c-0.1,0-0.2,0.1-0.3,0.1c-0.3,0.1-0.6,0,0.3,0c-0.1,0-0.2,0-0.3,0
			c-0.1,0-0.2,0-0.3,0c0.9-0.1,0.5,0,0.2,0c-0.1,0-0.3,0-0.4-0.1c-0.4-0.1,0.6,0.2,0.2,0.1c-0.2-0.1-0.4-0.1-0.6-0.2
			c-0.1,0-0.2-0.1-0.3-0.1c-0.4-0.2,0.5,0.3,0.1,0c-0.2-0.1-0.4-0.3-0.6-0.4c-0.4-0.3-0.8-0.6-1.2-1c0.1,0.1,0.3,0.3,0.4,0.4
			c-1.1-1-1.9-2.2-2.6-3.6c0.1,0.2,0.2,0.3,0.2,0.5c-0.9-1.9-1.3-4.1-1.4-6.2c0,0.2,0,0.4,0,0.5c-0.1-1.8-0.1-3.6-0.2-5.4
			c0-2-0.1-4.1-0.3-6.1c-0.3-3.9-0.8-7.7-1.4-11.5c-0.3-2.2-0.7-4.3-1-6.4c-0.1-0.5-0.7-1-1.2-1.2c-0.6-0.2-1.5-0.2-2.1-0.1
			C184,86.4,182.7,87.4,183,88.8L183,88.8z"/>
	</g>
</g>
<g>
	<g>
		<path fill="#F79131" d="M163.6,132c2.3-5.7-1.5-12.4,0.3-18.3c0.1,5.1,0.2,10.1,1.1,15.1c0.2,1.2,0.5,2.5,1.2,3.5s1,2,2.3,2"/>
	</g>
	<g>
		<g>
			<path fill="#F79131" d="M165.9,131.6c1.8-4.6-0.1-9.6-0.2-14.4c0-1.3,0.1-2.7,0.5-3.9c-1.5,0.3-3.1,0.7-4.6,1
				c0,3.2,0.1,6.5,0.4,9.7c0.1,1.6,0.3,3.2,0.6,4.8c0.2,1.4,0.5,2.9,1.3,4.1c0.3,0.6,0.7,1.2,1.1,1.7c0.5,0.6,1.3,0.8,2.1,0.8
				c1.1,0,2.4-0.2,3.3-0.9c0.2-0.2,0.6-0.4,0.5-0.8c-0.1-0.3-0.6-0.4-0.8-0.4c-0.1,0-0.1,0-0.2,0c-0.2,0,0.1,0,0.1,0
				c0,0-0.2-0.1-0.2-0.1c0,0,0.2,0.1,0.1,0c-0.2-0.1-0.4-0.3-0.5-0.5c-0.3-0.3-0.6-0.9-0.8-1.3c-0.7-1.2-0.9-2.6-1.2-4
				c-0.5-3-0.8-6.1-0.9-9.2c-0.1-1.7-0.1-3.5-0.1-5.2c0-0.3-0.7-0.4-0.8-0.4c-0.5,0-0.9,0-1.4,0.1c-0.5,0.1-1,0.3-1.5,0.5
				c-0.3,0.2-0.8,0.4-0.9,0.8c-1.4,4.8,0.5,9.6,0.4,14.5c0,1.3-0.3,2.6-0.7,3.8c-0.3,0.9,1.5,0.7,1.9,0.6c0.6-0.1,1.2-0.3,1.8-0.6
				C165.3,132.3,165.7,132,165.9,131.6L165.9,131.6z"/>
		</g>
	</g>
</g>
<g>
	<path fill="#FFFFFF" d="M143.9,107c-0.2,2.5,4.6,6.1,6.7,5.6c2.5-0.5,3.2-3.6,3.3-5.8c0.3-5.6-4-10.2-9.4-11
		c-9.1-1.2-16.1,7.2-15.8,15.9c0.2,4.8,2.8,10,7.3,12c-1.1-0.5-3.2,5.1-3.5,5.7c-2.4,5.5-3.9,10.8-2.6,16.8
		c1.2,5.3,4.3,10.2,8.8,13.2c6.2,4.1,15.4,3.7,21.4-0.4c6.9-4.7,8.7-17.1-0.4-20.8c-0.6-0.2-1.3-0.4-1.9-0.2
		c-0.5,0.2-0.8,0.5-1.1,0.9c-1.8,2.2-2.7,5.1-2.4,7.9c0,0.4,0.1,0.9,0.4,1.3c0.5,0.6,1.3,0.6,2,0.9c1.6,0.7,2.3,2.8,1.8,4.5
		c-0.5,1.7-2,2.9-3.6,3.7c-3.5,1.6-7.8,1-11-1.2c-7.2-5-7.1-14.3-4.9-21.9c0.8-2.6,1.8-5.2,3-7.7c1-2.2,1.8-4.3,3.3-6.2
		c-2.3-0.8-4.5-1-6.5-2.7c-3.7-3.1-4-8.1-3.3-12.6c0.6-3.2,3.4-7.6,6.9-6.4c2.8,0.9,4.2,5.3,1.8,7.5c-0.1,0.1-0.3,0.3-0.4,0.5
		C144,106.6,143.9,106.8,143.9,107z"/>
	<path fill="#FFFFFF" d="M149.1,162.7c-3.9,0-7.5-1.1-10.4-3c-4.5-3-7.8-7.9-9-13.4c-1.4-6.4,0.4-11.9,2.6-17c0-0.1,0.1-0.2,0.1-0.3
		c1.2-3,2.1-4.7,2.8-5.3c-1.9-1-3.5-2.7-4.7-4.8c-1.2-2.2-2-4.7-2.1-7.2c-0.2-4.4,1.6-8.8,4.6-12c2.7-2.8,6.2-4.3,9.8-4.3
		c0.6,0,1.2,0,1.8,0.1c2.8,0.4,5.3,1.7,7.1,3.7c1.8,2.1,2.8,4.8,2.6,7.6c-0.1,1.6-0.6,5.4-3.6,6.1c-0.1,0-0.3,0-0.5,0h0
		c-1.5,0-3.7-1.3-5.2-2.9c-0.7-0.8-1.5-1.9-1.4-3.1c0-0.2,0.1-0.4,0.2-0.6c0.1-0.3,0.3-0.4,0.5-0.6c1-0.9,1.3-2.2,1-3.6
		c-0.3-1.6-1.4-2.9-2.7-3.4c-0.4-0.1-0.7-0.2-1.1-0.2c-0.9,0-2.2,0.4-3.5,2.1c-0.9,1.2-1.6,2.8-1.9,4.2c-0.4,2.5-0.4,4.7,0,6.7
		c0.5,2.3,1.6,4.2,3.2,5.6c1.4,1.2,3,1.6,4.6,2.1c0.6,0.2,1.2,0.3,1.8,0.6l0.4,0.2l-0.3,0.4c-1.2,1.6-2,3.3-2.8,5.2
		c-0.1,0.3-0.3,0.7-0.4,1c-1.1,2.4-2.2,5-3,7.7c-1.2,4.3-1.6,8.3-1.1,11.8c0.7,4.2,2.6,7.5,5.9,9.8c1.9,1.3,4.2,2,6.5,2
		c1.5,0,2.9-0.3,4.2-0.9c1.7-0.8,3-2.1,3.4-3.5c0.6-1.8-0.4-3.6-1.6-4.1c-0.2-0.1-0.4-0.1-0.6-0.2c-0.6-0.2-1.1-0.3-1.5-0.8
		c-0.3-0.4-0.4-1-0.5-1.4c-0.3-2.9,0.6-5.9,2.5-8.2c0.3-0.4,0.7-0.8,1.3-1c0.2-0.1,0.4-0.1,0.7-0.1c0.4,0,0.9,0.1,1.4,0.3
		c3.7,1.5,5.9,4.5,6.3,8.5c0.5,4.9-1.9,10.2-5.9,12.9C157.3,161.5,153.3,162.7,149.1,162.7z M142.8,96.1c-3.5,0-6.8,1.5-9.3,4.1
		c-2.9,3-4.6,7.3-4.4,11.5c0.1,2.4,0.8,4.8,2,6.9c1.3,2.2,3.1,3.9,5.1,4.9l-0.3,0.6c0,0-0.4,0-1.5,2.1c-0.6,1.2-1.1,2.5-1.4,3.2
		c-0.1,0.1-0.1,0.3-0.1,0.3c-2.1,5-3.9,10.4-2.6,16.6c1.2,5.4,4.3,10.1,8.7,13c2.7,1.8,6.3,2.9,10,2.9c4.1,0,8-1.2,11-3.3
		c3.8-2.6,6.1-7.6,5.6-12.3c-0.4-3.7-2.5-6.5-5.9-7.9c-0.5-0.2-0.8-0.3-1.2-0.3c-0.2,0-0.3,0-0.5,0.1c-0.4,0.1-0.7,0.5-1,0.8
		c-1.7,2.1-2.6,5-2.3,7.7c0,0.4,0.1,0.8,0.3,1.1c0.3,0.3,0.7,0.4,1.2,0.6c0.2,0.1,0.5,0.1,0.7,0.2c0.9,0.3,1.5,1.1,1.9,2
		c0.3,0.9,0.4,1.9,0.1,2.8c-0.5,1.6-1.9,3-3.8,3.9c-1.4,0.6-2.9,0.9-4.5,0.9c-2.4,0-4.9-0.8-6.9-2.2c-3.4-2.4-5.5-5.8-6.1-10.2
		c-0.5-3.5-0.2-7.7,1.1-12.1c0.8-2.7,1.9-5.3,3-7.7c0.2-0.3,0.3-0.7,0.4-1c0.8-1.7,1.5-3.3,2.6-4.9c-0.5-0.1-0.9-0.3-1.3-0.4
		c-1.7-0.5-3.3-0.9-4.9-2.2c-1.8-1.5-2.9-3.5-3.4-6c-0.4-2.1-0.4-4.4,0-6.9c0.5-2.9,2.9-6.9,6.1-6.9c0.4,0,0.9,0.1,1.3,0.2
		c1.5,0.5,2.8,2,3.2,3.9c0.3,1.7-0.1,3.2-1.2,4.3c-0.2,0.1-0.2,0.2-0.3,0.4c-0.1,0.1-0.1,0.3-0.1,0.4c-0.1,0.7,0.4,1.6,1.2,2.6
		c1.4,1.5,3.5,2.7,4.7,2.7h0c0.1,0,0.2,0,0.3,0c0.8-0.2,2.8-1.1,3.1-5.5c0.1-2.6-0.7-5.1-2.5-7.1c-1.7-1.9-4.1-3.2-6.7-3.5
		C143.9,96.1,143.4,96.1,142.8,96.1z"/>
</g>
<g>
	<path fill="#FFFFFF" d="M184.3,117.6c-0.7-1.4-1.8-2.7-2.9-3.9c-2.2-2.5-2.8-6.2-0.8-9.2c-3.4-0.1-7.1,4.5-6.6,7.7
		c0.2,1.2,1,1.9,1.8,2.6c2,1.6,3.6,3.7,4.4,6.1c0.6,1.7,1.5,7.7-1.6,7.9c-2,0.1-4-3-4.4-4.6c-0.6-3,0.7-6.3,1.3-9.1
		c0,0.1-0.8,0.4-0.9,0.5c-1.8,1.1-4.3,2.6-5,4.7c-0.5,1.5,0,3.2,0.9,4.5c0.8,1.2-0.2,4.5-1.4,4.8c-2.2,0.5-4-10.4-3.9-12.1
		c0-0.6-0.6-5-0.2-5.1l-3.1,0.8c0,0-0.5,2.6-0.5,2.6c0.1-0.3-2.4-1.5-2.8-1.6c-0.8-0.3-1.6-0.6-2.5-0.6c-4.3-0.2-6.5,4.2-7.2,7.8
		c-0.8,4.1-0.3,9.2,2.6,12.4c1.5,1.6,3.5,2.3,5.6,2.1c2.7-0.3,6.6-2.1,5.8-5.4c0.6,2.3,2.8,3.1,4.9,2.8c1.9-0.2,4.2-2.2,4.1-4.3
		c0.1,1.4,2.1,1.9,3.2,2.2c1.5,0.4,3.1,0.4,4.7,0c2.5-0.6,4.9-2.3,5.8-4.8C186.7,123.7,185.6,120.1,184.3,117.6z M160.5,124.7
		c0,1.5,0.1,3.1-0.4,4.5c-1.1,3-4.5,1.7-5.6-0.6c-1.1-2.1-1.1-4.9-0.5-7.2c0.3-1.2,1.1-3.6,2.6-3.8c2-0.3,3,1.2,3.4,2.8
		c0.1,0.4,0.2,0.7,0.2,1.1C160.5,122.6,160.5,123.7,160.5,124.7z"/>
</g>
<g>
	<g>
		<path fill="#FFFFFF" d="M162.9,104.9c5.3-0.6,10.6-1.8,15.7-3.2c4.6-1.2,9.2-2.6,13.9-3.6c0.1,0,0.2,0,0.3-0.1
			c0.5-0.1,0.2,0-0.8,0.2c0.1,0,0.2,0,0.3-0.1c0.3-0.1,0.6-0.1,1-0.2c0.6-0.1,1.3-0.2,1.9-0.4c1.3-0.2,2.5-0.5,3.8-0.7
			c1.2-0.2,2.5-0.6,3.5-1.1c0.5-0.3,1.7-1,1.8-1.7c0.4-1.8-2.9-1.5-3.9-1.4c-5,0.8-9.9,1.8-14.8,3.1c-4.7,1.2-9.4,2.7-14.2,3.7
			c-0.1,0-0.2,0-0.3,0.1s-0.2,0-0.3,0.1c1-0.2,1.2-0.3,0.8-0.2c-0.3,0.1-0.7,0.1-1,0.2c-0.7,0.1-1.3,0.3-2,0.4
			c-1.4,0.2-2.8,0.4-4.2,0.6c-1.2,0.1-2.5,0.6-3.5,1.1c-0.5,0.3-1.7,1-1.8,1.7C158.6,105.3,161.9,105,162.9,104.9L162.9,104.9z"/>
	</g>
</g>
<g>
	<g>
		<path fill="#FFFFFF" d="M181.9,87c1,6,1.9,11.9,2.4,18c0-0.2,0-0.4,0-0.5c0.1,2,0.2,4,0.3,6c0,2,0,4,0.2,6c0.3,3.3,1.3,6.5,3.5,9
			c1.1,1.3,2.4,2.3,4,3.1c1.7,0.8,3.6,0.9,5.4,0.5c3.5-0.9,5.9-3.9,6.3-7.4c0.3-3.1-0.6-6.5-2.6-8.9c-0.9-1.1-2.6-1.1-3.7-0.5
			c-0.9,0.5-2.2,1.8-1.3,2.9c0.5,0.6,0.9,1.2,1.2,1.9c-0.1-0.2-0.2-0.3-0.2-0.5c0.6,1.3,1,2.7,1.1,4.1c0-0.2,0-0.4,0-0.5
			c0.1,1,0,2.1-0.3,3.1c0.1-0.2,0.1-0.4,0.2-0.5c-0.1,0.4-0.3,0.8-0.5,1.2c-0.1,0.1-0.1,0.2-0.2,0.3c-0.2,0.3,0.3-0.5,0.1-0.2
			c-0.1,0.2-0.3,0.3-0.4,0.5c-0.1,0.1-0.1,0.2-0.2,0.2c0.5-0.6,0.3-0.3,0.2-0.2c-0.2,0.2-0.4,0.3-0.6,0.4c0.7-0.5,0.1-0.1-0.2,0
			c-0.4,0.2,0.7-0.2,0.3-0.1c-0.1,0-0.3,0.1-0.4,0.1c-0.3,0.1,0.9-0.1,0.3-0.1c-0.1,0-0.2,0-0.3,0c-0.5,0,0.6,0.1,0.3,0
			c-0.1,0-0.3,0-0.4,0c0,0-0.3-0.1-0.3-0.1c0,0,0.7,0.2,0.2,0c-0.2-0.1-0.4-0.1-0.6-0.2c-0.1,0-0.2-0.1-0.3-0.1
			c0.6,0.2,0.3,0.2,0.1,0.1c-0.2-0.1-0.4-0.2-0.6-0.4c-0.4-0.3-0.8-0.6-1.2-1c0.1,0.1,0.3,0.3,0.4,0.4c-1.1-1-1.9-2.2-2.6-3.6
			c0.1,0.2,0.2,0.3,0.2,0.5c-0.9-1.9-1.3-4.1-1.4-6.2c0,0.2,0,0.4,0,0.5c-0.1-1.8-0.1-3.6-0.2-5.4c0-2-0.1-4.1-0.3-6.1
			c-0.3-3.9-0.8-7.7-1.4-11.5c-0.3-2.2-0.7-4.3-1-6.4c-0.1-0.5-0.7-1-1.2-1.2c-0.6-0.2-1.5-0.2-2.1-0.1
			C182.9,84.7,181.7,85.6,181.9,87L181.9,87z"/>
	</g>
</g>
<g>
	<g>
		<path fill="#FFFFFF" d="M165.2,129.7c1.8-4.6-0.1-9.6-0.2-14.4c0-1.3,0.1-2.7,0.5-3.9c-1.5,0.3-3.1,0.7-4.6,1
			c0,3.2,0.1,6.5,0.4,9.7c0.1,1.6,0.3,3.2,0.6,4.8c0.2,1.4,0.5,2.9,1.3,4.1c0.3,0.6,0.7,1.2,1.1,1.7c0.5,0.6,1.3,0.8,2.1,0.8
			c1.1,0,2.4-0.2,3.3-0.9c0.2-0.2,0.6-0.4,0.5-0.8c-0.1-0.3-0.6-0.4-0.8-0.4c-0.1,0-0.1,0-0.2,0c-0.2,0,0.1,0,0.1,0
			c0,0-0.2-0.1-0.2-0.1c0,0,0.2,0.1,0.1,0c-0.2-0.1-0.4-0.3-0.5-0.5c-0.3-0.3-0.6-0.9-0.8-1.3c-0.7-1.2-0.9-2.6-1.2-4
			c-0.5-3-0.8-6.1-0.9-9.2c-0.1-1.7-0.1-3.5-0.1-5.2c0-0.3-0.7-0.4-0.8-0.4c-0.5,0-0.9,0-1.4,0.1c-0.5,0.1-1,0.3-1.5,0.5
			c-0.3,0.2-0.8,0.4-0.9,0.8c-1.4,4.8,0.5,9.6,0.4,14.5c0,1.3-0.3,2.6-0.7,3.8c-0.3,0.9,1.5,0.7,1.9,0.6c0.6-0.1,1.2-0.3,1.8-0.6
			C164.6,130.4,165.1,130.1,165.2,129.7L165.2,129.7z"/>
	</g>
</g>
<g>
	<path fill="#FFFFFF" d="M170.2,141.6c0.3,1.5-1.8,2.3-2.6,1.2c-1.1-1.4,0-3.4,1-4.3c1.5-1.4,3.4-1.9,5.4-1.6c2.9,0.5,5.2,3,4.9,6.6
		c-0.1,0.9-0.5,1.5-1.3,1.8c1-0.4,2.8,1.4,3.2,2.1c1.7,2.6,2.1,6.1,0.6,8.8c-1.2,2.3-3.7,3.6-6.2,3.8c-3.7,0.2-6.5-2.2-5.9-6.1
		c0.1-0.6,0.4-1.4,1-1.4c0.4,0,0.7,0.3,1,0.6c0.3,0.3,0.7,0.7,0.9,1.1c0.2,0.4,0.3,1,0,1.4c-0.2,0.3-0.6,0.5-0.7,0.9
		c-0.1,0.4,0.2,0.8,0.5,1.1c2.5,2.4,6.1,0.2,7.3-2.4c1.4-3-0.4-6.5-3.1-8.4c-0.8-0.6-1.5-0.8-2.6-0.7c1.9-0.3,3.5-2.7,3-4.7
		c-0.4-1.4-1.3-2.5-2.7-2.8c-1-0.2-2.2-0.2-3.2,0.3C169.4,139.4,170,140.3,170.2,141.6z"/>
	<path fill="#FFFFFF" d="M174.9,160.1c-1.8,0-3.5-0.7-4.5-1.9c-1-1.1-1.3-2.7-1.1-4.4c0.2-1.4,1-1.5,1.2-1.5h0
		c0.4,0,0.8,0.3,1.1,0.6c0.3,0.3,0.7,0.7,1,1.2c0.3,0.5,0.3,1.2,0,1.6c-0.1,0.1-0.2,0.2-0.3,0.3c-0.2,0.1-0.3,0.3-0.3,0.5
		c-0.1,0.4,0.3,0.8,0.4,0.9c0.7,0.7,1.5,1,2.4,1c1.5,0,3.7-1.2,4.7-3.3c1.1-2.3,0.3-5.9-3.1-8.2c-0.6-0.4-1.2-0.7-1.9-0.7
		c-0.2,0-0.3,0-0.5,0c0,0,0,0,0,0l0,0l0-0.3c0.8-0.1,1.7-0.7,2.2-1.5c0.6-0.9,0.8-2,0.6-3c-0.4-1.4-1.3-2.4-2.6-2.7
		c-0.4-0.1-0.8-0.1-1.1-0.1c-0.7,0-1.4,0.1-1.9,0.4c-1.1,0.5-0.9,1.1-0.7,2c0.1,0.2,0.1,0.4,0.2,0.7c0.1,0.5,0,0.9-0.3,1.2
		c-0.3,0.4-0.8,0.6-1.4,0.6c-0.5,0-0.9-0.2-1.2-0.6c-1.2-1.4,0-3.5,1.1-4.5c1.2-1.1,2.7-1.7,4.3-1.7c0.4,0,0.8,0,1.2,0.1
		c1.5,0.3,2.8,1,3.8,2.2c1,1.2,1.4,2.8,1.3,4.5c-0.1,0.7-0.3,1.3-0.8,1.6c1.1,0.2,2.4,1.6,2.8,2.2c1.8,2.7,2,6.3,0.6,8.9
		c-1.2,2.2-3.5,3.7-6.3,3.9C175.2,160.1,175,160.1,174.9,160.1z M170.5,152.6c-0.5,0-0.8,0.7-0.9,1.3c-0.3,1.6,0.1,3.1,1,4.1
		c1,1.1,2.5,1.8,4.3,1.8c0.2,0,0.3,0,0.5,0c2.7-0.2,5-1.6,6.1-3.7c1.3-2.6,1.1-6-0.6-8.6c-0.4-0.6-1.9-2.1-2.8-2.1
		c-0.1,0-0.2,0-0.3,0l0,0l-0.1-0.3l0,0c0.7-0.3,1.1-0.9,1.2-1.7c0.1-1.6-0.3-3.1-1.2-4.3c-0.9-1.1-2.2-1.8-3.6-2.1
		c-0.4-0.1-0.8-0.1-1.1-0.1c-1.6,0-3,0.6-4.1,1.6c-1,0.9-2.1,2.8-1,4.1c0.2,0.3,0.6,0.5,1,0.5c0.5,0,0.9-0.2,1.2-0.5
		c0.2-0.3,0.3-0.6,0.2-1c0-0.2-0.1-0.4-0.2-0.6c-0.3-1-0.5-1.7,0.8-2.3c0.6-0.3,1.3-0.4,2.1-0.4c0.4,0,0.8,0,1.2,0.1
		c1.4,0.3,2.4,1.4,2.8,2.9c0.3,1,0,2.2-0.6,3.2c-0.4,0.6-0.9,1.1-1.5,1.4c0.6,0.1,1.1,0.4,1.7,0.7c1.4,1,2.5,2.4,3.1,3.9
		c0.7,1.7,0.7,3.3,0,4.7c-0.8,1.7-2.8,3.5-4.9,3.5c-1,0-1.8-0.4-2.6-1.1c-0.4-0.4-0.6-0.8-0.5-1.2c0.1-0.3,0.2-0.4,0.4-0.6
		c0.1-0.1,0.2-0.2,0.3-0.3c0.2-0.3,0.2-0.8,0-1.3c-0.2-0.4-0.6-0.8-0.9-1.1C171.1,152.8,170.8,152.6,170.5,152.6z"/>
</g>
<g>
	<g>
		<path fill="#FFFFFF" d="M176.7,143.5c-0.6,1-1.6,1.7-2.7,2.1c-0.1,0-1,0.5-0.5,0.6c0.9,0.2,1.9,0.4,2.8,0.8
			c0.9,0.4,1.6,1.1,2.2,1.9c0.3,0.5,2.1-0.3,2-0.5c-0.6-0.9-1.3-1.6-2.3-2c-1-0.4-2-0.6-3.1-0.9c-0.2,0.2-0.3,0.4-0.5,0.6
			c1.5-0.6,3.1-1.4,4-2.9c0.2-0.3-0.7-0.2-0.8-0.2C177.5,143,176.9,143.1,176.7,143.5L176.7,143.5z"/>
	</g>
</g>
<g>
	<g>
		<path fill="#FFFFFF" d="M171.5,141.2c-0.1,2.5,0.2,5,0.8,7.5c0.5,2.5,1.2,4.9,1.3,7.5c0,0.5,0.5,0.6,1,0.6c0.4,0,1.2-0.3,1.2-0.8
			c-0.1-2.6-0.7-5-1.2-7.5c-0.5-2.4-1-4.9-0.8-7.4C173.7,140,171.6,140.4,171.5,141.2L171.5,141.2z"/>
	</g>
</g>
<g>
	<path fill="#FFFFFF" d="M186,137.4c0,0-0.2,1.2-0.2,1.2c-0.1-2.2-3.7-0.6-4.6,0.3c-1.7,1.7-1.4,4.3-0.6,6.3
		c0.9,2.2,4.1,2.9,5.7,0.7c0.3-0.4,0.7-0.3,0.7-0.3C190.1,146.7,186,137.4,186,137.4z M183.9,145.1c-1.7-0.6-2.2-5.3-0.2-5.7
		c0.8-0.1,1.2,0.4,1.5,1.1C185.5,141.6,186.1,145.9,183.9,145.1z"/>
	<path fill="#FFFFFF" d="M183.8,147.2c-1.4,0-2.7-0.8-3.2-2.1c-0.8-2-1.1-4.6,0.6-6.3c0.6-0.5,2.2-1.4,3.4-1.4
		c0.7,0,1.1,0.3,1.2,0.9c0-0.3,0.1-0.6,0.2-0.9l0-0.1l0.1,0.1c0.1,0.3,2.9,6.6,2,8c-0.1,0.2-0.3,0.3-0.5,0.3h0c-0.1,0-0.3,0-0.5-0.1
		c-0.1,0-0.4,0-0.7,0.3C185.7,146.7,184.8,147.2,183.8,147.2z M184.5,137.5c-1.2,0-2.8,0.8-3.3,1.4c-1.7,1.6-1.4,4.3-0.6,6.2
		c0.5,1.2,1.8,2,3.1,2c1,0,1.9-0.5,2.5-1.3c0.2-0.3,0.6-0.4,0.7-0.4c0,0,0.1,0,0.1,0l0,0c0.2,0.1,0.3,0.1,0.5,0.1h0
		c0.2,0,0.3-0.1,0.4-0.2c0.8-1.2-1.6-6.8-2-7.8c-0.1,0.3-0.2,1-0.2,1l-0.1,0.4l0-0.4C185.7,137.9,185.3,137.5,184.5,137.5z
		 M184.4,145.3c-0.1,0-0.3,0-0.5-0.1c-1-0.3-1.6-2.1-1.5-3.6c0.1-1.2,0.6-2,1.4-2.1c0.7-0.1,1.2,0.3,1.5,1.2
		c0.3,0.8,0.6,3.3-0.1,4.2C185,145.1,184.7,145.3,184.4,145.3z M184,139.5c-0.1,0-0.2,0-0.2,0c-0.7,0.1-1.2,0.9-1.3,2
		c-0.1,1.4,0.5,3.2,1.5,3.5c0.5,0.2,0.9,0.1,1.2-0.3c0.4-0.5,0.4-1.5,0.4-2.2c0-0.8-0.2-1.6-0.3-2
		C184.9,139.9,184.5,139.5,184,139.5z"/>
</g>
<g>
	<g>
		<path fill="#FFFFFF" d="M187.8,144.7c1-2.7-0.8-5.5-0.1-8.3c-0.8,0.2-1.5,0.4-2.3,0.5c0.1,2.1,0.2,4.2,0.6,6.2
			c0.2,0.9,0.3,1.7,0.9,2.4c0.3,0.4,0.8,0.8,1.3,1c0.7,0.3,1.4,0.2,2.1,0c0.6-0.2,1.4-0.5,1.7-1.1c0.3-0.6,0.2-1.3,0.1-2
			c-0.1-1-0.1-2-0.2-3c-0.2-2-0.4-3.9-0.6-5.8c-0.8,0.2-1.5,0.4-2.3,0.6c0.2,1.8,2.4,1.6,3.7,1.9c0.3,0.1,0.6,0.1,0.8,0.3
			c0.3,0.2,0.3,0.5,0.3,0.8c0.1,1.2,0,2.4,0.1,3.6c0.1,1.1,0.5,2.4,1.4,3.1c0.8,0.6,2,0.3,2.8-0.1c1.4-0.7,2-2.3,2.5-3.7
			c0.5-1.5,0.8-3,1.1-4.5c0-0.3-1.1,0-1.2,0c-0.3,0.1-1,0.2-1.1,0.6c-0.2,1.2-0.5,2.3-0.8,3.4c-0.2,0.8-0.5,1.5-0.8,2.2
			c-0.2,0.5-0.6,1.2-0.9,1.6c0,0-0.1,0.1-0.1,0.1c-0.1,0.1-0.1,0,0,0c-0.1,0.1,0.1,0,0.1,0c-0.1,0-0.2,0.1,0.2-0.1
			c0.3-0.1,0.6-0.1,1-0.2c-0.1,0-0.1,0-0.2-0.1c-0.2-0.1-0.4-0.2-0.5-0.4c-0.7-0.8-1-2-1.1-3c-0.1-1.1,0-2.2-0.1-3.3
			c-0.1-0.7-0.4-1-1.1-1.2c-1.2-0.4-3.5,0-3.7-1.7c0-0.4-2.4,0-2.3,0.6c0.1,1.5,0.3,3,0.5,4.5c0.2,1.6,0.3,3.3,0.4,4.9
			c0,0.5,0,1-0.3,1.3c-0.2,0.2-0.2-0.1,0.8-0.2c0.1,0,0.1,0,0.2,0c0,0,0.1,0,0.1,0c-0.1-0.1-0.4-0.1-0.5-0.2c-1.3-0.7-1.6-2-1.8-3.3
			c-0.4-2-0.5-4.1-0.5-6.1c0-0.4-2.2,0.1-2.3,0.5c-0.7,2.7,1,5.6,0.1,8.3c-0.1,0.4,0.8,0.2,0.9,0.2c0.3-0.1,0.6-0.1,0.9-0.3
			C187.5,144.9,187.8,144.8,187.8,144.7L187.8,144.7z"/>
	</g>
</g>
</svg>
