<?xml version="1.0" encoding="utf-8"?>
<!-- Generator: Adobe Illustrator 18.1.0, SVG Export Plug-In . SVG Version: 6.00 Build 0)  -->
<!DOCTYPE svg PUBLIC "-//W3C//DTD SVG 1.1//EN" "http://www.w3.org/Graphics/SVG/1.1/DTD/svg11.dtd">
<svg version="1.1" id="Layer_1" xmlns="http://www.w3.org/2000/svg" xmlns:xlink="http://www.w3.org/1999/xlink" x="0px" y="0px"
	 viewBox="0 0 400 250" enable-background="new 0 0 400 250" xml:space="preserve">
<g>
	<polygon fill="#939598" points="335,105.3 242.8,54.5 270.1,186.4 	"/>
</g>
<g>
	<polygon fill="#939598" points="200.9,168.7 81.1,201.8 65,96.8 189,92.5 	"/>
</g>
<g>
	<circle fill="#434345" cx="188.5" cy="134.6" r="94.5"/>
	<path fill="#FFFFFF" d="M188.5,230.9c-12.8,0-25.3-2.5-37.1-7.4c-11.4-4.8-21.6-11.6-30.4-20.2c-18.2-17.9-28.4-41.7-28.8-67.2
		c-0.2-13,2.1-25.7,7-37.6c4.7-11.5,11.5-22,20.2-30.9s18.9-16.1,30.3-21.1c11.8-5.2,24.4-8,37.4-8.2c13.4-0.2,26.4,2.3,38.6,7.4
		c11.4,4.8,21.6,11.6,30.4,20.2c18.2,17.9,28.4,41.7,28.8,67.2c0.2,13-2.1,25.7-7,37.6c-4.7,11.5-11.5,22-20.2,30.9
		c-8.7,9-18.9,16.1-30.3,21.1c-11.8,5.2-24.4,8-37.4,8.2C189.5,230.9,189,230.9,188.5,230.9z M188.6,41.9c-0.5,0-1,0-1.5,0
		c-12.5,0.2-24.6,2.8-35.9,7.9c-11,4.8-20.8,11.7-29.1,20.3c-8.4,8.6-14.9,18.7-19.4,29.8c-4.6,11.5-6.9,23.7-6.7,36.2
		c0.4,24.5,10.2,47.4,27.7,64.6c17.4,17.1,40.5,26.6,64.9,26.6c0.5,0,1,0,1.5,0c12.5-0.2,24.6-2.8,35.9-7.9
		c11-4.8,20.8-11.7,29.1-20.3c8.4-8.6,14.9-18.7,19.4-29.8c4.6-11.5,6.9-23.7,6.7-36.2c-0.4-24.5-10.2-47.4-27.7-64.6
		C236.1,51.3,213,41.9,188.6,41.9z"/>
</g>
<g>
	<path fill="#434345" stroke="#FFFFFF" stroke-width="18" stroke-miterlimit="10" d="M108,161.4"/>
</g>
<g>
	<path fill="#434345" d="M108.6,106c11.6-32.3,42.2-55.6,78.5-56.2c46.8-0.7,85.4,36.6,86.2,83.5s-36.6,85.4-83.5,86.2
		c-12.2,0.2-23.8-2.2-34.3-6.6"/>
	<path fill="#FFFFFF" d="M188.5,222.2c-11.8,0-23.2-2.3-34-6.9l2.2-5.2c10.5,4.4,21.7,6.6,33.2,6.4c11.1-0.2,21.8-2.5,31.8-6.9
		c9.7-4.3,18.4-10.3,25.8-18c7.4-7.7,13.2-16.5,17.2-26.3c4.1-10.2,6.1-20.9,5.9-32c-0.2-11.1-2.5-21.8-6.9-31.8
		c-4.3-9.7-10.3-18.4-18-25.8c-7.7-7.4-16.5-13.2-26.3-17.2c-10.2-4.1-20.9-6.1-32-5.9c-17,0.3-33.2,5.7-46.9,15.7
		c-13.4,9.8-23.4,23.1-29,38.7L106,105c5.9-16.6,16.7-30.9,31-41.3c14.6-10.7,32-16.5,50.2-16.8c11.8-0.2,23.3,1.9,34.2,6.3
		c10.5,4.2,20,10.4,28.1,18.3c8.2,7.9,14.6,17.2,19.2,27.5c4.7,10.7,7.2,22.2,7.4,34c0.2,11.8-1.9,23.3-6.3,34.2
		c-4.2,10.5-10.4,20-18.3,28.1c-7.9,8.2-17.2,14.6-27.5,19.2c-10.7,4.7-22.2,7.2-34,7.4C189.4,222.2,189,222.2,188.5,222.2z"/>
</g>
<g>
	<path fill="#939598" d="M130.4,81.1c-0.6,6.2,11.5,15.2,16.8,14c6.2-1.4,8.1-9,8.3-14.5c0.7-14.1-9.9-25.6-23.6-27.4
		c-22.7-3-40.2,18.1-39.4,39.7c0.5,12,7,25,18.2,30.1c-2.7-1.2-8,12.7-8.6,14.3c-5.9,13.8-9.7,27-6.4,42c2.9,13.3,10.7,25.4,22.1,33
		c15.4,10.3,38.5,9.4,53.6-1c17.2-11.8,21.6-42.7-0.9-52c-1.5-0.6-3.2-1.1-4.7-0.5c-1.1,0.4-2,1.3-2.8,2.2c-4.5,5.5-6.8,12.8-6,19.8
		c0.1,1.1,0.3,2.3,1,3.1c1.2,1.4,3.3,1.6,5.1,2.3c4.1,1.7,5.9,6.9,4.5,11.2c-1.3,4.2-5,7.3-9,9.2c-8.8,4-19.6,2.6-27.5-3
		c-18.1-12.6-17.8-35.6-12.3-54.8c1.9-6.6,4.6-13,7.4-19.3c2.5-5.5,4.4-10.6,8.2-15.6c-5.7-2-11.3-2.6-16.3-6.8
		c-9.2-7.7-10.1-20.3-8.1-31.4c1.4-7.9,8.5-19,17.3-16.1c7,2.4,10.5,13.4,4.5,18.9c-0.4,0.3-0.7,0.7-0.9,1.2
		C130.6,80.1,130.5,80.6,130.4,81.1z"/>
	<path fill="#939598" d="M143.3,221.6c-9.9,0-19.3-2.7-26.7-7.6c-11.5-7.7-19.8-20.2-22.9-34.3c-3.6-16.2,1-30.4,6.5-43.2
		c0.1-0.1,0.2-0.4,0.3-0.7c2.7-6.7,4.7-10.5,6.3-12.6c-4.4-2.7-8.1-6.7-11-11.7c-3.2-5.6-5.1-12.2-5.3-18.5
		c-0.4-11.2,4-22.7,11.8-30.8c6.9-7.2,15.9-11.2,25.4-11.2c1.5,0,3,0.1,4.5,0.3c7.2,0.9,13.7,4.4,18.4,9.8
		c4.8,5.5,7.3,12.5,6.9,19.7c-0.2,4.3-1.6,14.5-9.9,16.3c-0.5,0.1-0.9,0.2-1.5,0.2h0c-4.5,0-10.6-4-14-7.7c-1.9-2.1-4.1-5.3-3.8-8.6
		c0.1-0.7,0.2-1.3,0.5-2c0.4-0.8,1-1.5,1.4-1.8c2.1-1.9,2.9-4.8,2.2-8c-0.7-3.5-3.1-6.5-6-7.5c-0.8-0.3-1.5-0.4-2.3-0.4
		c-6.3,0-11.3,8.8-12.4,14.9c-1.1,6-1.1,11.5-0.1,16.2c1.1,5.6,3.7,10.1,7.6,13.3c3.4,2.8,7.1,3.9,11.1,5c1.5,0.4,3,0.9,4.6,1.4
		l2.6,0.9l-1.7,2.2c-3,4-4.9,8.2-6.8,12.7c-0.4,0.8-0.7,1.7-1.1,2.5c-2.7,5.9-5.4,12.3-7.3,19c-3.1,10.5-4,20.5-2.7,29
		c1.6,10.2,6.3,18.1,14.2,23.6c4.5,3.1,10,4.9,15.5,4.9c3.6,0,6.9-0.7,10-2.1c4-1.8,6.9-4.7,7.9-7.9c1-3.1-0.2-7.4-3.4-8.7
		c-0.4-0.2-0.9-0.3-1.5-0.5c-1.4-0.4-3.2-0.9-4.4-2.4c-1.1-1.3-1.3-2.8-1.5-4.2c-0.8-7.6,1.6-15.4,6.5-21.3c0.9-1.1,2-2.3,3.7-2.8
		c0.7-0.2,1.4-0.3,2.1-0.3c1.2,0,2.5,0.3,4,0.9c9.5,3.9,15.4,11.8,16.5,22.2c1.3,12.6-4.9,26.3-15.2,33.4
		C164.4,218.5,154,221.6,143.3,221.6z M110.8,124.8c-0.4,0.2-2.2,1.9-6.5,12.4c-0.2,0.4-0.3,0.7-0.3,0.8
		c-5.2,12.3-9.6,25.7-6.3,40.8c2.9,13.1,10.6,24.7,21.2,31.8c6.7,4.5,15.4,6.9,24.4,6.9c9.9,0,19.5-2.8,26.9-7.9
		c9.1-6.3,14.6-18.4,13.5-29.6c-0.9-8.8-5.9-15.5-14-18.9c-1.5-0.6-2.5-0.8-3.3-0.5c-0.7,0.2-1.4,1-1.9,1.6
		c-4.2,5-6.2,11.9-5.6,18.4c0.1,0.8,0.2,1.6,0.6,2.1c0.4,0.5,1.3,0.8,2.4,1.1c0.6,0.2,1.2,0.4,1.9,0.6c2.4,1,4.4,3,5.4,5.8
		c1,2.5,1.1,5.4,0.3,7.9c-0.8,2.5-3.1,7.2-10.1,10.4c-3.6,1.6-7.5,2.5-11.6,2.5c-6.3,0-12.7-2-17.8-5.6
		c-8.7-6.1-14.1-14.9-15.8-26.3c-1.4-9-0.4-19.7,2.8-30.7c2-6.9,4.8-13.5,7.5-19.5c0.4-0.8,0.7-1.7,1.1-2.5
		c1.7-3.9,3.3-7.5,5.7-11.2c-0.6-0.2-1.2-0.4-1.8-0.5c-4.2-1.2-8.6-2.4-12.6-5.8c-4.6-3.9-7.6-9.1-8.9-15.6
		c-1.1-5.3-1.1-11.2,0.1-17.7c1.3-7.3,7.4-18.2,16.3-18.2c1.2,0,2.4,0.2,3.6,0.6c4.2,1.4,7.6,5.5,8.6,10.5c1,4.6-0.3,8.9-3.4,11.7
		c-0.2,0.2-0.4,0.4-0.5,0.5c-0.1,0.2-0.2,0.5-0.2,0.7c-0.1,1.4,0.9,3.4,2.7,5.5c3.2,3.5,8.1,6.4,11,6.4c0,0,0,0,0,0
		c0.2,0,0.4,0,0.6-0.1c2.2-0.5,3.8-2,5-4.6c1-2.1,1.6-5,1.8-8c0.3-6.2-1.8-12.2-5.9-16.9c-4.1-4.6-9.7-7.6-16-8.4
		c-1.3-0.2-2.7-0.3-4-0.3c-8.3,0-16.3,3.5-22.5,9.9c-7.1,7.3-11.1,17.8-10.7,27.9c0.2,5.8,1.9,11.7,4.8,16.7
		c3.1,5.4,7.3,9.4,12.3,11.7l-1.7,3.6c0.2,0.1,0.3,0.1,0.5,0.1C110.6,124.9,110.8,124.8,110.8,124.8L110.8,124.8z"/>
</g>
<g>
	<path fill="#939598" d="M232.3,107.3c-1.9-3.6-4.5-6.7-7.2-9.7c-5.6-6.3-6.9-15.5-1.9-23c-8.6-0.3-17.9,11.3-16.4,19.4
		c0.5,3,2.4,4.7,4.6,6.5c4.9,4,9,9.3,11,15.3c1.5,4.3,3.6,19.3-4,19.7c-5,0.2-10-7.4-10.9-11.6c-1.6-7.6,1.7-15.7,3.2-22.8
		c-0.1,0.3-1.9,1.1-2.2,1.2c-4.6,2.7-10.7,6.4-12.5,11.7c-1.3,3.8-0.1,8.1,2.2,11.4c2,3-0.5,11.3-3.6,12.1
		c-6.8,1.7-12.8-42.3-10.3-42.9c0,0-7.6,2-7.6,2s-1.3,6.5-1.3,6.5c0.2-0.9-6.1-3.7-6.9-4.1c-2-0.8-4.1-1.4-6.3-1.6
		c-10.7-0.6-16.3,10.4-18,19.4c-1.9,10.2-0.8,23,6.6,30.9c3.6,3.9,8.7,5.8,14.1,5.3c6.7-0.6,16.4-5.2,14.4-13.4
		c1.4,5.7,6.9,7.7,12.3,7.1c4.8-0.5,10.5-5.5,10.3-10.7c0.2,3.6,5.2,4.8,8,5.5c3.8,0.9,7.8,1,11.6,0c6.2-1.6,12.3-5.8,14.5-12
		C238.4,122.6,235.5,113.6,232.3,107.3z M172.9,125.1c0.1,3.7,0.3,7.7-1,11.2c-2.6,7.6-11.2,4.2-14-1.4c-2.7-5.4-2.7-12.3-1.2-17.9
		c0.8-2.9,2.6-9,6.4-9.5c5-0.7,7.4,3,8.6,7c0.3,0.9,0.5,1.8,0.6,2.7C172.7,119.8,172.8,122.5,172.9,125.1z"/>
	<path fill="#939598" d="M163.2,153.1c-4.8,0-9.2-1.9-12.5-5.4c-7.6-8.2-8.4-21.4-6.6-31c1-5,2.9-9.7,5.4-13.1
		c3.2-4.3,7.2-6.5,11.8-6.5c0.3,0,0.6,0,0.9,0c2,0.1,4.1,0.6,6.3,1.6c0.1,0,5.8,2.6,6.8,3.8c0.1-0.6,0.4-2.1,1.2-6.2l0-0.1l0.1,0
		c0.8-0.2,7.6-2,7.6-2l0.1,0.2c-0.7,0.2-0.8,4.9,0.3,13.7c1.9,14.5,5.8,29.1,9.5,29.1c0,0,0,0,0,0c0.1,0,0.2,0,0.4,0
		c1.2-0.3,2.5-1.9,3.3-4.2c1.3-3.6,1.1-6.5,0.2-7.7c-2.6-3.7-3.4-8-2.2-11.5c1.9-5.6,8.8-9.6,12.6-11.8c0.1,0,0.2-0.1,0.5-0.2
		c0.4-0.2,1.6-0.7,1.7-0.9l0.2,0v0l0,0c-0.4,1.8-0.8,3.6-1.3,5.5c-1.5,5.7-3.1,11.7-1.9,17.3c0.8,4,5.6,11.5,10.5,11.5h0
		c0.1,0,0.2,0,0.2,0c1.5-0.1,2.8-0.8,3.6-2.1c2.9-4.3,1.4-14.1,0.2-17.5c-1.9-5.7-5.8-11.1-11-15.2c-2.3-1.9-4.1-3.5-4.6-6.5
		c-0.7-3.8,1.1-8.8,4.6-13c3.4-4.1,7.8-6.5,11.6-6.5c0.1,0,0.2,0,0.4,0l0.2,0l-0.1,0.2c-4.7,7.1-4,16.3,1.9,22.8
		c2.6,2.9,5.3,6.1,7.2,9.7c1.3,2.5,3.1,6.5,4,10.9c0.9,4.4,0.9,8.2-0.3,11.3c-2,5.7-7.6,10.3-14.6,12c-1.9,0.5-3.9,0.7-5.9,0.7h0
		c-2,0-3.9-0.2-5.8-0.7l-0.1,0c-2.6-0.6-6.8-1.7-7.8-4.5c-0.2,2.1-1.3,4.3-3.2,6.1c-2,2-4.7,3.3-7.1,3.6c-0.6,0.1-1.3,0.1-1.9,0.1
		c-4.9,0-8.6-2.2-10.1-5.9c0.2,2-0.3,3.9-1.6,5.6c-2.8,3.9-8.6,6.1-13.2,6.5C164.3,153.1,163.8,153.1,163.2,153.1z M161.4,97.4
		c-4.6,0-8.5,2.1-11.7,6.4c-2.5,3.4-4.4,8-5.4,13c-1.8,9.6-1,22.7,6.5,30.8c3.2,3.5,7.6,5.4,12.3,5.4c0.5,0,1.1,0,1.7-0.1
		c4.5-0.4,10.3-2.6,13-6.4c1.5-2.1,1.9-4.4,1.3-6.8l0.2-0.1c1.1,4.5,5,7.1,10.3,7.1c0.6,0,1.2,0,1.8-0.1c4.8-0.5,10.4-5.5,10.2-10.6
		l0,0l0,0l0.2,0c0.2,3.5,5,4.7,7.8,5.4l0.1,0c3.8,0.9,7.8,0.9,11.6,0c6.9-1.8,12.4-6.3,14.4-11.9c0.9-2.6,2.4-10.1-3.7-22
		c-1.9-3.6-4.6-6.8-7.2-9.7c-5.9-6.6-6.7-15.8-2-22.9c-3.9-0.1-8.2,2.4-11.6,6.4c-3.5,4.1-5.2,9-4.5,12.8c0.5,2.9,2.3,4.6,4.6,6.4
		c5.2,4.2,9.1,9.6,11,15.3c1.1,3.4,2.7,13.4-0.3,17.7c-0.9,1.3-2.2,2.1-3.8,2.1c-0.1,0-0.2,0-0.2,0h0c-2.2,0-4.7-1.5-6.9-4.3
		c-1.9-2.3-3.4-5.2-3.8-7.4c-1.2-5.7,0.4-11.7,1.9-17.4c0.5-1.8,0.9-3.5,1.3-5.1c-0.3,0.2-0.8,0.4-1.5,0.8c-0.2,0.1-0.4,0.2-0.5,0.2
		c-3.7,2.1-10.6,6.1-12.5,11.6c-1.2,3.4-0.3,7.6,2.2,11.3c1.2,1.8,0.8,5.4-0.2,7.9c-0.9,2.4-2.2,4-3.5,4.3c-0.1,0-0.3,0.1-0.4,0.1
		c0,0,0,0,0,0c-1.9,0-3.9-3.4-5.8-10c-1.5-5.3-3-12.3-3.9-19.3c-0.7-5.6-1.2-12.1-0.5-13.6c-1.4,0.4-6.5,1.7-7.2,1.9
		c-0.1,0.7-1.3,6.4-1.3,6.4c0,0,0,0,0,0l-0.2,0c0,0,0,0,0,0h0c0.1-0.7-5-3.2-6.8-4c-2.2-0.9-4.3-1.4-6.2-1.5
		C161.9,97.4,161.7,97.4,161.4,97.4z M166.4,140.9c-3.2,0-7-2.5-8.7-5.9c-2.5-4.9-2.9-11.6-1.2-18c1.6-6,3.8-9.2,6.5-9.6
		c0.4-0.1,0.8-0.1,1.2-0.1c3.6,0,6.2,2.5,7.5,7.1c0.2,0.8,0.5,1.8,0.6,2.7c0.4,2.6,0.5,5.3,0.6,7.9l0,0.3c0.1,3.7,0.2,7.6-1,11.1
		C171,139.3,169,140.9,166.4,140.9z M164.2,107.6c-0.4,0-0.8,0-1.1,0.1c-2.6,0.4-4.7,3.5-6.3,9.4c-1.3,4.9-1.7,12.1,1.2,17.8
		c1.7,3.3,5.3,5.8,8.5,5.8c2.5,0,4.4-1.5,5.4-4.3c1.2-3.5,1.1-7.3,1-11l0-0.3c-0.1-2.6-0.2-5.2-0.6-7.8c-0.2-1-0.4-1.9-0.6-2.7
		C170.2,109.9,167.7,107.6,164.2,107.6z"/>
</g>
<g>
	<g>
		<path fill="#939598" d="M179.4,75.1c13.2-1.5,26.3-4.5,39.1-7.9c11.3-3,22.5-6.5,33.9-9.1c0.8-0.2,1.6-0.3,2.4-0.5
			c1.9-0.4-3.4,0.7-1.5,0.3c0.4-0.1,0.8-0.2,1.2-0.2c1.6-0.3,3.2-0.6,4.8-0.9c3.5-0.6,6.9-1.1,10.4-1.6c2.9-0.4,6.2-1.5,8.8-2.9
			c1.3-0.7,4.2-2.4,4.6-4.2c1-4.7-7.3-3.8-9.6-3.5c-12.6,1.5-25.1,4.4-37.4,7.7c-11.7,3.2-23.2,6.7-35,9.3c-0.3,0.1-0.7,0.2-1,0.2
			c-2.3,0.5,3.2-0.7,1.3-0.3c-0.8,0.2-1.7,0.3-2.5,0.5c-1.7,0.3-3.4,0.6-5,0.9c-3.5,0.6-7,1.1-10.6,1.5c-2.9,0.3-6.3,1.5-8.8,2.9
			c-1.3,0.7-4.2,2.4-4.6,4.2C168.8,76.2,177.1,75.3,179.4,75.1L179.4,75.1z"/>
	</g>
</g>
<g>
	<g>
		<path fill="#939598" d="M227.7,30.5c2.5,14.9,4.9,29.9,6.1,45c0-0.5-0.1-0.9-0.1-1.4c0.4,5,0.6,10,0.7,15c0.1,5,0.1,10,0.6,14.9
			c0.8,8.2,3.3,16.2,8.8,22.5c2.9,3.2,6.1,5.9,10.1,7.7c4.2,2,9.2,2.3,13.8,1.2c8.9-2.2,15-9.8,16.4-18.5c1.2-7.5-0.8-16.3-5.8-22.3
			c-2.2-2.6-6.6-2.7-9.5-1.2c-2.4,1.2-5.5,4.5-3.2,7.3c1.1,1.3,1.9,2.7,2.7,4.2c-0.2-0.4-0.4-0.8-0.6-1.2c1.5,3.1,2.3,6.4,2.6,9.7
			c0-0.5-0.1-0.9-0.1-1.4c0.2,2.7,0,5.4-0.7,8.1c0.1-0.5,0.3-0.9,0.4-1.4c-0.3,1.1-0.7,2.2-1.3,3.3c-0.2,0.5-0.5,0.9-0.8,1.4
			c1-1.8,0-0.1-0.4,0.4c-0.2,0.2-0.4,0.5-0.6,0.7c-0.4,0.4-1.2,0.8,0.4-0.4c-0.5,0.4-0.9,0.8-1.4,1.1c-0.2,0.1-0.4,0.2-0.5,0.4
			c1-0.6,1.3-0.8,0.8-0.5c-0.3,0.1-0.5,0.3-0.8,0.4c-0.7,0.3-1.6,0.3,0.6-0.2c-0.3,0.1-0.6,0.2-0.8,0.2c-0.7,0.2-1.4,0,0.8-0.1
			c-0.3,0-0.6,0.1-0.8,0.1c-0.3,0-0.6,0-0.8,0c2.2-0.1,1.2,0,0.6,0c-0.3,0-0.6-0.1-1-0.2c-1-0.2,1.6,0.5,0.5,0.1
			c-0.5-0.2-1.1-0.3-1.6-0.6c-0.3-0.1-0.5-0.2-0.8-0.3c-1-0.4,1.3,0.8,0.2,0.1c-0.6-0.3-1.1-0.7-1.6-1c-1.1-0.8-2.1-1.6-3.1-2.5
			c0.3,0.3,0.7,0.7,1,1c-2.7-2.6-4.9-5.6-6.5-8.9c0.2,0.4,0.4,0.8,0.6,1.2c-2.3-4.8-3.2-10.2-3.6-15.5c0,0.5,0.1,0.9,0.1,1.4
			c-0.3-4.5-0.3-8.9-0.4-13.4c-0.1-5.1-0.4-10.2-0.8-15.3c-0.7-9.7-2-19.3-3.5-28.9c-0.8-5.4-1.7-10.7-2.6-16.1
			c-0.2-1.4-1.8-2.5-3-2.9c-1.6-0.6-3.7-0.6-5.3-0.1C230.3,24.7,227.2,27,227.7,30.5L227.7,30.5z"/>
	</g>
</g>
<g>
	<g>
		<path fill="#939598" d="M179.3,138.6c5.7-14.3-3.8-31,0.8-45.8c0.1,12.6,0.5,25.3,2.8,37.8c0.6,3.1,1.3,6.2,2.9,8.8
			c1.7,2.6,2.6,5,5.7,5"/>
	</g>
	<g>
		<g>
			<path fill="#939598" d="M185.1,137.7c4.6-11.6-0.1-24-0.4-35.9c-0.1-3.3,0.2-6.6,1.2-9.8c-3.9,0.8-7.7,1.7-11.6,2.5
				c0.1,8.1,0.3,16.1,1,24.2c0.4,4,0.8,7.9,1.5,11.9c0.6,3.5,1.2,7.2,3.1,10.3c0.9,1.4,1.7,2.9,2.8,4.2c1.3,1.4,3.3,2,5.1,2.1
				c2.7,0.1,6-0.5,8.2-2.2c0.6-0.4,1.5-1.1,1.3-2c-0.2-0.8-1.5-1-2.1-1.1c-0.2,0-0.3,0-0.5,0c-0.5,0,0.3,0,0.3,0.1
				c0,0-0.5-0.2-0.5-0.2c0,0,0.4,0.2,0.1,0.1c-0.5-0.3-0.9-0.7-1.3-1.1c-0.7-0.9-1.4-2.2-2.1-3.3c-1.8-3-2.4-6.6-2.9-10
				c-1.3-7.6-1.9-15.3-2.2-23c-0.2-4.4-0.2-8.7-0.3-13.1c0-0.8-1.7-1-2.1-1.1c-1.2-0.1-2.3,0.1-3.5,0.3c-1.2,0.3-2.5,0.6-3.6,1.2
				c-0.8,0.4-2,1-2.3,2c-3.6,12,1.3,24.1,1.1,36.2c-0.1,3.3-0.6,6.5-1.8,9.6c-0.8,2.1,3.9,1.7,4.8,1.5c1.5-0.3,3.1-0.7,4.4-1.4
				C183.6,139.2,184.7,138.6,185.1,137.7L185.1,137.7z"/>
		</g>
	</g>
</g>
<g>
	<path fill="#FFFFFF" d="M130.1,76c-0.6,6.2,11.5,15.2,16.8,14c6.2-1.4,8.1-9,8.3-14.5c0.7-14.1-9.9-25.6-23.6-27.4
		c-22.7-3-40.2,18.1-39.4,39.7c0.5,12,7,25,18.2,30.1c-2.7-1.2-8,12.7-8.6,14.3c-5.9,13.8-9.7,27-6.4,42c2.9,13.3,10.7,25.4,22.1,33
		c15.4,10.3,38.5,9.4,53.6-1c17.2-11.8,21.6-42.7-0.9-52c-1.5-0.6-3.2-1.1-4.7-0.5c-1.1,0.4-2,1.3-2.8,2.2c-4.5,5.5-6.8,12.8-6,19.8
		c0.1,1.1,0.3,2.3,1,3.1c1.2,1.4,3.3,1.6,5.1,2.3c4.1,1.7,5.9,6.9,4.5,11.2c-1.3,4.2-5,7.3-9,9.2c-8.8,4-19.6,2.6-27.5-3
		c-18.1-12.6-17.8-35.6-12.3-54.8c1.9-6.6,4.6-13,7.4-19.3c2.5-5.5,4.4-10.6,8.2-15.6c-5.7-2-11.3-2.6-16.3-6.8
		c-9.2-7.7-10.1-20.3-8.1-31.4c1.4-7.9,8.5-19,17.3-16.1c7,2.4,10.5,13.4,4.5,18.9c-0.4,0.3-0.7,0.7-0.9,1.2
		C130.3,75.1,130.1,75.6,130.1,76z"/>
	<path fill="#FFFFFF" d="M143,215.4c-9.6,0-18.9-2.6-26-7.4c-11.2-7.5-19.4-19.7-22.4-33.6c-3.5-15.9,1-29.8,6.5-42.5
		c0.1-0.1,0.2-0.4,0.3-0.8c3-7.4,5.2-11.6,7-13.3c-4.7-2.6-8.8-6.7-11.8-12c-3.1-5.4-4.9-11.8-5.2-18c-0.4-10.9,3.9-22.1,11.5-30
		c6.7-7,15.4-10.8,24.5-10.8c1.4,0,2.9,0.1,4.4,0.3c6.9,0.9,13.2,4.2,17.7,9.4c4.6,5.2,6.9,12,6.6,18.9c-0.2,4-1.5,13.6-9,15.2
		c-0.4,0.1-0.8,0.1-1.2,0.1c0,0,0,0,0,0c-3.7,0-9.3-3.1-13.1-7.3c-1.7-1.9-3.8-4.8-3.5-7.7c0.1-0.6,0.2-1.1,0.4-1.6
		c0.3-0.6,0.8-1.1,1.1-1.5c2.4-2.2,3.3-5.5,2.6-9.1c-0.8-4-3.5-7.3-6.8-8.4c-0.9-0.3-1.8-0.4-2.6-0.4c-2.2,0-5.4,0.9-8.8,5.3
		c-2.3,3-4.1,6.9-4.7,10.5c-1.1,6.1-1.1,11.7-0.1,16.7c1.2,5.8,3.9,10.5,8,14c3.5,3,7.4,4.1,11.5,5.2c1.5,0.4,3,0.9,4.5,1.4l1.1,0.4
		l-0.7,0.9c-3.1,4.1-5,8.4-7,12.9c-0.4,0.8-0.7,1.7-1.1,2.5c-2.7,6-5.4,12.4-7.4,19.1c-3.1,10.7-4,20.9-2.7,29.5
		c1.6,10.5,6.6,18.7,14.6,24.4c4.7,3.3,10.5,5.1,16.2,5.1c3.7,0,7.2-0.7,10.4-2.2c4.3-2,7.5-5.1,8.5-8.7c1.4-4.5-1-8.9-4.1-10.1
		c-0.5-0.2-1-0.3-1.6-0.5c-1.4-0.4-2.8-0.8-3.8-2c-0.9-1-1.1-2.4-1.2-3.6c-0.8-7.3,1.5-14.8,6.2-20.5c0.8-1,1.8-2,3.1-2.5
		c0.5-0.2,1.1-0.3,1.7-0.3c1,0,2.2,0.3,3.6,0.8c9.1,3.8,14.7,11.3,15.8,21.2c1.3,12.2-4.7,25.5-14.7,32.3
		C163.6,212.4,153.5,215.4,143,215.4z M127.3,48.7c-8.6,0-16.9,3.7-23.3,10.3c-7.3,7.6-11.4,18.3-11,28.8c0.2,5.9,2,12.1,5,17.2
		c3.2,5.6,7.6,9.8,12.8,12.1l-0.7,1.5c0,0-1.1,0.1-3.7,5.1c-1.5,3-2.9,6.3-3.5,7.9c-0.1,0.4-0.3,0.6-0.3,0.8
		c-5.3,12.4-9.8,26.1-6.4,41.5c2.9,13.4,10.9,25.3,21.7,32.5c6.9,4.6,15.8,7.1,25.1,7.1c10.1,0,19.9-2.9,27.6-8.1
		c9.4-6.5,15.2-19.1,14-30.7c-1-9.3-6.2-16.3-14.7-19.8c-1.2-0.5-2.1-0.7-2.9-0.7c-0.4,0-0.8,0.1-1.2,0.2c-1,0.3-1.8,1.2-2.4,2
		c-4.4,5.2-6.5,12.4-5.8,19.2c0.1,1,0.3,2,0.8,2.7c0.7,0.8,1.8,1.1,3,1.5c0.6,0.2,1.2,0.3,1.7,0.6c2.1,0.9,3.8,2.7,4.8,5.1
		c0.9,2.3,1,4.8,0.3,7.1c-1.2,4-4.7,7.5-9.4,9.7c-3.4,1.6-7.2,2.4-11.1,2.4c-6.1,0-12.2-1.9-17.2-5.4c-8.5-5.9-13.6-14.5-15.3-25.5
		c-1.4-8.9-0.4-19.3,2.7-30.2c2-6.8,4.8-13.3,7.5-19.4c0.4-0.9,0.8-1.7,1.1-2.5c1.9-4.3,3.7-8.3,6.5-12.3c-1.1-0.4-2.3-0.7-3.4-1
		c-4.3-1.2-8.3-2.4-12.1-5.6c-4.4-3.7-7.3-8.7-8.5-14.9c-1.1-5.1-1-10.9,0.1-17.3c1.3-7.2,7.3-17.2,15.2-17.2c1.1,0,2.1,0.2,3.2,0.5
		c3.8,1.3,6.9,5.1,7.9,9.6c0.9,4.2-0.3,8.1-3.1,10.6c-0.4,0.3-0.6,0.6-0.7,0.9c-0.2,0.3-0.2,0.7-0.3,1.1c-0.2,1.8,0.9,4.1,3,6.4
		c3.4,3.8,8.6,6.8,11.9,6.8h0c0.3,0,0.6,0,0.8-0.1c2.1-0.5,7.1-2.7,7.7-13.7c0.3-6.5-1.8-12.8-6.2-17.7c-4.2-4.8-10.2-8-16.7-8.8
		C130.1,48.8,128.7,48.7,127.3,48.7z"/>
</g>
<g>
	<path fill="#FFFFFF" d="M231,102.5c-1.9-3.6-4.5-6.7-7.2-9.7c-5.6-6.3-6.9-15.5-1.9-23c-8.6-0.3-17.9,11.3-16.4,19.4
		c0.5,3,2.4,4.7,4.6,6.5c4.9,4,9,9.3,11,15.3c1.5,4.3,3.6,19.3-4,19.7c-5,0.2-10-7.4-10.9-11.6c-1.6-7.6,1.7-15.7,3.2-22.8
		c-0.1,0.3-1.9,1.1-2.2,1.2c-4.6,2.7-10.7,6.4-12.5,11.7c-1.3,3.8-0.1,8.1,2.2,11.4c2,3-0.5,11.3-3.6,12.1
		c-5.5,1.4-10-25.9-9.7-30.2c0.1-1.6-1.5-12.4-0.5-12.7l-7.6,2c0,0-1.3,6.5-1.3,6.5c0.2-0.9-6.1-3.7-6.9-4.1c-2-0.8-4.1-1.4-6.3-1.6
		c-10.7-0.6-16.3,10.4-18,19.4c-1.9,10.2-0.8,23,6.6,30.9c3.6,3.9,8.7,5.8,14.1,5.3c6.7-0.6,16.4-5.2,14.4-13.4
		c1.4,5.7,6.9,7.7,12.3,7.1c4.8-0.5,10.5-5.5,10.3-10.7c0.2,3.6,5.2,4.8,8,5.5c3.8,0.9,7.8,1,11.6,0c6.2-1.6,12.3-5.8,14.5-12
		C237.2,117.8,234.2,108.8,231,102.5z M171.6,120.3c0.1,3.7,0.3,7.7-1,11.2c-2.6,7.6-11.2,4.2-14-1.4c-2.7-5.4-2.7-12.3-1.2-17.9
		c0.8-2.9,2.6-9,6.4-9.5c5-0.7,7.4,3,8.6,7c0.3,0.9,0.5,1.8,0.6,2.7C171.5,115.1,171.5,117.7,171.6,120.3z"/>
</g>
<g>
	<g>
		<path fill="#FFFFFF" d="M177.5,70.8c13.3-1.5,26.4-4.5,39.3-8c11.6-3.1,23.1-6.5,34.8-9c0.3-0.1,0.5-0.1,0.8-0.2
			c1.2-0.3,0.5-0.1-1.9,0.4c0.3-0.1,0.5-0.1,0.8-0.2c0.8-0.2,1.6-0.3,2.4-0.5c1.6-0.3,3.1-0.6,4.7-0.9c3.1-0.6,6.3-1.1,9.4-1.6
			c3-0.5,6.2-1.4,8.8-2.9c1.3-0.7,4.2-2.4,4.6-4.2c0.9-4.6-7.3-3.9-9.6-3.5c-12.4,2-24.8,4.6-37,7.7c-11.8,3-23.5,6.7-35.4,9.3
			c-0.3,0.1-0.6,0.1-0.8,0.2c-0.3,0.1-0.6,0.1-0.8,0.2c2.4-0.5,3.1-0.6,1.9-0.4c-0.8,0.2-1.7,0.3-2.5,0.5c-1.7,0.3-3.4,0.6-5,0.9
			c-3.5,0.6-7,1.1-10.6,1.5c-2.9,0.3-6.3,1.5-8.8,2.9c-1.3,0.7-4.2,2.4-4.6,4.2C166.9,71.9,175.2,71,177.5,70.8L177.5,70.8z"/>
	</g>
</g>
<g>
	<g>
		<path fill="#FFFFFF" d="M225.1,26.1c2.5,14.9,4.9,29.9,6.1,45c0-0.5-0.1-0.9-0.1-1.4c0.4,5,0.6,10,0.7,15c0.1,5,0.1,10,0.6,14.9
			c0.8,8.2,3.3,16.2,8.8,22.5c2.9,3.2,6.1,5.9,10.1,7.7c4.2,2,9.2,2.3,13.8,1.2c8.8-2.2,15-9.7,16-18.5c0.9-7.7-1.6-16.3-6.5-22.3
			c-2.2-2.6-6.6-2.7-9.5-1.2c-2.4,1.2-5.5,4.5-3.2,7.3c1.2,1.4,2.2,3,3,4.7c-0.2-0.4-0.4-0.8-0.6-1.2c1.6,3.3,2.6,6.8,2.9,10.4
			c0-0.5-0.1-0.9-0.1-1.4c0.2,2.6,0,5.2-0.7,7.7c0.1-0.5,0.3-0.9,0.4-1.4c-0.3,1.1-0.7,2.1-1.2,3.1c-0.1,0.3-0.3,0.5-0.5,0.8
			c-0.5,0.8,0.9-1.2,0.2-0.4c-0.3,0.4-0.6,0.9-1,1.2c-0.2,0.2-0.4,0.4-0.6,0.6c1.2-1.4,0.8-0.8,0.4-0.4c-0.5,0.4-1,0.7-1.5,1.1
			c1.9-1.3,0.3-0.2-0.4,0.1c-1.1,0.5,1.8-0.6,0.7-0.3c-0.3,0.1-0.7,0.2-1,0.2c-0.7,0.2,2.2-0.2,0.8-0.1c-0.3,0-0.6,0-0.8,0.1
			c-1.3,0.1,1.4,0.1,0.7,0c-0.3,0-0.6-0.1-1-0.1c-0.1,0-0.8-0.1-0.8-0.2c0,0,1.9,0.5,0.5,0.1c-0.5-0.2-1.1-0.4-1.6-0.6
			c-0.3-0.1-0.5-0.3-0.8-0.4c1.6,0.6,0.8,0.4,0.3,0.2c-0.5-0.3-1-0.6-1.5-1c-1.1-0.8-2.1-1.6-3.1-2.5c0.3,0.3,0.7,0.7,1,1
			c-2.7-2.6-4.9-5.6-6.5-8.9c0.2,0.4,0.4,0.8,0.6,1.2c-2.3-4.8-3.2-10.2-3.6-15.5c0,0.5,0.1,0.9,0.1,1.4c-0.3-4.5-0.3-8.9-0.4-13.4
			c-0.1-5.1-0.4-10.2-0.8-15.3c-0.7-9.7-2-19.3-3.5-28.9c-0.8-5.4-1.7-10.7-2.6-16.1c-0.2-1.4-1.8-2.5-3-2.9
			c-1.6-0.6-3.7-0.6-5.3-0.1C227.7,20.3,224.5,22.6,225.1,26.1L225.1,26.1z"/>
	</g>
</g>
<g>
	<g>
		<path fill="#FFFFFF" d="M183.4,132.9c4.6-11.6-0.1-24-0.4-35.9c-0.1-3.3,0.2-6.6,1.2-9.8c-3.9,0.8-7.7,1.7-11.6,2.5
			c0.1,8.1,0.3,16.1,1,24.2c0.4,4,0.8,7.9,1.5,11.9c0.6,3.5,1.2,7.2,3.1,10.3c0.9,1.4,1.7,2.9,2.8,4.2c1.3,1.4,3.3,2,5.1,2.1
			c2.7,0.1,6-0.5,8.2-2.2c0.6-0.4,1.5-1.1,1.3-2c-0.2-0.8-1.5-1-2.1-1.1c-0.2,0-0.3,0-0.5,0c-0.5,0,0.3,0,0.3,0.1
			c0,0-0.5-0.2-0.5-0.2c0,0,0.4,0.2,0.1,0.1c-0.5-0.3-0.9-0.7-1.3-1.1c-0.7-0.9-1.4-2.2-2.1-3.3c-1.8-3-2.4-6.6-2.9-10
			c-1.3-7.6-1.9-15.3-2.2-23c-0.2-4.4-0.2-8.7-0.3-13.1c0-0.8-1.7-1-2.1-1.1c-1.2-0.1-2.3,0.1-3.5,0.3c-1.2,0.3-2.5,0.6-3.6,1.2
			c-0.8,0.4-2,1-2.3,2c-3.6,12,1.3,24.1,1.1,36.2c-0.1,3.3-0.6,6.5-1.8,9.6c-0.8,2.1,3.9,1.7,4.8,1.5c1.5-0.3,3.1-0.7,4.4-1.4
			C181.9,134.4,183,133.9,183.4,132.9L183.4,132.9z"/>
	</g>
</g>
<g>
	<path fill="#FFFFFF" d="M195.9,162.4c0.8,3.8-4.4,5.6-6.6,3c-2.8-3.5,0.1-8.4,2.6-10.7c3.6-3.4,8.6-4.7,13.5-3.9
		c7.3,1.2,13.1,7.5,12.3,16.4c-0.2,2.1-1.2,3.7-3.2,4.6c2.4-1,6.9,3.4,8.1,5.2c4.2,6.4,5.1,15.1,1.6,21.9c-3.1,5.9-9.1,9.1-15.6,9.5
		c-9.2,0.6-16.4-5.4-14.8-15.2c0.3-1.6,1-3.5,2.6-3.5c0.9,0,1.7,0.7,2.4,1.4c0.9,0.8,1.8,1.7,2.3,2.8c0.5,1.1,0.7,2.6,0,3.6
		c-0.5,0.8-1.4,1.2-1.7,2.2c-0.3,1,0.4,2,1.1,2.7c6.3,6.1,15.2,0.4,18.1-6c3.5-7.5-1-16.3-7.8-21.1c-2.1-1.5-3.8-2.1-6.4-1.8
		c4.8-0.6,8.7-6.7,7.4-11.7c-0.9-3.5-3.3-6.2-6.8-7.1c-2.6-0.6-5.5-0.4-7.9,0.7C193.8,157.2,195.2,159.2,195.9,162.4z"/>
	<path fill="#FFFFFF" d="M207.5,208.8c-4.6,0-8.7-1.7-11.3-4.7c-2.4-2.9-3.4-6.6-2.7-10.9c0.6-3.5,2.4-3.8,2.9-3.8h0
		c1,0,1.9,0.7,2.7,1.5c0.8,0.8,1.8,1.7,2.4,2.9c0.7,1.4,0.7,2.9,0,3.9c-0.2,0.3-0.5,0.6-0.8,0.9c-0.4,0.4-0.7,0.7-0.9,1.2
		c-0.3,1,0.6,2,1,2.4c1.7,1.7,3.7,2.5,5.9,2.5c3.8,0,9.1-2.9,11.6-8.3c2.6-5.7,0.9-14.7-7.7-20.6c-1.6-1.1-3-1.8-4.9-1.8
		c-0.4,0-0.8,0-1.3,0.1c0,0,0,0,0,0l0,0l-0.1-0.7c2.1-0.3,4.2-1.7,5.6-3.8c1.6-2.3,2.1-5.1,1.5-7.5c-0.9-3.5-3.3-6-6.6-6.8
		c-0.9-0.2-1.9-0.3-2.9-0.3c-1.7,0-3.4,0.4-4.8,1c-2.7,1.3-2.3,2.7-1.6,5c0.1,0.5,0.3,1.1,0.4,1.7c0.2,1.2,0,2.2-0.7,3.1
		c-0.8,1-2.1,1.6-3.5,1.6c-1.2,0-2.3-0.5-3.1-1.4c-3-3.6,0-8.7,2.6-11.2c2.9-2.7,6.7-4.2,10.8-4.2c1,0,2,0.1,2.9,0.2
		c3.8,0.6,7.1,2.6,9.4,5.5c2.5,3.1,3.6,7,3.2,11.3c-0.2,1.8-0.9,3.2-2.1,4.1c2.7,0.6,6,4,6.9,5.4c4.4,6.7,5.1,15.6,1.6,22.3
		c-2.9,5.6-8.9,9.2-15.9,9.7C208.3,208.7,207.9,208.8,207.5,208.8z M196.5,190c-1.3,0-2,1.7-2.2,3.2c-0.7,4.1,0.2,7.7,2.5,10.3
		c2.4,2.8,6.3,4.5,10.7,4.5c0.4,0,0.8,0,1.2,0c6.7-0.4,12.4-3.9,15.3-9.3c3.3-6.4,2.7-15.1-1.6-21.5c-1-1.5-4.7-5.2-7-5.2
		c-0.2,0-0.4,0-0.6,0.1l0,0l-0.3-0.7c0,0,0,0,0,0c1.8-0.7,2.8-2.2,3-4.2c0.4-4.1-0.7-7.9-3-10.8c-2.2-2.8-5.4-4.6-9-5.2
		c-0.9-0.2-1.9-0.2-2.8-0.2c-3.9,0-7.6,1.4-10.4,4c-2.5,2.3-5.2,7-2.6,10.3c0.6,0.7,1.5,1.1,2.5,1.1c1.1,0,2.3-0.5,2.9-1.3
		c0.6-0.7,0.7-1.6,0.5-2.5c-0.1-0.6-0.3-1.1-0.4-1.6c-0.7-2.4-1.2-4.3,2-5.8c1.5-0.7,3.3-1.1,5.1-1.1c1,0,2.1,0.1,3,0.4
		c3.5,0.8,6.1,3.6,7.1,7.3c0.7,2.6,0.1,5.6-1.6,8c-1,1.5-2.3,2.7-3.7,3.4c1.6,0.2,2.8,0.9,4.2,1.9c3.5,2.5,6.3,5.9,7.9,9.7
		c1.7,4.1,1.7,8.2,0,11.9c-2,4.3-6.9,8.8-12.3,8.8c-2.4,0-4.6-0.9-6.4-2.7c-1-1-1.5-2.1-1.2-3.1c0.2-0.7,0.6-1.1,1.1-1.5
		c0.3-0.2,0.5-0.5,0.7-0.7c0.5-0.8,0.5-2.1,0-3.2c-0.5-1.1-1.4-2-2.2-2.7C198,190.6,197.3,190,196.5,190z"/>
</g>
<g>
	<g>
		<path fill="#FFFFFF" d="M212,167.3c-1.5,2.6-4.1,4.3-6.8,5.3c-0.3,0.1-2.5,1.2-1.1,1.5c2.4,0.5,4.9,0.9,7.1,1.9
			c2.3,1,4.1,2.6,5.5,4.7c0.9,1.2,5.3-0.7,4.9-1.3c-1.5-2.1-3.4-3.9-5.8-5c-2.4-1.1-5.1-1.6-7.7-2.1c-0.4,0.5-0.8,1-1.1,1.5
			c3.9-1.4,7.9-3.6,9.9-7.3c0.4-0.8-1.7-0.5-2-0.5C214,166.1,212.5,166.4,212,167.3L212,167.3z"/>
	</g>
</g>
<g>
	<g>
		<path fill="#FFFFFF" d="M199.1,161.7c-0.3,6.3,0.6,12.5,1.9,18.7c1.3,6.2,3,12.4,3.2,18.7c0,1.3,1.3,1.6,2.4,1.5
			c0.9-0.1,3-0.8,3-2c-0.1-6.4-1.7-12.6-3-18.8c-1.3-6.1-2.4-12.3-2.1-18.6C204.6,158.6,199.2,159.5,199.1,161.7L199.1,161.7z"/>
	</g>
</g>
<g>
	<path fill="#FFFFFF" d="M235.2,152.1c0,0-0.5,2.9-0.5,2.9c-0.2-5.4-9.2-1.5-11.4,0.7c-4.3,4.1-3.5,10.8-1.4,15.7
		c2.3,5.4,10.2,7.3,14.3,1.8c0.7-1,1.8-0.8,1.8-0.8C245.6,175.3,235.2,152.1,235.2,152.1z M230.1,171.4c-4.3-1.4-5.6-13.2-0.4-14.1
		c1.9-0.3,3,1,3.7,2.9C234.2,162.6,235.6,173.2,230.1,171.4z"/>
	<path fill="#FFFFFF" d="M229.7,176.5c-3.4,0-6.6-2.1-8-5.2c-2.1-4.9-2.8-11.6,1.5-15.8c1.4-1.4,5.5-3.4,8.4-3.4
		c1.7,0,2.8,0.7,3.1,2.1c0.1-0.6,0.3-1.6,0.4-2.2l0.1-0.3l0.1,0.3c0.3,0.7,7.3,16.5,5.1,20c-0.3,0.4-0.7,0.7-1.3,0.7c0,0,0,0,0,0
		c-0.4,0-0.8-0.1-1.3-0.3c-0.1,0-1.1-0.1-1.7,0.8C234.6,175.3,232.3,176.5,229.7,176.5z M231.6,152.3c-2.9,0-6.9,2-8.3,3.4
		c-4.2,4.1-3.5,10.7-1.4,15.5c1.3,3,4.4,5.1,7.8,5.1c2.5,0,4.7-1.2,6.3-3.3c0.6-0.8,1.4-0.9,1.8-0.9c0.1,0,0.2,0,0.2,0l0,0
		c0.5,0.2,0.8,0.3,1.2,0.3c0,0,0,0,0,0c0.5,0,0.9-0.2,1.1-0.6c2-3.1-4-17.1-5-19.4c-0.1,0.8-0.5,2.5-0.5,2.6l-0.2,0.9l0-0.9
		C234.5,153.2,233.5,152.3,231.6,152.3z M231.2,171.7c-0.4,0-0.8-0.1-1.2-0.2c-2.6-0.9-4.1-5.4-3.8-9c0.2-3,1.5-5,3.4-5.3
		c1.8-0.3,3.1,0.7,3.8,2.9c0.6,2,1.5,8.2-0.2,10.6C232.7,171.4,232,171.7,231.2,171.7z M230.3,157.3c-0.2,0-0.4,0-0.6,0.1
		c-1.9,0.3-3.1,2.2-3.3,5.1c-0.2,3.6,1.2,8,3.7,8.8c1.3,0.4,2.2,0.2,2.9-0.7c0.9-1.3,1.1-3.6,1-5.4c-0.1-2-0.4-4-0.8-5
		C232.6,158.3,231.6,157.3,230.3,157.3z"/>
</g>
<g>
	<g>
		<path fill="#FFFFFF" d="M239.9,170.2c2.4-6.8-2-13.8-0.2-20.6c-1.9,0.4-3.8,0.9-5.8,1.3c0.2,5.2,0.5,10.4,1.4,15.5
			c0.4,2.2,0.8,4.3,2.2,6.1c0.9,1.1,1.9,2,3.2,2.5c1.7,0.7,3.6,0.6,5.4,0.1c1.6-0.4,3.5-1.1,4.3-2.7c0.8-1.5,0.5-3.3,0.3-5
			c-0.2-2.5-0.3-5-0.5-7.5c-0.4-4.9-1.1-9.7-1.5-14.6c-1.9,0.5-3.9,1-5.8,1.6c0.4,4.4,5.9,4.1,9.1,4.6c0.8,0.1,1.4,0.2,2,0.7
			c0.7,0.5,0.8,1.2,0.8,2c0.3,3,0,6,0.4,9c0.4,2.7,1.3,6,3.5,7.8c2,1.6,5,0.8,7.1-0.1c3.6-1.6,5-5.8,6.2-9.3
			c1.2-3.6,2.1-7.4,2.7-11.2c0.1-0.7-2.8-0.1-3.1,0c-0.8,0.2-2.5,0.6-2.7,1.6c-0.4,2.9-1.1,5.8-1.9,8.6c-0.5,1.9-1.1,3.7-1.9,5.5
			c-0.6,1.4-1.4,3.1-2.3,4c-0.1,0.1-0.2,0.2-0.3,0.3c-0.2,0.2-0.3,0.1,0,0c-0.4,0.1,0.2-0.1,0.2-0.1c-0.2,0.1-0.5,0.2,0.4-0.1
			c0.8-0.3,1.6-0.4,2.4-0.4c-0.3,0-0.3,0-0.5-0.2c-0.5-0.3-0.9-0.6-1.2-1c-1.7-2-2.4-5-2.6-7.5c-0.2-2.8,0-5.6-0.3-8.3
			c-0.2-1.8-1.1-2.6-2.7-3.1c-3.1-0.9-8.8,0.1-9.2-4.3c-0.1-0.9-5.9,0.1-5.8,1.6c0.3,3.8,0.8,7.6,1.2,11.4c0.4,4.1,0.7,8.2,1,12.3
			c0.1,1.2,0,2.4-0.7,3.4c-0.4,0.6-0.4-0.2,1.9-0.6c0.2,0,0.3,0,0.5-0.1c0.1,0,0.4,0.1,0.2,0c-0.4-0.2-0.9-0.2-1.3-0.4
			c-3.2-1.6-4-4.9-4.6-8.2c-0.9-5.1-1.2-10.2-1.4-15.3c0-1-5.5,0.2-5.8,1.3c-1.8,6.9,2.6,13.9,0.2,20.6c-0.3,0.9,1.9,0.5,2.3,0.4
			c0.8-0.1,1.5-0.4,2.2-0.7C239,170.9,239.7,170.6,239.9,170.2L239.9,170.2z"/>
	</g>
</g>
</svg>
