<?xml version="1.0" encoding="utf-8"?>
<!-- Generator: Adobe Illustrator 18.1.0, SVG Export Plug-In . SVG Version: 6.00 Build 0)  -->
<!DOCTYPE svg PUBLIC "-//W3C//DTD SVG 1.1//EN" "http://www.w3.org/Graphics/SVG/1.1/DTD/svg11.dtd">
<svg version="1.1" id="Layer_1" xmlns="http://www.w3.org/2000/svg" xmlns:xlink="http://www.w3.org/1999/xlink" x="0px" y="0px"
	 viewBox="0 0 100 100" enable-background="new 0 0 100 100" xml:space="preserve">
<g>
	<defs>
		<rect id="SVGID_1_" x="1.6" y="1.7" width="98.3" height="98.3"/>
	</defs>
	<clipPath id="SVGID_2_">
		<use xlink:href="#SVGID_1_"  overflow="visible"/>
	</clipPath>
	<path clip-path="url(#SVGID_2_)" fill="#A0D9D9" d="M90.4,81c0,5.2-4.2,9.4-9.4,9.4H20.7c-5.2,0-9.4-4.2-9.4-9.4V40.7h14.7
		c-1.3,3.1-2,6.5-2,10.1c0,14.8,12.1,26.9,26.9,26.9s26.9-12.1,26.9-26.9c0-3.6-0.7-7-2-10.1h14.7V81z M36.8,40.7
		c3.1-4.4,8.3-7.2,14-7.2c5.8,0,10.9,2.9,14,7.2c2.1,2.8,3.3,6.3,3.3,10.1c0,9.5-7.8,17.3-17.3,17.3c-9.5,0-17.3-7.8-17.3-17.3
		C33.5,47.1,34.7,43.6,36.8,40.7 M86.4,13l2.2,0v2.2v14.5l-16.6,0L71.9,13L86.4,13z M81,1.6H20.7c-10.5,0-19,8.5-19,19v20.1V81
		c0,10.5,8.5,19,19,19H81c10.5,0,19-8.5,19-19V40.7V20.7C100,10.2,91.5,1.6,81,1.6"/>
</g>
</svg>
