<?xml version="1.0" encoding="utf-8"?>
<!-- Generator: Adobe Illustrator 18.1.0, SVG Export Plug-In . SVG Version: 6.00 Build 0)  -->
<!DOCTYPE svg PUBLIC "-//W3C//DTD SVG 1.1//EN" "http://www.w3.org/Graphics/SVG/1.1/DTD/svg11.dtd">
<svg version="1.1" id="Layer_1" xmlns="http://www.w3.org/2000/svg" xmlns:xlink="http://www.w3.org/1999/xlink" x="0px" y="0px"
	 viewBox="0 0 100 100" enable-background="new 0 0 100 100" xml:space="preserve">
<rect x="3.4" y="35.5" fill="#A0D9D9" width="18.9" height="60.6"/>
<g>
	<defs>
		<rect id="SVGID_1_" x="1" y="6.9" width="97.1" height="89.2"/>
	</defs>
	<clipPath id="SVGID_2_">
		<use xlink:href="#SVGID_1_"  overflow="visible"/>
	</clipPath>
	<path clip-path="url(#SVGID_2_)" fill="#A0D9D9" d="M74.1,34.9c-10.8,0-17.6,5.9-18.9,10.1v-9.5H33.9c0.3,5.1,0,60.6,0,60.6h21.3
		V63.3c0-1.8-0.1-3.7,0.5-5c1.5-3.6,4.6-7.4,10.2-7.4c7.4,0,10.7,5.6,10.7,13.8v31.3h21.5V62.4C98.1,43.6,87.5,34.9,74.1,34.9"/>
	<path clip-path="url(#SVGID_2_)" fill="#A0D9D9" d="M12.6,6.9C5.6,6.9,1,11.5,1,17.4c0,5.9,4.4,10.5,11.3,10.5h0.1
		c7.1,0,11.5-4.6,11.5-10.5C23.8,11.4,19.5,6.9,12.6,6.9"/>
</g>
</svg>
