<?xml version="1.0" encoding="utf-8"?>
<!-- Generator: Adobe Illustrator 18.1.0, SVG Export Plug-In . SVG Version: 6.00 Build 0)  -->
<!DOCTYPE svg PUBLIC "-//W3C//DTD SVG 1.1//EN" "http://www.w3.org/Graphics/SVG/1.1/DTD/svg11.dtd">
<svg version="1.1" id="Layer_1" xmlns="http://www.w3.org/2000/svg" xmlns:xlink="http://www.w3.org/1999/xlink" x="0px" y="0px"
	 viewBox="0 0 343 349" enable-background="new 0 0 343 349" xml:space="preserve">
<g>
	<g>
		<rect x="15.2" y="17.1" fill="#A0D9D9" width="311.6" height="311.6"/>
	</g>
	<g>
		<defs>
			<rect id="SVGID_1_" x="1.6" y="4.6" width="340" height="339.6"/>
		</defs>
		<clipPath id="SVGID_2_">
			<use xlink:href="#SVGID_1_"  overflow="visible"/>
		</clipPath>
		<g clip-path="url(#SVGID_2_)">
			<path fill="#A0D9D9" d="M339.5,344.3H305c-0.6,0-1.1-0.5-1.1-1.1c0-0.6,0.5-1.1,1.1-1.1h34.1v-23.4c0-0.6,0.5-1.1,1.1-1.1
				c0.6,0,1.1,0.5,1.1,1.1v23.7c0,0.5-0.3,0.9-0.8,1.1C340.4,343.9,340,344.3,339.5,344.3z M38.5,344.1H3.8c-0.4,0-0.8-0.2-0.9-0.5
				c-0.6,0.1-1.3-0.4-1.3-1.1v-23.6c0-0.6,0.5-1.1,1.1-1.1s1.1,0.5,1.1,1.1v23h34.7c0.6,0,1.1,0.5,1.1,1.1
				C39.6,343.6,39.1,344.1,38.5,344.1z M3,31.3c-0.6,0-1.1-0.5-1.1-1.1V6.5c0-0.5,0.3-0.9,0.8-1.1C2.8,5,3.2,4.7,3.8,4.7h34.5
				c0.6,0,1.1,0.5,1.1,1.1s-0.5,1.1-1.1,1.1H4.1v23.4C4.1,30.9,3.6,31.3,3,31.3z M340.5,31c-0.6,0-1.1-0.5-1.1-1.1v-23h-34.7
				c-0.6,0-1.1-0.5-1.1-1.1s0.5-1.1,1.1-1.1h34.7c0.4,0,0.7,0.2,0.9,0.5c0.6-0.1,1.3,0.4,1.3,1.1v23.6C341.6,30.5,341.1,31,340.5,31
				z"/>
		</g>
	</g>
	<g>
		<defs>
			<rect id="SVGID_3_" x="71" y="93.9" width="198.3" height="158.7"/>
		</defs>
		<clipPath id="SVGID_4_">
			<use xlink:href="#SVGID_3_"  overflow="visible"/>
		</clipPath>
		<path clip-path="url(#SVGID_4_)" fill="#FFFFFF" d="M180.1,146c-20.5,0-37.2,16.7-37.2,37.2s16.7,37.2,37.2,37.2
			s37.2-16.7,37.2-37.2S200.6,146,180.1,146"/>
		<path clip-path="url(#SVGID_4_)" fill="#FFFFFF" d="M180.1,235.3c-28.7,0-52.1-23.4-52.1-52.1s23.4-52.1,52.1-52.1
			s52.1,23.4,52.1,52.1S208.8,235.3,180.1,235.3 M256.9,118.7h-24.8c0,0-7.2,1.7-12.4-11.6c-2.7-6.7-5.6-13.2-12.4-13.2h-49.6
			c-6.8,0-9.8,6.5-12.4,13.2c-5,13.2-12.4,11.6-12.4,11.6h-12.4c0-7.3-5.6-9.9-12.4-9.9H95.8c-6.8,0-12.4,2.6-12.4,9.9
			c-6.8,0-12.4,7.6-12.4,14.9v105.8c0,7.3,5.6,13.2,12.4,13.2h173.5c6.8,0,12.4-5.9,12.4-13.2V133.6
			C269.3,126.3,263.8,118.7,256.9,118.7"/>
	</g>
</g>
</svg>
