<?xml version="1.0" encoding="utf-8"?>
<!-- Generator: Adobe Illustrator 18.1.0, SVG Export Plug-In . SVG Version: 6.00 Build 0)  -->
<!DOCTYPE svg PUBLIC "-//W3C//DTD SVG 1.1//EN" "http://www.w3.org/Graphics/SVG/1.1/DTD/svg11.dtd">
<svg version="1.1" id="Layer_1" xmlns="http://www.w3.org/2000/svg" xmlns:xlink="http://www.w3.org/1999/xlink" x="0px" y="0px"
	 viewBox="0 0 20 20" enable-background="new 0 0 20 20" xml:space="preserve">
<g>
	<rect x="0.8" y="0.8" fill="#A0D9D9" width="18.4" height="18.4"/>
</g>
<g>
	<defs>
		<rect id="SVGID_1_" x="0" y="0" width="20" height="20"/>
	</defs>
	<clipPath id="SVGID_2_">
		<use xlink:href="#SVGID_1_"  overflow="visible"/>
	</clipPath>
	<g clip-path="url(#SVGID_2_)">
		<path fill="#A0D9D9" d="M19.9,20h-2c0,0,0,0,0,0c0,0,0,0,0,0L19.9,20C19.9,19.9,19.9,19.9,19.9,20C19.9,19.9,19.9,19.9,19.9,20
			l0-1.5c0,0,0,0,0,0c0,0,0,0,0,0L19.9,20C20,19.9,20,19.9,19.9,20C19.9,19.9,19.9,19.9,19.9,20C19.9,20,19.9,20,19.9,20z M2.2,20
			h-2c0,0,0,0,0,0c0,0-0.1,0-0.1,0v-1.4c0,0,0,0,0,0s0,0,0,0v1.4c0,0,0,0,0,0L2.2,20C2.2,19.9,2.2,19.9,2.2,20
			C2.2,19.9,2.2,20,2.2,20z M0.1,1.5C0,1.5,0,1.5,0.1,1.5l0-1.4c0,0,0,0,0,0c0,0,0,0,0,0c0,0,0,0,0,0h2c0,0,0,0,0,0s0,0,0,0h-2
			c0,0,0,0,0,0c0,0,0,0,0,0L0.1,1.5C0.1,1.5,0.1,1.5,0.1,1.5z M20,1.5C19.9,1.5,19.9,1.5,20,1.5l0-1.4c0,0,0,0,0,0h-2c0,0,0,0,0,0
			s0,0,0,0h2c0,0,0,0,0,0c0,0,0.1,0,0.1,0L20,1.5C20,1.5,20,1.5,20,1.5z"/>
	</g>
</g>
<g>
	<g>
		<polygon fill="#FFFFFF" points="4,5.5 4,14.6 15.4,14.6 15.4,7.5 13.5,5.5 		"/>
	</g>
	<g>
		<defs>
			<rect id="SVGID_3_" x="4" y="5.4" width="12" height="9.3"/>
		</defs>
		<clipPath id="SVGID_4_">
			<use xlink:href="#SVGID_3_"  overflow="visible"/>
		</clipPath>
		<rect x="9.6" y="5.5" clip-path="url(#SVGID_4_)" fill="#A0D9D9" width="0.3" height="9.2"/>
		<path clip-path="url(#SVGID_4_)" fill="#A0D9D9" d="M16,7.8h-2.7V5.4H16V7.8z M13.7,7.4h2V5.7h-2V7.4z"/>
	</g>
</g>
</svg>
