<?xml version="1.0" encoding="utf-8"?>
<!-- Generator: Adobe Illustrator 18.1.0, SVG Export Plug-In . SVG Version: 6.00 Build 0)  -->
<!DOCTYPE svg PUBLIC "-//W3C//DTD SVG 1.1//EN" "http://www.w3.org/Graphics/SVG/1.1/DTD/svg11.dtd">
<svg version="1.1" id="Layer_1" xmlns="http://www.w3.org/2000/svg" xmlns:xlink="http://www.w3.org/1999/xlink" x="0px" y="0px"
	 viewBox="0 0 150 149.8" enable-background="new 0 0 150 149.8" xml:space="preserve">
<g>
	<g>
		<rect x="6" y="5.5" fill="#A0D9D9" width="137.5" height="137.5"/>
	</g>
	<g>
		<path fill="#FFFFFF" d="M25.4,108.6l24-59.5h7.7L81,108.6H71l-6.4-16.2h-23l-6.2,16.2H25.4z M53.2,59.6l-9.9,25.9h19.4L53.2,59.6z
			"/>
		<path fill="#FFFFFF" d="M96.3,109.4c-2.1,0-4.1-0.3-5.9-1c-1.8-0.7-3.4-1.7-4.7-2.9c-1.3-1.2-2.3-2.7-3.1-4.4
			c-0.8-1.7-1.1-3.5-1.1-5.4c0-2.1,0.4-3.9,1.3-5.6c0.9-1.7,2.2-3.1,3.8-4.4c1.6-1.2,3.6-2.2,5.9-2.8c2.3-0.7,4.8-1,7.5-1
			c2.1,0,4.1,0.2,6.1,0.5c2,0.4,3.8,0.9,5.4,1.5v-3c0-3.2-0.9-5.8-2.8-7.6c-1.8-1.8-4.5-2.7-8-2.7c-2.3,0-4.7,0.4-6.9,1.3
			c-2.3,0.9-4.6,2.1-7,3.7l-2.8-5.9c5.6-3.8,11.5-5.7,17.6-5.7c6,0,10.7,1.5,14.1,4.6c3.4,3.1,5,7.5,5,13.2v15.8
			c0,1.1,0.2,1.8,0.6,2.3c0.4,0.4,1.1,0.7,2,0.8v7.9c-0.9,0.2-1.7,0.3-2.5,0.3c-0.8,0.1-1.4,0.1-2.1,0.1c-1.8-0.1-3.1-0.6-4.1-1.4
			c-0.9-0.8-1.5-2-1.7-3.4l-0.3-2.8c-2,2.6-4.4,4.5-7.3,5.9C102.7,108.7,99.6,109.4,96.3,109.4z M98.8,102.6c2.2,0,4.3-0.4,6.3-1.2
			c2-0.8,3.5-1.9,4.7-3.4c1.2-1,1.8-2.1,1.8-3.2v-5.8c-1.6-0.6-3.2-1.1-5-1.4c-1.8-0.3-3.5-0.5-5.2-0.5c-3.3,0-6,0.7-8.1,2.1
			s-3.1,3.3-3.1,5.7c0,2.2,0.8,4,2.4,5.5C94.2,101.9,96.3,102.6,98.8,102.6z"/>
	</g>
	<g>
		<defs>
			<rect id="SVGID_1_" x="0" y="0" width="150" height="149.8"/>
		</defs>
		<clipPath id="SVGID_2_">
			<use xlink:href="#SVGID_1_"  overflow="visible"/>
		</clipPath>
		<g clip-path="url(#SVGID_2_)">
			<path fill="#A0D9D9" d="M149.1,149.8h-15.2c-0.3,0-0.5-0.2-0.5-0.5c0-0.3,0.2-0.5,0.5-0.5h15.1v-10.3c0-0.3,0.2-0.5,0.5-0.5
				s0.5,0.2,0.5,0.5V149c0,0.2-0.1,0.4-0.4,0.5C149.5,149.7,149.3,149.8,149.1,149.8z M16.3,149.8H1c-0.2,0-0.3-0.1-0.4-0.2
				C0.3,149.6,0,149.3,0,149v-10.4c0-0.3,0.2-0.5,0.5-0.5s0.5,0.2,0.5,0.5v10.2h15.3c0.3,0,0.5,0.2,0.5,0.5
				C16.8,149.5,16.5,149.8,16.3,149.8z M0.6,11.8c-0.3,0-0.5-0.2-0.5-0.5V0.8c0-0.2,0.1-0.4,0.4-0.5C0.5,0.2,0.7,0,0.9,0h15.2
				c0.3,0,0.5,0.2,0.5,0.5S16.4,1,16.2,1H1.1v10.3C1.1,11.6,0.9,11.8,0.6,11.8z M149.5,11.6c-0.3,0-0.5-0.2-0.5-0.5V1h-15.3
				c-0.3,0-0.5-0.2-0.5-0.5s0.2-0.5,0.5-0.5H149c0.2,0,0.3,0.1,0.4,0.2c0.3,0,0.6,0.2,0.6,0.5v10.4C150,11.4,149.8,11.6,149.5,11.6z
				"/>
		</g>
	</g>
</g>
</svg>
