<?xml version="1.0" encoding="utf-8"?>
<!-- Generator: Adobe Illustrator 18.1.0, SVG Export Plug-In . SVG Version: 6.00 Build 0)  -->
<!DOCTYPE svg PUBLIC "-//W3C//DTD SVG 1.1//EN" "http://www.w3.org/Graphics/SVG/1.1/DTD/svg11.dtd">
<svg version="1.1" id="Layer_1" xmlns="http://www.w3.org/2000/svg" xmlns:xlink="http://www.w3.org/1999/xlink" x="0px" y="0px"
	 viewBox="0 0 343 349" enable-background="new 0 0 343 349" xml:space="preserve">
<g>
	<rect x="13.8" y="15.9" fill="#A0D9D9" width="314.1" height="314.1"/>
</g>
<g>
	<defs>
		<rect id="SVGID_1_" x="0.5" y="3.8" width="342" height="341.6"/>
	</defs>
	<clipPath id="SVGID_2_">
		<use xlink:href="#SVGID_1_"  overflow="visible"/>
	</clipPath>
	<g clip-path="url(#SVGID_2_)">
		<path fill="#A0D9D9" d="M340.7,344.9h-34.8c-0.1,0-0.2-0.1-0.2-0.2s0.1-0.2,0.2-0.2h34.8c0.1,0,0.2,0.1,0.2,0.2
			S340.9,344.9,340.7,344.9z M37.3,344.7h-35c-0.1,0-0.2-0.1-0.2-0.2s0.1-0.2,0.2-0.2h35c0.1,0,0.2,0.1,0.2,0.2
			S37.5,344.7,37.3,344.7z M1.2,344.2c-0.1,0-0.2-0.1-0.2-0.2v-23.8c0-0.1,0.1-0.2,0.2-0.2s0.2,0.1,0.2,0.2v23.8
			C1.5,344.1,1.4,344.2,1.2,344.2z M341.5,344.1c-0.1,0-0.2-0.1-0.2-0.2V320c0-0.1,0.1-0.2,0.2-0.2s0.2,0.1,0.2,0.2v23.9
			C341.7,344,341.6,344.1,341.5,344.1z M1.5,29.5c-0.1,0-0.2-0.1-0.2-0.2V5.3C1.3,5.1,1.4,5,1.5,5s0.2,0.1,0.2,0.2v23.9
			C1.8,29.3,1.6,29.5,1.5,29.5z M341.8,29.1c-0.1,0-0.2-0.1-0.2-0.2V5c0-0.1,0.1-0.2,0.2-0.2S342,4.9,342,5v23.8
			C342,28.9,341.9,29.1,341.8,29.1z M37,4.8H2.3C2.1,4.8,2,4.7,2,4.5s0.1-0.2,0.2-0.2H37c0.1,0,0.2,0.1,0.2,0.2S37.2,4.8,37,4.8z
			 M340.6,4.8h-35c-0.1,0-0.2-0.1-0.2-0.2s0.1-0.2,0.2-0.2h35c0.1,0,0.2,0.1,0.2,0.2S340.8,4.8,340.6,4.8z"/>
	</g>
</g>
<g>
	<polygon fill="#FFFFFF" points="70.4,92.6 70.4,253.4 271.3,253.4 271.3,128.5 236.5,92.6 	"/>
</g>
<g>
	<rect x="169.8" y="92.6" fill="#A0D9D9" width="2" height="160.8"/>
</g>
<g>
	<path fill="#A0D9D9" d="M279,131.4h-42.7V92.8H279V131.4z M238.3,129.4H277V94.8h-38.7V129.4z"/>
</g>
</svg>
