<?xml version="1.0" encoding="utf-8"?>
<!-- Generator: Adobe Illustrator 18.1.0, SVG Export Plug-In . SVG Version: 6.00 Build 0)  -->
<!DOCTYPE svg PUBLIC "-//W3C//DTD SVG 1.1//EN" "http://www.w3.org/Graphics/SVG/1.1/DTD/svg11.dtd">
<svg version="1.1" id="Layer_1" xmlns="http://www.w3.org/2000/svg" xmlns:xlink="http://www.w3.org/1999/xlink" x="0px" y="0px"
	 viewBox="0 0 20 20" enable-background="new 0 0 20 20" xml:space="preserve">
<g>
	<rect x="0.8" y="0.8" fill="#A0D9D9" width="18.4" height="18.4"/>
</g>
<g>
	<defs>
		<rect id="SVGID_1_" x="0" y="0" width="20" height="20"/>
	</defs>
	<clipPath id="SVGID_2_">
		<use xlink:href="#SVGID_1_"  overflow="visible"/>
	</clipPath>
	<g clip-path="url(#SVGID_2_)">
		<path fill="#A0D9D9" d="M19.9,20h-2c0,0,0,0,0,0c0,0,0,0,0,0L19.9,20C19.9,19.9,19.9,19.9,19.9,20C19.9,19.9,19.9,19.9,19.9,20
			l0-1.5c0,0,0,0,0,0c0,0,0,0,0,0L19.9,20C20,19.9,20,19.9,19.9,20C19.9,19.9,19.9,19.9,19.9,20C19.9,20,19.9,20,19.9,20z M2.2,20
			h-2c0,0,0,0,0,0c0,0-0.1,0-0.1,0v-1.4c0,0,0,0,0,0s0,0,0,0v1.4c0,0,0,0,0,0L2.2,20C2.2,19.9,2.2,19.9,2.2,20
			C2.2,19.9,2.2,20,2.2,20z M0.1,1.5C0,1.5,0,1.5,0.1,1.5l0-1.4c0,0,0,0,0,0c0,0,0,0,0,0c0,0,0,0,0,0h2c0,0,0,0,0,0s0,0,0,0h-2
			c0,0,0,0,0,0c0,0,0,0,0,0L0.1,1.5C0.1,1.5,0.1,1.5,0.1,1.5z M20,1.5C19.9,1.5,19.9,1.5,20,1.5l0-1.4c0,0,0,0,0,0h-2c0,0,0,0,0,0
			s0,0,0,0h2c0,0,0,0,0,0c0,0,0.1,0,0.1,0L20,1.5C20,1.5,20,1.5,20,1.5z"/>
	</g>
</g>
<g>
	<path fill="#FFFFFF" d="M3,14.6l3.3-8.2h1.1l3.3,8.2H9.2l-0.9-2.2H5.2l-0.8,2.2H3z M6.8,7.9l-1.4,3.5h2.7L6.8,7.9z"/>
	<path fill="#FFFFFF" d="M12.8,14.7c-0.3,0-0.6,0-0.8-0.1c-0.2-0.1-0.5-0.2-0.6-0.4c-0.2-0.2-0.3-0.4-0.4-0.6
		c-0.1-0.2-0.2-0.5-0.2-0.7c0-0.3,0.1-0.5,0.2-0.8c0.1-0.2,0.3-0.4,0.5-0.6c0.2-0.2,0.5-0.3,0.8-0.4c0.3-0.1,0.7-0.1,1-0.1
		c0.3,0,0.6,0,0.8,0.1c0.3,0,0.5,0.1,0.7,0.2v-0.4c0-0.4-0.1-0.8-0.4-1c-0.3-0.2-0.6-0.4-1.1-0.4c-0.3,0-0.6,0.1-0.9,0.2
		c-0.3,0.1-0.6,0.3-1,0.5l-0.4-0.8c0.8-0.5,1.6-0.8,2.4-0.8c0.8,0,1.5,0.2,1.9,0.6c0.5,0.4,0.7,1,0.7,1.8v2.2c0,0.1,0,0.2,0.1,0.3
		c0.1,0.1,0.1,0.1,0.3,0.1v1.1c-0.1,0-0.2,0-0.3,0c-0.1,0-0.2,0-0.3,0c-0.2,0-0.4-0.1-0.6-0.2c-0.1-0.1-0.2-0.3-0.2-0.5l0-0.4
		c-0.3,0.4-0.6,0.6-1,0.8C13.7,14.6,13.2,14.7,12.8,14.7z M13.1,13.8c0.3,0,0.6-0.1,0.9-0.2c0.3-0.1,0.5-0.3,0.6-0.5
		c0.2-0.1,0.2-0.3,0.2-0.4v-0.8c-0.2-0.1-0.4-0.1-0.7-0.2c-0.2,0-0.5-0.1-0.7-0.1c-0.5,0-0.8,0.1-1.1,0.3c-0.3,0.2-0.4,0.5-0.4,0.8
		c0,0.3,0.1,0.5,0.3,0.8C12.5,13.7,12.8,13.8,13.1,13.8z"/>
</g>
</svg>
