<?xml version="1.0" encoding="utf-8"?>
<!-- Generator: Adobe Illustrator 18.1.0, SVG Export Plug-In . SVG Version: 6.00 Build 0)  -->
<!DOCTYPE svg PUBLIC "-//W3C//DTD SVG 1.1//EN" "http://www.w3.org/Graphics/SVG/1.1/DTD/svg11.dtd">
<svg version="1.1" id="Layer_1" xmlns="http://www.w3.org/2000/svg" xmlns:xlink="http://www.w3.org/1999/xlink" x="0px" y="0px"
	 viewBox="0 0 250 250" enable-background="new 0 0 250 250" xml:space="preserve">
<rect x="10.7" y="9.8" fill="#A0D9D9" width="229.6" height="229.6"/>
<g>
	<defs>
		<rect id="SVGID_1_" x="0.5" y="-0.3" width="250" height="249.7"/>
	</defs>
	<clipPath id="SVGID_2_">
		<use xlink:href="#SVGID_1_"  overflow="visible"/>
	</clipPath>
	<path clip-path="url(#SVGID_2_)" fill="#FFFFFF" d="M132.8,104.4c-15.2,0-27.5,12.4-27.5,27.5c0,15.2,12.4,27.5,27.5,27.5
		s27.5-12.4,27.5-27.5C160.4,116.7,148,104.4,132.8,104.4"/>
	<path clip-path="url(#SVGID_2_)" fill="#FFFFFF" d="M132.8,170.5c-21.3,0-38.6-17.3-38.6-38.6c0-21.3,17.3-38.6,38.6-38.6
		c21.3,0,38.6,17.3,38.6,38.6C171.4,153.2,154.1,170.5,132.8,170.5 M189.8,84.2h-18.4c0,0-5.3,1.2-9.2-8.6c-2-5-4.1-9.8-9.2-9.8
		h-36.7c-5.1,0-7.3,4.8-9.2,9.8c-3.7,9.8-9.2,8.6-9.2,8.6h-9.2c0-5.4-4.1-7.3-9.2-7.3h-9.2c-5.1,0-9.2,1.9-9.2,7.3
		c-5.1,0-9.2,5.6-9.2,11v78.3c0,5.4,4.1,9.8,9.2,9.8h128.5c5.1,0,9.2-4.4,9.2-9.8V95.2C198.9,89.8,194.8,84.2,189.8,84.2"/>
	
		<path clip-path="url(#SVGID_2_)" fill="none" stroke="#A0D9D9" stroke-width="0.5" stroke-linecap="round" stroke-linejoin="round" stroke-miterlimit="10" d="
		M249.8,248.3v-17.5 M249.2,248.9h-25.4 M249.1,0.3h-25.6 M250,0.6V18 M1.2,0.8v17.5 M1.8,0.3h25.4 M1.8,248.8h25.6 M1,248.4V231"/>
</g>
</svg>
