<?xml version="1.0" encoding="utf-8"?>
<!-- Generator: Adobe Illustrator 18.1.0, SVG Export Plug-In . SVG Version: 6.00 Build 0)  -->
<!DOCTYPE svg PUBLIC "-//W3C//DTD SVG 1.1//EN" "http://www.w3.org/Graphics/SVG/1.1/DTD/svg11.dtd">
<svg version="1.1" id="Layer_1" xmlns="http://www.w3.org/2000/svg" xmlns:xlink="http://www.w3.org/1999/xlink" x="0px" y="0px"
	 viewBox="0 0 119.3 119.7" enable-background="new 0 0 119.3 119.7" xml:space="preserve">
<rect x="6.7" y="7.8" fill="#A0D9D9" width="105.6" height="105.6"/>
<g>
	<defs>
		<rect id="SVGID_1_" x="2" y="3.1" width="115" height="114.9"/>
	</defs>
	<clipPath id="SVGID_2_">
		<use xlink:href="#SVGID_1_"  overflow="visible"/>
	</clipPath>
	<path clip-path="url(#SVGID_2_)" fill="#FFFFFF" d="M62.9,51.3c-7,0-12.7,5.7-12.7,12.7s5.7,12.7,12.7,12.7s12.7-5.7,12.7-12.7
		S69.9,51.3,62.9,51.3"/>
	<path clip-path="url(#SVGID_2_)" fill="#FFFFFF" d="M62.9,81.7c-9.8,0-17.7-8-17.7-17.7s8-17.7,17.7-17.7s17.7,8,17.7,17.7
		S72.7,81.7,62.9,81.7 M89.1,42h-8.4c0,0-2.4,0.6-4.2-3.9c-0.9-2.3-1.9-4.5-4.2-4.5H55.3c-2.3,0-3.3,2.2-4.2,4.5
		c-1.7,4.5-4.2,3.9-4.2,3.9h-4.2c0-2.5-1.9-3.4-4.2-3.4h-4.2c-2.3,0-4.2,0.9-4.2,3.4c-2.3,0-4.2,2.6-4.2,5.1v36
		c0,2.5,1.9,4.5,4.2,4.5h59.1c2.3,0,4.2-2,4.2-4.5v-36C93.3,44.6,91.4,42,89.1,42"/>
	
		<path clip-path="url(#SVGID_2_)" fill="none" stroke="#A0D9D9" stroke-width="0.5" stroke-linecap="round" stroke-linejoin="round" stroke-miterlimit="10" d="
		M116.6,117.5v-8 M116.4,117.8h-11.7 M116.4,3.4h-11.8 M116.7,3.6v8 M2.3,3.7v8 M2.6,3.4h11.7 M2.6,117.7h11.8 M2.3,117.5v-8"/>
</g>
</svg>
