<?xml version="1.0" encoding="utf-8"?>
<!-- Generator: Adobe Illustrator 18.1.0, SVG Export Plug-In . SVG Version: 6.00 Build 0)  -->
<!DOCTYPE svg PUBLIC "-//W3C//DTD SVG 1.1//EN" "http://www.w3.org/Graphics/SVG/1.1/DTD/svg11.dtd">
<svg version="1.1" id="Layer_1" xmlns="http://www.w3.org/2000/svg" xmlns:xlink="http://www.w3.org/1999/xlink" x="0px" y="0px"
	 viewBox="0 0 115 114.9" enable-background="new 0 0 115 114.9" xml:space="preserve">
<rect x="4.7" y="4.6" fill="#A0D9D9" width="105.6" height="105.6"/>
<g>
	<defs>
		<rect id="SVGID_1_" x="0" y="0" width="115" height="114.9"/>
	</defs>
	<clipPath id="SVGID_2_">
		<use xlink:href="#SVGID_1_"  overflow="visible"/>
	</clipPath>
	
		<path clip-path="url(#SVGID_2_)" fill="none" stroke="#A0D9D9" stroke-width="0.5" stroke-linecap="round" stroke-linejoin="round" stroke-miterlimit="10" d="
		M114.6,114.4v-8 M114.4,114.6h-11.7 M114.4,0.3h-11.8 M114.7,0.4v8 M0.3,0.5v8 M0.6,0.3h11.7 M0.6,114.5h11.8 M0.3,114.4v-8"/>
</g>
<line fill="none" stroke="#A0D9D9" stroke-width="2" x1="55.5" y1="28.9" x2="55.5" y2="82.9"/>
<rect x="77.9" y="29.3" fill="none" stroke="#A0D9D9" stroke-width="2" width="13.7" height="12.3"/>
<g>
	<defs>
		<rect id="SVGID_3_" x="23.7" y="30.4" width="67.6" height="54.1"/>
	</defs>
	<clipPath id="SVGID_4_">
		<use xlink:href="#SVGID_3_"  overflow="visible"/>
	</clipPath>
	<path clip-path="url(#SVGID_4_)" fill="#FFFFFF" d="M60.9,48.1c-7,0-12.7,5.7-12.7,12.7s5.7,12.7,12.7,12.7s12.7-5.7,12.7-12.7
		S67.9,48.1,60.9,48.1"/>
	<path clip-path="url(#SVGID_4_)" fill="#FFFFFF" d="M60.9,78.5c-9.8,0-17.7-8-17.7-17.7s8-17.7,17.7-17.7s17.7,8,17.7,17.7
		S70.7,78.5,60.9,78.5 M87.1,38.8h-8.4c0,0-2.4,0.6-4.2-3.9c-0.9-2.3-1.9-4.5-4.2-4.5H53.3c-2.3,0-3.3,2.2-4.2,4.5
		c-1.7,4.5-4.2,3.9-4.2,3.9h-4.2c0-2.5-1.9-3.4-4.2-3.4h-4.2c-2.3,0-4.2,0.9-4.2,3.4c-2.3,0-4.2,2.6-4.2,5.1v36
		c0,2.5,1.9,4.5,4.2,4.5h59.1c2.3,0,4.2-2,4.2-4.5v-36C91.3,41.4,89.4,38.8,87.1,38.8"/>
</g>
</svg>
