<?xml version="1.0" encoding="utf-8"?>
<!-- Generator: Adobe Illustrator 18.1.0, SVG Export Plug-In . SVG Version: 6.00 Build 0)  -->
<!DOCTYPE svg PUBLIC "-//W3C//DTD SVG 1.1//EN" "http://www.w3.org/Graphics/SVG/1.1/DTD/svg11.dtd">
<svg version="1.1" id="Layer_1" xmlns="http://www.w3.org/2000/svg" xmlns:xlink="http://www.w3.org/1999/xlink" x="0px" y="0px"
	 viewBox="0 0 20 20" enable-background="new 0 0 20 20" xml:space="preserve">
<g>
	<g>
		<rect x="0.8" y="0.8" fill="#A0D9D9" width="18.4" height="18.4"/>
	</g>
	<g>
		<defs>
			<rect id="SVGID_1_" x="0" y="0" width="20" height="20"/>
		</defs>
		<clipPath id="SVGID_2_">
			<use xlink:href="#SVGID_1_"  overflow="visible"/>
		</clipPath>
		<g clip-path="url(#SVGID_2_)">
			<path fill="#A0D9D9" d="M19.9,20h-2c0,0,0,0,0,0c0,0,0,0,0,0L19.9,20C19.9,19.9,19.9,19.9,19.9,20C19.9,19.9,19.9,19.9,19.9,20
				l0-1.5c0,0,0,0,0,0c0,0,0,0,0,0L19.9,20C20,19.9,20,19.9,19.9,20C19.9,19.9,19.9,19.9,19.9,20C19.9,20,19.9,20,19.9,20z M2.2,20
				h-2c0,0,0,0,0,0c0,0-0.1,0-0.1,0v-1.4c0,0,0,0,0,0s0,0,0,0v1.4c0,0,0,0,0,0L2.2,20C2.2,19.9,2.2,19.9,2.2,20
				C2.2,19.9,2.2,20,2.2,20z M0.1,1.5C0,1.5,0,1.5,0.1,1.5l0-1.4c0,0,0,0,0,0c0,0,0,0,0,0c0,0,0,0,0,0h2c0,0,0,0,0,0s0,0,0,0h-2
				c0,0,0,0,0,0c0,0,0,0,0,0L0.1,1.5C0.1,1.5,0.1,1.5,0.1,1.5z M20,1.5C19.9,1.5,19.9,1.5,20,1.5l0-1.4c0,0,0,0,0,0h-2c0,0,0,0,0,0
				s0,0,0,0h2c0,0,0,0,0,0c0,0,0.1,0,0.1,0L20,1.5C20,1.5,20,1.5,20,1.5z"/>
		</g>
	</g>
	<g>
		<defs>
			<rect id="SVGID_3_" x="4.1" y="5.3" width="11.8" height="9.4"/>
		</defs>
		<clipPath id="SVGID_4_">
			<use xlink:href="#SVGID_3_"  overflow="visible"/>
		</clipPath>
		<g clip-path="url(#SVGID_4_)">
			<path fill="#FFFFFF" d="M10.6,8.4c-1.2,0-2.2,1-2.2,2.2s1,2.2,2.2,2.2s2.2-1,2.2-2.2S11.8,8.4,10.6,8.4"/>
		</g>
		<g clip-path="url(#SVGID_4_)">
			<path fill="#FFFFFF" d="M10.6,13.7c-1.7,0-3.1-1.4-3.1-3.1s1.4-3.1,3.1-3.1s3.1,1.4,3.1,3.1S12.3,13.7,10.6,13.7 M15.1,6.8h-1.5
				c0,0-0.4,0.1-0.7-0.7c-0.2-0.4-0.3-0.8-0.7-0.8H9.3c-0.4,0-0.6,0.4-0.7,0.8C8.2,6.9,7.8,6.8,7.8,6.8H7.1c0-0.4-0.3-0.6-0.7-0.6
				H5.6c-0.4,0-0.7,0.2-0.7,0.6c-0.4,0-0.7,0.4-0.7,0.9v6.3c0,0.4,0.3,0.8,0.7,0.8h10.3c0.4,0,0.7-0.4,0.7-0.8V7.6
				C15.9,7.2,15.5,6.8,15.1,6.8"/>
		</g>
	</g>
</g>
</svg>
