<?xml version="1.0" encoding="utf-8"?>
<!-- Generator: Adobe Illustrator 18.1.0, SVG Export Plug-In . SVG Version: 6.00 Build 0)  -->
<!DOCTYPE svg PUBLIC "-//W3C//DTD SVG 1.1//EN" "http://www.w3.org/Graphics/SVG/1.1/DTD/svg11.dtd">
<svg version="1.1" id="Layer_1" xmlns="http://www.w3.org/2000/svg" xmlns:xlink="http://www.w3.org/1999/xlink" x="0px" y="0px"
	 viewBox="0 0 343 349" enable-background="new 0 0 343 349" xml:space="preserve">
<g>
	<g>
		<rect x="15.2" y="17.1" fill="#A0D9D9" width="311.6" height="311.6"/>
	</g>
	<g>
		<path fill="#FFFFFF" d="M59.2,250.8l54.3-134.9H131l54.1,134.9h-22.6l-14.4-36.7H96L82,250.8H59.2z M122.3,139.6l-22.4,58.7h44.1
			L122.3,139.6z"/>
		<path fill="#FFFFFF" d="M219.9,252.7c-4.8,0-9.3-0.8-13.4-2.4c-4.1-1.6-7.7-3.8-10.6-6.6c-3-2.8-5.3-6.1-7-9.9
			c-1.7-3.8-2.6-7.9-2.6-12.3c0-4.7,1-8.9,3-12.7c2-3.8,4.9-7.1,8.6-9.9c3.7-2.8,8.2-4.9,13.3-6.5c5.1-1.5,10.8-2.3,17-2.3
			c4.7,0,9.3,0.4,13.9,1.2c4.6,0.8,8.7,1.9,12.3,3.3v-6.8c0-7.3-2.1-13.1-6.3-17.2c-4.2-4.1-10.2-6.2-18-6.2c-5.3,0-10.5,1-15.7,2.9
			c-5.1,2-10.4,4.8-15.9,8.5l-6.5-13.3c12.8-8.6,26.1-12.9,39.9-12.9c13.7,0,24.3,3.5,31.9,10.5c7.6,7,11.4,17,11.4,30v35.9
			c0,2.4,0.4,4.1,1.3,5.1c0.9,1,2.4,1.6,4.6,1.7v17.9c-2,0.4-3.9,0.6-5.6,0.8c-1.7,0.1-3.3,0.2-4.7,0.2c-4.1-0.3-7.1-1.3-9.2-3.2
			c-2.1-1.9-3.4-4.4-3.9-7.6l-0.6-6.3c-4.4,5.8-9.9,10.3-16.4,13.4C234.4,251.1,227.4,252.7,219.9,252.7z M225.6,237.3
			c5.1,0,9.8-0.9,14.3-2.8c4.5-1.8,8-4.4,10.5-7.7c2.7-2.3,4-4.7,4-7.2v-13.1c-3.5-1.4-7.3-2.5-11.3-3.2c-4-0.8-7.9-1.1-11.7-1.1
			c-7.5,0-13.6,1.6-18.3,4.8s-7.1,7.5-7.1,12.8c0,4.9,1.8,9.1,5.5,12.4C215.2,235.6,219.9,237.3,225.6,237.3z"/>
	</g>
	<g>
		<defs>
			<rect id="SVGID_1_" x="1.6" y="4.6" width="340" height="339.6"/>
		</defs>
		<clipPath id="SVGID_2_">
			<use xlink:href="#SVGID_1_"  overflow="visible"/>
		</clipPath>
		<g clip-path="url(#SVGID_2_)">
			<path fill="#A0D9D9" d="M339.5,344.3H305c-0.6,0-1.1-0.5-1.1-1.1c0-0.6,0.5-1.1,1.1-1.1h34.1v-23.4c0-0.6,0.5-1.1,1.1-1.1
				c0.6,0,1.1,0.5,1.1,1.1v23.7c0,0.5-0.3,0.9-0.8,1.1C340.4,343.9,340,344.3,339.5,344.3z M38.5,344.1H3.8c-0.4,0-0.8-0.2-0.9-0.5
				c-0.6,0.1-1.3-0.4-1.3-1.1v-23.6c0-0.6,0.5-1.1,1.1-1.1s1.1,0.5,1.1,1.1v23h34.7c0.6,0,1.1,0.5,1.1,1.1
				C39.6,343.6,39.1,344.1,38.5,344.1z M3,31.3c-0.6,0-1.1-0.5-1.1-1.1V6.5c0-0.5,0.3-0.9,0.8-1.1C2.8,5,3.2,4.7,3.8,4.7h34.5
				c0.6,0,1.1,0.5,1.1,1.1s-0.5,1.1-1.1,1.1H4.1v23.4C4.1,30.9,3.6,31.3,3,31.3z M340.5,31c-0.6,0-1.1-0.5-1.1-1.1v-23h-34.7
				c-0.6,0-1.1-0.5-1.1-1.1s0.5-1.1,1.1-1.1h34.7c0.4,0,0.7,0.2,0.9,0.5c0.6-0.1,1.3,0.4,1.3,1.1v23.6C341.6,30.5,341.1,31,340.5,31
				z"/>
		</g>
	</g>
</g>
</svg>
