<?xml version="1.0" encoding="utf-8"?>
<!-- Generator: Adobe Illustrator 18.1.0, SVG Export Plug-In . SVG Version: 6.00 Build 0)  -->
<!DOCTYPE svg PUBLIC "-//W3C//DTD SVG 1.1//EN" "http://www.w3.org/Graphics/SVG/1.1/DTD/svg11.dtd">
<svg version="1.1" id="Layer_1" xmlns="http://www.w3.org/2000/svg" xmlns:xlink="http://www.w3.org/1999/xlink" x="0px" y="0px"
	 viewBox="0 0 150 149.8" enable-background="new 0 0 150 149.8" xml:space="preserve">
<g>
	<rect x="6.3" y="6.2" fill="#A0D9D9" width="137.5" height="137.5"/>
</g>
<polygon fill="#FFFFFF" points="32.1,40.6 32.1,109.3 117.9,109.3 117.9,55.9 103.1,40.6 "/>
<g>
	<defs>
		<rect id="SVGID_1_" x="0" y="0" width="150" height="149.8"/>
	</defs>
	<clipPath id="SVGID_2_">
		<use xlink:href="#SVGID_1_"  overflow="visible"/>
	</clipPath>
	<g clip-path="url(#SVGID_2_)">
		<path fill="#A0D9D9" d="M149.1,149.8h-15.2c-0.3,0-0.5-0.2-0.5-0.5c0-0.3,0.2-0.5,0.5-0.5h15.1v-10.3c0-0.3,0.2-0.5,0.5-0.5
			s0.5,0.2,0.5,0.5V149c0,0.2-0.1,0.4-0.4,0.5C149.5,149.7,149.3,149.8,149.1,149.8z M16.3,149.8H1c-0.2,0-0.3-0.1-0.4-0.2
			C0.3,149.6,0,149.3,0,149v-10.4c0-0.3,0.2-0.5,0.5-0.5s0.5,0.2,0.5,0.5v10.2h15.3c0.3,0,0.5,0.2,0.5,0.5
			C16.8,149.5,16.5,149.8,16.3,149.8z M0.6,11.8c-0.3,0-0.5-0.2-0.5-0.5V0.8c0-0.2,0.1-0.4,0.4-0.5C0.5,0.2,0.7,0,0.9,0h15.2
			c0.3,0,0.5,0.2,0.5,0.5S16.4,1,16.2,1H1.1v10.3C1.1,11.6,0.9,11.8,0.6,11.8z M149.5,11.6c-0.3,0-0.5-0.2-0.5-0.5V1h-15.3
			c-0.3,0-0.5-0.2-0.5-0.5s0.2-0.5,0.5-0.5H149c0.2,0,0.3,0.1,0.4,0.2c0.3,0,0.6,0.2,0.6,0.5v10.4C150,11.4,149.8,11.6,149.5,11.6z"
			/>
	</g>
</g>
<g>
	<defs>
		<rect id="SVGID_3_" x="30" y="40.2" width="90" height="69.5"/>
	</defs>
	<clipPath id="SVGID_4_">
		<use xlink:href="#SVGID_3_"  overflow="visible"/>
	</clipPath>
	<line clip-path="url(#SVGID_4_)" fill="none" stroke="#A0D9D9" stroke-width="2" x1="72.9" y1="41" x2="72.9" y2="109.6"/>
	<rect x="101.3" y="41.5" clip-path="url(#SVGID_4_)" fill="none" stroke="#A0D9D9" stroke-width="2" width="17.4" height="15.7"/>
</g>
</svg>
