<?xml version="1.0" encoding="utf-8"?>
<!-- Generator: Adobe Illustrator 18.1.0, SVG Export Plug-In . SVG Version: 6.00 Build 0)  -->
<!DOCTYPE svg PUBLIC "-//W3C//DTD SVG 1.1//EN" "http://www.w3.org/Graphics/SVG/1.1/DTD/svg11.dtd">
<svg version="1.1" id="Layer_1" xmlns="http://www.w3.org/2000/svg" xmlns:xlink="http://www.w3.org/1999/xlink" x="0px" y="0px"
	 viewBox="0 0 50 50" enable-background="new 0 0 50 50" xml:space="preserve">
<g>
	<path fill="#A0D9D9" d="M21.7,36.1V24.8h-2.1v-2.5h2.1v-2.1c0-1.9,0.4-3.5,1.3-4.6c0.9-1.1,2.1-1.7,3.7-1.7c0.6,0,1.3,0.1,1.9,0.3
		s1.2,0.4,1.7,0.7l-0.7,2.5c-0.3-0.2-0.6-0.3-1-0.5c-0.4-0.1-0.8-0.2-1.2-0.2c-0.8,0-1.4,0.3-1.8,0.9C25.2,18.1,25,19,25,20.1v2.2h4
		v2.5h-4v11.3H21.7z"/>
</g>
</svg>
