<?xml version="1.0" encoding="utf-8"?>
<!-- Generator: Adobe Illustrator 18.1.0, SVG Export Plug-In . SVG Version: 6.00 Build 0)  -->
<!DOCTYPE svg PUBLIC "-//W3C//DTD SVG 1.1//EN" "http://www.w3.org/Graphics/SVG/1.1/DTD/svg11.dtd">
<svg version="1.1" id="Layer_1" xmlns="http://www.w3.org/2000/svg" xmlns:xlink="http://www.w3.org/1999/xlink" x="0px" y="0px"
	 viewBox="0 0 15.8 15.8" enable-background="new 0 0 15.8 15.8" xml:space="preserve">
<rect x="0.4" y="4.7" fill="#A0D9D9" width="3.1" height="9.9"/>
<g>
	<defs>
		<rect id="SVGID_1_" x="0" y="0" width="15.9" height="14.6"/>
	</defs>
	<clipPath id="SVGID_2_">
		<use xlink:href="#SVGID_1_"  overflow="visible"/>
	</clipPath>
	<path clip-path="url(#SVGID_2_)" fill="#A0D9D9" d="M12,4.6c-1.8,0-2.9,1-3.1,1.7V4.7H5.4c0,0.8,0,9.9,0,9.9h3.5V9.2
		c0-0.3,0-0.6,0.1-0.8c0.2-0.6,0.8-1.2,1.7-1.2c1.2,0,1.8,0.9,1.8,2.3v5.1h3.5V9.1C15.9,6,14.1,4.6,12,4.6"/>
	<path clip-path="url(#SVGID_2_)" fill="#A0D9D9" d="M1.9,0C0.7,0,0,0.7,0,1.7c0,1,0.7,1.7,1.8,1.7h0c1.2,0,1.9-0.8,1.9-1.7
		C3.7,0.7,3,0,1.9,0"/>
</g>
</svg>
