<?xml version="1.0" encoding="utf-8"?>
<!-- Generator: Adobe Illustrator 18.1.0, SVG Export Plug-In . SVG Version: 6.00 Build 0)  -->
<!DOCTYPE svg PUBLIC "-//W3C//DTD SVG 1.1//EN" "http://www.w3.org/Graphics/SVG/1.1/DTD/svg11.dtd">
<svg version="1.1" id="Layer_1" xmlns="http://www.w3.org/2000/svg" xmlns:xlink="http://www.w3.org/1999/xlink" x="0px" y="0px"
	 viewBox="0 0 50 50" enable-background="new 0 0 50 50" xml:space="preserve">
<g>
	<defs>
		<rect id="SVGID_1_" x="0.4" y="0.6" width="49" height="49"/>
	</defs>
	<clipPath id="SVGID_2_">
		<use xlink:href="#SVGID_1_"  overflow="visible"/>
	</clipPath>
	<path clip-path="url(#SVGID_2_)" fill="#A0D9D9" d="M44.6,40.1c0,2.6-2.1,4.7-4.7,4.7H9.9c-2.6,0-4.7-2.1-4.7-4.7V20.1h7.3
		c-0.6,1.6-1,3.3-1,5c0,7.4,6,13.4,13.4,13.4s13.4-6,13.4-13.4c0-1.8-0.4-3.5-1-5h7.3V40.1z M17.9,20.1c1.6-2.2,4.1-3.6,7-3.6
		c2.9,0,5.4,1.4,7,3.6c1,1.4,1.6,3.2,1.6,5c0,4.8-3.9,8.6-8.6,8.6c-4.8,0-8.6-3.9-8.6-8.6C16.3,23.2,16.9,21.5,17.9,20.1 M42.6,6.3
		l1.1,0v1.1v7.2l-8.3,0l0-8.3L42.6,6.3z M39.9,0.6H9.9c-5.2,0-9.5,4.2-9.5,9.5v10v20.1c0,5.2,4.2,9.5,9.5,9.5h30.1
		c5.2,0,9.5-4.2,9.5-9.5V20.1v-10C49.4,4.9,45.1,0.6,39.9,0.6"/>
</g>
</svg>
