<?xml version="1.0" encoding="utf-8"?>
<!-- Generator: Adobe Illustrator 18.1.0, SVG Export Plug-In . SVG Version: 6.00 Build 0)  -->
<!DOCTYPE svg PUBLIC "-//W3C//DTD SVG 1.1//EN" "http://www.w3.org/Graphics/SVG/1.1/DTD/svg11.dtd">
<svg version="1.1" id="Layer_1" xmlns="http://www.w3.org/2000/svg" xmlns:xlink="http://www.w3.org/1999/xlink" x="0px" y="0px"
	 viewBox="0 0 23 26.2" enable-background="new 0 0 23 26.2" xml:space="preserve">
<g>
	<defs>
		<rect id="SVGID_1_" x="0" y="0" width="23" height="26.2"/>
	</defs>
	<clipPath id="SVGID_2_">
		<use xlink:href="#SVGID_1_"  overflow="visible"/>
	</clipPath>
	<path clip-path="url(#SVGID_2_)" fill="#A0D9D9" d="M12.2,10V8.5c0-0.6,0.4-0.7,0.6-0.7h1.6V5.3l-2.2,0c-2.4,0-3,1.9-3,3.1V10H7.8
		v2.6h1.4v7.3h3v-7.3h2l0.3-2.6H12.2z"/>
	<path clip-path="url(#SVGID_2_)" fill="none" d="M22.7,25.9v-1.8 M22.7,25.9h-2.3 M22.7,0.3h-2.3 M22.7,0.3v1.8 M0.3,0.3v1.8
		 M0.3,0.3h2.3 M0.3,25.9h2.3 M0.2,25.9v-1.8"/>
</g>
</svg>
