<?xml version="1.0" encoding="utf-8"?>
<!-- Generator: Adobe Illustrator 18.1.0, SVG Export Plug-In . SVG Version: 6.00 Build 0)  -->
<!DOCTYPE svg PUBLIC "-//W3C//DTD SVG 1.1//EN" "http://www.w3.org/Graphics/SVG/1.1/DTD/svg11.dtd">
<svg version="1.1" id="Layer_1" xmlns="http://www.w3.org/2000/svg" xmlns:xlink="http://www.w3.org/1999/xlink" x="0px" y="0px"
	 viewBox="0 0 23 26.2" enable-background="new 0 0 23 26.2" xml:space="preserve">
<g>
	<defs>
		<rect id="SVGID_1_" x="0" y="0" width="23" height="26.2"/>
	</defs>
	<clipPath id="SVGID_2_">
		<use xlink:href="#SVGID_1_"  overflow="visible"/>
	</clipPath>
	
		<path clip-path="url(#SVGID_2_)" fill="none" stroke="#086B92" stroke-width="0.5" stroke-linecap="round" stroke-linejoin="round" stroke-miterlimit="10" d="
		M22.7,25.9v-1.8 M22.7,25.9h-2.3 M22.7,0.3h-2.3 M22.7,0.3v1.8 M0.3,0.3v1.8 M0.3,0.3h2.3 M0.3,25.9h2.3 M0.2,25.9v-1.8"/>
</g>
<g>
	<defs>
		<rect id="SVGID_3_" x="3.2" y="5.8" width="16.6" height="14.7"/>
	</defs>
	<clipPath id="SVGID_4_">
		<use xlink:href="#SVGID_3_"  overflow="visible"/>
	</clipPath>
</g>
<g>
	<rect x="4" y="10.5" fill="#086B92" width="3.1" height="9.9"/>
	<g>
		<g>
			<defs>
				<rect id="SVGID_5_" x="3.6" y="5.8" width="15.9" height="14.6"/>
			</defs>
			<clipPath id="SVGID_6_">
				<use xlink:href="#SVGID_5_"  overflow="visible"/>
			</clipPath>
			<path clip-path="url(#SVGID_6_)" fill="#086B92" d="M15.5,10.4c-1.8,0-2.9,1-3.1,1.7v-1.6H8.9c0,0.8,0,9.9,0,9.9h3.5V15
				c0-0.3,0-0.6,0.1-0.8c0.2-0.6,0.8-1.2,1.7-1.2c1.2,0,1.8,0.9,1.8,2.3v5.1h3.5v-5.5C19.4,11.8,17.7,10.4,15.5,10.4"/>
			<path clip-path="url(#SVGID_6_)" fill="#086B92" d="M5.4,5.8c-1.1,0-1.9,0.7-1.9,1.7c0,1,0.7,1.7,1.8,1.7h0
				c1.2,0,1.9-0.8,1.9-1.7C7.3,6.5,6.6,5.8,5.4,5.8"/>
		</g>
	</g>
</g>
</svg>
