<?xml version="1.0" encoding="utf-8"?>
<!-- Generator: Adobe Illustrator 18.1.0, SVG Export Plug-In . SVG Version: 6.00 Build 0)  -->
<!DOCTYPE svg PUBLIC "-//W3C//DTD SVG 1.1//EN" "http://www.w3.org/Graphics/SVG/1.1/DTD/svg11.dtd">
<svg version="1.1" id="Layer_1" xmlns="http://www.w3.org/2000/svg" xmlns:xlink="http://www.w3.org/1999/xlink" x="0px" y="0px"
	 viewBox="0 0 50 50" enable-background="new 0 0 50 50" xml:space="preserve">
<g>
	<path fill="#A0D9D9" d="M-73.6,20.6V17h3.3v3.6H-73.6z M-73.6,38.9V23.2h3.3v15.7H-73.6z"/>
	<path fill="#A0D9D9" d="M-53.5,38.9h-3.3v-8.8c0-1.5-0.2-2.6-0.7-3.2c-0.5-0.7-1.2-1-2.1-1c-0.5,0-1,0.1-1.5,0.3s-0.9,0.4-1.4,0.8
		c-0.4,0.3-0.8,0.7-1.1,1.2c-0.3,0.4-0.6,0.9-0.8,1.5v9.3h-3.3V23.2h3v3.1c0.6-1.1,1.5-1.9,2.6-2.5c1.1-0.6,2.4-0.9,3.8-0.9
		c0.9,0,1.7,0.2,2.3,0.5c0.6,0.3,1.1,0.8,1.4,1.4c0.3,0.6,0.6,1.3,0.7,2c0.1,0.8,0.2,1.6,0.2,2.4V38.9z"/>
</g>
<g>
	<path fill="#A0D9D9" d="M-85.4,37.8V26.4h-2.1v-2.5h2.1v-2.1c0-1.9,0.4-3.5,1.3-4.6c0.9-1.1,2.1-1.7,3.7-1.7c0.6,0,1.3,0.1,1.9,0.3
		c0.6,0.2,1.2,0.4,1.7,0.7l-0.7,2.5c-0.3-0.2-0.6-0.3-1-0.5c-0.4-0.1-0.8-0.2-1.2-0.2c-0.8,0-1.4,0.3-1.8,0.9
		c-0.4,0.6-0.6,1.4-0.6,2.5v2.2h4v2.5h-4v11.3H-85.4z"/>
</g>
<g>
	<defs>
		<rect id="SVGID_1_" x="-48.4" y="17" width="21.9" height="21.9"/>
	</defs>
	<clipPath id="SVGID_2_">
		<use xlink:href="#SVGID_1_"  overflow="visible"/>
	</clipPath>
	<path clip-path="url(#SVGID_2_)" fill="#A0D9D9" d="M-28.7,34.7c0,1.2-0.9,2.1-2.1,2.1h-13.4c-1.2,0-2.1-0.9-2.1-2.1v-9h3.3
		c-0.3,0.7-0.4,1.5-0.4,2.2c0,3.3,2.7,6,6,6s6-2.7,6-6c0-0.8-0.2-1.6-0.4-2.2h3.3V34.7z M-40.6,25.7c0.7-1,1.8-1.6,3.1-1.6
		c1.3,0,2.4,0.6,3.1,1.6c0.5,0.6,0.7,1.4,0.7,2.2c0,2.1-1.7,3.9-3.9,3.9c-2.1,0-3.9-1.7-3.9-3.9C-41.4,27.1-41.1,26.4-40.6,25.7
		 M-29.6,19.5l0.5,0V20v3.2l-3.7,0l0-3.7L-29.6,19.5z M-30.8,17h-13.4c-2.3,0-4.2,1.9-4.2,4.2v4.5v9c0,2.3,1.9,4.2,4.2,4.2h13.4
		c2.3,0,4.2-1.9,4.2-4.2v-9v-4.5C-26.5,18.9-28.4,17-30.8,17"/>
</g>
<g>
	<defs>
		<rect id="SVGID_3_" x="14" y="14.4" width="21.9" height="21.2"/>
	</defs>
	<clipPath id="SVGID_4_">
		<use xlink:href="#SVGID_3_"  overflow="visible"/>
	</clipPath>
	<path clip-path="url(#SVGID_4_)" fill="#076A93" d="M35.9,16.9c-0.8,0.4-1.7,0.7-2.6,0.8c0.9-0.7,1.6-1.7,2-3
		c-0.9,0.6-1.8,1-2.9,1.3c-0.8-1-2-1.7-3.3-1.7c-2.5,0-4.5,2.4-4.5,5.4c0,0.4,0,0.8,0.1,1.2c-3.7-0.2-7-2.4-9.3-5.6
		c-0.4,0.8-0.6,1.7-0.6,2.7c0,1.9,0.8,3.5,2,4.5c-0.7,0-1.4-0.3-2-0.7v0.1c0,2.6,1.5,4.8,3.6,5.3c-0.4,0.1-0.8,0.2-1.2,0.2
		c-0.3,0-0.6,0-0.8-0.1c0.6,2.1,2.2,3.7,4.2,3.7c-1.5,1.4-3.5,2.3-5.6,2.3c-0.4,0-0.7,0-1.1-0.1c2,1.5,4.3,2.4,6.9,2.4
		c8.3,0,12.8-8.2,12.8-15.3c0-0.2,0-0.5,0-0.7C34.6,18.9,35.3,18,35.9,16.9"/>
</g>
<g>
	<defs>
		<rect id="SVGID_5_" x="9.8" y="7.7" width="30.5" height="34.7"/>
	</defs>
	<clipPath id="SVGID_6_">
		<use xlink:href="#SVGID_5_"  overflow="visible"/>
	</clipPath>
	
		<path clip-path="url(#SVGID_6_)" fill="none" stroke="#086B92" stroke-width="0.5" stroke-linecap="round" stroke-linejoin="round" stroke-miterlimit="10" d="
		M39.9,41.9v-2.4 M39.8,42h-3 M39.8,8h-3.1 M39.9,8.1v2.4 M10.1,8.1v2.4 M10.2,8h3 M10.2,42h3.1 M10.1,41.9v-2.4"/>
</g>
<g>
	<defs>
		<rect id="SVGID_7_" x="-54.9" y="-22.4" width="15.8" height="15.8"/>
	</defs>
	<clipPath id="SVGID_8_">
		<use xlink:href="#SVGID_7_"  overflow="visible"/>
	</clipPath>
	<path clip-path="url(#SVGID_8_)" fill="#076A93" d="M-40.6-9.6c0,0.8-0.7,1.5-1.5,1.5h-9.7c-0.8,0-1.5-0.7-1.5-1.5v-6.5h2.4
		c-0.2,0.5-0.3,1-0.3,1.6c0,2.4,1.9,4.3,4.3,4.3c2.4,0,4.3-1.9,4.3-4.3c0-0.6-0.1-1.1-0.3-1.6h2.4V-9.6z M-49.3-16.1
		c0.5-0.7,1.3-1.2,2.3-1.2c0.9,0,1.7,0.5,2.3,1.2c0.3,0.5,0.5,1,0.5,1.6c0,1.5-1.2,2.8-2.8,2.8c-1.5,0-2.8-1.2-2.8-2.8
		C-49.8-15.1-49.6-15.6-49.3-16.1 M-41.3-20.5l0.3,0v0.3v2.3l-2.7,0l0-2.7L-41.3-20.5z M-42.2-22.4h-9.7c-1.7,0-3.1,1.4-3.1,3.1v3.2
		v6.5c0,1.7,1.4,3.1,3.1,3.1h9.7c1.7,0,3.1-1.4,3.1-3.1v-6.5v-3.2C-39.1-21-40.5-22.4-42.2-22.4"/>
</g>
</svg>
