<?xml version="1.0" encoding="utf-8"?>
<!-- Generator: Adobe Illustrator 18.1.0, SVG Export Plug-In . SVG Version: 6.00 Build 0)  -->
<!DOCTYPE svg PUBLIC "-//W3C//DTD SVG 1.1//EN" "http://www.w3.org/Graphics/SVG/1.1/DTD/svg11.dtd">
<svg version="1.1" id="Layer_1" xmlns="http://www.w3.org/2000/svg" xmlns:xlink="http://www.w3.org/1999/xlink" x="0px" y="0px"
	 viewBox="0 0 50 50" enable-background="new 0 0 50 50" xml:space="preserve">
<g>
	<path fill="#A0D9D9" d="M15,17.7v-3.6h3.3v3.6H15z M15,35.9V20.3h3.3v15.7H15z"/>
	<path fill="#A0D9D9" d="M35,35.9h-3.3v-8.8c0-1.5-0.2-2.6-0.7-3.2c-0.5-0.7-1.2-1-2.1-1c-0.5,0-1,0.1-1.5,0.3s-0.9,0.4-1.4,0.8
		c-0.4,0.3-0.8,0.7-1.1,1.2c-0.3,0.4-0.6,0.9-0.8,1.5v9.3h-3.3V20.3h3v3.1c0.6-1.1,1.5-1.9,2.6-2.5c1.1-0.6,2.4-0.9,3.8-0.9
		c0.9,0,1.7,0.2,2.3,0.5c0.6,0.3,1.1,0.8,1.4,1.4c0.3,0.6,0.6,1.3,0.7,2c0.1,0.8,0.2,1.6,0.2,2.4V35.9z"/>
</g>
<g>
	<path fill="#A0D9D9" d="M-85.4,37.8V26.4h-2.1v-2.5h2.1v-2.1c0-1.9,0.4-3.5,1.3-4.6c0.9-1.1,2.1-1.7,3.7-1.7c0.6,0,1.3,0.1,1.9,0.3
		c0.6,0.2,1.2,0.4,1.7,0.7l-0.7,2.5c-0.3-0.2-0.6-0.3-1-0.5c-0.4-0.1-0.8-0.2-1.2-0.2c-0.8,0-1.4,0.3-1.8,0.9
		c-0.4,0.6-0.6,1.4-0.6,2.5v2.2h4v2.5h-4v11.3H-85.4z"/>
</g>
</svg>
