<?xml version="1.0" encoding="utf-8"?>
<!-- Generator: Adobe Illustrator 18.1.0, SVG Export Plug-In . SVG Version: 6.00 Build 0)  -->
<!DOCTYPE svg PUBLIC "-//W3C//DTD SVG 1.1//EN" "http://www.w3.org/Graphics/SVG/1.1/DTD/svg11.dtd">
<svg version="1.1" id="Layer_1" xmlns="http://www.w3.org/2000/svg" xmlns:xlink="http://www.w3.org/1999/xlink" x="0px" y="0px"
	 viewBox="0 0 15.8 15.8" enable-background="new 0 0 15.8 15.8" xml:space="preserve">
<g>
	<defs>
		<rect id="SVGID_1_" x="0" y="0" width="15.8" height="15.8"/>
	</defs>
	<clipPath id="SVGID_2_">
		<use xlink:href="#SVGID_1_"  overflow="visible"/>
	</clipPath>
	<path clip-path="url(#SVGID_2_)" fill="#A0D9D9" d="M14.2,12.7c0,0.8-0.7,1.5-1.5,1.5H3.1c-0.8,0-1.5-0.7-1.5-1.5V6.3h2.4
		c-0.2,0.5-0.3,1-0.3,1.6c0,2.4,1.9,4.3,4.3,4.3s4.3-1.9,4.3-4.3c0-0.6-0.1-1.1-0.3-1.6h2.4V12.7z M5.6,6.3C6.1,5.6,7,5.1,7.9,5.1
		c0.9,0,1.7,0.5,2.3,1.2c0.3,0.5,0.5,1,0.5,1.6c0,1.5-1.2,2.8-2.8,2.8c-1.5,0-2.8-1.2-2.8-2.8C5.1,7.3,5.3,6.7,5.6,6.3 M13.6,1.8
		l0.3,0v0.3v2.3l-2.7,0l0-2.7L13.6,1.8z M12.7,0H3.1C1.4,0,0,1.4,0,3v3.2v6.5c0,1.7,1.4,3.1,3.1,3.1h9.7c1.7,0,3.1-1.4,3.1-3.1V6.3
		V3C15.8,1.4,14.4,0,12.7,0"/>
</g>
</svg>
