<?xml version="1.0" encoding="utf-8"?>
<!-- Generator: Adobe Illustrator 18.1.0, SVG Export Plug-In . SVG Version: 6.00 Build 0)  -->
<!DOCTYPE svg PUBLIC "-//W3C//DTD SVG 1.1//EN" "http://www.w3.org/Graphics/SVG/1.1/DTD/svg11.dtd">
<svg version="1.1" id="Layer_1" xmlns="http://www.w3.org/2000/svg" xmlns:xlink="http://www.w3.org/1999/xlink" x="0px" y="0px"
	 viewBox="0 0 23 26.2" enable-background="new 0 0 23 26.2" xml:space="preserve">
<g>
	<defs>
		<rect id="SVGID_1_" x="0" y="0" width="23" height="26.2"/>
	</defs>
	<clipPath id="SVGID_2_">
		<use xlink:href="#SVGID_1_"  overflow="visible"/>
	</clipPath>
	<path clip-path="url(#SVGID_2_)" fill="#086B92" d="M17.8,17.9c0,0.8-0.7,1.5-1.5,1.5H6.7c-0.8,0-1.5-0.7-1.5-1.5v-6.5h2.4
		c-0.2,0.5-0.3,1-0.3,1.6c0,2.4,1.9,4.3,4.3,4.3s4.3-1.9,4.3-4.3c0-0.6-0.1-1.1-0.3-1.6h2.4V17.9z M9.2,11.5
		c0.5-0.7,1.3-1.2,2.3-1.2c0.9,0,1.7,0.5,2.3,1.2c0.3,0.5,0.5,1,0.5,1.6c0,1.5-1.2,2.8-2.8,2.8c-1.5,0-2.8-1.2-2.8-2.8
		C8.7,12.5,8.9,11.9,9.2,11.5 M17.2,7l0.3,0v0.3v2.3l-2.7,0l0-2.7L17.2,7z M16.3,5.2H6.7C5,5.2,3.6,6.6,3.6,8.2v3.2v6.5
		C3.6,19.6,5,21,6.7,21h9.7c1.7,0,3.1-1.4,3.1-3.1v-6.5V8.2C19.4,6.6,18,5.2,16.3,5.2"/>
	
		<path clip-path="url(#SVGID_2_)" fill="none" stroke="#086B92" stroke-width="0.5" stroke-linecap="round" stroke-linejoin="round" stroke-miterlimit="10" d="
		M22.7,25.9v-1.8 M22.7,25.9h-2.3 M22.7,0.3h-2.3 M22.7,0.3v1.8 M0.3,0.3v1.8 M0.3,0.3h2.3 M0.3,25.9h2.3 M0.2,25.9v-1.8"/>
</g>
</svg>
