<?xml version="1.0" encoding="utf-8"?>
<!-- Generator: Adobe Illustrator 18.1.0, SVG Export Plug-In . SVG Version: 6.00 Build 0)  -->
<!DOCTYPE svg PUBLIC "-//W3C//DTD SVG 1.1//EN" "http://www.w3.org/Graphics/SVG/1.1/DTD/svg11.dtd">
<svg version="1.1" id="Layer_1" xmlns="http://www.w3.org/2000/svg" xmlns:xlink="http://www.w3.org/1999/xlink" x="0px" y="0px"
	 viewBox="0 0 23 26.2" enable-background="new 0 0 23 26.2" xml:space="preserve">
<g>
	<defs>
		<rect id="SVGID_1_" x="-0.1" y="0.1" width="23" height="26.2"/>
	</defs>
	<clipPath id="SVGID_2_">
		<use xlink:href="#SVGID_1_"  overflow="visible"/>
	</clipPath>
	
		<path clip-path="url(#SVGID_2_)" fill="none" stroke="#086B92" stroke-width="0.5" stroke-linecap="round" stroke-linejoin="round" stroke-miterlimit="10" d="
		M22.6,25.9v-1.8 M22.5,26h-2.3 M22.5,0.3h-2.3 M22.6,0.3v1.8 M0.1,0.4v1.8 M0.2,0.3h2.3 M0.2,26h2.3 M0.1,25.9v-1.8"/>
	<path clip-path="url(#SVGID_2_)" fill="#086B92" d="M19.7,7.5c-0.6,0.3-1.3,0.5-2,0.6c0.7-0.5,1.2-1.2,1.5-2
		C18.6,6.5,17.8,6.8,17,7c-0.6-0.7-1.5-1.2-2.5-1.2c-1.9,0-3.4,1.7-3.4,3.7c0,0.3,0,0.6,0.1,0.8c-2.8-0.1-5.3-1.6-7-3.9
		C3.9,7,3.7,7.7,3.7,8.3c0,1.3,0.6,2.4,1.5,3.1c-0.6,0-1.1-0.2-1.5-0.5V11c0,1.8,1.2,3.3,2.7,3.6c-0.3,0.1-0.6,0.1-0.9,0.1
		c-0.2,0-0.4,0-0.6-0.1c0.4,1.5,1.7,2.5,3.2,2.6c-1.2,1-2.6,1.6-4.2,1.6c-0.3,0-0.5,0-0.8-0.1c1.5,1.1,3.3,1.7,5.2,1.7
		c6.3,0,9.7-5.6,9.7-10.5c0-0.2,0-0.3,0-0.5C18.6,8.9,19.2,8.3,19.7,7.5"/>
</g>
</svg>
