<?xml version="1.0" encoding="utf-8"?>
<!-- Generator: Adobe Illustrator 18.1.0, SVG Export Plug-In . SVG Version: 6.00 Build 0)  -->
<!DOCTYPE svg PUBLIC "-//W3C//DTD SVG 1.1//EN" "http://www.w3.org/Graphics/SVG/1.1/DTD/svg11.dtd">
<svg version="1.1" id="Layer_1" xmlns="http://www.w3.org/2000/svg" xmlns:xlink="http://www.w3.org/1999/xlink" x="0px" y="0px"
	 viewBox="0 0 50 50" enable-background="new 0 0 50 50" xml:space="preserve">
<g>
	<path fill="#A0D9D9" d="M-73.6,20.6V17h3.3v3.6H-73.6z M-73.6,38.9V23.2h3.3v15.7H-73.6z"/>
	<path fill="#A0D9D9" d="M-53.5,38.9h-3.3v-8.8c0-1.5-0.2-2.6-0.7-3.2c-0.5-0.7-1.2-1-2.1-1c-0.5,0-1,0.1-1.5,0.3s-0.9,0.4-1.4,0.8
		c-0.4,0.3-0.8,0.7-1.1,1.2c-0.3,0.4-0.6,0.9-0.8,1.5v9.3h-3.3V23.2h3v3.1c0.6-1.1,1.5-1.9,2.6-2.5c1.1-0.6,2.4-0.9,3.8-0.9
		c0.9,0,1.7,0.2,2.3,0.5c0.6,0.3,1.1,0.8,1.4,1.4c0.3,0.6,0.6,1.3,0.7,2c0.1,0.8,0.2,1.6,0.2,2.4V38.9z"/>
</g>
<g>
	<path fill="#A0D9D9" d="M-85.4,37.8V26.4h-2.1v-2.5h2.1v-2.1c0-1.9,0.4-3.5,1.3-4.6c0.9-1.1,2.1-1.7,3.7-1.7c0.6,0,1.3,0.1,1.9,0.3
		c0.6,0.2,1.2,0.4,1.7,0.7l-0.7,2.5c-0.3-0.2-0.6-0.3-1-0.5c-0.4-0.1-0.8-0.2-1.2-0.2c-0.8,0-1.4,0.3-1.8,0.9
		c-0.4,0.6-0.6,1.4-0.6,2.5v2.2h4v2.5h-4v11.3H-85.4z"/>
</g>
<g>
	<defs>
		<rect id="SVGID_1_" x="14.1" y="14.1" width="21.9" height="21.9"/>
	</defs>
	<clipPath id="SVGID_2_">
		<use xlink:href="#SVGID_1_"  overflow="visible"/>
	</clipPath>
	<path clip-path="url(#SVGID_2_)" fill="#A0D9D9" d="M33.8,31.7c0,1.2-0.9,2.1-2.1,2.1H18.3c-1.2,0-2.1-0.9-2.1-2.1v-9h3.3
		C19.2,23.4,19,24.2,19,25c0,3.3,2.7,6,6,6s6-2.7,6-6c0-0.8-0.2-1.6-0.4-2.2h3.3V31.7z M21.9,22.8c0.7-1,1.8-1.6,3.1-1.6
		c1.3,0,2.4,0.6,3.1,1.6c0.5,0.6,0.7,1.4,0.7,2.2c0,2.1-1.7,3.9-3.9,3.9c-2.1,0-3.9-1.7-3.9-3.9C21.1,24.2,21.4,23.4,21.9,22.8
		 M32.9,16.6l0.5,0v0.5v3.2l-3.7,0l0-3.7L32.9,16.6z M31.7,14H18.3c-2.3,0-4.2,1.9-4.2,4.2v4.5v9c0,2.3,1.9,4.2,4.2,4.2h13.4
		c2.3,0,4.2-1.9,4.2-4.2v-9v-4.5C36,15.9,34.1,14,31.7,14"/>
</g>
</svg>
