<?xml version="1.0" encoding="utf-8"?>
<!-- Generator: Adobe Illustrator 18.1.0, SVG Export Plug-In . SVG Version: 6.00 Build 0)  -->
<!DOCTYPE svg PUBLIC "-//W3C//DTD SVG 1.1//EN" "http://www.w3.org/Graphics/SVG/1.1/DTD/svg11.dtd">
<svg version="1.1" id="Layer_1" xmlns="http://www.w3.org/2000/svg" xmlns:xlink="http://www.w3.org/1999/xlink" x="0px" y="0px"
	 viewBox="0 0 16.6 14.7" enable-background="new 0 0 16.6 14.7" xml:space="preserve">
<g>
	<defs>
		<rect id="SVGID_1_" x="0" y="0" width="16.6" height="14.7"/>
	</defs>
	<clipPath id="SVGID_2_">
		<use xlink:href="#SVGID_1_"  overflow="visible"/>
	</clipPath>
	<path clip-path="url(#SVGID_2_)" fill="#A0D9D9" d="M16.6,1.7c-0.6,0.3-1.3,0.5-2,0.6c0.7-0.5,1.2-1.2,1.5-2
		C15.5,0.7,14.8,1,14,1.2C13.4,0.5,12.5,0,11.5,0C9.6,0,8.1,1.7,8.1,3.7c0,0.3,0,0.6,0.1,0.8c-2.8-0.1-5.3-1.6-7-3.9
		C0.9,1.2,0.7,1.9,0.7,2.5c0,1.3,0.6,2.4,1.5,3.1c-0.6,0-1.1-0.2-1.5-0.5v0.1c0,1.8,1.2,3.3,2.7,3.6C3.1,8.9,2.8,9,2.5,9
		c-0.2,0-0.4,0-0.6-0.1c0.4,1.5,1.7,2.5,3.2,2.6c-1.2,1-2.6,1.6-4.2,1.6C0.5,13,0.3,13,0,13c1.5,1.1,3.3,1.7,5.2,1.7
		c6.3,0,9.7-5.6,9.7-10.5c0-0.2,0-0.3,0-0.5C15.6,3.1,16.2,2.5,16.6,1.7"/>
</g>
</svg>
